<svg width="24" height="24" viewBox="0 0 24 24" fill="none" xmlns="http://www.w3.org/2000/svg">
<path d="M9.04995 13.9981L6.91906 12.1949C6.16489 11.4884 5.02515 11.6056 4.40465 12.4532C3.88839 13.1586 3.88352 13.8931 4.40465 14.5941L8.98747 21.4437C9.00609 21.4716 9.03741 21.4882 9.07089 21.4881L17.1496 21.4635C18.7263 21.3221 19.871 20.3271 20.0113 18.614V13.1964C20.0113 12.6998 19.9567 12.1966 19.742 11.7488C19.2544 10.7316 18.4451 10.0794 17.1695 9.97141H12.5439V4.34836C12.5088 3.38476 11.8319 2.55892 10.8749 2.48535C9.92653 2.48535 9.04995 3.20195 9.04995 4.22417V13.9981Z" stroke="#141B34" stroke-width="1.5"/>
</svg>
