<svg width="24" height="24" viewBox="0 0 24 24" fill="none" xmlns="http://www.w3.org/2000/svg">
<path d="M14.9746 5C14.9746 3.58579 14.9746 2.87868 15.4862 2.43934C15.9977 2 16.8211 2 18.4679 2C20.1146 2 20.938 2 21.4495 2.43934C21.9611 2.87868 21.9611 3.58579 21.9611 5C21.9611 6.41421 21.9611 7.12132 21.4495 7.56066C20.938 8 20.1146 8 18.4679 8C16.8211 8 15.9977 8 15.4862 7.56066C14.9746 7.12132 14.9746 6.41421 14.9746 5Z" stroke="#141B34" stroke-width="1.5"/>
<path d="M14.9746 19C14.9746 17.5858 14.9746 16.8787 15.4862 16.4393C15.9977 16 16.8211 16 18.4679 16C20.1146 16 20.938 16 21.4495 16.4393C21.9611 16.8787 21.9611 17.5858 21.9611 19C21.9611 20.4142 21.9611 21.1213 21.4495 21.5607C20.938 22 20.1146 22 18.4679 22C16.8211 22 15.9977 22 15.4862 21.5607C14.9746 21.1213 14.9746 20.4142 14.9746 19Z" stroke="#141B34" stroke-width="1.5"/>
<path d="M8.5001 10.4821L5.48226 13.4944M8.5001 13.4944L5.48226 10.482" stroke="#141B34" stroke-width="1.5" stroke-linecap="round" stroke-linejoin="round"/>
<path d="M7.00422 17.0318C9.769 17.0318 11.9692 14.7714 11.9692 11.9936C11.9692 9.21583 9.72788 6.96399 6.9631 6.96399M7.00422 17.0318C4.23945 17.0318 1.95703 14.7714 1.95703 11.9936C1.95703 9.21583 4.19832 6.96399 6.9631 6.96399M7.00422 17.0318C6.93459 19.1617 8.49071 19.9392 9.59877 19.98H11.9692M6.9631 6.96399C6.89275 4.80392 8.47598 4.04432 9.59878 3.99658H11.9799" stroke="#141B34" stroke-width="1.5" stroke-linecap="round" stroke-linejoin="round"/>
</svg>
