<svg width="24" height="24" viewBox="0 0 24 24" fill="none" xmlns="http://www.w3.org/2000/svg">
<path d="M14.9648 5C14.9648 3.58579 14.9648 2.87868 15.476 2.43934C15.9871 2 16.8098 2 18.4552 2C20.1005 2 20.9233 2 21.4344 2.43934C21.9455 2.87868 21.9455 3.58579 21.9455 5C21.9455 6.41421 21.9455 7.12132 21.4344 7.56066C20.9233 8 20.1005 8 18.4552 8C16.8098 8 15.9871 8 15.476 7.56066C14.9648 7.12132 14.9648 6.41421 14.9648 5Z" stroke="#141B34" stroke-width="1.5"/>
<path d="M14.9648 19C14.9648 17.5858 14.9648 16.8787 15.476 16.4393C15.9871 16 16.8098 16 18.4552 16C20.1005 16 20.9233 16 21.4344 16.4393C21.9455 16.8787 21.9455 17.5858 21.9455 19C21.9455 20.4142 21.9455 21.1213 21.4344 21.5607C20.9233 22 20.1005 22 18.4552 22C16.8098 22 15.9871 22 15.476 21.5607C14.9648 21.1213 14.9648 20.4142 14.9648 19Z" stroke="#141B34" stroke-width="1.5"/>
<path d="M6.99836 17.0436C9.76849 17.0436 11.9729 14.7831 11.9729 12.0053C11.9729 9.22755 9.72728 6.97571 6.95716 6.97571M6.99836 17.0436C4.22824 17.0436 1.94141 14.7831 1.94141 12.0053C1.94141 9.22755 4.18704 6.97571 6.95716 6.97571M6.99836 17.0436C6.92859 19.1734 8.48773 19.951 9.59793 19.9917H11.9729M6.95716 6.97571C6.88667 4.81563 8.47296 4.05604 9.59794 4.0083H11.9837" stroke="#141B34" stroke-width="1.5" stroke-linecap="round" stroke-linejoin="round"/>
<path d="M8.6525 10.8794L6.5811 13.0466C6.503 13.1283 6.37289 13.1288 6.29417 13.0477L5.32227 12.0463" stroke="#141B34" stroke-width="1.5" stroke-linecap="round" stroke-linejoin="round"/>
</svg>
