<svg width="24" height="24" viewBox="0 0 24 24" fill="none" xmlns="http://www.w3.org/2000/svg">
<path d="M10.6036 2.52471C11.404 2.29971 13.2797 1.82471 13.7799 2.07471M13.7799 2.07471C14.3051 2.39971 14.4051 4.14971 14.5553 4.87471M13.7799 2.07471L3.82554 18.1747C3.82554 18.1747 3.3003 19.0247 3.60046 19.4997C3.82555 20.0247 5.12613 19.9997 5.12613 19.9997H20.5078M20.5078 19.9997C20.5078 19.3997 18.707 18.1997 18.5319 17.9997M20.5078 19.9997C20.5078 20.5997 19.0572 21.4497 18.5319 21.9997" stroke="#141B34" stroke-width="1.45" stroke-linecap="round"/>
<path d="M7.5 12.5C9.37582 12.825 10.8108 13.725 11.6612 15.05C12.6116 16.4 12.7273 18.275 12.152 19.8" stroke="#141B34" stroke-width="1.5" stroke-linecap="round" stroke-linejoin="round"/>
</svg>
