<svg width="24" height="24" viewBox="0 0 24 24" fill="none" xmlns="http://www.w3.org/2000/svg">
<path d="M13.5061 13.6013C12.905 13.7875 12.2654 13.888 11.602 13.888C9.12036 13.888 6.96846 12.4838 5.93046 10.4305C5.48592 9.55112 4.39999 9.19233 3.50496 9.62908C2.60993 10.0658 2.24474 11.1328 2.68928 12.0121C4.3146 15.2272 7.69305 17.4435 11.602 17.4435C12.8475 17.4435 14.0394 17.2186 15.138 16.8079" stroke="#141B34" stroke-width="1.5" stroke-linecap="round"/>
<path d="M18.2389 14.9501C20.0135 13.3865 21.2133 11.2053 21.4894 8.75026C21.5992 7.77436 20.8829 6.89583 19.8896 6.78801C18.8963 6.68019 18.0021 7.38391 17.8924 8.35981C17.756 9.57212 17.2649 10.6794 16.5234 11.5793" stroke="#141B34" stroke-width="1.5" stroke-linecap="round"/>
<path d="M11.5473 3.99976C12.2327 3.99976 12.8592 4.38021 13.1658 4.98249L19.4989 17.427C19.9458 18.3052 19.5835 19.373 18.6897 19.8121C17.7958 20.2512 16.7089 19.8953 16.262 19.0171L11.5473 9.75278L9.6037 13.5719C8.41018 13.1819 7.37371 12.4516 6.61386 11.4964L9.92887 4.98249C10.2354 4.38021 10.8619 3.99976 11.5473 3.99976Z" stroke="#141B34" stroke-width="1.5" stroke-linecap="round" stroke-linejoin="round"/>
<path d="M6.8326 19.0171C6.38568 19.8953 5.29878 20.2512 4.40494 19.8121C3.5111 19.373 3.1488 18.3052 3.59572 17.427L4.89047 14.8828C5.78379 15.686 6.82705 16.3313 7.97447 16.7733L6.8326 19.0171Z" stroke="#141B34" stroke-width="1.5" stroke-linecap="round" stroke-linejoin="round"/>
</svg>
