<svg width="24" height="24" viewBox="0 0 24 24" fill="none" xmlns="http://www.w3.org/2000/svg">
<path d="M17 10.5C17 10.5 18 13 18 16.25C18 17.4212 17.8701 18.4949 17.704 19.3894C17.4952 20.5137 17.3908 21.0758 16.835 21.5379C16.2792 22 15.6168 22 14.2919 22H9.70813C8.38323 22 7.72079 22 7.16499 21.5379C6.60919 21.0758 6.50478 20.5137 6.29598 19.3894C6.12986 18.4949 6 17.4212 6 16.25C6 13 7 10.5 7 10.5" stroke="#141B34" stroke-width="1.5" stroke-linecap="round" stroke-linejoin="round"/>
<path d="M6.99913 10.511H16.9991C17.147 9.69521 16.9203 8.12225 14.9597 7.50006C14.4944 7.35244 13.949 7.07638 13.7036 6.61185C13.4863 6.20054 13.3846 5.64364 13.7102 5.02551C14.3124 3.88271 13.7313 2.48063 12.4813 2.0873C12.325 2.03813 12.1622 2.00186 11.9991 2.00024C11.8251 1.99852 11.6507 2.0348 11.4839 2.0873C10.2338 2.48063 9.65276 3.88271 10.2549 5.02551C10.5806 5.64364 10.4789 6.20054 10.2616 6.61185C10.0237 7.06204 9.50576 7.46181 9.02273 7.61504C7.6696 8.04436 6.7376 9.06792 6.99913 10.511Z" stroke="#141B34" stroke-width="1.5" stroke-linecap="round" stroke-linejoin="round"/>
<path d="M15 14H17.5M15 18H17.5" stroke="#141B34" stroke-width="1.5" stroke-linecap="round" stroke-linejoin="round"/>
</svg>
