<svg width="24" height="24" viewBox="0 0 24 24" fill="none" xmlns="http://www.w3.org/2000/svg">
<path d="M6 19.9984C8.20914 19.9984 10 18.2109 10 16.006C10 13.8011 8.20914 12.0137 6 12.0137C3.79086 12.0137 2 13.8011 2 16.006C2 18.2109 3.79086 19.9984 6 19.9984Z" stroke="#141B34" stroke-width="1.5" stroke-linecap="round" stroke-linejoin="round"/>
<path d="M18 19.9984C20.2091 19.9984 22 18.2109 22 16.006C22 13.8011 20.2091 12.0137 18 12.0137C15.7909 12.0137 14 13.8011 14 16.006C14 18.2109 15.7909 19.9984 18 19.9984Z" stroke="#141B34" stroke-width="1.5" stroke-linecap="round" stroke-linejoin="round"/>
<path d="M6 16.0057H10.3706C10.7302 16.0057 11.0622 15.813 11.2399 15.5009L15.5 8.021" stroke="#141B34" stroke-width="1.5" stroke-linecap="round" stroke-linejoin="round"/>
<path d="M12 13.0115L7 7.02295M7 7.02295H5M7 7.02295H9" stroke="#141B34" stroke-width="1.5" stroke-linecap="round" stroke-linejoin="round"/>
<path d="M18.0541 15.9704L14.8066 4.03048C16.2574 3.95988 19.3595 3.83036 19.9918 6.20953" stroke="#141B34" stroke-width="1.5" stroke-linecap="round" stroke-linejoin="round"/>
</svg>
