<svg width="24" height="24" viewBox="0 0 24 24" fill="none" xmlns="http://www.w3.org/2000/svg">
<path d="M6.24612 2.03174H17.7148C18.3754 2.03177 19.4708 2.12942 19.8429 3.18402C20.0645 3.81182 19.9769 4.51629 20.2182 5.13674C20.4717 5.78839 20.8692 6.4182 21.2548 6.98574C21.6369 7.54823 22.0769 8.15513 21.9618 8.82556C21.8321 9.58152 21.2262 10.2931 20.4254 10.6712C18.786 11.4451 16.3613 10.9784 15.9758 8.17733C15.652 9.07199 14.6603 10.9784 11.9411 10.9784C9.22192 10.9784 8.30893 9.07199 7.98519 8.17733C7.59968 10.9784 5.17495 11.4451 3.53558 10.6712C2.73478 10.2931 2.12888 9.58152 1.99911 8.82556C1.88403 8.15513 2.32404 7.54823 2.70615 6.98574C3.09169 6.4182 3.48925 5.78839 3.7427 5.13674C3.98401 4.51629 3.89645 3.81182 4.11799 3.18402C4.49014 2.12942 5.58553 2.03177 6.24612 2.03174Z" stroke="#141B34" stroke-width="1.5" stroke-linecap="round" stroke-linejoin="round"/>
<path d="M16.9437 20.6963V15.3545M18.5068 15.3545V14.019M18.5068 22.0318V20.6963M16.9437 18.0254H20.0699M20.0699 18.0254C20.5879 18.0254 21.0078 18.4738 21.0078 19.027V19.6947C21.0078 20.2479 20.5879 20.6963 20.0699 20.6963H16.0059M20.0699 18.0254C20.5879 18.0254 21.0078 17.577 21.0078 17.0238V16.3561C21.0078 15.8029 20.5879 15.3545 20.0699 15.3545H16.0059" stroke="#141B34" stroke-width="1.5" stroke-linecap="round" stroke-linejoin="round"/>
<path d="M3 10.5134V15.0206C3 17.8535 3 19.2699 3.87902 20.15C4.75803 21.0301 6.17278 21.0301 9.00229 21.0301H13.0038" stroke="#141B34" stroke-width="1.5" stroke-linecap="round"/>
</svg>
