<svg width="24" height="24" viewBox="0 0 24 24" fill="none" xmlns="http://www.w3.org/2000/svg">
<path d="M11 8.99976C7.41015 8.99976 4.5 11.9099 4.5 15.4998C4.5 19.0896 7.41015 21.9998 11 21.9998C14.5898 21.9998 17.5 19.0896 17.5 15.4998C17.5 11.9099 14.5898 8.99976 11 8.99976Z" stroke="#141B34" stroke-width="1.5" stroke-linecap="round" stroke-linejoin="round"/>
<path d="M20 8.5L15.4116 4.29397C14.7437 3.68176 14.4098 3.37565 14.0084 3.38437C13.6069 3.3931 13.2866 3.71342 12.6459 4.35406L11.6803 5.31973C11.116 5.88402 10.8338 6.16617 10.4728 6.19872C10.1118 6.23127 9.78377 6.00415 9.12764 5.5499L4 2M20 8.5H16.5M20 8.5V5.5" stroke="#141B34" stroke-width="1.5" stroke-linecap="round" stroke-linejoin="round"/>
<path d="M9.4375 18.1664L9.4375 12.8331M11 12.8331V11.4998M11 19.4998V18.1664M9.4375 15.4998H12.5625M12.5625 15.4998C13.0803 15.4998 13.5 15.9475 13.5 16.4998V17.1664C13.5 17.7187 13.0803 18.1664 12.5625 18.1664H8.5M12.5625 15.4998C13.0803 15.4998 13.5 15.052 13.5 14.4998V13.8331C13.5 13.2808 13.0803 12.8331 12.5625 12.8331H8.5" stroke="#141B34" stroke-width="1.5" stroke-linecap="round" stroke-linejoin="round"/>
</svg>
