<svg width="24" height="24" viewBox="0 0 24 24" fill="none" xmlns="http://www.w3.org/2000/svg">
<path d="M12.0037 14.0131V12.3719M12.0037 14.0131C10.3375 14.0131 8.67133 13.8308 7.00515 13.4663M12.0037 14.0131C13.6703 14.0131 15.337 13.831 17.0037 13.4663M7.00515 13.4663C5.73026 13.1873 4.45538 12.8016 3.18049 12.3092C2.67093 12.1124 2.41615 12.014 2.24133 11.7886C1.95127 11.4147 2.00369 10.8939 2.00369 10.4484C2.00369 9.21548 2.00369 7.59781 2.30449 7.27586C2.87395 6.66637 3.96104 7.22737 4.59332 7.43248C9.53357 9.03505 14.4738 9.03505 19.4141 7.43248C20.0463 7.22737 21.1334 6.66637 21.7029 7.27586C22.0037 7.59781 22.0037 9.21548 22.0037 10.4484C22.0037 11.0669 22.0037 11.376 21.8677 11.6314C21.6587 12.0239 21.2173 12.1584 20.8269 12.3092C19.5525 12.8014 18.2781 13.1873 17.0037 13.4663M7.00515 13.4663L7.00369 11.8246M17.0037 13.4663V11.8246" stroke="#141B34" stroke-width="1.5" stroke-linecap="round" stroke-linejoin="round"/>
<path d="M19.0039 19.019C14.3372 20.3552 9.67058 20.3552 5.00391 19.019" stroke="#141B34" stroke-width="1.5" stroke-linecap="round" stroke-linejoin="round"/>
<path d="M19.193 3.00732C18.6161 4.31865 18.0859 6.56666 18.0859 7.597M4.81739 3.00732C5.39433 4.31865 5.92448 6.56666 5.92448 7.597M5.40108 15.52C4.96225 16.9008 3.80246 19.6311 4.00621 21.0119M18.6162 15.52C19.055 16.9008 20.2148 19.6311 20.0111 21.0119" stroke="#141B34" stroke-width="1.5" stroke-linecap="round" stroke-linejoin="round"/>
</svg>
