<svg width="24" height="24" viewBox="0 0 24 24" fill="none" xmlns="http://www.w3.org/2000/svg">
<path d="M2.01798 20.3002C3.14662 21.9148 8.05948 23.1822 10.3797 20.1596C12.8895 21.3601 17.029 20.9879 20.3992 19.1086C20.8679 18.8472 21.3112 18.5174 21.5828 18.0544C22.1957 17.0094 22.2103 15.5595 21.092 13.4202C19.2274 8.76584 15.8741 4.68025 14.5201 3.03724C14.2422 2.78377 12.4687 2.4238 11.3872 2.0779C10.9095 1.92988 10.02 1.83176 8.95619 3.23374C8.45182 3.89841 6.16065 5.53082 9.06773 6.62858C9.51811 6.74318 9.84918 6.9545 11.9039 6.57916C12.1715 6.53272 12.8396 6.57916 13.3103 7.40553L14.2936 8.81173C14.3852 8.94264 14.4445 9.09325 14.4628 9.25194C14.635 10.7508 14.6294 12.6275 15.4652 13.5777C14.1744 12.6443 10.8012 11.5357 8.25956 14.6902M2.00195 12.9351C3.21016 11.7861 6.71203 9.97104 10.4179 12.5167" stroke="#141B34" stroke-width="1.5" stroke-linecap="round" stroke-linejoin="round"/>
</svg>
