<svg width="24" height="24" viewBox="0 0 24 24" fill="none" xmlns="http://www.w3.org/2000/svg">
<path d="M5.97769 11.2609C5.89068 13.9834 9.09877 17.3391 12.1067 18.394M5.97769 11.2609C5.67314 11.7837 2.56233 14.2775 2.50795 15.3338C2.24438 17.4316 5.80843 21.3726 8.55646 21.5071C9.58268 21.6528 11.0061 19.9258 12.449 18.6429C13.2437 17.9362 14.3891 17.7727 18.9734 16.6351C20.637 16.3459 22.6357 13.4763 19.6728 11.0439M5.97769 11.2609C6.90592 9.05977 8.5106 4.80447 11.6576 3.12405C12.9357 2.39792 16.255 1.72935 19.5076 4.82154C20.6267 5.76264 22.5663 7.82411 20.7609 10.1993C19.5572 11.602 17.7372 11.1959 17.5604 13.6221" stroke="#141B34" stroke-width="1.5" stroke-linecap="round" stroke-linejoin="round"/>
</svg>
