<svg width="24" height="24" viewBox="0 0 24 24" fill="none" xmlns="http://www.w3.org/2000/svg">
<path d="M2 14.0001L2 13.5C2.00001 10.2002 2.00001 8.55025 3.02514 7.52512C4.05027 6.5 5.70018 6.5 9 6.5H15.0012C18.3005 6.5 19.9502 6.5 20.9753 7.52492C22.0004 8.54984 22.0006 10.1995 22.0012 13.4988L22.0013 13.9991C22.0018 17.2995 22.0021 18.9497 20.9769 19.9751C19.9517 21.0004 18.3015 21.0004 15.0011 21.0003L8.99984 21.0002C5.70007 21.0001 4.05018 21 3.02509 19.9749C1.99999 18.9498 1.99999 17.2999 2 14.0001Z" stroke="#141B34" stroke-width="1.5" stroke-linecap="round" stroke-linejoin="round"/>
<path d="M8.5 6.5C8.5 5.09554 8.5 4.39331 8.83706 3.88886C8.98298 3.67048 9.17048 3.48298 9.38886 3.33706C9.89331 3 10.5955 3 12 3C13.4045 3 14.1067 3 14.6111 3.33706C14.8295 3.48298 15.017 3.67048 15.1629 3.88886C15.5 4.39331 15.5 5.09554 15.5 6.5" stroke="#141B34" stroke-width="1.5" stroke-linecap="round" stroke-linejoin="round"/>
<path d="M6 10.5H18" stroke="#141B34" stroke-width="1.5" stroke-linecap="round" stroke-linejoin="round"/>
</svg>
