<svg width="24" height="24" viewBox="0 0 24 24" fill="none" xmlns="http://www.w3.org/2000/svg">
<path d="M2 12C2 17.5228 6.47715 22 12 22C17.5228 22 22 17.5228 22 12C22 6.47715 17.5228 2 12 2C7.89936 2 4.3752 4.46819 2.83209 8M2 4.5L2.5 8.5L6.5 7.5" stroke="#141B34" stroke-width="1.5" stroke-linecap="round" stroke-linejoin="round"/>
<path d="M14.7266 10.0611C14.6277 9.29844 13.7536 8.06622 12.1821 8.06619C10.3559 8.06616 9.58758 9.07946 9.43166 9.58611C9.18843 10.2638 9.23708 11.6571 11.3775 11.809C14.0531 11.999 15.1249 12.3154 14.9885 13.956C14.8522 15.5965 13.3607 15.951 12.1821 15.9129C11.0033 15.875 9.07484 15.3325 9 13.8733M11.995 6.5V8.06982M11.995 15.9031V17.5" stroke="#141B34" stroke-width="1.5" stroke-linecap="round"/>
</svg>
