<svg width="24" height="24" viewBox="0 0 24 24" fill="none" xmlns="http://www.w3.org/2000/svg">
<path d="M3 22V10.2014C3 10.0655 3.13111 9.96866 3.25997 10.0094L6.35997 10.9896C6.4433 11.0159 6.5 11.0937 6.5 11.1816V22" stroke="#141B34" stroke-width="1.5" stroke-linecap="round" stroke-linejoin="round"/>
<path d="M21 21.9998V10.2011C21 10.0652 20.8689 9.96841 20.74 10.0092L17.64 10.9894C17.5567 11.0157 17.5 11.0934 17.5 11.1813V21.9998" stroke="#141B34" stroke-width="1.5" stroke-linecap="round" stroke-linejoin="round"/>
<path d="M9 22V8H15V22" stroke="#141B34" stroke-width="1.5" stroke-linecap="round" stroke-linejoin="round"/>
<path d="M2 22L22 22" stroke="#141B34" stroke-width="1.5" stroke-linecap="round" stroke-linejoin="round"/>
<path d="M9 8L7.17245 3.31623C6.79764 2.25381 6.99125 2 8.17652 2H15.8235C17.0087 2 17.2024 2.25381 16.8275 3.31623L15 8" stroke="#141B34" stroke-width="1.5" stroke-linecap="round" stroke-linejoin="round"/>
</svg>
