<svg width="24" height="24" viewBox="0 0 24 24" fill="none" xmlns="http://www.w3.org/2000/svg">
<path d="M4.4929 19.4651C7.00533 21.8579 9.99632 20.9008 11.1927 19.9317C11.8117 19.4303 12.09 19.1062 12.3293 18.8669C13.1668 18.0893 13.1129 17.3116 12.5686 16.6895C12.3507 16.4405 10.9534 15.0983 9.61347 13.7224C8.91956 13.0284 8.44101 12.538 8.03184 12.1432C7.48389 11.597 7.00533 10.9707 6.28749 10.9887C5.62948 10.9887 5.15092 11.5689 4.55272 12.1671C3.86456 12.8553 3.35632 13.7224 3.17686 14.5001C2.63849 16.7732 3.47596 18.3884 4.4929 19.4651ZM4.4929 19.4651L1.98047 21.9775" stroke="#141B34" stroke-width="1.5" stroke-linecap="round"/>
<path d="M19.4676 4.49409C16.9545 2.10015 13.9738 3.0753 12.7771 4.04485C12.1579 4.54649 11.8795 4.87075 11.6402 5.11015C10.8025 5.88818 10.8563 6.6662 11.4008 7.28863C11.4792 7.37818 11.71 7.60912 12.0359 7.93218M19.4676 4.49409C20.4848 5.57136 21.3336 7.20484 20.7951 9.47908C20.6156 10.2571 20.1072 11.1247 19.4189 11.8132C18.8205 12.4117 18.3418 12.9922 17.6836 12.9922C16.9656 13.0101 16.5929 12.4909 16.0449 11.9445M19.4676 4.49409L21.9807 1.98047M16.0449 11.9445C15.6356 11.5495 15.0508 10.9515 14.3567 10.2571C13.4983 9.37549 12.6163 8.50768 12.0359 7.93218M16.0449 11.9445L14.4832 13.469M10.4922 9.48546L12.0359 7.93218" stroke="#141B34" stroke-width="1.5" stroke-linecap="round"/>
</svg>
