<svg width="24" height="24" viewBox="0 0 24 24" fill="none" xmlns="http://www.w3.org/2000/svg">
<path d="M3.50243 10.431C3.0468 10.8921 2.72418 11.7621 2.17226 13.7615C2.05551 14.1845 1.96997 14.6218 2.00999 15.0584C2.06937 15.7065 2.29 16.1076 2.73064 16.4392C3.1981 16.791 3.80685 16.8786 4.39418 16.8786H5.91334C6.96119 16.8786 8.0601 16.6711 8.76128 15.9006C9.55959 15.0234 9.76664 14.0495 9.51741 13.4068M10.0187 3.48735L13.3684 2.16157C14.393 1.75605 15.6242 1.87377 16.3709 2.67766C16.7332 3.06773 16.9647 3.46446 17.0361 3.98333V6.04613C17.0361 7.25031 16.5154 8.43961 15.4723 9.05986C14.8738 9.41572 14.2952 9.66534 13.5274 9.935M4.00368 7.9511C5.21009 5.80139 6.07926 4.92066 8.01367 3.98333C8.45538 3.74545 8.82393 3.60897 9.17254 3.58512C10.5653 3.48984 11.314 5.13132 11.881 6.39362L12.8886 8.6368C12.98 8.84032 13.0508 9.05298 13.0852 9.27307C13.2417 10.2713 13.0878 10.7718 12.5249 11.4229L11.6078 12.3304C11.2181 12.716 10.8018 13.1041 10.2756 13.2662C10.1269 13.312 9.98471 13.3374 9.84343 13.3429C8.9063 13.3796 8.02648 12.8749 7.14189 12.5666C6.00926 12.1718 5.17181 11.5358 4.00368 10.431C3.38161 9.44651 3.41141 8.90243 4.00368 7.9511Z" stroke="#141B34" stroke-width="1.5" stroke-linecap="round" stroke-linejoin="round"/>
<path d="M17.0362 7.47891C18.2135 7.6837 18.8746 7.80194 20.0437 7.97704C20.5016 8.044 20.8441 7.98232 21.2282 7.72454C21.8232 7.32524 22.1538 6.56397 21.922 5.88872C21.6943 5.22537 21.1411 4.6975 20.0437 3.99196C18.8908 3.19109 18.2325 2.85757 17.0362 2.49756M2.5 16.9435C2.59382 18.3309 3.07822 19.2158 4.50499 20.9285C5.15089 21.5896 5.62212 21.8617 6.24692 21.9271C6.73701 21.9785 7.21365 21.7404 7.52081 21.3575C7.89837 20.8867 8.05176 20.5005 8.01373 19.9323L7.51249 16.9435" stroke="#141B34" stroke-width="1.5" stroke-linecap="round" stroke-linejoin="round"/>
</svg>
