<svg width="24" height="24" viewBox="0 0 24 24" fill="none" xmlns="http://www.w3.org/2000/svg">
<path d="M20.7245 6.16605C19.5968 6.16605 18.9532 6.95211 18.9532 6.95211C18.7378 5.92867 18.0944 5.62789 17.3602 5.287C16.8959 5.07144 16.7014 4.59095 16.6381 4.24379C16.614 4.11158 16.5049 4.00317 16.3705 4.00317C16.2364 4.00317 16.1087 4.0593 16.0439 4.17671C15.9054 4.42757 15.6906 4.9763 15.6714 5.9872C15.6429 7.48971 16.8819 8.64864 17.505 9.04029C17.4409 9.41057 17.2154 9.98252 17.1106 10.2222C16.7956 10.1097 15.937 9.74742 15.2396 8.98772C14.2828 7.94545 13.5021 7.20693 12.4848 6.48459C11.4675 5.76225 12.1477 4.90163 12.5751 4.69697C13.0024 4.49231 12.6774 4.28205 11.6119 4.31817C10.7596 4.34706 9.54547 4.84817 9.04497 5.09512C8.53463 4.93301 7.47382 4.90074 7.00721 4.90487C2.4247 4.90487 1 8.98023 1 11.0006C1 17.0869 5.87318 20.0006 9.37318 20.0006C13.3318 20.0006 14.7188 18.3866 14.7188 18.3866C14.882 18.4883 15.4781 18.7033 16.5568 18.7491C17.9052 18.8063 18.4076 18.4247 18.4458 18.1322C18.4839 17.8396 18.2677 17.7315 18.0769 17.6424C17.8861 17.5534 17.5872 17.3817 17.0211 17.1972C16.5683 17.0497 16.3646 16.8891 16.3193 16.8272C19.0495 14.3554 19.5497 10.8922 19.4724 9.42039C21.5842 9.33833 22.4158 7.93226 22.6894 7.22101C22.969 6.49391 23.1435 5.50422 22.8535 5.2799C22.6215 5.10045 22.4275 5.31658 22.3595 5.44708C21.9879 5.84353 21.7153 6.16605 20.7245 6.16605Z" stroke="#141B34" stroke-width="1.5" stroke-linecap="round" stroke-linejoin="round"/>
<path d="M12 10.5688C12 10.5688 12.876 10.2987 13.6448 10.8234C14.6864 11.5342 15 12.4993 15 12.4993" stroke="#141B34" stroke-width="1.5" stroke-linecap="round" stroke-linejoin="round"/>
<path d="M13.4998 16.4991C13.4998 16.4991 12.4586 15.9922 10.8956 13.9608C9.01748 11.5199 7.24858 8.88589 3.5293 9.74717C3.5293 9.74717 3.5 14.9983 8.49986 16.4991" stroke="#141B34" stroke-width="1.5" stroke-linecap="round" stroke-linejoin="round"/>
</svg>
