<svg width="24" height="24" viewBox="0 0 24 24" fill="none" xmlns="http://www.w3.org/2000/svg">
<path d="M21.5223 13.0526V13.2264M21.5223 13.2264C21.5223 12.3517 20.8789 11.6051 20.0011 11.4613L18.7916 11.2632V12.1579M21.5223 13.2264V15.4386C21.5223 17.3832 21.5223 18.3555 21.2209 19.1296C20.7602 20.3132 19.8117 21.2485 18.6113 21.7029C17.8264 22 16.8404 22 14.8683 22C13.8342 22 13.317 22 12.8359 21.8957C12.1017 21.7366 11.419 21.4 10.8494 20.9163C10.4761 20.5992 10.1658 20.1913 9.54524 19.3755L6.81099 15.7805C6.39086 15.2281 6.40294 14.4654 6.84037 13.9262C7.41204 13.2215 8.47793 13.1633 9.12502 13.8014L10.5088 15.2557V6.5C10.5088 5.67157 11.1812 5 12.0106 5C12.8401 5 13.5125 5.67157 13.5125 6.5V9.4737M18.7916 12.1579C18.7916 11.1696 17.9767 10.3684 16.9712 10.3684H16.0611V11.2632M18.7916 12.1579V13.0526M13.5125 9.4737H14.2407C15.246 9.4737 16.0611 10.2749 16.0611 11.2632M13.5125 9.4737V12.1579M16.0611 11.2632V12.1579" stroke="#141B34" stroke-width="1.5" stroke-linecap="round" stroke-linejoin="round"/>
<path d="M10.5103 9.5C9.27905 8.81764 8.50781 7.50601 8.50781 6C8.50781 3.79086 10.3009 2 12.5127 2C14.7245 2 16.5176 3.79086 16.5176 6C16.5176 7.50601 15.6843 8.81764 14.4531 9.5" stroke="#141B34" stroke-width="1.5" stroke-linecap="round"/>
<path d="M7.90774 6.02289H2.52734M2.52734 6.02289C2.52734 6.50098 3.04222 6.71721 3.36442 7.01159L4.54601 8.01018M2.52734 6.02289C2.52734 5.51181 3.05032 5.29883 3.36442 5.00162L4.54601 3.99023" stroke="#141B34" stroke-width="1.5" stroke-linecap="round" stroke-linejoin="round"/>
</svg>
