<svg width="24" height="24" viewBox="0 0 24 24" fill="none" xmlns="http://www.w3.org/2000/svg">
<path d="M12.5229 9.72218H13.4602C14.4956 9.72218 15.3351 10.5679 15.3351 11.6111M15.3351 11.6111V12.5555M15.3351 11.6111C15.3351 11.0895 15.7547 10.6666 16.2724 10.6666C17.3078 10.6666 18.1472 11.5123 18.1472 12.5555M18.1472 12.5555V13.4999M18.1472 12.5555C18.1472 12.0611 18.5877 11.685 19.0718 11.7663L19.3927 11.8202C20.2967 11.972 20.9593 12.76 20.9593 13.6834L20.9589 14.1297C20.9589 16.1823 20.9589 17.2086 20.6486 18.0257C20.4685 18.4996 19.9937 19.1041 19.614 19.5409C19.2855 19.9187 19.0842 20.3979 19.0842 20.9001V22M12.5227 11.6111V6.41665C12.5227 5.63426 11.8932 5 11.1166 5C10.3401 5 9.71058 5.63426 9.71058 6.41665L9.71039 13.9367L8.19155 12.4016C7.52515 11.728 6.42743 11.7895 5.83869 12.5333C5.38821 13.1024 5.37577 13.9075 5.80844 14.4906L9.18271 18.8333C9.8283 19.6641 10.1791 20.9448 10.1791 22" stroke="#141B34" stroke-width="1.5" stroke-linecap="round" stroke-linejoin="round"/>
<path d="M12.9156 9.5C14.1427 8.81764 14.9733 7.50601 14.9733 6C14.9733 3.79086 13.1862 2 10.9817 2C8.77729 2 6.99023 3.79086 6.99023 6C6.99023 7.50601 7.82076 8.81764 9.04786 9.5" stroke="#141B34" stroke-width="1.5" stroke-linecap="round"/>
<path d="M6.76139 6.02289H1.95508M1.95508 6.02289C1.95508 6.49301 2.46824 6.71721 2.78935 7.01159L3.96699 8.01018M1.95508 6.02289C1.95508 5.55277 2.47631 5.29883 2.78935 5.00162L3.96699 3.99023" stroke="#141B34" stroke-width="1.5" stroke-linecap="round" stroke-linejoin="round"/>
</svg>
