<svg width="24" height="24" viewBox="0 0 24 24" fill="none" xmlns="http://www.w3.org/2000/svg">
<path d="M3 12C3 7.75736 3 5.63604 4.31802 4.31802C5.63604 3 7.75736 3 12 3C16.2426 3 18.364 3 19.682 4.31802C21 5.63604 21 7.75736 21 12C21 16.2426 21 18.364 19.682 19.682C18.364 21 16.2426 21 12 21C7.75736 21 5.63604 21 4.31802 19.682C3 18.364 3 16.2426 3 12Z" stroke="#141B34" stroke-width="1.5" stroke-linejoin="round"/>
<path d="M12 16.5C12 16.5 7 13.3235 7 10.25C7 8.73122 8.05263 7.5 9.5 7.5C10.25 7.5 11 7.76471 12 8.82353C13 7.76471 13.75 7.5 14.5 7.5C15.9474 7.5 17 8.73122 17 10.25C17 13.3235 12 16.5 12 16.5Z" stroke="#141B34" stroke-width="1.5" stroke-linejoin="round"/>
</svg>
