<svg width="24" height="24" viewBox="0 0 24 24" fill="none" xmlns="http://www.w3.org/2000/svg">
<path d="M4 10.9999L4 14.5441C4 17.7891 4 19.4116 4.88607 20.5106C5.06508 20.7326 5.26731 20.9349 5.48933 21.1139C6.58831 21.9999 8.21082 21.9999 11.4558 21.9999C12.1614 21.9999 12.5141 21.9999 12.8372 21.8859C12.9044 21.8622 12.9702 21.8349 13.0345 21.8042C13.3436 21.6564 13.593 21.4069 14.0919 20.9081L18.8284 16.1715C19.4065 15.5935 19.6955 15.3044 19.8478 14.9369C20 14.5693 20 14.1606 20 13.3431V9.99994C20 6.22871 20 4.34309 18.8284 3.17152C17.7693 2.11236 16.1265 2.01073 13.0345 2.00098M13 21.4999V20.9999C13 18.1715 13 16.7573 13.8787 15.8786C14.7574 14.9999 16.1716 14.9999 19 14.9999H19.5" stroke="#141B34" stroke-width="1.5" stroke-linecap="round" stroke-linejoin="round"/>
<path d="M9.97487 7.97487C10.6082 7.3415 11 6.4665 11 5.5C11 3.567 9.433 2 7.5 2C6.5335 2 5.6585 2.39175 5.02513 3.02513M9.97487 7.97487C9.3415 8.60825 8.4665 9 7.5 9C5.567 9 4 7.433 4 5.5C4 4.5335 4.39175 3.6585 5.02513 3.02513M9.97487 7.97487L5.02513 3.02513" stroke="#141B34" stroke-width="1.5" stroke-linecap="round" stroke-linejoin="round"/>
</svg>
