<svg width="24" height="24" viewBox="0 0 24 24" fill="none" xmlns="http://www.w3.org/2000/svg">
<path d="M6.04798 10.0365C5.76996 7.83576 6.47266 7.75992 6.82018 8.03115C12.6845 11.4974 15.8324 11.3237 17.174 11.7178C18.2473 12.033 17.9599 12.9612 17.6109 13.3224L12.1409 19.8027C11.2346 20.8764 10.0406 22.5984 8.8632 21.8316C8.35942 21.5035 8.07542 20.8001 7.98056 20.2562C7.42711 17.7636 6.32601 12.2373 6.04798 10.0365Z" stroke="#141B34" stroke-width="1.5" stroke-linecap="round" stroke-linejoin="round"/>
<path d="M16.5046 11.5834L18.9208 7.70438C19.1925 7.03767 18.5885 5.977 16.5046 6.61341L13.9678 10.5834M16.2753 6.7294V5.33845C16.2753 4.97934 16.2045 4.60854 15.9799 4.32892C15.6298 3.89292 15.0391 3.6289 13.7422 4.78987M13.5721 10.3345V3.23501C13.239 2.68684 12.3729 1.69478 11.5735 2.11193C10.774 2.52907 10.854 3.23501 10.854 3.55589V4.8153M10.854 4.8153V7.00537M10.854 4.8153C10.437 4.36418 9.23106 3.55589 8.51018 4.18529C7.89921 4.71873 8.1614 7.00537 8.1614 8.33866" stroke="#141B34" stroke-width="1.5" stroke-linecap="round" stroke-linejoin="round"/>
<path d="M7.95112 18.0436C9.34419 18.0436 10.4735 16.9104 10.4735 15.5125C10.4735 14.1146 9.34419 12.9814 7.95112 12.9814C7.51785 12.9814 7.1101 13.0911 6.75391 13.2842" stroke="#141B34" stroke-width="1.5" stroke-linecap="round"/>
</svg>
