<svg width="24" height="24" viewBox="0 0 24 24" fill="none" xmlns="http://www.w3.org/2000/svg">
<path d="M2.34209 19.8156C4.06053 18.5763 4.98575 15.6198 5.4604 13.3476C5.59803 12.6888 5.65664 11.3535 6.41351 11.05C6.84624 10.8764 7.41395 11.1662 8.54935 11.7457C9.42191 12.1911 9.85819 12.4138 9.97088 12.8837C10.2411 14.0101 8.4191 14.4446 8.85203 15.5942C9.3353 16.8775 9.0071 17.2525 8.06816 18.0939C7.35009 18.7374 8.28388 19.5511 7.86825 20.2587C6.83365 22.0202 5.19899 22.5446 3.03619 21.3715C2.46319 21.0606 1.47447 20.4413 2.34209 19.8156Z" stroke="#141B34" stroke-width="1.5" stroke-linejoin="round"/>
<path d="M21.6581 19.8156C19.9397 18.5763 19.0145 15.6198 18.5398 13.3476C18.4022 12.6888 18.3436 11.3535 17.5867 11.05C17.154 10.8764 16.5863 11.1662 15.4508 11.7457C14.5783 12.1911 14.142 12.4138 14.0293 12.8837C13.7603 14.0051 15.5773 14.4546 15.1482 15.5942C14.6649 16.8775 14.9931 17.2525 15.932 18.0939C16.6501 18.7374 15.7163 19.5511 16.132 20.2587C17.1666 22.0202 18.8012 22.5446 20.964 21.3715C21.537 21.0606 22.5257 20.4413 21.6581 19.8156Z" stroke="#141B34" stroke-width="1.5" stroke-linejoin="round"/>
<path d="M14.5 4.5C14.5 5.88071 13.3807 7 12 7C10.6193 7 9.5 5.88071 9.5 4.5C9.5 3.11929 10.6193 2 12 2C13.3807 2 14.5 3.11929 14.5 4.5Z" stroke="#141B34" stroke-width="1.5"/>
<path d="M8.5 11.5L9.25 8.75" stroke="#141B34" stroke-width="1.5" stroke-linecap="round"/>
<path d="M14.0371 6.21191L15.5485 11.64" stroke="#141B34" stroke-width="1.5" stroke-linecap="round" stroke-linejoin="round"/>
</svg>
