<svg width="25" height="25" viewBox="0 0 25 25" fill="none" xmlns="http://www.w3.org/2000/svg">
<path d="M22.0664 9.04509L20.023 9.04503L14.1683 4.59129C14.0492 4.50066 13.9178 4.427 13.7833 4.36134C13.6376 4.29029 13.4864 4.22971 13.3273 4.1988C13.256 4.18494 13.2147 4.18487 13.0421 4.18458L13.0405 4.18458C12.7795 4.18413 12.5616 4.208 12.2888 4.32961C12.1533 4.39006 11.9869 4.52235 11.8917 4.59522C11.5121 4.88579 11.3041 5.38579 11.2885 5.89962C11.273 6.41037 11.5207 6.76991 11.8925 7.11901C12.6239 7.80564 13.2566 8.37391 14.0908 9.19176L4.14203 9.19146C3.61275 9.18974 2.98586 9.29027 2.63766 9.6565C1.88012 10.5177 1.87445 11.2954 2.62998 12.2056C2.97858 12.5885 3.52551 12.6755 4.06849 12.6773L9.60256 12.6774C9.43593 15.2649 10.4452 17.9258 11.7319 19.2167C12.6036 20.2022 13.5036 20.3046 14.9577 20.0864C16.637 19.7883 17.6521 19.2362 20.0098 18.0839L22.0138 18.084" stroke="#141B34" stroke-width="1.5"/>
</svg>
