<svg width="24" height="24" viewBox="0 0 24 24" fill="none" xmlns="http://www.w3.org/2000/svg">
<path d="M11.9929 14V3M11.9929 14C10.3346 14 8.99023 15.4354 8.99023 16.625C8.99023 18.375 10.3346 21 11.9929 21C13.6512 21 14.9956 18.375 14.9956 16.625C14.9956 15.4354 13.6512 14 11.9929 14Z" stroke="#141B34" stroke-width="1.5" stroke-linecap="round"/>
<path d="M4.98826 10.0282L4.98826 20.9998M3.696 3.12927L2.91333 3.20735C2.34211 3.26433 1.93582 3.78866 2.02368 4.35545L2.69265 8.671C2.80598 9.40206 3.43585 10.0105 4.17629 10.0105H5.80025C6.54069 10.0105 7.17057 9.40206 7.28389 8.671L7.95287 4.35545C8.04073 3.78866 7.63443 3.26433 7.06322 3.20735L6.28323 3.12943C5.42297 3.0435 4.55628 3.04344 3.696 3.12927Z" stroke="#141B34" stroke-width="1.5" stroke-linecap="round"/>
<path d="M18.0059 13.8177L18.0059 3.02539C19.1644 3.34537 21.0913 4.55213 21.4104 7.52787L21.9835 12.0419C22.0842 12.8345 21.8826 13.6256 21.0945 13.7611C20.4343 13.8746 19.4327 13.9116 18.0059 13.8177ZM18.0059 13.8177L18.0059 20.9995" stroke="#141B34" stroke-width="1.5" stroke-linecap="round" stroke-linejoin="round"/>
</svg>
