<svg width="24" height="24" viewBox="0 0 24 24" fill="none" xmlns="http://www.w3.org/2000/svg">
<path d="M14 9.79967L4.39233 10.4935C3.10311 10.5866 1.99999 9.66739 2 8.50002C2.00001 7.33265 3.10316 6.41341 4.39238 6.5065L14 7.20016" stroke="#141B34" stroke-width="1.5" stroke-linejoin="round"/>
<path d="M20.9999 13.9999L13 14M21 3L13.0001 3.00007M20.0001 3.00001L14.0002 3.00006C14.0002 3.00006 13.5001 5.96158 13.5001 8.50003C13.5001 11.0385 14 14 14 14L19.9999 13.9999C19.9999 13.9999 20.5 11.0384 20.5 8.49997C20.5 5.96153 20.0001 3.00001 20.0001 3.00001Z" stroke="#141B34" stroke-width="1.5" stroke-linecap="round" stroke-linejoin="round"/>
<path d="M12 21.0037H21.9978M13.2247 21.0037C13.7762 20.0162 14.1881 18.1265 16.1401 18.0206C16.7198 17.9892 17.3097 17.9892 17.8895 18.0206C19.8415 18.1265 20.2553 20.0162 20.8068 21.0037" stroke="#141B34" stroke-width="1.5" stroke-linecap="round" stroke-linejoin="round"/>
</svg>
