<svg width="24" height="24" viewBox="0 0 24 24" fill="none" xmlns="http://www.w3.org/2000/svg">
<path d="M11.0986 3.00293C7.44966 3.0095 5.5389 3.09908 4.31779 4.32017C3 5.63791 3 7.75881 3 12.0006C3 16.2424 3 18.3633 4.31779 19.681C5.63557 20.9988 7.75653 20.9988 11.9985 20.9988C16.2403 20.9988 18.3613 20.9988 19.6791 19.681C20.9002 18.46 20.9897 16.5492 20.9963 12.9004" stroke="#141B34" stroke-width="1.5" stroke-linecap="round" stroke-linejoin="round"/>
<path d="M20.4779 3.51788L14.9287 9.05187M20.4779 3.51788C19.984 3.02337 16.6564 3.06946 15.9529 3.07947M20.4779 3.51788C20.9719 4.01239 20.9259 7.34365 20.9159 8.04791" stroke="#141B34" stroke-width="1.5" stroke-linecap="round" stroke-linejoin="round"/>
</svg>
