<svg width="24" height="24" viewBox="0 0 24 24" fill="none" xmlns="http://www.w3.org/2000/svg">
<path d="M2.5 8.18677C2.60406 6.08705 2.91537 4.77792 3.84664 3.84664C4.77792 2.91537 6.08705 2.60406 8.18677 2.5M21.5 8.18677C21.3959 6.08705 21.0846 4.77792 20.1534 3.84664C19.2221 2.91537 17.9129 2.60406 15.8132 2.5M15.8132 21.5C17.9129 21.3959 19.2221 21.0846 20.1534 20.1534C21.0846 19.2221 21.3959 17.9129 21.5 15.8132M8.18676 21.5C6.08705 21.3959 4.77792 21.0846 3.84664 20.1534C2.91537 19.2221 2.60406 17.9129 2.5 15.8132" stroke="#141B34" stroke-width="1.5" stroke-linecap="round" stroke-linejoin="round"/>
<path d="M9.49902 10.5543C9.49902 9.71268 9.36684 8.41325 9.87504 7.65557C10.9975 5.98205 13.379 6.20435 14.219 7.83785C14.6313 8.63957 14.4759 9.76043 14.495 10.5543M9.49902 10.5543C8.20169 10.5543 7.93746 11.297 7.73904 11.8796C7.55589 12.5349 7.36944 14.0996 7.65504 15.8141C7.86872 16.9063 8.70381 17.3867 9.42199 17.4476C10.1088 17.5058 13.0087 17.4836 13.8482 17.4836C15.1492 17.4836 15.9615 17.1976 16.343 15.8869C16.5262 14.8675 16.5763 13.0446 16.271 11.8796C15.8666 10.7145 15.0513 10.5543 14.495 10.5543M9.49902 10.5543C10.8727 10.4999 13.7097 10.5106 14.495 10.5543" stroke="#141B34" stroke-width="1.5" stroke-linecap="round"/>
</svg>
