<svg width="24" height="24" viewBox="0 0 24 24" fill="none" xmlns="http://www.w3.org/2000/svg">
<path d="M15 17.4981C15 18.4281 15 18.893 14.8978 19.2745C14.6204 20.3098 13.8117 21.1185 12.7765 21.3959C12.395 21.4981 11.93 21.4981 11 21.4981H9C6.17157 21.4981 4.75736 21.4981 3.87868 20.6194C3 19.7407 3 18.3265 3 15.4981V8.50017C3 5.67196 3 4.25785 3.87859 3.37919C4.75718 2.50053 6.17129 2.50041 8.9995 2.50017L11.0016 2.5C11.9298 2.49993 12.394 2.49989 12.7748 2.6017C13.8113 2.8788 14.621 3.68837 14.8982 4.72488C15 5.10571 15 5.56983 15 6.49808" stroke="#141B34" stroke-width="1.5" stroke-linecap="round" stroke-linejoin="round"/>
<path d="M15 19.5C17.8284 19.5 19.2426 19.5 20.1213 18.6213C21 17.7426 21 16.3284 21 13.5V10.5C21 7.67157 21 6.25736 20.1213 5.37868C19.2426 4.5 17.8284 4.5 15 4.5" stroke="#141B34" stroke-width="1.5" stroke-linecap="round" stroke-linejoin="round"/>
<path d="M16 12.0001H9M14.5001 9.5C14.5001 9.5 17 11.3412 17 12C17 12.6588 14.5 14.5 14.5 14.5" stroke="#141B34" stroke-width="1.5" stroke-linecap="round" stroke-linejoin="round"/>
</svg>
