<svg width="24" height="24" viewBox="0 0 24 24" fill="none" xmlns="http://www.w3.org/2000/svg">
<path d="M10.566 9.01848L6.16351 4.60677C5.57098 4.01299 5.57633 3.04493 6.17546 2.44454C6.77458 1.84415 7.74062 1.8388 8.33315 2.43258L16.1187 10.1579C18.777 12.8217 20.3094 16.3136 17.3421 19.9221L17.0256 20.2392C14.6951 22.5746 10.9167 22.5746 8.58627 20.2392L5.39754 17.0893C4.805 16.4956 4.81711 15.5207 5.42458 14.912C6.00043 14.3349 6.90458 14.294 7.50188 14.7971M10.566 9.01848L13.0751 11.5328M10.566 9.01848C9.97343 8.4247 8.97513 8.43853 8.36501 9.04994C7.75488 9.66135 7.74062 10.6383 8.33315 11.2321L9.061 11.9615M9.061 11.9615L10.8448 13.749M9.061 11.9615C8.46847 11.3677 7.51861 11.3954 6.90849 12.0068C6.29836 12.6182 6.2841 13.5952 6.87663 14.189L7.50188 14.7971M7.50188 14.7971L8.63226 15.8964M7.50188 14.7971C7.53467 14.8247 7.56654 14.854 7.59737 14.8849M12.097 6.16734C12.2644 4.63051 14.0845 3.03738 16.3572 4.12915C16.5731 4.23282 16.744 4.42896 16.746 4.66879C16.7492 5.05511 16.5795 5.53208 16.0359 5.84834C15.2583 6.30076 13.9845 8.02935 15.6849 9.73333" stroke="#141B34" stroke-width="1.5" stroke-linecap="round" stroke-linejoin="round"/>
</svg>
