<svg width="24" height="24" viewBox="0 0 24 24" fill="none" xmlns="http://www.w3.org/2000/svg">
<path d="M7 7.5L9.94202 9.23943C11.6572 10.2535 12.3428 10.2535 14.058 9.23943L17 7.5" stroke="#141B34" stroke-width="1.5" stroke-linecap="round" stroke-linejoin="round"/>
<path d="M21.9953 10.5V9.52844C21.9299 6.46114 21.8972 4.92749 20.7655 3.79141C19.6337 2.65532 18.0586 2.61574 14.9083 2.53659C12.9668 2.48781 11.0443 2.4878 9.10276 2.53658C5.95252 2.61573 4.3774 2.6553 3.24564 3.79139C2.11389 4.92748 2.08118 6.46113 2.01577 9.52843C1.99474 10.5147 1.99474 11.4951 2.01577 12.4814C2.08119 15.5487 2.11389 17.0823 3.24565 18.2184C4.3774 19.3545 5.95252 19.3941 9.10277 19.4732C9.57102 19.485 10.5334 19.4939 11 19.5" stroke="#141B34" stroke-width="1.5" stroke-linecap="round" stroke-linejoin="round"/>
<path d="M20.8522 13.4391L21.5446 14.1315C22.1304 14.7172 22.1304 15.667 21.5446 16.2528L17.9172 19.9484C17.6319 20.2338 17.2669 20.4262 16.8702 20.5002L14.622 20.9883C14.2671 21.0653 13.951 20.7502 14.027 20.395L14.5056 18.1597C14.5796 17.763 14.772 17.398 15.0574 17.1126L18.7309 13.4391C19.3167 12.8533 20.2665 12.8533 20.8522 13.4391Z" stroke="#141B34" stroke-width="1.5" stroke-linecap="round" stroke-linejoin="round"/>
</svg>
