<svg width="24" height="24" viewBox="0 0 24 24" fill="none" xmlns="http://www.w3.org/2000/svg">
<path d="M19.9635 22.0226V20.462C19.9635 20.059 20.0896 19.6676 20.301 19.3241C21.7955 16.8955 22.265 14.2906 21.9373 13.276C20.8941 11.1128 17.4129 10.2617 15.7971 10.0588L16.8337 4.89392C17.0076 4.07487 16.3884 3.25037 15.4506 3.05236C14.5129 2.85434 13.6117 3.35778 13.4378 4.17683L11.3833 13.8525L8.81173 12.2134C8.81173 12.2134 7.5168 11.177 6.47752 12.2134C5.43825 13.2498 6.47752 14.5411 6.47752 14.5411L10.3859 19.5486C10.6374 19.8707 10.7839 20.2618 10.8059 20.6694L10.8772 21.9887" stroke="#141B34" stroke-width="1.5" stroke-linecap="round" stroke-linejoin="round"/>
<path d="M9.90314 4.13185C9.90314 4.13185 10.1486 1.91386 9.90314 1.67207M9.90314 1.67207C9.58474 1.35847 7.36549 1.62245 7.36549 1.62245M9.90314 1.67207L6.93421 4.61053M2.14619 6.85805C2.14619 6.85805 1.90076 9.07604 2.14619 9.31783M2.14619 9.31783C2.46458 9.63142 4.68383 9.36745 4.68383 9.36745M2.14619 9.31783L5.11511 6.37937" stroke="#141B34" stroke-width="1.5" stroke-linecap="round" stroke-linejoin="round"/>
</svg>
