<svg width="24" height="24" viewBox="0 0 24 24" fill="none" xmlns="http://www.w3.org/2000/svg">
<path d="M16.9422 20.6667V15.3333M18.5028 15.3333V14M18.5028 22V20.6667M16.9422 18H20.0634M20.0634 18C20.5806 18 20.9998 18.4477 20.9998 19V19.6667C20.9998 20.219 20.5806 20.6667 20.0634 20.6667H16.0059M20.0634 18C20.5806 18 20.9998 17.5523 20.9998 17V16.3333C20.9998 15.781 20.5806 15.3333 20.0634 15.3333H16.0059" stroke="#141B34" stroke-width="1.5" stroke-linecap="round" stroke-linejoin="round"/>
<path d="M14.6938 4.18605C13.2933 3.31449 9.6989 1.64154 6.46115 2.06854C8.41966 3.43854 9.44999 4.17541 12.2295 6.68896M18.5654 8.11851C18.9374 8.73509 19.5598 9.92878 19.9956 11.1718M16.1012 10.6214C16.343 10.8972 16.6371 11.3118 16.8477 11.5563M10.3532 10.4183L3.41285 17.4677C2.84988 18.0395 2.85834 18.9751 3.43173 19.5575C4.00513 20.1399 4.92633 20.1485 5.4893 19.5767L12.4297 12.5274M11.8436 8.22564L14.5882 11.0134C14.893 11.3229 15.386 11.3241 15.6894 11.0159L19.0897 7.5622C19.3931 7.25405 19.392 6.75331 19.0872 6.44376L16.3426 3.65604C16.0378 3.34649 15.5448 3.34535 15.2414 3.6535L11.8411 7.10721C11.5377 7.41535 11.5388 7.91609 11.8436 8.22564Z" stroke="#141B34" stroke-width="1.5" stroke-linecap="round" stroke-linejoin="round"/>
</svg>
