<svg width="24" height="24" viewBox="0 0 24 24" fill="none" xmlns="http://www.w3.org/2000/svg">
<path d="M19.9264 22.0023V20.4433C19.9264 20.0407 20.0525 19.6497 20.2639 19.3065C21.7583 16.8803 22.2279 14.2779 21.9002 13.2643C20.857 11.1033 17.3758 10.253 15.76 10.0504L16.7966 4.89059C16.9705 4.07235 16.3513 3.24867 15.4135 3.05085C14.4758 2.85303 13.5746 3.35597 13.4007 4.17421L11.3462 13.8403L8.77462 12.2028C8.77462 12.2028 7.47969 11.1675 6.44041 12.2028C5.40114 13.2382 6.44041 14.5283 6.44041 14.5283L10.3488 19.5308C10.6003 19.8526 10.7468 20.2433 10.7688 20.6505L10.8401 21.9684" stroke="#141B34" stroke-width="1.5" stroke-linecap="round" stroke-linejoin="round"/>
<path d="M6.95596 1.99015C6.95596 1.99015 6.70432 4.26131 6.95596 4.5089M6.95596 4.5089C7.28241 4.83001 9.55781 4.55971 9.55781 4.55971M6.95596 4.5089L10 1.5M5.04404 9.00193C5.04404 9.00193 5.29568 6.73077 5.04404 6.48319M5.04404 6.48319C4.71759 6.16208 2.44219 6.43238 2.44219 6.43238M5.04404 6.48319L2 9.49209" stroke="#141B34" stroke-width="1.5" stroke-linecap="round" stroke-linejoin="round"/>
</svg>
