<svg width="24" height="24" viewBox="0 0 24 24" fill="none" xmlns="http://www.w3.org/2000/svg">
<path d="M12 22C17.5228 22 22 17.5228 22 12C22 6.47715 17.5228 2 12 2C6.47715 2 2 6.47715 2 12C2 17.5228 6.47715 22 12 22Z" stroke="#141B34" stroke-width="1.5"/>
<path d="M18.9986 9.98786H13.9997C13.9959 9.98786 13.9925 9.99001 13.9908 9.99341L10.5017 16.9997C10.4981 17.0071 10.4875 17.0071 10.4838 16.9997L8.50788 13.0149C8.50484 13.0088 8.49668 13.0075 8.49185 13.0123L7 14.504M11.002 10.5V8.65303C11.002 7.73285 10.3136 7.00172 9.48494 7.00172C8.81504 7.01406 8.15827 7.57527 8.00171 8.46398M8.00171 10.4893V8.46398M8.00171 8.46398V6.25977" stroke="#141B34" stroke-width="1.5"/>
</svg>
