<svg width="24" height="24" viewBox="0 0 24 24" fill="none" xmlns="http://www.w3.org/2000/svg">
<path d="M9.5 8.00037L18.5 8M9.5 12H12M18.5 12H16M9.5 16H12M18.5 16H16" stroke="#141B34" stroke-width="1.5" stroke-linecap="round" stroke-linejoin="round"/>
<path d="M6 8V19C6 20.1046 5.10457 21 4 21M6 8C6 6.13077 6 5.19615 6.40192 4.5C6.66523 4.04394 7.04394 3.66523 7.5 3.40192C8.19615 3 9.13077 3 11 3H16C18.8284 3 20.2426 3 21.1213 3.87868C22 4.75736 22 6.17157 22 9V15C22 17.8284 22 19.2426 21.1213 20.1213C20.2426 21 18.8284 21 16 21H4M6 8C4.11438 8 3.17157 8 2.58579 8.58579C2 9.17157 2 10.1144 2 12L2 19C2 20.1046 2.89543 21 4 21" stroke="#141B34" stroke-width="1.5" stroke-linecap="round" stroke-linejoin="round"/>
</svg>
