<svg width="24" height="24" viewBox="0 0 24 24" fill="none" xmlns="http://www.w3.org/2000/svg">
<path d="M5.65698 11.0022L4.18661 14.3105C2.33154 18.4844 1.40401 20.5713 2.41633 21.5837C3.42865 22.596 5.51561 21.6685 9.68951 19.8134L12.9979 18.343C15.5153 17.2242 16.774 16.6647 16.9743 15.586C17.1745 14.5073 16.2006 13.5333 14.2526 11.5854L12.4146 9.7474C10.4667 7.79944 9.49268 6.82546 8.41397 7.02575C7.33526 7.22604 6.77583 8.48475 5.65698 11.0022Z" stroke="#141B34" stroke-width="1.5" stroke-linecap="round" stroke-linejoin="round"/>
<path d="M6.5 10.5L13.5 17.5M4.5 15.5L8.5 19.5" stroke="#141B34" stroke-width="1.5" stroke-linecap="round" stroke-linejoin="round"/>
<path d="M16 8L19 5" stroke="#141B34" stroke-width="1.5" stroke-linecap="round" stroke-linejoin="round"/>
<path d="M14.1973 2C14.5963 2.66667 14.9156 4.4 13 6" stroke="#141B34" stroke-width="1.5" stroke-linecap="round" stroke-linejoin="round"/>
<path d="M22 9.80274C21.3333 9.40365 19.6 9.08438 18 11" stroke="#141B34" stroke-width="1.5" stroke-linecap="round" stroke-linejoin="round"/>
<path d="M18 2V2.02" stroke="#141B34" stroke-width="1.5" stroke-linecap="round" stroke-linejoin="round"/>
<path d="M22 6V6.02" stroke="#141B34" stroke-width="1.5" stroke-linecap="round" stroke-linejoin="round"/>
<path d="M21 13V13.02" stroke="#141B34" stroke-width="1.5" stroke-linecap="round" stroke-linejoin="round"/>
<path d="M11 3V3.02" stroke="#141B34" stroke-width="1.5" stroke-linecap="round" stroke-linejoin="round"/>
</svg>
