<svg width="24" height="24" viewBox="0 0 24 24" fill="none" xmlns="http://www.w3.org/2000/svg">
<path d="M18.995 17.5C20.4178 17.5 21.0559 17.5 21.508 17.0126C21.5274 16.9917 21.5463 16.9702 21.5648 16.9482C21.9942 16.435 21.9942 15.6275 21.9942 14.0125C21.9942 12.7875 21.9942 12.175 21.7541 11.6578C21.5035 11.1178 21.0518 10.7814 20.102 10.0931C19.1586 9.40947 18.4877 8.64105 17.8486 7.58239C16.9371 6.07263 16.4813 5.31775 15.7978 4.90888C15.1143 4.5 14.3081 4.5 12.6958 4.5H11.997M11.997 4.5L13.115 7.97979C13.6629 9.68471 13.9368 10.5372 14.508 11.0186C15.0793 11.5 15.8169 11.5 17.2919 11.5H20.9943M11.997 4.5L11.9968 17.5M8.9978 17.5H14.9961M21.9944 14.5H20.9944M11.9969 11.5H2.9994C2.9994 11.5 2.67792 11.5044 2.39957 11.5C1.938 11.4928 1.99968 11.48 1.99968 11.54L1.99968 12.5C1.99968 12.5 1.97968 15.8 2.01568 16.1932C2.01568 16.4519 2.21962 16.6634 2.57952 16.88C2.81491 17.0365 3.1849 17.2856 3.47926 17.4044C3.83916 17.54 4.99884 17.5 4.99884 17.5" stroke="#141B34" stroke-width="1.5" stroke-linecap="round" stroke-linejoin="round"/>
<path d="M16.9955 19.5C18.0998 19.5 18.995 18.6046 18.995 17.5C18.995 16.3954 18.0998 15.5 16.9955 15.5C15.8913 15.5 14.9961 16.3954 14.9961 17.5C14.9961 18.6046 15.8913 19.5 16.9955 19.5Z" stroke="#141B34" stroke-width="1.5"/>
<path d="M6.99846 19.5C8.10272 19.5 8.9979 18.6046 8.9979 17.5C8.9979 16.3954 8.10272 15.5 6.99846 15.5C5.8942 15.5 4.99902 16.3954 4.99902 17.5C4.99902 18.6046 5.8942 19.5 6.99846 19.5Z" stroke="#141B34" stroke-width="1.5"/>
</svg>
