<svg width="24" height="24" viewBox="0 0 24 24" fill="none" xmlns="http://www.w3.org/2000/svg">
<path d="M12 12.0003L4.63613 7.74881C3.91916 7.33487 2.99043 7.57741 2.68795 8.34805C2.24385 9.47944 2 10.7114 2 12.0003C2 13.2893 2.24385 14.5212 2.68795 15.6526C2.99043 16.4233 3.91916 16.6658 4.63613 16.2519L12 12.0003ZM12 12.0003L19.3639 16.2519C20.0808 16.6658 21.0096 16.4233 21.3121 15.6526C21.7561 14.5212 22 13.2893 22 12.0003C22 10.7114 21.7561 9.47944 21.3121 8.34805C21.0096 7.57741 20.0808 7.33487 19.3639 7.7488L12 12.0003Z" stroke="#141B34" stroke-width="1.5" stroke-linecap="round" stroke-linejoin="round"/>
<path d="M12.0029 11.9991V3.49907C12.0029 2.67064 11.3273 1.98724 10.5081 2.11004C7.95959 2.49201 5.72571 3.83565 4.18758 5.75976C3.66997 6.40727 3.9235 7.33445 4.64141 7.74894L12.0029 11.9991ZM12.0029 11.9991V20.4991C12.0029 21.3275 12.6784 22.0109 13.4977 21.8881C16.0461 21.5061 18.28 20.1625 19.8181 18.2384C20.3357 17.5909 20.0822 16.6637 19.3643 16.2492L12.0029 11.9991Z" stroke="#141B34" stroke-width="1.5" stroke-linecap="round" stroke-linejoin="round"/>
<path d="M12.0029 11.9991V3.49907C12.0029 2.67064 12.6784 1.98724 13.4977 2.11004C16.0461 2.49201 18.28 3.83565 19.8181 5.75976C20.3357 6.40727 20.0822 7.33445 19.3643 7.74894L12.0029 11.9991ZM12.0029 11.9991V20.4991C12.0029 21.3275 11.3273 22.0109 10.5081 21.8881C7.95959 21.5061 5.72571 20.1625 4.18758 18.2384C3.66997 17.5909 3.9235 16.6637 4.64141 16.2492L12.0029 11.9991Z" stroke="#141B34" stroke-width="1.5" stroke-linecap="round" stroke-linejoin="round"/>
<path d="M15 5V5.1" stroke="#141B34" stroke-width="1.5" stroke-linecap="round" stroke-linejoin="round"/>
<path d="M9.5 16V16.1" stroke="#141B34" stroke-width="1.5" stroke-linecap="round" stroke-linejoin="round"/>
<path d="M6 12V12.1" stroke="#141B34" stroke-width="1.5" stroke-linecap="round" stroke-linejoin="round"/>
<path d="M19 12V12.1" stroke="#141B34" stroke-width="1.5" stroke-linecap="round" stroke-linejoin="round"/>
<path d="M14.5 8L15.5 7.5" stroke="#141B34" stroke-width="1.5" stroke-linecap="round" stroke-linejoin="round"/>
<path d="M8 6.5L9 6" stroke="#141B34" stroke-width="1.5" stroke-linecap="round" stroke-linejoin="round"/>
<path d="M8.5 19L9.5 18.5" stroke="#141B34" stroke-width="1.5" stroke-linecap="round" stroke-linejoin="round"/>
<path d="M15 17.5L16 18" stroke="#141B34" stroke-width="1.5" stroke-linecap="round" stroke-linejoin="round"/>
</svg>
