<svg width="24" height="24" viewBox="0 0 24 24" fill="none" xmlns="http://www.w3.org/2000/svg">
<path d="M18.0631 8.49977L19.3638 7.74881C20.0808 7.33487 21.0095 7.5774 21.312 8.34803C21.7561 9.47947 22 10.7115 22 12.0005C22 13.2894 21.7562 14.5213 21.3121 15.6527C21.0096 16.4233 20.0809 16.6659 19.3639 16.2519L18.0632 15.501M18.0631 8.49977C18.659 9.52954 19 10.7252 19 12.0005C19 13.2757 18.659 14.4713 18.0632 15.501M18.0631 8.49977L12 12.0003M18.0632 15.501L12 12.0003M12 12.0003L5.93673 15.5009M12 12.0003L5.93687 8.4998M5.93673 15.5009C5.34098 14.4712 5 13.2757 5 12.0005C5 10.7252 5.34103 9.52957 5.93687 8.4998M5.93673 15.5009L4.63607 16.2519C3.9191 16.6658 2.99036 16.4233 2.68788 15.6526C2.24383 14.5213 2 13.2893 2 12.0005C2 10.7115 2.24387 9.4795 2.68799 8.34807C2.99049 7.57744 3.91921 7.33491 4.63617 7.74885L5.93687 8.4998" stroke="#141B34" stroke-width="1.5" stroke-linecap="round" stroke-linejoin="round"/>
<path d="M12.0028 4.99907V3.49907C12.0028 2.67064 11.3273 1.98724 10.508 2.11004C7.95956 2.49201 5.72571 3.8356 4.18759 5.75965C3.66996 6.40716 3.92349 7.33435 4.64141 7.74884L5.93965 8.49838M12.0028 4.99907V11.9989M12.0028 4.99907C9.41208 4.99907 7.15008 6.40646 5.93965 8.49838M12.0028 11.9989V18.9991M12.0028 11.9989L18.066 15.4996M12.0028 11.9989L5.93965 8.49838M12.0028 18.9991V20.4991C12.0028 21.3275 12.6783 22.0109 13.4976 21.8881C16.0461 21.5061 18.28 20.1624 19.8181 18.2383C20.3357 17.5908 20.0822 16.6636 19.3643 16.2491L18.066 15.4996M12.0028 18.9991C14.5936 18.9991 16.8556 17.5916 18.066 15.4996" stroke="#141B34" stroke-width="1.5" stroke-linecap="round" stroke-linejoin="round"/>
<path d="M11.999 4.99907V3.49907C11.999 2.67064 12.6746 1.98724 13.4938 2.11004C16.0423 2.492 18.2761 3.83558 19.8142 5.75961C20.3318 6.40712 20.0783 7.33432 19.3604 7.74881L18.0622 8.49835M11.999 4.99907V11.9989M11.999 4.99907C14.5897 4.99907 16.8517 6.40644 18.0622 8.49835M11.999 11.9989V18.9991M11.999 11.9989L18.0622 8.49835M11.999 11.9989L5.93578 15.4995M11.999 18.9991V20.4991C11.999 21.3275 11.3235 22.0109 10.5042 21.8881C7.95572 21.5061 5.72179 20.1624 4.18366 18.2382C3.66606 17.5907 3.9196 16.6636 4.6375 16.2491L5.93578 15.4995M11.999 18.9991C9.40824 18.9991 7.14618 17.5916 5.93578 15.4995" stroke="#141B34" stroke-width="1.5" stroke-linecap="round" stroke-linejoin="round"/>
</svg>
