<svg width="24" height="24" viewBox="0 0 24 24" fill="none" xmlns="http://www.w3.org/2000/svg">
<path d="M21.9885 4.5H15.9922M21.9885 4.5C21.9885 3.79977 19.9954 2.49153 19.49 2M21.9885 4.5C21.9885 5.20023 19.9954 6.50847 19.49 7" stroke="#141B34" stroke-width="1.5" stroke-linecap="round" stroke-linejoin="round"/>
<path d="M1.98302 10.8264L2.93112 10.8264C3.57622 10.8264 4.20416 10.6175 4.72188 10.2308L9.62172 6.57074C10.1868 6.14861 10.888 5.81146 11.5352 6.09015C12.583 6.5413 13.2637 7.81411 11.6928 9.37203L9.98441 10.9703L20.4011 10.9703C22.443 11.0266 22.5442 14.3169 20.4011 14.4576L14.4647 14.4576C14.6558 15.9386 13.6129 22.9153 9.19544 21.8984C8.98557 21.8501 8.77258 21.8019 8.56243 21.7548C7.64423 21.549 6.0078 20.9407 5.05111 20.27C4.05518 19.5717 3.06318 19.8181 1.98302 19.8181" stroke="#141B34" stroke-width="1.5" stroke-linecap="round" stroke-linejoin="round"/>
</svg>
