<svg width="24" height="24" viewBox="0 0 24 24" fill="none" xmlns="http://www.w3.org/2000/svg">
<path d="M2.5 12C2.5 7.77027 2.5 5.6554 3.69797 4.25276C3.86808 4.05358 4.05358 3.86808 4.25276 3.69797C5.6554 2.5 7.77027 2.5 12 2.5C16.2297 2.5 18.3446 2.5 19.7472 3.69797C19.9464 3.86808 20.1319 4.05358 20.302 4.25276C21.5 5.6554 21.5 7.77027 21.5 12C21.5 16.2297 21.5 18.3446 20.302 19.7472C20.1319 19.9464 19.9464 20.1319 19.7472 20.302C18.3446 21.5 16.2297 21.5 12 21.5C7.77027 21.5 5.6554 21.5 4.25276 20.302C4.05358 20.1319 3.86808 19.9464 3.69797 19.7472C2.5 18.3446 2.5 16.2297 2.5 12Z" stroke="#141B34" stroke-width="1.5"/>
<path d="M15.0231 10.2343C14.98 9.65438 14.6517 8.24931 13.3903 7.73018C11.8135 7.08127 9.73726 7.89786 9.543 10.0012C9.45185 10.9881 9.963 12.0229 10.7058 12.5341C11.3883 13.0039 12.4239 12.9801 13.3903 12.9801H8.02734M11.267 12.9801C11.0852 13.6696 10.0876 15.6515 8.49773 16.4786H14.2832C14.5071 16.4786 15.1386 16.5332 16.0328 15.9332" stroke="#141B34" stroke-width="1.5" stroke-linecap="round" stroke-linejoin="round"/>
</svg>
