<svg width="24" height="24" viewBox="0 0 24 24" fill="none" xmlns="http://www.w3.org/2000/svg">
<path d="M22 12C22 17.5228 17.5228 22 12 22C6.47715 22 2 17.5228 2 12C2 6.47715 6.47715 2 12 2C17.5228 2 22 6.47715 22 12Z" stroke="#141B34" stroke-width="1.5"/>
<path d="M15.0701 10.2343C15.0298 9.65438 14.7228 8.24931 13.5431 7.73018C12.0684 7.08127 10.1266 7.89786 9.94487 10.0012C9.85962 10.9881 10.3377 12.0229 11.0324 12.5341C11.6707 13.0039 12.6392 12.9801 13.5431 12.9801H8.52734M11.5572 12.9801C11.3872 13.6696 10.4542 15.6515 8.96727 16.4786H14.3782C14.5876 16.4786 15.1782 16.5332 16.0145 15.9332" stroke="#141B34" stroke-width="1.5" stroke-linecap="round" stroke-linejoin="round"/>
</svg>
