<svg width="24" height="24" viewBox="0 0 24 24" fill="none" xmlns="http://www.w3.org/2000/svg">
<path d="M12 22C17.5228 22 22 17.5228 22 12C22 6.47715 17.5228 2 12 2C6.47715 2 2 6.47715 2 12C2 17.5228 6.47715 22 12 22Z" stroke="#141B34" stroke-width="1.5"/>
<path d="M17.52 8.49609H12.5577C11.741 8.49609 11.501 8.53609 11.34 9.36014L10.179 13.9694C9.8469 15.2975 9.67558 15.4935 9.34492 15.5201C8.98492 15.4001 8.81469 15.0925 8.20492 13.8401L8.05508 13.5001C7.79243 12.9607 7.70552 12.7332 7.44 12.6601C7.10104 12.5669 6.80716 12.8049 6.5 13.0041" stroke="#141B34" stroke-width="1.5" stroke-linecap="round" stroke-linejoin="round"/>
<path d="M12.9727 11.4956C13.3927 11.4817 13.8487 11.4636 14.0983 11.8796C14.3383 12.5396 14.8143 13.5828 15.0163 14.0328C15.1172 14.2059 15.2383 14.4316 15.5383 14.4756C15.8383 14.5196 16.1383 14.5036 16.1383 14.5036" stroke="#141B34" stroke-width="1.5" stroke-linecap="round"/>
<path d="M16.3333 11.5078C15.4871 11.5078 15.0012 12.4798 14.5212 13.0198C14.3532 13.293 13.6212 14.5198 12.7812 14.5038" stroke="#141B34" stroke-width="1.5" stroke-linecap="round"/>
</svg>
