<svg width="24" height="24" viewBox="0 0 24 24" fill="none" xmlns="http://www.w3.org/2000/svg">
<path d="M13.6394 8.72783L14.1363 11.351L6.02118 6.72193C5.21674 6.26306 4.18811 6.53537 3.72366 7.33015C3.25922 8.12494 3.53484 9.14123 4.33928 9.6001L8.70898 12.0927L7.67067 14.7764C6.98467 16.4998 6.64167 17.3614 6.65396 18.1132C6.67425 19.355 7.12381 20.5026 8.35033 21.2022C9.20462 21.6896 9.89966 21.8079 11.7359 22.1791C12.901 22.4147 13.4836 22.5325 14.0237 22.4907C14.9128 22.4219 15.7501 22.0498 16.3921 21.4382C16.782 21.0667 17.0793 20.5579 17.674 19.5403L18.1781 18.6777C18.9686 17.3248 19.3639 16.6484 19.4646 15.9029C19.4826 15.7692 19.4935 15.6346 19.497 15.4998C19.5169 14.7479 19.2348 14.0183 18.6706 12.5589L16.844 7.83464C16.5633 7.10866 15.8084 6.67423 15.0308 6.79124C14.0961 6.93188 13.4654 7.8097 13.6394 8.72783Z" stroke="#141B34" stroke-width="1.5" stroke-linecap="round" stroke-linejoin="round"/>
<path d="M8.86385 4.46514C9.26074 4.86079 10.9874 4.74664 11.6243 4.6672M8.86385 4.46514C8.46696 4.0695 8.4556 2.13746 8.53529 1.50257M8.86385 4.46514C9.88492 2.69691 13.9445 -0.123637 17.9729 2.69691C19.9195 4.05991 20.1942 4.91887 20.502 5.4943" stroke="#141B34" stroke-width="1.5" stroke-linecap="round" stroke-linejoin="round"/>
</svg>
