<svg width="24" height="24" viewBox="0 0 24 24" fill="none" xmlns="http://www.w3.org/2000/svg">
<path d="M20.4254 12.5061C23.4102 7.00258 22.0497 3.26685 16.9431 3C13.2316 3.07086 9.40299 5.07063 6.34699 8.16433C3.78236 10.7606 1.25719 14.479 2.18418 18.018C2.38888 18.7994 2.78797 19.3318 3.41843 19.8328C5.11269 21.1791 6.77569 21.2976 9.9786 20.5113C13.2222 19.5257 15.2331 18.0408 16.9286 16.5217M16.9286 16.5217C16.9304 16.5201 16.9322 16.5185 16.934 16.5169C16.9372 16.5141 16.9351 16.5087 16.9308 16.5087C16.9276 16.5087 16.9253 16.512 16.9264 16.515C16.9271 16.5173 16.9279 16.5195 16.9286 16.5217ZM16.9286 16.5217C17.2991 17.6169 17.0645 18.5944 16.4268 20.5113" stroke="#141B34" stroke-width="1.5" stroke-linecap="round" stroke-linejoin="round"/>
</svg>
