<svg width="24" height="24" viewBox="0 0 24 24" fill="none" xmlns="http://www.w3.org/2000/svg">
<path d="M17.5 8.5L15.0447 19.3032C15.015 19.434 15 19.5677 15 19.7018C15 20.6949 15.8051 21.5 16.7982 21.5H18" stroke="#141B34" stroke-width="1.5" stroke-linecap="round" stroke-linejoin="round"/>
<path d="M19.2192 21.5H4.78078C3.79728 21.5 3 20.7027 3 19.7192C3 19.5736 3.01786 19.4286 3.05317 19.2873L5.24254 10.5299C5.60631 9.07474 5.78821 8.34718 6.33073 7.92359C6.87325 7.5 7.6232 7.5 9.12311 7.5H14.8769C16.3768 7.5 17.1267 7.5 17.6693 7.92359C18.2118 8.34718 18.3937 9.07474 18.7575 10.5299L20.9468 19.2873C20.9821 19.4286 21 19.5736 21 19.7192C21 20.7027 20.2027 21.5 19.2192 21.5Z" stroke="#141B34" stroke-width="1.5" stroke-linecap="round" stroke-linejoin="round"/>
<path d="M15 7.5V5.5C15 3.84315 13.6569 2.5 12 2.5C10.3431 2.5 9 3.84315 9 5.5V7.5" stroke="#141B34" stroke-width="1.5" stroke-linecap="round" stroke-linejoin="round"/>
<path d="M10 10.5H12.5" stroke="#141B34" stroke-width="1.5" stroke-linecap="round" stroke-linejoin="round"/>
</svg>
