<svg width="24" height="24" viewBox="0 0 24 24" fill="none" xmlns="http://www.w3.org/2000/svg">
<path d="M16 23V4L4 7.5L3 20.5L16 23Z" stroke="#141B34" stroke-width="1.5" stroke-linecap="round" stroke-linejoin="round"/>
<path d="M17.5 5.14833L16 4V23L21 21.5C21 18.8371 20.7998 16.178 20.4012 13.5451L19.1298 5.14833H17.5Z" stroke="#141B34" stroke-width="1.5" stroke-linecap="round" stroke-linejoin="round"/>
<path d="M12.9997 4.87502C13.0073 2.85785 12.2371 1.26304 11.0004 1.02911C9.43889 0.73373 7.72504 2.71982 7.17239 5.46517C7.09339 5.85761 7.0424 6.24433 7.01758 6.61979" stroke="#141B34" stroke-width="1.5" stroke-linecap="round" stroke-linejoin="round"/>
<path d="M14.8665 4.33083C14.5732 3.14854 13.9527 2.31296 13.1092 2.14837C11.7258 1.8784 10.2195 3.50662 9.55469 5.8801" stroke="#141B34" stroke-width="1.5" stroke-linecap="round" stroke-linejoin="round"/>
<path d="M12.7876 9.42437C11.7876 9.0035 9.18881 8.24627 8.50177 10.266C8.13124 11.3553 8.79599 12.5183 10.2152 13.6331C12.2022 15.1939 11.865 16.524 11.5014 17.0001C10.2157 18.6837 7.64425 17.7016 6.78711 17.0001" stroke="#141B34" stroke-width="1.5" stroke-linecap="round" stroke-linejoin="round"/>
</svg>
