<svg width="24" height="24" viewBox="0 0 24 24" fill="none" xmlns="http://www.w3.org/2000/svg">
<path d="M16.9697 2.35159L17.7287 2.90197C19.0035 3.82644 20.1243 4.94612 21.0497 6.21967L21.6007 6.97787C22.1773 7.77147 22.0908 8.86612 21.3967 9.55954L16.866 14.0857C16.3915 14.5597 15.7103 14.7639 15.053 14.6291L13.0156 14.2113C12.3582 14.0766 11.6771 14.2807 11.2026 14.7547L4.62946 21.3212C4.23764 21.731 3.35631 22.453 2.40401 21.5017C1.54074 20.6393 2.20161 19.6971 2.61181 19.3056L9.18498 12.7391C9.65947 12.2651 9.86383 11.5847 9.72891 10.928L9.31073 8.89261C9.17582 8.23595 9.38017 7.55551 9.85466 7.0815L14.3854 2.55532C15.0795 1.8619 16.1753 1.77552 16.9697 2.35159Z" stroke="#141B34" stroke-width="1.5" stroke-linecap="round" stroke-linejoin="round"/>
<path d="M15.2012 10.6572L17.3555 8.50287" stroke="#141B34" stroke-width="1.5" stroke-linecap="round"/>
<path d="M13.3574 8.8125L15.5118 6.65814" stroke="#141B34" stroke-width="1.5" stroke-linecap="round"/>
</svg>
