<svg width="24" height="24" viewBox="0 0 24 24" fill="none" xmlns="http://www.w3.org/2000/svg">
<path d="M9 4.65468C8.30552 3.65451 7.15088 3 5.84388 3C3.72096 3 2 4.72674 2 6.85679C2 8.15354 2.63783 9.30081 3.61588 10" stroke="#141B34" stroke-width="1.5"/>
<path d="M14.1539 21.9146C14.2982 21.9699 14.4536 22 14.6154 22C15.3801 22 16 21.3284 16 20.5C16 19.6716 15.3801 19 14.6154 19C14.3439 19 14.0907 19.0846 13.877 19.2309C12.8158 20.0225 10.85 21.0378 8.61535 21.301M5.84614 21.1936C5.22792 21.0635 4.60867 20.8541 4 20.5478" stroke="#141B34" stroke-width="1.5" stroke-linecap="round"/>
<path d="M19 21C19.2581 21 19.9557 21 21 21" stroke="#141B34" stroke-width="1.5" stroke-linecap="round"/>
<path d="M17.4733 8.90196C17.4807 8.90192 17.4882 8.90191 17.4957 8.90191C19.98 8.90191 21.8915 10.86 21.9934 13.1502C22.0714 16.2 19.4205 17.808 17.5013 17.748M17.4733 8.90196C17.4881 8.74557 17.4957 8.58719 17.4957 8.42713C17.4957 5.46 15.032 3 11.9956 3C9.05686 3 6.74016 5.27718 6.49835 7.94927M17.4733 8.90196C17.3711 9.97916 17.0335 10.92 16.2299 11.856M6.49835 7.94927C3.96298 8.17846 2.11777 10.26 1.99782 12.6754C1.91985 15 3.53917 16.62 5.51834 17.4C9.17681 18.78 12.6554 17.604 13.8189 15.624C14.3107 14.604 13.7349 13.14 12.3555 12.87C11.5158 12.66 10.0764 13.2 9.99247 14.802M6.49835 7.94927C6.65613 7.93501 6.81603 7.92771 6.97773 7.92771C8.10308 7.92771 9.11684 8.22 10.0045 8.904" stroke="#141B34" stroke-width="1.5" stroke-linecap="round" stroke-linejoin="round"/>
</svg>
