<svg width="24" height="24" viewBox="0 0 24 24" fill="none" xmlns="http://www.w3.org/2000/svg">
<path d="M20 12.998V10.6549C20 9.8374 20 9.42865 19.8478 9.06111C19.6955 8.69356 19.4065 8.40453 18.8284 7.82648L14.0919 3.08993C13.593 2.59104 13.3436 2.3416 13.0345 2.19379C12.9702 2.16305 12.9044 2.13577 12.8372 2.11206C12.5141 1.99805 12.1614 1.99805 11.4558 1.99805C8.21082 1.99805 6.58831 1.99805 5.48933 2.88412C5.26731 3.06313 5.06508 3.26536 4.88607 3.48738C4 4.58635 4 6.20887 4 9.45389V12.998M13 2.49805V2.99805C13 5.82647 13 7.24069 13.8787 8.11937C14.7574 8.99805 16.1716 8.99805 19 8.99805H19.5" stroke="#141B34" stroke-width="1.5" stroke-linecap="round" stroke-linejoin="round"/>
<path d="M19 19.5H20V21C20 21.5523 19.5523 22 19 22H17.5C16.9477 22 16.5 21.5523 16.5 21V17C16.5 16.4477 16.9477 16 17.5 16H19C19.5523 16 20 16.4477 20 17M7 16H5C4.44772 16 4 16.4477 4 17V18C4 18.5523 4.44772 19 5 19H6C6.55228 19 7 19.4477 7 20V21C7 21.5523 6.55228 22 6 22H4M14 16L11.75 22L9.5 16" stroke="#141B34" stroke-width="1.5" stroke-linecap="round" stroke-linejoin="round"/>
</svg>
