<svg width="24" height="24" viewBox="0 0 24 24" fill="none" xmlns="http://www.w3.org/2000/svg">
<path d="M13.9372 6.01038C13.9372 3.79551 12.1582 2 9.96374 2C7.76923 2 5.99023 3.79551 5.99023 6.01038" stroke="#141B34" stroke-width="1.5" stroke-linecap="round" stroke-linejoin="round"/>
<path d="M9.3285 21.991L9.22407 20.8952C8.73652 18.8778 8.07019 18.6119 6.98546 17.166C6.49574 16.5132 5.47245 15.5884 4.63582 14.3389C4.07836 13.5064 4.82223 11.6139 6.5181 12.1908C6.8004 12.2868 7.0377 12.4792 7.24808 12.6905L8.89456 14.3442C8.88109 12.0067 8.91108 7.24788 8.87476 5.78756C8.83843 4.32724 11.3725 3.85733 11.5219 5.85393V10.3453M11.5219 10.3453V11.211M11.5219 10.3453C12.3505 9.24731 13.9185 9.20866 14.1467 11.0469M14.1467 11.0469C14.1839 11.3462 14.1867 11.6957 14.1467 12.0993M14.1467 11.0469C14.5655 9.76263 16.4047 10.2725 16.7707 11.7672M16.7707 11.7672C16.8575 12.1216 16.7707 12.5316 16.8056 13.0049M16.7707 11.7672C17.0085 11.0469 19.6366 10.9936 19.3867 13.7765L19.4521 16.3004C19.3516 17.8074 19.1305 18.4388 18.589 19.1673C18.3083 19.5448 17.9403 19.8773 17.7997 20.3263C17.6819 20.7026 17.6077 21.2532 17.6889 21.9986" stroke="#141B34" stroke-width="1.5" stroke-linecap="round" stroke-linejoin="round"/>
</svg>
