<svg width="24" height="24" viewBox="0 0 24 24" fill="none" xmlns="http://www.w3.org/2000/svg">
<path d="M7.00314 6.01161C6.93725 5.09105 7.50424 3.26994 9.0601 2.50849C9.70168 2.11874 11.4627 1.51528 13.147 2.59055C14.807 3.65024 14.9189 5.21262 15.0234 6.00125" stroke="#141B34" stroke-width="1.5" stroke-linecap="round" stroke-linejoin="round"/>
<path d="M17.1806 21.986C17.1354 20.3499 17.2385 20.1878 17.3581 19.8238C17.4777 19.4599 18.3144 18.1474 18.6104 17.2097C19.5682 14.1758 18.6755 13.5305 17.4854 12.6701C16.1657 11.716 13.7911 11.2422 12.5566 11.3468V6.50794C12.5566 5.68451 11.7673 5.01123 10.9245 5.01123C10.0817 5.01123 9.30698 5.68451 9.30698 6.50794V14.8198L7.58767 13.3289C7.0281 12.7359 6.12882 12.6758 5.51508 13.2152C4.93346 13.7264 4.84858 14.5873 5.31963 15.1975L6.45025 16.6623M9.25977 21.986V21.1327C9.29733 20.0798 8.51347 19.3928 7.49113 18.0193C7.41747 17.9203 7.3458 17.8247 7.27601 17.7321M7.27601 17.7321C6.96626 17.3213 6.69372 16.9712 6.45025 16.6623M7.27601 17.7321L8.29909 19.0576M7.27601 17.7321L6.45025 16.6623M6.45025 16.6623C5.95038 16.028 5.57304 15.5671 5.24773 15.1091" stroke="#141B34" stroke-width="1.5" stroke-linecap="round" stroke-linejoin="round"/>
</svg>
