<svg width="24" height="24" viewBox="0 0 24 24" fill="none" xmlns="http://www.w3.org/2000/svg">
<path d="M7.00366 14.3531V6.09687C7.00366 5.27524 7.61296 4.50635 8.43613 4.50635C9.2593 4.50635 10.0131 5.15903 10.0131 5.98066V10.2617M10.0131 10.2617L10.0046 11.4375M10.0131 10.2617C10.5753 8.14453 13.1653 8.95675 13.0067 10.6172C13.0039 10.6466 13.0067 11.3555 13.0067 11.3555M13.0067 11.3555V12.4961M13.0067 11.3555C13.29 9.4448 16.4292 9.39248 16.0288 12.3058M16.0288 12.3058L16.006 12.994M16.0288 12.3058C16.498 10.2957 19.0638 10.7284 18.9957 12.5811V16.2684C18.993 17.8449 18.6851 18.5988 17.8709 19.5475C17.7111 19.7338 17.5554 19.9265 17.4388 20.1425C17.0107 20.9358 17.207 21.1534 17.1358 21.993M7.00366 10.4136C5.6838 11.6075 4.79547 12.6974 4.52939 13.0228C3.63945 14.375 3.86568 15.2605 5.13039 17.0626C6.07158 18.4038 6.93616 19.3679 7.00229 19.4427C7.67537 20.2041 7.61589 20.7062 7.61589 22.0011" stroke="#141B34" stroke-width="1.5" stroke-linecap="round" stroke-linejoin="round"/>
<path d="M12.5284 6C12.5284 3.79086 10.7333 2 8.51908 2C6.30479 2 4.50977 3.79086 4.50977 6" stroke="#141B34" stroke-width="1.5" stroke-linecap="round" stroke-linejoin="round"/>
</svg>
