<svg width="24" height="24" viewBox="0 0 24 24" fill="none" xmlns="http://www.w3.org/2000/svg">
<path d="M15.5212 14.8395L7.56291 16.438L9.16124 8.4792M18.8695 12.9044C16.3327 15.4414 12.5361 15.7578 10.3896 13.6111C8.24309 11.4644 8.55947 7.6676 11.0963 5.13063C13.6331 2.59366 17.4296 2.27726 19.5762 4.42392C21.7227 6.57059 21.4063 10.3674 18.8695 12.9044ZM7.03298 15.9067L8.09296 16.9668C8.2881 17.1619 8.2881 17.4783 8.09296 17.6735L4.913 20.8536C4.71786 21.0488 4.40148 21.0488 4.20634 20.8536L3.14635 19.7936C2.95122 19.5984 2.95122 19.282 3.14635 19.0869L6.32632 15.9067C6.52146 15.7115 6.83784 15.7115 7.03298 15.9067Z" stroke="#141B34" stroke-width="1.5" stroke-linecap="round" stroke-linejoin="round"/>
<path d="M16.5063 7.48438L16.4993 7.49144M13.4993 10.5005L13.4922 10.5076M16.4993 10.5005L16.4922 10.5076M13.5063 7.49265L13.4993 7.49972" stroke="#141B34" stroke-width="1.5" stroke-linecap="round" stroke-linejoin="round"/>
</svg>
