<svg width="24" height="24" viewBox="0 0 24 24" fill="none" xmlns="http://www.w3.org/2000/svg">
<path d="M19.75 6.02173L19.7494 8.85723M19.7494 8.85723L22 7.83991M19.7494 8.85723L17.5 7.83991M19.7494 8.85723L17.95 11.0217M19.7494 8.85723L21.55 11.0217" stroke="#141B34" stroke-width="1.5" stroke-linecap="round"/>
<path d="M12 21.1357H6" stroke="#141B34" stroke-width="1.5" stroke-linecap="round"/>
<path d="M16 6.13184C16 5.47487 16 5.1464 15.9194 4.85855C15.7518 4.25982 15.3066 3.74406 14.7541 3.50882C14.4886 3.39572 14.1885 3.36365 13.5884 3.29952C12.1695 3.14787 10.3874 3.13184 9 3.13184C7.61262 3.13184 5.83047 3.14787 4.41161 3.29952C3.8115 3.36365 3.51144 3.39572 3.24586 3.50882C2.69344 3.74406 2.24816 4.25982 2.08057 4.85855C2 5.1464 2 5.47487 2 6.13184" stroke="#141B34" stroke-width="1.5" stroke-linecap="round"/>
<path d="M9 3.48413L9 21.1358" stroke="#141B34" stroke-width="1.5" stroke-linecap="round"/>
</svg>
