<svg width="24" height="24" viewBox="0 0 24 24" fill="none" xmlns="http://www.w3.org/2000/svg">
<path d="M16.9943 21C18.0985 21 18.9936 20.1046 18.9936 19C18.9936 17.8954 18.0985 17 16.9943 17C15.8902 17 14.9951 17.8954 14.9951 19C14.9951 20.1046 15.8902 21 16.9943 21Z" stroke="#141B34" stroke-width="1.5"/>
<path d="M6.99824 21C8.10238 21 8.99746 20.1046 8.99746 19C8.99746 17.8954 8.10238 17 6.99824 17C5.8941 17 4.99902 17.8954 4.99902 19C4.99902 20.1046 5.8941 21 6.99824 21Z" stroke="#141B34" stroke-width="1.5"/>
<path d="M11.9961 12L5.99844 3M5.99844 3L7.99765 13M5.99844 3H3.83011C3.64107 3 3.48162 3.16098 3.4582 3.37547L3.12483 6.42857C3.74582 6.42857 4.24923 7.00421 4.24923 7.71429C4.24923 8.42437 3.74582 9 3.12483 9C2.63526 9 2.15436 8.64223 2 8.14286M18.9934 19C21.6756 19 21.9922 18.072 21.9922 15.5125C21.9922 14.2875 21.9922 13.675 21.7522 13.1578C21.5016 12.6178 21.05 12.2814 20.1002 11.5931C19.1569 10.9095 18.4862 10.141 17.8471 9.08239C16.9357 7.57263 16.4799 6.81775 15.7965 6.40888C15.1131 6 14.307 6 12.6948 6H11.9961V13" stroke="#141B34" stroke-width="1.5" stroke-linecap="round" stroke-linejoin="round"/>
<path d="M4.99869 18.996C4.99869 18.996 3.83922 19.0063 3.47936 18.96C3.17948 18.84 2.81508 18.5585 2.57971 18.402C1.85999 17.9235 2.00394 18.12 2.00394 17.688C2.00394 17.0126 1.99986 14.0063 1.99986 14.0063L1.99986 13.0463C1.99986 12.9863 1.93819 12.9991 2.39971 13.0063L21.4723 13.0063M8.99726 19.002H14.9949" stroke="#141B34" stroke-width="1.5" stroke-linecap="round"/>
</svg>
