<svg width="24" height="24" viewBox="0 0 24 24" fill="none" xmlns="http://www.w3.org/2000/svg">
<path d="M13.9744 10.5014C13.9564 9.26104 13.8647 8.55783 13.3941 8.08606C12.8096 7.5 11.8688 7.5 9.9872 7.5H7.99147C6.10987 7.5 5.16907 7.5 4.58454 8.08606C4 8.67212 4 9.61538 4 11.5019V17.0045C4 17.9342 4 18.3991 4.0767 18.7857C4.39165 20.3732 5.6294 21.6141 7.21277 21.9299C7.42647 21.9725 7.66416 21.9915 7.99147 22" stroke="#141B34" stroke-width="1.5" stroke-linecap="round" stroke-linejoin="round"/>
<path d="M12.4821 7.5V5.5C12.4821 4.09554 12.4821 3.39331 12.1458 2.88886C12.0002 2.67048 11.8131 2.48298 11.5951 2.33706C11.0918 2 10.3911 2 8.9896 2C7.58814 2 6.88741 2 6.38403 2.33706C6.16612 2.48298 5.97902 2.67048 5.83341 2.88886C5.49707 3.39331 5.49707 4.09554 5.49707 5.5V7.5" stroke="#141B34" stroke-width="1.5" stroke-linecap="round" stroke-linejoin="round"/>
<path d="M8.5 4.5H9.5" stroke="#141B34" stroke-width="1.5" stroke-linecap="round" stroke-linejoin="round"/>
<path d="M14.9753 16.3511V17.6427M14.9668 19.7496H14.9871" stroke="#141B34" stroke-width="1.5" stroke-linecap="round" stroke-linejoin="round"/>
<path d="M19.6668 18.9932L19.0141 19.3626L19.0249 19.3818L19.0369 19.4003L19.6668 18.9932ZM16.8339 13.9882L17.4866 13.6188C17.4794 13.606 17.4718 13.5934 17.4638 13.5811L16.8339 13.9882ZM14.9991 13L15.0016 12.25L14.9929 12.25L14.9991 13ZM10.3313 18.9932L10.9612 19.4003L10.9728 19.3823L10.9834 19.3637L10.3313 18.9932ZM13.1753 13.9882L12.5454 13.5811C12.5377 13.5931 12.5303 13.6053 12.5233 13.6176L13.1753 13.9882ZM19.6668 18.9932L19.0369 19.4003C19.5726 20.2293 19.04 21.25 17.9993 21.25V22V22.75C20.2116 22.75 21.4866 20.4272 20.2967 18.5861L19.6668 18.9932ZM16.8339 13.9882L16.1812 14.3576L19.0141 19.3626L19.6668 18.9932L20.3195 18.6237L17.4866 13.6188L16.8339 13.9882ZM16.8339 13.9882L17.4638 13.5811C16.8888 12.6914 15.936 12.2532 15.0016 12.25L14.9991 13L14.9965 13.75C15.4738 13.7516 15.9305 13.9722 16.204 14.3953L16.8339 13.9882ZM10.3313 18.9932L9.70138 18.5861C8.50731 20.4336 9.80529 22.75 12.0099 22.75V22V21.25C10.9615 21.25 10.4295 20.2229 10.9612 19.4003L10.3313 18.9932ZM13.1753 13.9882L12.5233 13.6176L9.6792 18.6226L10.3313 18.9932L10.9834 19.3637L13.8274 14.3587L13.1753 13.9882ZM13.1753 13.9882L13.8052 14.3953C14.0773 13.9743 14.5307 13.7539 15.0053 13.75L14.9991 13L14.9929 12.25C14.0633 12.2577 13.1174 12.6962 12.5454 13.5811L13.1753 13.9882ZM12.0099 22V22.75H17.9993V22V21.25H12.0099V22Z" fill="#141B34"/>
</svg>
