<svg width="24" height="24" viewBox="0 0 24 24" fill="none" xmlns="http://www.w3.org/2000/svg">
<path d="M17 15.5V13.5L19.6 10.0333C19.8518 9.69759 20.247 9.5 20.6667 9.5C21.403 9.5 22 10.097 22 10.8333V18.1667C22 18.903 21.403 19.5 20.6667 19.5C20.247 19.5 19.8518 19.3024 19.6 18.9667L17 15.5Z" stroke="#141B34" stroke-width="1.5" stroke-linecap="round" stroke-linejoin="round"/>
<path d="M10.4693 6.02506C10.4761 5.99165 10.5239 5.99165 10.5307 6.02506C10.8852 7.75942 12.2406 9.11481 13.9749 9.4693C14.0084 9.47613 14.0084 9.52387 13.9749 9.5307C12.2406 9.88519 10.8852 11.2406 10.5307 12.9749C10.5239 13.0084 10.4761 13.0084 10.4693 12.9749C10.1148 11.2406 8.75942 9.88519 7.02506 9.5307C6.99165 9.52387 6.99165 9.47613 7.02506 9.4693C8.75942 9.11481 10.1148 7.75942 10.4693 6.02506Z" stroke="#141B34" stroke-width="1.5" stroke-linecap="round" stroke-linejoin="round"/>
<path d="M5.55169 7C4.64946 7.11776 3.99393 7.3444 3.46243 7.78059C3.25989 7.94681 3.07418 8.13253 2.90796 8.33506C2 9.44141 2 11.0853 2 14.3728C2 17.6602 2.00005 19.4318 2.908 20.5382C3.07422 20.7407 3.25994 20.9264 3.46247 21.0927C4.56882 22.0006 6.21257 22.0006 9.50005 22.0006C12.7875 22.0006 14.4313 22.0006 15.5376 21.0927C15.7402 20.9264 15.9259 20.7407 16.0921 20.5382C17 19.4318 17 17.7881 17 14.5006C17 12.3186 17 10.8606 16.7345 9.80332" stroke="#141B34" stroke-width="1.5" stroke-linecap="round" stroke-linejoin="round"/>
<path d="M15.1206 2.30967C15.205 1.89678 15.795 1.89678 15.8794 2.30967C16.0658 3.22159 16.7784 3.93424 17.6903 4.12063C18.1032 4.20503 18.1032 4.79497 17.6903 4.87937C16.7784 5.06576 16.0658 5.77841 15.8794 6.69033C15.795 7.10322 15.205 7.10322 15.1206 6.69033C14.9342 5.77841 14.2216 5.06576 13.3097 4.87937C12.8968 4.79497 12.8968 4.20503 13.3097 4.12063C14.2216 3.93424 14.9342 3.22159 15.1206 2.30967Z" fill="#141B34"/>
</svg>
