<svg width="24" height="24" viewBox="0 0 24 24" fill="none" xmlns="http://www.w3.org/2000/svg">
<path d="M2 21.1807C2.68524 22.2311 3.57104 22.2311 4.27299 21.1807C6.52985 17.7306 8.67954 23.6623 10.273 21.2196C12.703 17.5593 14.4508 23.9075 16.273 21.1807C18.6492 17.5481 20.1295 23.5635 22 21.5714" stroke="#141B34" stroke-width="1.5" stroke-linecap="round"/>
<path d="M17.6184 16.9988C18.3131 16.3944 19.9447 14.7011 20.3627 12.0801C20.7506 10.4698 20.5232 6.89275 17.9129 4.43631C16.1746 2.69911 11.565 0.173833 6.5503 3.97037C5.54789 4.77827 3.71926 7.00207 3.51106 9.92404C3.30286 12.846 4.57349 14.8362 5.22063 15.6189C5.53845 15.9627 5.6944 16.1642 6.02643 16.4648C6.31267 16.7239 6.43154 16.809 6.66416 16.9962C8.07023 17.0491 11.2393 16.3938 13.3709 15.0329C13.8436 14.8107 15.0503 14.0428 16.0332 12.679M4.17227 12.7918C5.35359 13.2641 8.38935 13.8197 11.3207 11.0958M11.5404 10.8636C12.976 10.5619 16.5886 10.8636 18.8331 14.7955M7.6968 3.47731C6.58965 5.42184 6.33215 10.5905 7.92835 12.5138M11.6466 10.8781C10.8934 9.04185 10.3472 4.54809 12.095 2.23753M11.5124 6.33012C13.2591 6.06602 17.575 6.91085 20.4894 10.4902" stroke="#141B34" stroke-width="1.5" stroke-linecap="round" stroke-linejoin="round"/>
</svg>
