<svg width="24" height="24" viewBox="0 0 24 24" fill="none" xmlns="http://www.w3.org/2000/svg">
<path d="M7 9.5C7 10.3284 6.32843 11 5.5 11C4.67157 11 4 10.3284 4 9.5C4 8.67157 4.67157 8 5.5 8C6.32843 8 7 8.67157 7 9.5Z" stroke="#141B34" stroke-width="1.5"/>
<path d="M9.00781 3.00391L9.72044 8.01262C9.82578 9.11598 10.0513 9.85569 9.4566 11.0468L6.99609 16M10.1287 8.64062L13.5544 10.0625L16.2721 11.2047C16.2942 11.214 16.3159 11.225 16.3364 11.2376C16.9878 11.6379 17.23 12.0536 17.4646 12.9766L19.9998 21M9.72632 12.0352L14.1755 13.8242M16.3795 12.2114L14.67 13.949L12.0076 20.9961" stroke="#141B34" stroke-width="1.5"/>
</svg>
