<svg width="24" height="24" viewBox="0 0 24 24" fill="none" xmlns="http://www.w3.org/2000/svg">
<path d="M10.5171 15.0102L17.1517 10.4989C17.339 10.3598 17.5062 10.1955 17.6481 10.0112C18.1334 9.38041 18.1238 8.50551 17.8161 7.77366C17.1315 6.14514 15.5069 5 13.6117 5C12.6761 5 11.8066 5.27908 11.0834 5.75762L4.00391 10.7567" stroke="#141B34" stroke-width="1.5" stroke-linecap="round" stroke-linejoin="round"/>
<path d="M6.00686 13.5076C6.00686 14.2036 6.37539 15.5869 8.04752 15.9665C9.05349 16.1949 11.9843 15.2315 10.5504 12.4395C9.1164 9.64756 5.66322 9.63299 4.25854 10.5685C3.40012 11.0898 1.73304 12.7172 2.04909 14.8806C2.16127 16.1913 3.19332 18.8506 6.4241 19.0026H16.3154C17.2372 18.9296 17.4277 18.7958 18.1298 18.2572C19.0743 17.4089 20.6518 15.8494 21.5682 14.8228C21.7662 14.601 21.98 14.3727 22.0073 14.0766C22.153 12.5 19.7605 13.1829 18.0274 12.995" stroke="#141B34" stroke-width="1.5" stroke-linecap="round" stroke-linejoin="round"/>
</svg>
