<svg width="24" height="24" viewBox="0 0 24 24" fill="none" xmlns="http://www.w3.org/2000/svg">
<path d="M18.5 2V8M18.5 2C17.7998 2 16.4915 3.9943 16 4.5M18.5 2C19.2002 2 20.5085 3.9943 21 4.5" stroke="#141B34" stroke-width="1.5" stroke-linecap="round" stroke-linejoin="round"/>
<path d="M6.51087 13.5167V3.4877C6.51087 2.66607 7.17771 2 8.0003 2C8.82288 2 9.48972 2.66607 9.48972 3.4877V8.68979M9.48972 8.68979V11.0134M9.48972 8.68979C10.2946 7.57136 12.0972 7.94388 12.4809 9.68274C12.4873 9.71161 12.4925 9.74069 12.4966 9.76993M12.5118 11.0094V10.0065C12.5118 9.92746 12.5078 9.84815 12.4966 9.76993M12.4966 9.76993C12.9899 8.41957 15.2543 8.93456 15.5009 10.8628M15.5009 10.8628V12.0088M15.5009 10.8628C15.9048 9.3723 18.5567 10.4141 18.4992 12.1564V15.3349C18.4963 17.0609 18.2082 18.3125 17.182 19.3419C16.234 20.4737 16.457 21.1073 16.4334 22.0036M6.51087 8.99246C5.19194 10.1863 3.69496 11.8179 3.50383 12.2042C2.61452 13.5564 2.9308 14.6172 4.19463 16.4194C5.13516 17.7606 6.39663 19.2553 6.46272 19.3301C7.13532 20.0915 7.0035 20.6978 7.0035 21.9926" stroke="#141B34" stroke-width="1.5" stroke-linecap="round"/>
</svg>
