<svg width="24" height="24" viewBox="0 0 24 24" fill="none" xmlns="http://www.w3.org/2000/svg">
<path d="M15 22H6.40761C5.07792 22 4 20.9221 4 19.5924C4 19.2033 4.09432 18.8199 4.27487 18.4752L9.5 8.5V2H14.5V8.5L16.5 12.3181" stroke="#141B34" stroke-width="1.5" stroke-linecap="round" stroke-linejoin="round"/>
<path d="M8 2H16" stroke="#141B34" stroke-width="1.5" stroke-linecap="round" stroke-linejoin="round"/>
<path d="M8 11.5H16" stroke="#141B34" stroke-width="1.5" stroke-linecap="round" stroke-linejoin="round"/>
<path d="M18.5 15L18.2421 15.697C17.9039 16.611 17.7348 17.068 17.4014 17.4014C17.068 17.7348 16.611 17.9039 15.697 18.2421L15 18.5L15.697 18.7579C16.611 19.0961 17.068 19.2652 17.4014 19.5986C17.7348 19.932 17.9039 20.389 18.2421 21.303L18.5 22L18.7579 21.303C19.0961 20.389 19.2652 19.932 19.5986 19.5986C19.932 19.2652 20.389 19.0961 21.303 18.7579L22 18.5L21.303 18.2421C20.389 17.9039 19.932 17.7348 19.5986 17.4014C19.2652 17.068 19.0961 16.611 18.7579 15.697L18.5 15Z" stroke="#141B34" stroke-width="1.5" stroke-linejoin="round"/>
</svg>
