<svg width="24" height="24" viewBox="0 0 24 24" fill="none" xmlns="http://www.w3.org/2000/svg">
<path d="M7.49108 14C3.00088 11.6 3.00088 10.4 3.00088 10C3.00088 9.6 3.00088 8.4 7.49108 6M7.49108 14C3.00088 16.4 3 17.2 3 18M7.49108 14C11.9804 11.6005 11.9804 10.4005 11.9804 10.0002C11.9804 9.6 11.9804 8.39953 7.49108 6M7.49108 6C11.9813 3.6 11.9813 2.8 11.9813 2M7.49108 6L5.30781 4.7443C3.00057 3.28149 3 2.64075 3 2" stroke="#141B34" stroke-width="1.5" stroke-linecap="round" stroke-linejoin="round"/>
<path d="M14.4128 11.999V13.978M10.9258 15.4994H12.9778M18.9488 15.4994H21.0008M18.9488 18.4726H21.0008M10.9258 18.4726H12.9778M14.4128 20.0182V21.9973M17.4383 20.0182V21.9973M17.4275 11.999V13.978M13.9778 19.9666H17.9488C18.5011 19.9666 18.9488 19.5189 18.9488 18.9666V14.978C18.9488 14.4258 18.5011 13.978 17.9488 13.978H13.9778C13.4255 13.978 12.9778 14.4258 12.9778 14.978V18.9666C12.9778 19.5189 13.4255 19.9666 13.9778 19.9666Z" stroke="#141B34" stroke-width="1.5" stroke-linecap="round"/>
</svg>
