<svg width="24" height="24" viewBox="0 0 24 24" fill="none" xmlns="http://www.w3.org/2000/svg">
<path d="M7 6H16.75C18.8567 6 19.91 6 20.6667 6.50559C20.9943 6.72447 21.2755 7.00572 21.4944 7.33329C22 8.08996 22 9.14331 22 11.25C22 14.7612 22 16.5167 21.1573 17.7779C20.975 18.0508 20.7666 18.3045 20.5355 18.5355M3.46447 18.5355C2 17.0711 2 14.714 2 10V6.94427C2 5.1278 2 4.21956 2.38032 3.53806C2.65142 3.05227 3.05227 2.65142 3.53806 2.38032C4.21956 2 5.1278 2 6.94427 2C8.10802 2 8.6899 2 9.19926 2.19101C10.3622 2.62712 10.8418 3.68358 11.3666 4.73313L12 6" stroke="#141B34" stroke-width="1.5" stroke-linecap="round"/>
<path d="M10.4499 12V13.979M6.96289 15.5004H9.01487M14.986 15.5004H17.0379M14.986 18.4736H17.0379M6.96289 18.4736H9.01487M10.4499 20.0192V21.9982M13.4754 20.0192V21.9982M13.4646 12V13.979M10.0149 19.9676H13.986C14.5382 19.9676 14.986 19.5198 14.986 18.9676V14.979C14.986 14.4267 14.5382 13.979 13.986 13.979H10.0149C9.46258 13.979 9.01487 14.4267 9.01487 14.979V18.9676C9.01487 19.5198 9.46258 19.9676 10.0149 19.9676Z" stroke="#141B34" stroke-width="1.5" stroke-linecap="round"/>
</svg>
