<svg width="24" height="24" viewBox="0 0 24 24" fill="none" xmlns="http://www.w3.org/2000/svg">
<path d="M4 15V6.96603C4 5.0724 4 4.12559 4.58579 3.53731C4.91238 3.20933 5.34994 3.06421 6 3H11" stroke="#141B34" stroke-width="1.5" stroke-linecap="round" stroke-linejoin="round"/>
<path d="M3.49762 16.0154L4.01953 15H19.9518L20.5023 16.0154C21.9452 18.677 22.3046 20.0077 21.7561 21.0039C21.2077 22 19.7536 22 16.8454 22H7.15462C4.24642 22 2.79231 22 2.24387 21.0039C1.69543 20.0077 2.05474 18.677 3.49762 16.0154Z" stroke="#141B34" stroke-width="1.5" stroke-linecap="round" stroke-linejoin="round"/>
<path d="M15.487 2.00171V3.98073M12 5.50209H14.052M20.0231 5.50209H22.075M20.0231 8.47531H22.075M12 8.47531H14.052M15.487 10.0209V12M18.5125 10.0209V12M18.5017 2.00171V3.98073M15.052 9.96927H19.0231C19.5753 9.96927 20.0231 9.52155 20.0231 8.96927V4.98073C20.0231 4.42844 19.5753 3.98073 19.0231 3.98073H15.052C14.4997 3.98073 14.052 4.42844 14.052 4.98073V8.96927C14.052 9.52155 14.4997 9.96927 15.052 9.96927Z" stroke="#141B34" stroke-width="1.5" stroke-linecap="round"/>
</svg>
