<svg width="24" height="24" viewBox="0 0 24 24" fill="none" xmlns="http://www.w3.org/2000/svg">
<path d="M6.00391 19.9961H22.0039" stroke="#141B34" stroke-width="1.5" stroke-linecap="round" stroke-linejoin="round"/>
<path d="M3.69895 4.03983C3.08104 4.20835 3.00895 4.91583 2.82895 5.51583C2.67848 6.08008 2.36057 7.32827 2.14431 8.18102C1.98295 8.93583 1.96135 9.23583 2.05735 9.71583C2.28295 10.6158 3.06295 10.9698 4.74295 11.4378C5.58763 11.6538 6.18295 11.835 7.08295 12.075C7.23743 12.1245 7.71748 12.2455 8.10295 12.3498C8.46295 12.4758 8.76295 12.4398 8.69575 12.7158C8.64893 12.8256 8.10535 13.4358 7.60135 13.9758C7.26295 14.3958 7.03495 14.4977 7.03495 14.8158C7.03495 14.8158 7.02295 15.2958 7.69571 15.3558C7.80295 15.4158 9.24295 15.7758 9.78295 15.9318C10.5029 16.1118 11.0429 15.8958 11.4869 15.5958L13.6829 14.1558C14.1629 13.9398 14.2829 14.031 14.8229 14.175L19.6229 15.4758C20.4629 15.7758 21.1829 15.0558 20.9718 14.2158C20.7029 12.7158 20.2229 11.8158 19.4429 10.8558C18.1829 9.35583 16.6468 8.77062 15.5429 8.57583C15.0392 8.48694 13.1455 8.33715 11.3429 8.20383C9.49539 8.06717 7.74369 7.94694 7.68295 7.85583C6.36295 7.55583 6.77095 5.61783 6.20695 4.77183C5.98295 4.43583 5.58295 4.37583 4.98295 4.19583C4.47446 4.06566 4.09762 3.9311 3.69895 4.03983Z" stroke="#141B34" stroke-width="1.5" stroke-linecap="round"/>
</svg>
