<svg width="24" height="24" viewBox="0 0 24 24" fill="none" xmlns="http://www.w3.org/2000/svg">
<path d="M12 22C17.5228 22 22 17.5228 22 12C22 6.47715 17.5228 2 12 2C6.47715 2 2 6.47715 2 12C2 17.5228 6.47715 22 12 22Z" stroke="#141B34" stroke-width="1.5" stroke-linejoin="round"/>
<path d="M16.9927 14.1114C16.9927 14.6957 16.8218 15.2743 16.6967 15.5316C16.2824 16.5547 14.9127 15.7937 14.6081 14.6944C14.5276 14.4035 14.3687 13.721 14.1995 12.9755M14.1995 12.9755C13.9935 12.0675 13.772 11.066 13.6579 10.5648C13.1477 8.82213 11.7711 7.95414 10.422 8.01793C9.22669 8.07444 7.97481 8.84371 7.33518 10.3155C6.97796 11.1376 6.9461 11.95 7.0558 12.6679C7.20397 13.6375 7.64421 14.4461 8.2079 14.9822C9.27463 15.9967 10.7083 16.1955 11.7791 15.7747C12.6256 15.4421 13.2204 14.7775 13.6579 14.0493C13.8661 13.7029 14.0455 13.3423 14.1995 12.9755ZM14.1995 12.9755C14.9753 11.1278 15.1054 9.12496 15.0016 8.01793" stroke="#141B34" stroke-width="1.5"/>
</svg>
