<svg width="24" height="24" viewBox="0 0 24 24" fill="none" xmlns="http://www.w3.org/2000/svg">
<path d="M12.9996 2C12.2828 2 11.4136 2.00014 11.1438 2.18897C10.874 2.3778 10.7607 2.70794 10.534 3.36821C10.2762 4.11444 10.0928 4.88896 9.37574 5.33402L9.02799 5.52847C8.14527 5.968 7.2463 5.59437 6.36607 5.35409C5.90799 5.22812 5.46631 5.19037 5.19558 5.17992C5.02726 5.17342 4.87366 5.26434 4.78679 5.40865L3.14222 8.1405C3.05583 8.284 3.04689 8.46119 3.13063 8.60625C3.25653 8.82437 3.47286 9.16123 3.76428 9.4753C4.45848 10.2274 5.27338 10.8941 5.27338 12.0038C5.27338 13.1136 4.45861 13.7802 3.76428 14.5325C3.47287 14.8466 3.25654 15.1835 3.13063 15.4016C3.04689 15.5467 3.05583 15.7239 3.14222 15.8674L4.78678 18.5992C4.87366 18.7435 5.02728 18.8344 5.1956 18.8279C5.46634 18.8174 5.90802 18.7797 6.36609 18.6537C7.24641 18.4134 8.1454 18.0398 9.02818 18.4794L9.37588 18.6739C10.0928 19.1191 10.2762 19.8934 10.534 20.6397C10.7607 21.3 10.874 21.6301 11.1438 21.8189C11.4136 22.0078 12.2828 22 12.9996 22" stroke="#141B34" stroke-width="1.5" stroke-linecap="round"/>
<path d="M13 15.5C11.067 15.5 9.5 13.933 9.5 12C9.5 10.067 11.067 8.5 13 8.5" stroke="#141B34" stroke-width="1.5" stroke-linecap="round"/>
<path d="M20.25 4.75L18 7H16M19.5 4.75C19.5 5.16421 19.8358 5.5 20.25 5.5C20.6642 5.5 21 5.16421 21 4.75C21 4.33579 20.6642 4 20.25 4C19.8358 4 19.5 4.33579 19.5 4.75Z" stroke="#141B34" stroke-width="1.5" stroke-linecap="round" stroke-linejoin="round"/>
<path d="M20.25 19.25L18 17H16M19.5 19.25C19.5 18.8358 19.8358 18.5 20.25 18.5C20.6642 18.5 21 18.8358 21 19.25C21 19.6642 20.6642 20 20.25 20C19.8358 20 19.5 19.6642 19.5 19.25Z" stroke="#141B34" stroke-width="1.5" stroke-linecap="round" stroke-linejoin="round"/>
<path d="M20.25 12H16M19.5 12C19.5 12.4142 19.8358 12.75 20.25 12.75C20.6642 12.75 21 12.4142 21 12C21 11.5858 20.6642 11.25 20.25 11.25C19.8358 11.25 19.5 11.5858 19.5 12Z" stroke="#141B34" stroke-width="1.5" stroke-linecap="round" stroke-linejoin="round"/>
</svg>
