<svg width="24" height="24" viewBox="0 0 24 24" fill="none" xmlns="http://www.w3.org/2000/svg">
<path d="M2.5 12C2.5 7.52166 2.5 5.28249 3.89124 3.89124C5.28249 2.5 7.52166 2.5 12 2.5C16.4783 2.5 18.7175 2.5 20.1088 3.89124C21.5 5.28249 21.5 7.52166 21.5 12C21.5 16.4783 21.5 18.7175 20.1088 20.1088C18.7175 21.5 16.4783 21.5 12 21.5C7.52166 21.5 5.28249 21.5 3.89124 20.1088C2.5 18.7175 2.5 16.4783 2.5 12Z" stroke="#141B34" stroke-width="1.5" stroke-linejoin="round"/>
<path d="M6.75 11.985V9.00492C6.75 8.72282 6.98154 8.49414 7.26717 8.49414H9.24496C9.68486 8.49414 10.1369 8.56982 10.4648 8.8595C10.8155 9.16935 11.1556 9.64935 11.1387 10.2909C11.119 11.0391 10.5728 11.9234 9.77231 11.985C8.97186 12.0466 8.2198 11.985 6.75 11.985ZM6.75 11.985V14.9675C6.75 15.2496 6.98158 15.478 7.26719 15.4808C8.40785 15.4917 9.07154 15.5322 9.77231 15.4783C10.5728 15.4166 11.119 14.5323 11.1387 13.7841C11.1556 13.1426 10.8155 12.6626 10.4648 12.3527C10.1369 12.063 9.68486 11.9873 9.24496 11.9873L6.75 11.985ZM16.7946 14.9655C16.3563 15.3901 14.2219 16.2293 13.4529 14.0205C13.3729 13.8 13.3093 13.3244 13.3465 12.957M13.3465 12.957C13.4098 12.3314 13.6859 11.4539 14.7106 11.0958C16.1782 10.583 17.1011 12.0065 17.3402 12.957H13.3465ZM14.5879 9.00095H15.9481" stroke="#141B34" stroke-width="1.5" stroke-linecap="round" stroke-linejoin="round"/>
</svg>
