<svg width="24" height="24" viewBox="0 0 24 24" fill="none" xmlns="http://www.w3.org/2000/svg">
<path d="M21.5 11.0287C21.8239 11.8025 22 12.6341 22 13.4999C22 15.5585 21.0047 17.4234 19.3933 18.7787C19.1517 18.9819 19 19.2762 19 19.5919V21.9999H17L16.2062 20.8673C16.083 20.6915 15.8616 20.6152 15.6537 20.6686C13.9248 21.1132 12.0752 21.1132 10.3463 20.6686C10.1384 20.6152 9.91703 20.6915 9.79384 20.8673L9 21.9999H7V19.6154C7 19.2865 6.83835 18.9787 6.56764 18.7921C5.49285 18.051 2 16.6013 2 15.0582V13.4999C2 12.9082 2.44771 12.4285 3 12.4285C3.60665 12.4285 4.10188 12.1928 4.30205 11.566C5.06912 9.16404 7.23085 7.23596 10.0206 6.42065" stroke="#141B34" stroke-width="1.5" stroke-linecap="round" stroke-linejoin="round"/>
<path d="M14.125 9.5L14.125 3.5M16 3.5V2M16 11V9.5M14.125 6.5H17.875M17.875 6.5C18.4963 6.5 19 7.00368 19 7.625V8.375C19 8.99632 18.4963 9.5 17.875 9.5H13M17.875 6.5C18.4963 6.5 19 5.99632 19 5.375V4.625C19 4.00368 18.4963 3.5 17.875 3.5H13" stroke="#141B34" stroke-width="1.5" stroke-linecap="round" stroke-linejoin="round"/>
<path d="M7.49981 12H7.50879" stroke="#141B34" stroke-width="2" stroke-linecap="round" stroke-linejoin="round"/>
</svg>
