<svg width="24" height="24" viewBox="0 0 24 24" fill="none" xmlns="http://www.w3.org/2000/svg">
<path d="M8.99126 11.7136C9.09267 7.30088 8.70689 4.00034 9.36979 3.40054C9.43315 3.34321 9.5071 3.29687 9.58455 3.26141C10.4547 2.86301 12.9058 5.04657 14.51 6.43518C14.7736 6.6633 14.792 7.06701 14.533 7.30034C13.3872 8.33238 11.0496 10.1714 8.99126 11.7136ZM8.99126 11.7136L2.72829 16.5039M8.99126 11.7136C9.09267 16.1264 8.70689 19.4269 9.36979 20.0267C9.43315 20.084 9.50719 20.1304 9.58465 20.1659C9.96652 20.3406 10.6528 20.0182 11.4382 19.4841M2.71777 6.93927L11.6324 13.7664" stroke="#141B34" stroke-width="1.5" stroke-linecap="round" stroke-linejoin="round"/>
<path d="M19.85 19.3725L21.7178 21.2136M20.9252 16.81C20.9252 18.7962 19.3117 20.4064 17.3215 20.4064C15.3312 20.4064 13.7178 18.7962 13.7178 16.81C13.7178 14.8238 15.3312 13.2136 17.3215 13.2136C19.3117 13.2136 20.9252 14.8238 20.9252 16.81Z" stroke="#141B34" stroke-width="1.5" stroke-linecap="round"/>
</svg>
