<svg width="24" height="24" viewBox="0 0 24 24" fill="none" xmlns="http://www.w3.org/2000/svg">
<path d="M6 4L6.33155 4.896C6.63541 5.71716 7.28284 6.36459 8.104 6.66845L9 7L8.104 7.33155C7.28284 7.63541 6.63541 8.28284 6.33155 9.104L6 10L5.66845 9.104C5.36459 8.28284 4.71716 7.63541 3.896 7.33155L3 7L3.896 6.66845C4.71716 6.36459 5.36459 5.71716 5.66845 4.896L6 4Z" stroke="#141B34" stroke-width="1.5" stroke-linejoin="round"/>
<path d="M14.9527 15.001C14.3517 19.8669 11.3447 21.7499 9.97212 22.0087C7.34201 21.6613 5.62189 20.3722 4.54442 18.8682M14.9527 15.001L11.9316 12.9835M14.9527 15.001L17.5108 10M11.9316 12.9835C7.87151 15.7168 4.57241 14.6429 3.05823 13.8834C2.99321 13.8508 2.91582 13.8947 2.91465 13.9676C2.89535 15.1786 3.34666 17.1964 4.54442 18.8682M11.9316 12.9835L14.9376 8.3894M14.9376 8.3894L18.7719 2.52935C19.1032 2.02928 19.7581 1.86118 20.2884 2.14011C20.8595 2.44048 21.0797 3.14778 20.7804 3.72031L17.5108 10M14.9376 8.3894L17.5108 10M4.54442 18.8682C6.63563 19.4905 9.31073 18.4711 10.0856 17.9584" stroke="#141B34" stroke-width="1.5"/>
</svg>
