<svg width="24" height="24" viewBox="0 0 24 24" fill="none" xmlns="http://www.w3.org/2000/svg">
<path d="M8.2622 11.0605L3.08074 12.8517C0.633098 13.7664 3.93216 17.9857 5.02699 19.075C6.12182 20.1642 10.5289 23.6115 11.4483 21.1764L13.1913 15.9644M3.43121 16.5183L6.1329 15.1405M7.83627 20.5259L9.09036 18.0828" stroke="#141B34" stroke-width="1.5" stroke-linecap="round" stroke-linejoin="round"/>
<path d="M12.823 8.27756L13.8253 7.28049C14.2195 6.88824 14.9076 6.9618 15.3018 7.35404L16.866 8.91022C17.2603 9.30247 17.2603 9.93842 16.866 10.3307L15.8638 11.3277C15.5683 11.6217 15.3718 11.9997 15.3013 12.4095L14.8068 15.2862C14.6687 16.0895 13.677 16.4034 13.0978 15.8271L8.55974 11.0397C7.98047 10.4634 8.08557 9.54013 8.89305 9.40273L11.7845 8.91073C12.1964 8.84064 12.5275 8.57156 12.823 8.27756Z" stroke="#141B34" stroke-width="1.5" stroke-linecap="round" stroke-linejoin="round"/>
<path d="M17.1422 9.03074L21.7247 4.2888C23.0817 2.9388 21.2162 1.18866 19.9168 2.48149L15.123 7.02192" stroke="#141B34" stroke-width="1.5" stroke-linecap="round" stroke-linejoin="round"/>
</svg>
