<svg width="24" height="24" viewBox="0 0 24 24" fill="none" xmlns="http://www.w3.org/2000/svg">
<path d="M2.99954 4.99219C2.87968 6.05219 3.53894 8.42419 6.47568 8.42419" stroke="#141B34" stroke-width="1.5" stroke-linecap="round"/>
<path d="M17.582 8.38191C18.8227 8.57991 21.1001 7.49991 20.9827 5.00391" stroke="#141B34" stroke-width="1.5" stroke-linecap="round"/>
<path d="M20.9798 20.9998C21.0397 19.9438 20.1647 17.5558 17.5859 17.4238" stroke="#141B34" stroke-width="1.5" stroke-linecap="round"/>
<path d="M6.43857 17.4724C5.63707 17.2324 3 18.3364 3 21.0004" stroke="#141B34" stroke-width="1.5" stroke-linecap="round"/>
<path d="M9.31684 6.12C9.34082 5.1 9.83226 3 11.9899 3C13.9077 3 14.573 4.62 14.6629 6.12M6.24825 9.42C6.36811 8.64 7.2791 6.816 9.3528 6.636C11.4505 6.5568 14.3273 6.588 14.8667 6.672C15.5738 6.73493 17.282 7.44 17.7375 9.42C17.8993 10.44 17.8154 11.88 17.8394 12.72C17.8034 13.56 17.9077 15.2634 17.7435 16.14C17.6236 17.1 16.9763 18.468 16.0893 19.308C14.7708 20.724 11.1508 22.212 8.02228 19.452C6.40407 17.892 6.29619 16.38 6.17633 15.78C6.14419 15.4583 6.14569 13.8775 6.15235 12.36C6.12838 11.0472 6.15929 9.78179 6.24825 9.42Z" stroke="#141B34" stroke-width="1.5"/>
<path d="M3 12.9004H5.93674" stroke="#141B34" stroke-width="1.5" stroke-linecap="round"/>
<path d="M20.9803 12.9004L18.1035 12.9004" stroke="#141B34" stroke-width="1.5" stroke-linecap="round"/>
<path d="M11.9902 16.5L11.9903 20.28" stroke="#141B34" stroke-width="1.5" stroke-linecap="round"/>
</svg>
