<svg width="24" height="24" viewBox="0 0 24 24" fill="none" xmlns="http://www.w3.org/2000/svg">
<path d="M17.6667 9.16667C19.4375 7.39583 20.5 3.5 20.5 3.5C20.5 3.5 16.6042 4.5625 14.8333 6.33333M17.6667 9.16667L14.8333 6.33333M17.6667 9.16667L16.25 11.2917M14.8333 6.33333L12.7083 7.75M16.25 11.2917L12.7083 7.75M16.25 11.2917L9.875 17.6667C9.2882 18.2535 8.3368 18.2535 7.75 17.6667M12.7083 7.75L6.33333 14.125C5.74653 14.7118 5.74653 15.6632 6.33333 16.25M7.75 17.6667L6.33333 16.25M7.75 17.6667C8.3368 18.2535 8.3368 19.2049 7.75 19.7917L7.04167 20.5L3.5 16.9583L4.20833 16.25C4.79514 15.6632 5.74653 15.6632 6.33333 16.25" stroke="#141B34" stroke-width="1.5" stroke-linecap="round" stroke-linejoin="round"/>
</svg>
