<svg width="24" height="24" viewBox="0 0 24 24" fill="none" xmlns="http://www.w3.org/2000/svg">
<path d="M22 13.9919C22 17.3068 19.3171 19.9879 16 19.9879L16.8571 18.2748" stroke="#141B34" stroke-width="1.5" stroke-linecap="round" stroke-linejoin="round"/>
<path d="M2 9.99451C2 6.6796 4.68286 3.99854 8 3.99854L7.14286 5.71168" stroke="#141B34" stroke-width="1.5" stroke-linecap="round" stroke-linejoin="round"/>
<path d="M10.9668 5.51002H21.7733M13.4668 10.9802H19.5009C20.8816 10.9802 22.0009 9.86169 22.0009 8.48191V4.4827C22.0009 3.10291 20.8816 1.98438 19.5009 1.98438H13.4668C12.0861 1.98438 10.9668 3.10291 10.9668 4.4827V8.48191C10.9668 9.86169 12.0861 10.9802 13.4668 10.9802Z" stroke="#141B34" stroke-width="1.5" stroke-linecap="round" stroke-linejoin="round"/>
<path d="M2 16.5173H12.8065M4.5 21.9876H10.5341C11.9148 21.9876 13.0341 20.869 13.0341 19.4892V15.49C13.0341 14.1102 11.9148 12.9917 10.5341 12.9917H4.5C3.11929 12.9917 2 14.1102 2 15.49V19.4892C2 20.869 3.11929 21.9876 4.5 21.9876Z" stroke="#141B34" stroke-width="1.5" stroke-linecap="round" stroke-linejoin="round"/>
</svg>
