<svg width="24" height="24" viewBox="0 0 24 24" fill="none" xmlns="http://www.w3.org/2000/svg">
<path d="M14.9883 13.0098V19.0153H20.9826" stroke="#141B34" stroke-width="1.5" stroke-linejoin="round"/>
<path d="M20.9824 16.0127V22.0183" stroke="#141B34" stroke-width="1.5" stroke-linejoin="round"/>
<path d="M8.99334 11.8386L8.45665 11.8983C7.65374 11.9877 7.25227 12.0324 6.93246 11.9977C5.37153 11.8283 4.14121 10.4425 4.0062 8.70172C3.97854 8.34508 4.02309 7.89834 4.1122 7.00488" stroke="#141B34" stroke-width="1.5" stroke-linejoin="round"/>
<path d="M13.6797 7.00488H13.6887" stroke="#141B34" stroke-width="2" stroke-linecap="square" stroke-linejoin="round"/>
<path d="M16.9863 7.00488H21.4821" stroke="#141B34" stroke-width="1.5" stroke-linejoin="round"/>
<path d="M17.0864 2.01758H2.12539C2.07016 2.01758 2.02539 2.06235 2.02539 2.11758V5.93339C2.02539 5.97534 2.05158 6.01284 2.09096 6.02728L7.50232 8.01151L9.97302 13.0089H16.4994C19.6645 13.0089 22.6414 9.998 21.9136 6.57494C21.1858 3.15188 18.3922 2.11042 17.0864 2.01758Z" stroke="#141B34" stroke-width="1.5"/>
</svg>
