<svg width="24" height="24" viewBox="0 0 24 24" fill="none" xmlns="http://www.w3.org/2000/svg">
<path d="M14.1539 21.4146C14.2982 21.4699 14.4536 21.5 14.6154 21.5C15.3801 21.5 16 20.8284 16 20C16 19.1716 15.3801 18.5 14.6154 18.5C14.3439 18.5 14.0907 18.5846 13.877 18.7309C12.8158 19.5225 10.85 20.5378 8.61535 20.801M5.84614 20.6936C5.22792 20.5635 4.60867 20.3541 4 20.0478" stroke="#141B34" stroke-width="1.5" stroke-linecap="round"/>
<path d="M19 20.5C19.2581 20.5 19.9557 20.5 21 20.5" stroke="#141B34" stroke-width="1.5" stroke-linecap="round"/>
<path d="M17.4733 8.40196C17.4807 8.40192 17.4882 8.40191 17.4957 8.40191C19.98 8.40191 21.8915 10.36 21.9934 12.6502C22.0714 15.7 19.4205 17.308 17.5013 17.248M17.4733 8.40196C17.4881 8.24557 17.4957 8.08719 17.4957 7.92713C17.4957 4.96 15.032 2.5 11.9956 2.5C9.05686 2.5 6.74016 4.77718 6.49835 7.44927M17.4733 8.40196C17.3711 9.47916 17.0335 10.42 16.2299 11.356M6.49835 7.44927C3.96298 7.67846 2.11777 9.76 1.99782 12.1754C1.91985 14.5 3.53917 16.12 5.51834 16.9C9.17681 18.28 12.6554 17.104 13.8189 15.124C14.3107 14.104 13.7349 12.64 12.3555 12.37C11.5158 12.16 10.0764 12.7 9.99247 14.302M6.49835 7.44927C6.65613 7.43501 6.81603 7.42771 6.97773 7.42771C8.10308 7.42771 9.11684 7.72 10.0045 8.404" stroke="#141B34" stroke-width="1.5" stroke-linecap="round" stroke-linejoin="round"/>
</svg>
