<svg width="24" height="24" viewBox="0 0 24 24" fill="none" xmlns="http://www.w3.org/2000/svg">
<path d="M11.8153 20.8556L11.9425 19.0168M7.83825 20.914L7.96544 19.0168M5.97691 15.5131V13.511M9.95396 8.7458L8.05495 4.15748C7.81547 3.51926 6.8028 2.33378 5.16304 3.45095C4.29579 4.04181 3.50236 4.58279 2.94725 4.96138C2.44212 5.30588 2.12099 5.86255 2.08895 6.47598C1.8884 10.3165 1.86001 16.8412 2.04961 18.9957C2.05332 19.7206 2.34786 21.0473 4.6077 20.9819C4.6077 20.9819 18.8346 20.9258 19.4774 20.9819C20.1202 21.038 21.848 20.8572 21.848 18.9957C21.9325 17.5501 21.9487 15.4127 21.8747 14.0132C21.8448 13.4476 21.6191 12.9117 21.1871 12.5489C20.3728 11.8651 18.9321 10.9162 16.907 10.0149L16.8455 12.0474L13.338 11.9603M1.9256 12.8445C3.40659 11.0279 8.28678 8.57007 11.3393 8.63104C11.6908 8.63807 11.9874 8.87491 12.1228 9.20163L14.6002 15.181M14.6002 15.181L16.89 20.9583M14.6002 15.181C8.77367 14.5905 4.02081 16.0117 1.95666 17.0538M14.6002 15.181C16.8623 15.4103 19.0221 15.78 21.9158 16.9828M9.95396 15.0126V13.0105" stroke="#141B34" stroke-width="1.5" stroke-linecap="round" stroke-linejoin="round"/>
</svg>
