<svg width="24" height="24" viewBox="0 0 24 24" fill="none" xmlns="http://www.w3.org/2000/svg">
<path d="M2.25416 15.6322C2.28812 15.309 2.52233 15.0485 2.99076 14.5276L4.02183 13.3749C4.27386 13.0558 4.45271 12.5 4.45271 11.9998C4.45271 11.5 4.2738 10.944 4.0218 10.625L2.99076 9.47231C2.52233 8.95137 2.28811 8.6909 2.25416 8.36768C2.2202 8.04446 2.39516 7.74083 2.74507 7.13358L3.23865 6.27698C3.61195 5.62915 3.79859 5.30523 4.11617 5.17607C4.43375 5.0469 4.79291 5.14883 5.51125 5.35267L6.73148 5.69637C7.19009 5.80212 7.67124 5.74213 8.08999 5.52698L8.42687 5.33261C8.78595 5.10262 9.06215 4.76352 9.21503 4.36493L9.54899 3.36754C9.76856 2.70753 9.87835 2.37752 10.1397 2.18876C10.4011 2 10.7483 2 11.4426 2H12.5574C13.2518 2 13.599 2 13.8603 2.18876C14.1217 2.37752 14.2315 2.70753 14.4511 3.36754L14.785 4.36493C14.9379 4.76352 15.2141 5.10262 15.5732 5.33261L15.9101 5.52698C16.3288 5.74213 16.81 5.80212 17.2686 5.69637L18.4888 5.35267C19.2071 5.14883 19.5663 5.0469 19.8839 5.17607C20.2015 5.30523 20.3881 5.62915 20.7614 6.27698L21.255 7.13358C21.6049 7.74083 21.7798 8.04446 21.7459 8.36768C21.7119 8.6909 21.4777 8.95137 21.0093 9.47231L19.9782 10.625C19.7263 10.944 19.5473 11.5 19.5473 11.9998C19.5473 12.5 19.7262 13.0558 19.9782 13.3749L21.0093 14.5276C21.4777 15.0485 21.7119 15.309 21.7459 15.6322C21.7798 15.9555 21.6049 16.2591 21.255 16.8663L20.7614 17.7229C20.3881 18.3707 20.2015 18.6947 19.8839 18.8238C19.5663 18.953 19.2071 18.8511 18.4888 18.6472L17.2686 18.3035C16.8099 18.1977 16.3287 18.2578 15.9099 18.473L15.5731 18.6674C15.214 18.8974 14.9379 19.2364 14.7851 19.635L14.4511 20.6325C14.2315 21.2925 14.1217 21.6225 13.8603 21.8112C13.599 22 13.2518 22 12.5574 22H11.4426C10.7483 22 10.4011 22 10.1397 21.8112C9.87835 21.6225 9.76856 21.2925 9.54899 20.6325" stroke="#141B34" stroke-width="1.5" stroke-linecap="round"/>
<path d="M2.73696 18.7798C3.81696 17.6998 7.48896 14.0638 7.84896 13.6438C8.22953 13.1998 7.92096 12.5998 8.10456 10.7398C8.1934 9.8398 8.38699 9.16555 8.94096 8.6638C9.60096 8.0398 10.141 8.0398 12.001 7.99781C13.621 8.0398 13.813 7.8598 13.981 8.27981C14.101 8.57981 13.741 8.7598 13.309 9.23981C12.349 10.1998 11.785 10.6798 11.731 10.9798C11.341 12.2998 12.877 13.0798 13.717 12.2398C14.0346 11.9221 15.505 10.4398 15.649 10.3198C15.757 10.2238 16.0155 10.2284 16.141 10.3798C16.249 10.4859 16.261 10.4998 16.249 10.9798C16.2379 11.4241 16.2428 12.062 16.2442 12.7198C16.2459 13.5721 16.201 14.5198 15.841 14.9998C15.121 16.0798 13.921 16.1398 12.841 16.1878C11.821 16.2478 10.981 16.1398 10.717 16.3318C10.501 16.4398 9.36096 17.6398 7.98096 19.0198L5.52096 21.4798C3.48096 23.0998 1.23696 20.5798 2.73696 18.7798Z" stroke="#141B34" stroke-width="1.5" stroke-linecap="round"/>
</svg>
