<svg width="24" height="24" viewBox="0 0 24 24" fill="none" xmlns="http://www.w3.org/2000/svg">
<path d="M16.9657 8.98355C16.9633 6.03341 16.9187 4.50531 16.0598 3.45899C15.894 3.25693 15.7087 3.07166 15.5067 2.90583C14.4028 2 12.7629 2 9.48288 2C6.20291 2 4.56292 2 3.45909 2.90583C3.25701 3.07165 3.07173 3.25693 2.90589 3.45899C2 4.56274 2 6.20262 2 9.48238C2 12.7622 2 14.402 2.90589 15.5058C3.07172 15.7078 3.25701 15.8931 3.45909 16.0589C4.50548 16.9177 6.03368 16.9623 8.98402 16.9647" stroke="#141B34" stroke-width="1.5" stroke-linecap="round" stroke-linejoin="round"/>
<path d="M14.0303 9.02602L16.996 8.9834M14.0163 22.0027L16.982 21.9601M21.9736 14.0236L21.9456 16.9833M9.01235 14.0371L8.98438 16.9968M11.4893 9.02602C10.6565 9.17518 9.31983 9.32859 9.01235 11.0503M19.4967 21.9601C20.3316 21.8238 21.6705 21.6909 22.0045 19.9741M19.4967 9.02602C20.3294 9.17518 21.6661 9.32859 21.9736 11.0503M11.502 21.9588C10.6692 21.8101 9.3324 21.6574 9.02398 19.9358" stroke="#141B34" stroke-width="1.5" stroke-linecap="round" stroke-linejoin="round"/>
</svg>
