<svg width="24" height="24" viewBox="0 0 24 24" fill="none" xmlns="http://www.w3.org/2000/svg">
<path d="M15.2537 16H5.25085C3.59353 16 2.25 17.3431 2.25 19C2.25 20.6569 3.59353 22 5.25085 22H15.2537C16.911 22 18.2545 20.6569 18.2545 19C18.2545 17.3431 16.911 16 15.2537 16Z" stroke="#141B34" stroke-width="1.5"/>
<path d="M13.0759 6.61222L11.4062 5.06581C10.8378 4.53928 10.5536 4.27602 10.2015 4.13804C9.84944 4.00006 9.02609 4.00006 8.25113 4.00006L8.25504 4.00006C6.36889 4.00006 5.42581 4.00006 4.83985 4.58585C4.25391 5.17163 4.25391 6.11444 4.25391 8.00006V9.00006C4.25391 10.8857 4.25391 11.8285 4.83985 12.4143C5.42581 13.0001 6.36889 13.0001 8.25504 13.0001H10.5709C12.1524 13.0001 12.9433 13.0001 13.4853 12.5781C13.6157 12.4766 13.7331 12.3593 13.8346 12.2289C14.2567 11.687 14.2567 10.8964 14.2567 9.31525C14.2567 8.5911 14.1529 7.99131 14.0338 7.66178C13.8729 7.35044 13.6072 7.10437 13.0759 6.61222ZM13.0759 6.61222C13.0759 6.61222 16.1175 3.24006 16.5736 2.82006C17.079 2.41585 17.3538 1.99806 19.0943 2.00406C19.4253 1.99747 19.8145 1.99806 20.2586 1.99806M20.2586 5.49606V6.00006M20.2106 11.4961V11.9401C20.2106 12.0336 20.2346 11.9881 20.2346 11.9881C20.3565 11.993 20.7148 12.0841 20.7148 12.0841C20.7148 12.0841 21.8071 12.4201 21.747 13.6201C21.714 14.2801 21.1912 14.8234 20.5587 14.9641C19.8607 15.1193 19.0343 14.7601 18.7582 14.0041M20.2586 8.50206V9.00006" stroke="#141B34" stroke-width="1.5" stroke-linecap="round"/>
<path d="M10.2476 19H10.2566M6.25098 19H6.25995M14.2442 19H14.2532" stroke="#141B34" stroke-width="2" stroke-linecap="round" stroke-linejoin="round"/>
</svg>
