<svg width="24" height="24" viewBox="0 0 24 24" fill="none" xmlns="http://www.w3.org/2000/svg">
<path d="M3.99998 13.0001C3.99998 13.0001 2 11.5271 2 11.0001C2 10.473 4 9.00013 4 9.00013M20.0058 15.0006C20.0058 15.0006 22.0049 13.5276 22.0049 13.0006C22.0049 12.4735 20.0058 11.0006 20.0058 11.0006M21.78 12.868C20.3683 13.1579 17.7224 13.2705 16.4118 10.8167C15.8685 9.95317 15.9704 8.50717 15.9704 6.86155C15.9366 6.19074 15.3651 4.97044 13.933 5.00105C12.5008 5.03167 12.0306 6.20782 11.9745 6.79206V16.9027C11.9891 17.7544 11.4954 18.9998 9.97896 18.9998C8.49849 18.9998 7.91897 17.6877 8.04667 16.7041C8.39252 14.0401 7.58425 11.2477 4.08402 11.0035H2" stroke="#141B34" stroke-width="1.5" stroke-linecap="round" stroke-linejoin="round"/>
</svg>
