<svg width="24" height="24" viewBox="0 0 24 24" fill="none" xmlns="http://www.w3.org/2000/svg">
<path d="M3.99904 15.0001C3.99904 15.0001 2 13.5271 2 13.0001C2 12.473 3.99906 11.0001 3.99906 11.0001M2.22485 12.8675C3.63652 13.1574 6.28249 13.27 7.59302 10.8163C8.13634 9.95268 8.03448 8.50668 8.03448 6.86106C8.06829 6.19025 8.63974 4.96995 10.0719 5.00057C11.504 5.03118 11.9743 6.20733 12.0304 6.79158V16.9022C12.0158 17.7539 12.5095 18.9993 14.0259 18.9993C15.5064 18.9993 16.0859 17.6872 15.9582 16.7036C15.6123 14.0396 16.4206 11.2472 19.9208 11.003H22.0049" stroke="#141B34" stroke-width="1.5" stroke-linecap="round" stroke-linejoin="round"/>
</svg>
