<svg width="24" height="24" viewBox="0 0 24 24" fill="none" xmlns="http://www.w3.org/2000/svg">
<path d="M11 8C15.4183 8 19 6.65685 19 5C19 3.34315 15.4183 2 11 2C6.58172 2 3 3.34315 3 5C3 6.65685 6.58172 8 11 8Z" stroke="#141B34" stroke-width="1.5"/>
<path d="M6 10.8418C6.60158 11.0226 7.27434 11.1716 8 11.2817" stroke="#141B34" stroke-width="1.5" stroke-linecap="round"/>
<path d="M11 15C6.58172 15 3 13.6569 3 12" stroke="#141B34" stroke-width="1.5" stroke-linecap="round"/>
<path d="M6 17.8418C6.60158 18.0226 7.27434 18.1716 8 18.2817" stroke="#141B34" stroke-width="1.5" stroke-linecap="round"/>
<path d="M11 22C6.58172 22 3 20.6569 3 19V5M19 5V10.5" stroke="#141B34" stroke-width="1.5" stroke-linecap="round" stroke-linejoin="round"/>
<path d="M15.7429 16.379C15.7429 16.3191 15.7511 15.554 15.7525 15.1196C15.7538 14.7227 15.7189 14.3399 15.9085 13.9897C16.6189 12.5767 18.6589 12.7206 19.1629 14.16C19.2503 14.397 19.2555 14.7727 19.2529 15.1196C19.2496 15.5629 19.2589 16.379 19.2589 16.379M15.7429 16.379C14.6631 16.379 14.2191 17.1587 14.0991 17.6385C13.9791 18.1183 13.9791 19.8576 14.0511 20.5772C14.291 21.4769 14.8909 21.8487 15.4788 21.9687C16.0187 22.0166 18.2983 21.9986 18.9582 21.9986C19.918 22.0166 20.6379 21.6568 20.9378 20.5772C20.9978 20.2174 21.0578 18.2382 20.9078 17.6385C20.5899 16.6789 19.8588 16.379 19.2589 16.379M15.7429 16.379H19.2589" stroke="#141B34" stroke-width="1.5" stroke-linecap="round"/>
</svg>
