<svg width="24" height="24" viewBox="0 0 24 24" fill="none" xmlns="http://www.w3.org/2000/svg">
<path d="M8 15.5H13M10.4986 13H10.5079M10.5009 18H10.5103" stroke="#141B34" stroke-width="1.5" stroke-linecap="round" stroke-linejoin="round"/>
<path d="M6.77344 3.91069C9.80675 6.99559 14.8092 0.337587 17.7691 2.75385C19.4724 4.14415 18.9339 7.21387 16.7229 9.21387" stroke="#141B34" stroke-width="1.5" stroke-linecap="round"/>
<path d="M18.9374 6.79217C19.9207 6.97054 20.1413 7.557 20.4349 9.18434C20.6993 10.65 20.7734 12.4088 20.7734 13.1574C20.7465 13.4333 20.6266 13.6908 20.4349 13.9009C18.3789 15.9359 14.2986 19.7789 12.2391 21.6879C11.4309 22.3694 10.2116 22.3841 9.35389 21.7585C7.59751 20.2665 5.90998 18.5798 4.25686 17.0568C3.59274 16.2489 3.60831 15.1005 4.33193 14.3393C6.51055 12.2048 10.4528 8.55117 12.6782 6.53274C12.9013 6.35217 13.1747 6.23922 13.4676 6.21387C13.9669 6.21375 14.8235 6.27714 15.658 6.32283" stroke="#141B34" stroke-width="1.5" stroke-linecap="round"/>
</svg>
