<svg width="24" height="24" viewBox="0 0 24 24" fill="none" xmlns="http://www.w3.org/2000/svg">
<path d="M19 13.0526V13.2264M19 13.2264C19 12.3517 18.3574 11.6051 17.4807 11.4613L16.2727 11.2632V12.1579M19 13.2264V15.4386C19 17.3832 19 18.3555 18.699 19.1296C18.2388 20.3132 17.2915 21.2485 16.0926 21.7029C15.3086 22 14.3238 22 12.3542 22C11.3213 22 10.8048 22 10.3242 21.8957C9.59086 21.7366 8.9091 21.4 8.34017 20.9163C7.96726 20.5992 7.65737 20.1913 7.03761 19.3755L4.30671 15.7805C3.88709 15.2281 3.89916 14.4654 4.33605 13.9262C4.90702 13.2215 5.97161 13.1633 6.61791 13.8014L8 15.2557V6.5C8 5.67157 8.67157 5 9.5 5C10.3284 5 11 5.67157 11 6.5V9.4737M16.2727 12.1579C16.2727 11.1696 15.4587 10.3684 14.4545 10.3684H13.5455V11.2632M16.2727 12.1579V13.0526M11 9.4737H11.7273C12.7314 9.4737 13.5455 10.2749 13.5455 11.2632M11 9.4737V12.1579M13.5455 11.2632V12.1579" stroke="#141B34" stroke-width="1.5" stroke-linecap="round" stroke-linejoin="round"/>
<path d="M11.438 9.5C12.6677 8.81764 13.5 7.50601 13.5 6C13.5 3.79086 11.7091 2 9.5 2C7.29086 2 5.5 3.79086 5.5 6C5.5 7.50601 6.33229 8.81764 7.562 9.5" stroke="#141B34" stroke-width="1.5" stroke-linecap="round"/>
<path d="M18.0213 3.99561L19.7647 5.43632C20.0198 5.70828 20.0624 5.91336 19.9366 6.21471C19.891 6.32386 19.8136 6.41604 19.7251 6.49449L18.0213 8.00446M13.8535 5.98052H18.838" stroke="#141B34" stroke-width="1.5" stroke-linecap="round" stroke-linejoin="round"/>
</svg>
