<svg width="24" height="24" viewBox="0 0 24 24" fill="none" xmlns="http://www.w3.org/2000/svg">
<path d="M20 12V10.6569C20 9.83935 20 9.4306 19.8478 9.06306C19.6955 8.69552 19.4065 8.40649 18.8284 7.82843L14.0919 3.09188C13.593 2.593 13.3436 2.34355 13.0345 2.19575C12.9702 2.165 12.9044 2.13772 12.8372 2.11401C12.5141 2 12.1614 2 11.4558 2C8.21082 2 6.58831 2 5.48933 2.88607C5.26731 3.06508 5.06508 3.26731 4.88607 3.48933C4 4.58831 4 6.21082 4 9.45584V14C4 17.7712 4 19.6569 5.17157 20.8284C6.34315 22 8.22876 22 12 22M13 2.5V3C13 5.82843 13 7.24264 13.8787 8.12132C14.7574 9 16.1716 9 19 9H19.5" stroke="#141B34" stroke-width="1.5" stroke-linecap="round" stroke-linejoin="round"/>
<path d="M20 17.6224V15.6513C20 15.3413 19.7723 15.084 19.477 15.0312C18.2869 14.8184 17.299 14.345 16.817 14.0826C16.6197 13.9751 16.3803 13.9751 16.183 14.0826C15.701 14.345 14.7131 14.8184 13.523 15.0312C13.2277 15.084 13 15.3413 13 15.6513V17.6224C13 20.1938 15.5424 21.5963 16.2935 21.9546C16.426 22.0178 16.574 22.0178 16.7065 21.9546C17.4576 21.5963 20 20.1938 20 17.6224Z" stroke="#141B34" stroke-width="1.5" stroke-linecap="round"/>
</svg>
