<svg width="24" height="24" viewBox="0 0 24 24" fill="none" xmlns="http://www.w3.org/2000/svg">
<path d="M13.2403 17.5C13.1932 17.8033 13.1508 18.0485 13.1141 18.2442C12.8853 19.4657 11.1532 20.2006 10.226 20.8563C9.67406 21.2466 9.0043 20.782 8.93278 20.1778C8.79643 19.0261 8.53961 16.6864 8.25927 13.2614C8.23409 12.9539 8.08486 12.6761 7.85746 12.5061C5.36901 10.6456 3.59564 8.59915 2.62734 7.44867C2.3276 7.09253 2.22938 6.8319 2.17033 6.3728C1.96811 4.8008 1.86701 4.0148 2.32795 3.5074C2.7889 3 3.60404 3 5.23433 3H16.7657C18.396 3 19.2111 3 19.672 3.5074C19.8956 3.75346 19.9869 4.06504 19.9987 4.5" stroke="#141B34" stroke-width="1.5" stroke-linecap="round" stroke-linejoin="round"/>
<path d="M20.8595 7.43934L21.5538 8.13171C22.1412 8.71749 22.1412 9.66724 21.5538 10.253L17.9163 13.9487C17.6302 14.234 17.2642 14.4264 16.8664 14.5005L14.612 14.9885C14.2561 15.0656 13.9391 14.7504 14.0153 14.3952L14.4952 12.1599C14.5695 11.7632 14.7624 11.3982 15.0485 11.1129L18.7323 7.43934C19.3197 6.85355 20.2721 6.85355 20.8595 7.43934Z" stroke="#141B34" stroke-width="1.5" stroke-linecap="round" stroke-linejoin="round"/>
</svg>
