<svg width="24" height="24" viewBox="0 0 24 24" fill="none" xmlns="http://www.w3.org/2000/svg">
<path d="M12 21.5017C16.4183 21.5017 20 17.92 20 13.5017C20 10.5406 18.3912 6.60769 16 4.33564L14 7L10.5 2.5C7 5 4 9.59612 4 13.5017C4 17.92 7.58172 21.5017 12 21.5017Z" stroke="#141B34" stroke-width="1.5" stroke-linejoin="round"/>
<path d="M12 18.501C14.2091 18.501 16 16.4863 16 14.001C16 13.21 15.8186 12.4667 15.5 11.8208L13.5 13.501L10.5 9.5C9.5 10.5 8 12.1125 8 14.001C8 16.4863 9.79086 18.501 12 18.501Z" stroke="#141B34" stroke-width="1.5" stroke-linejoin="round"/>
</svg>
