<svg width="24" height="24" viewBox="0 0 24 24" fill="none" xmlns="http://www.w3.org/2000/svg">
<path d="M2.99875 20.9844V3.99916C2.99875 3.52819 2.99875 3.29271 3.14492 3.14638C3.2911 3.00007 3.52637 3.00005 3.9969 3.00003L4.68339 3C4.98285 2.99999 4.99815 3.01194 5.07078 3.30273L5.41865 4.69552C5.49128 4.98629 5.50657 4.99825 5.80602 4.99825H7.17893C7.47838 4.99825 7.49367 4.98629 7.5663 4.69552L7.91417 3.3028C7.9868 3.01203 8.0021 3.00008 8.30154 3.00008H8.988C9.45855 3.00008 9.69384 3.00008 9.84002 3.1464C9.98621 3.29272 9.98621 3.52821 9.98621 3.99921V7.99573C9.98621 8.46672 9.98621 8.70223 10.1323 8.84854C10.2786 8.99486 10.5139 8.99486 10.9844 8.99486H12.9808C13.4514 8.99486 13.6867 8.99486 13.8329 8.84854C13.979 8.70223 13.979 8.46672 13.979 7.99573V3.99921C13.979 3.52821 13.979 3.29272 14.1252 3.1464C14.2714 3.00008 14.5067 3.00008 14.9772 3.00008H15.6637C15.9632 3.00008 15.9785 3.01203 16.051 3.3028L16.399 4.69552C16.4716 4.9863 16.4868 4.99825 16.7863 4.99825H18.1592C18.4587 4.99825 18.474 4.98629 18.5465 4.69552L18.8944 3.30273C18.9671 3.01194 18.9824 2.99999 19.2818 3L19.9683 3.00003C20.4388 3.00005 20.6741 3.00007 20.8204 3.14638C20.9665 3.29271 20.9665 3.52819 20.9665 3.99916V20.9844M6.99158 8.99478H5.99337M12.4817 11.9922H11.4835M17.9719 8.99478H16.9737M1.97656 21H9.01054V17.6948C9.01054 16.8635 9.80275 15.0052 11.9787 15.0052C14.1547 15.0052 14.9426 16.8635 14.9426 17.6948V21H21.9766" stroke="#141B34" stroke-width="1.5" stroke-linecap="round" stroke-linejoin="round"/>
</svg>
