<svg width="24" height="24" viewBox="0 0 24 24" fill="none" xmlns="http://www.w3.org/2000/svg">
<path d="M6.41895 21.8242L2.17586 17.5833C1.91354 17.3211 1.94954 16.8862 2.25142 16.6707C3.6843 15.6477 5.64711 15.8101 6.89223 17.0546L6.94791 17.1102C8.19303 18.3547 8.35547 20.3165 7.33199 21.7487C7.11636 22.0504 6.68127 22.0864 6.41895 21.8242Z" stroke="#141B34" stroke-width="1.5" stroke-linecap="round" stroke-linejoin="round"/>
<path d="M7.00195 17L11.004 13" stroke="#141B34" stroke-width="1.5" stroke-linecap="round" stroke-linejoin="round"/>
<path d="M14.5 9.5H14.509" stroke="#141B34" stroke-width="2" stroke-linecap="round" stroke-linejoin="round"/>
<path d="M13.8651 5.67785C17.2935 3.9274 17.1271 2.6783 18.0641 2.01356C18.3577 1.88664 19.2736 2.46556 20.1786 3.28786C21.2046 4.22013 22.172 5.50065 21.9798 5.99429C21.3562 6.69032 20.0882 6.9812 18.7067 9.52619C16.9382 12.4916 14.477 13.3901 13.0623 13.9065L13.0263 13.9197C12.7127 14.0342 12.3572 14.001 12.1017 13.7863C11.6746 13.4275 11.3459 13.0451 11.054 12.7616C9.99609 11.7981 9.99609 11.5276 9.99609 11.2732C10.0574 10.2441 12.1191 6.74725 13.8651 5.67785Z" stroke="#141B34" stroke-width="1.5" stroke-linecap="round" stroke-linejoin="round"/>
</svg>
