<svg width="24" height="24" viewBox="0 0 24 24" fill="none" xmlns="http://www.w3.org/2000/svg">
<path d="M6.08938 15C5.71097 14.1494 5.5 13.2031 5.5 12.2059C5.5 8.50233 8.41015 5.5 12 5.5C15.5899 5.5 18.5 8.50233 18.5 12.2059C18.5 13.2031 18.289 14.1494 17.9106 15" stroke="#141B34" stroke-width="1.5" stroke-linecap="round"/>
<path d="M12 2V3" stroke="#141B34" stroke-width="1.5" stroke-linecap="round" stroke-linejoin="round"/>
<path d="M22 12H21" stroke="#141B34" stroke-width="1.5" stroke-linecap="round" stroke-linejoin="round"/>
<path d="M3 12H2" stroke="#141B34" stroke-width="1.5" stroke-linecap="round" stroke-linejoin="round"/>
<path d="M19.0704 4.92871L18.3633 5.63582" stroke="#141B34" stroke-width="1.5" stroke-linecap="round" stroke-linejoin="round"/>
<path d="M5.6368 5.6368L4.92969 4.92969" stroke="#141B34" stroke-width="1.5" stroke-linecap="round" stroke-linejoin="round"/>
<path d="M14.517 19.3064C15.5274 18.9796 15.9326 18.0548 16.0466 17.1246C16.0806 16.8467 15.852 16.6162 15.572 16.6162L8.47685 16.6164C8.18725 16.6164 7.95467 16.8622 7.98925 17.1497C8.1009 18.0781 8.3827 18.7562 9.45345 19.3064M14.517 19.3064C14.517 19.3064 9.62971 19.3064 9.45345 19.3064M14.517 19.3064C14.3955 21.2514 13.8338 22.0217 12.0068 22.0001C10.0526 22.0362 9.60303 21.0841 9.45345 19.3064" stroke="#141B34" stroke-width="1.5" stroke-linecap="round" stroke-linejoin="round"/>
</svg>
