<svg width="24" height="24" viewBox="0 0 24 24" fill="none" xmlns="http://www.w3.org/2000/svg">
<path d="M20.8608 3.18451C10.9662 1.50343 2.11225 11.6193 3.07364 20.9285C12.4055 21.8875 22.546 13.0551 20.8608 3.18451Z" stroke="#141B34" stroke-width="1.5" stroke-linecap="round" stroke-linejoin="round"/>
<path d="M7 17H7.00898" stroke="#141B34" stroke-width="1.5" stroke-linecap="round" stroke-linejoin="round"/>
<path d="M17 7H17.009" stroke="#141B34" stroke-width="1.5" stroke-linecap="round" stroke-linejoin="round"/>
<path d="M9.53681 14.482C8.8445 13.7914 8.8445 12.6717 9.53681 11.9811L12.0059 9.51797C12.6982 8.82734 13.8206 8.82734 14.5129 9.51797C15.2053 10.2086 15.2053 11.3283 14.5129 12.0189L12.0438 14.482C11.3515 15.1727 10.2291 15.1727 9.53681 14.482Z" stroke="#141B34" stroke-width="1.5" stroke-linecap="round" stroke-linejoin="round"/>
<path d="M5.79824 5.6879C5.92055 3.2965 5.26242 2.3338 4.64375 2.06198C4.28627 1.90492 3.89732 2.10386 3.58206 2.33393C2.9888 2.7669 2.66281 3.08907 2.27612 3.68393C2.0789 3.98732 1.95297 4.36455 2.10951 4.69069C2.63445 5.78438 4.725 5.94365 5.79824 5.6879ZM5.79824 5.6879L18.28 18.3215M18.28 18.3215C18.1593 20.713 18.818 21.6753 19.4369 21.9467C19.7944 22.1035 20.1833 21.9044 20.4984 21.6741C21.0913 21.2407 21.4171 20.9184 21.8034 20.3233C22.0005 20.0197 22.1262 19.6424 21.9694 19.3164C21.4438 18.223 19.3531 18.0651 18.28 18.3215Z" stroke="#141B34" stroke-width="1.5" stroke-linecap="round" stroke-linejoin="round"/>
</svg>
