<svg width="24" height="24" viewBox="0 0 24 24" fill="none" xmlns="http://www.w3.org/2000/svg">
<path d="M20.5 16.5V8.5C20.5 6.14298 20.5 4.96447 19.7678 4.23223C19.0355 3.5 17.857 3.5 15.5 3.5H8.5C6.14298 3.5 4.96447 3.5 4.23223 4.23223C3.5 4.96447 3.5 6.14298 3.5 8.5V16.5" stroke="#141B34" stroke-width="1.5" stroke-linecap="round" stroke-linejoin="round"/>
<path d="M21.9842 20.5H2.01579C1.63286 20.5 1.38379 20.1088 1.55505 19.7764L3.5 16.5H20.5L22.445 19.7764C22.6162 20.1088 22.3671 20.5 21.9842 20.5Z" stroke="#141B34" stroke-width="1.5" stroke-linecap="round" stroke-linejoin="round"/>
<path d="M12 12L12 13.5M12 12C12.737 12 13.3809 11.6013 13.7278 11.0079M12 12C11.263 12 10.6191 11.6013 10.2722 11.0079M12 8L12 6.5M12 8C12.737 8 13.3809 8.39866 13.7278 8.99209M12 8C11.263 8 10.6191 8.39865 10.2722 8.99209M15 8.25L13.7278 8.99209M9 11.75L10.2722 11.0079M15 11.75L13.7278 11.0079M9 8.25L10.2722 8.99209M13.7278 11.0079C13.9009 10.7119 14 10.3676 14 10C14 9.63244 13.9009 9.28805 13.7278 8.99209M10.2722 8.99209C10.0992 9.28804 10 9.63244 10 10C10 10.3676 10.0991 10.712 10.2722 11.0079" stroke="#141B34" stroke-width="1.5" stroke-linecap="round" stroke-linejoin="round"/>
</svg>
