<svg width="24" height="24" viewBox="0 0 24 24" fill="none" xmlns="http://www.w3.org/2000/svg">
<path d="M19.4999 11V10C19.4999 6.22876 19.4999 4.34315 18.3284 3.17157C17.1568 2 15.2712 2 11.4999 2H10.5C6.72883 2 4.84323 2 3.67166 3.17156C2.50008 4.34312 2.50007 6.22872 2.50004 9.99993L2.5 14C2.49997 17.7712 2.49995 19.6568 3.67149 20.8284C4.84306 21.9999 6.72873 22 10.4999 22" stroke="#141B34" stroke-width="1.5" stroke-linecap="round" stroke-linejoin="round"/>
<path d="M7 7H15M7 12H15" stroke="#141B34" stroke-width="1.5" stroke-linecap="round"/>
<path d="M13 20.8268V22H14.1734C14.5827 22 14.7874 22 14.9715 21.9238C15.1555 21.8475 15.3003 21.7028 15.5897 21.4134L20.4133 16.5894C20.6864 16.3164 20.8229 16.1799 20.8959 16.0327C21.0347 15.7525 21.0347 15.4236 20.8959 15.1434C20.8229 14.9961 20.6864 14.8596 20.4133 14.5866C20.1403 14.3136 20.0038 14.1771 19.8565 14.1041C19.5763 13.9653 19.2473 13.9653 18.9671 14.1041C18.8198 14.1771 18.6833 14.3136 18.4103 14.5866L18.4103 14.5866L13.5867 19.4106C13.2972 19.7 13.1525 19.8447 13.0762 20.0287C13 20.2128 13 20.4174 13 20.8268Z" stroke="#141B34" stroke-width="1.5" stroke-linejoin="round"/>
</svg>
