<svg width="24" height="24" viewBox="0 0 24 24" fill="none" xmlns="http://www.w3.org/2000/svg">
<path d="M13 2H10C6.22876 2 4.34315 2 3.17157 3.17157C2 4.34315 2 6.22876 2 10C2 13.7712 2 15.6569 3.17157 16.8284C4.34315 18 6.22876 18 10 18H14C17.7712 18 19.6569 18 20.8284 16.8284C21.4816 16.1752 21.7706 15.3001 21.8985 14" stroke="#141B34" stroke-width="1.5" stroke-linecap="round"/>
<path d="M12 18V22" stroke="#141B34" stroke-width="1.5"/>
<path d="M8 22H16" stroke="#141B34" stroke-width="1.5" stroke-linecap="round"/>
<path d="M11 15H13" stroke="#141B34" stroke-width="1.5" stroke-linecap="round" stroke-linejoin="round"/>
<path d="M16.7507 5.37591C16.7507 5.3159 16.7494 4.55703 16.7507 4.12245C16.752 3.72536 16.7171 3.34245 16.9067 2.99205C17.6171 1.57845 19.6571 1.72245 20.1611 3.16245C20.2485 3.39952 20.2537 3.77537 20.2511 4.12245C20.2479 4.56593 20.2571 5.37591 20.2571 5.37591M16.7507 5.37591C15.6707 5.37591 15.2171 6.1559 15.0971 6.63591C14.9771 7.11591 14.9771 8.85591 15.0491 9.57591C15.2891 10.4759 15.8891 10.8479 16.4771 10.9679C17.0171 11.0159 19.2971 10.9979 19.9571 10.9979C20.9171 11.0159 21.6371 10.6559 21.9371 9.57591C21.9971 9.21591 22.0571 7.23591 21.9071 6.6359C21.5891 5.6759 20.8571 5.37591 20.2571 5.37591M16.7507 5.37591H20.2571" stroke="#141B34" stroke-width="1.5" stroke-linecap="round"/>
</svg>
