<svg width="24" height="24" viewBox="0 0 24 24" fill="none" xmlns="http://www.w3.org/2000/svg">
<path d="M18 11.0029C17.6078 10.2026 16.5481 9.02733 14.3704 9.07734C14.3704 9.07734 12.6432 9.00232 10.6907 9.00232C8.7382 9.00232 7.82413 9.04804 6.26004 9.07734C5.25876 9.05233 3.35634 9.27739 2.48022 11.353C1.90449 13.1034 1.87946 16.7794 2.22991 18.6299C2.305 19.5802 2.80564 20.9056 4.35762 21.6057C5.30883 22.1059 6.83578 21.9058 7.98724 22.0059M5.98469 8.2021C5.93463 5.82645 5.8345 3.95094 8.58801 2.40052C9.51419 2.02542 10.8909 1.70033 12.5931 2.50055C14.3704 3.57584 14.5917 4.71382 14.7459 5.00123C15.1714 6.12653 14.9461 7.72697 14.9962 8.37715" stroke="#141B34" stroke-width="1.5" stroke-linecap="round"/>
<path d="M15.5 19.7408C15.5 20.9848 14.4911 21.9712 13.2553 21.9712C12.0194 21.9712 11 20.9848 11 19.7408C11 18.4967 12.0194 17.4971 13.2553 17.4971C14.4911 17.4971 15.5 18.4967 15.5 19.7408Z" stroke="#141B34" stroke-width="1.5"/>
<path d="M15.2246 17.7958L17.2151 15.8531M21.9996 15.8531L20.3726 14.3138C19.5996 13.574 18.9496 14.2197 18.626 14.4955L17.2151 15.8531M17.2151 15.8531L18.8246 17.3984" stroke="#141B34" stroke-width="1.5" stroke-linecap="round"/>
</svg>
