<svg width="24" height="24" viewBox="0 0 24 24" fill="none" xmlns="http://www.w3.org/2000/svg">
<path d="M20 7C19.923 5.58273 19.7125 4.6644 19.1364 3.96243C18.9702 3.75989 18.7844 3.57418 18.5819 3.40796C17.4756 2.5 15.8318 2.5 12.5443 2.5L12 2.50016C8.22876 2.50016 6.34315 2.50016 5.17157 3.67173C4 4.84331 4 6.72892 4 10.5002V13.5002C4 17.2714 4 19.157 5.17157 20.3286C6.34315 21.5002 8.22876 21.5002 12 21.5002L12.5443 21.5C15.8318 21.5 17.4756 21.5 18.5819 20.592C18.7844 20.4258 18.9702 20.2401 19.1364 20.0376C19.7125 19.3356 19.923 18.4173 20 17" stroke="#141B34" stroke-width="1.5" stroke-linecap="round"/>
<path d="M13 8C13 8 9.00001 10.946 9 12C8.99999 13.0541 13 16 13 16M9.5 12H20" stroke="#141B34" stroke-width="1.5" stroke-linecap="round" stroke-linejoin="round"/>
</svg>
