<svg width="24" height="24" viewBox="0 0 24 24" fill="none" xmlns="http://www.w3.org/2000/svg">
<path d="M22 12.087V9.23383C22 7.28982 22 6.31782 21.4142 5.71389C20.8284 5.10996 19.8856 5.10996 18 5.10996H15.9214C15.004 5.10996 14.9964 5.10818 14.1715 4.69443L10.8399 3.02345C9.44884 2.32578 8.75332 1.97694 8.01238 2.00118C7.27143 2.02543 6.59877 2.41903 5.25345 3.20623L4.02558 3.92472C3.03739 4.50294 2.54329 4.79207 2.27164 5.27303C2 5.75401 2 6.33973 2 7.51118V15.7467C2 17.2859 2 18.0556 2.34226 18.4839C2.57001 18.7689 2.88916 18.9605 3.242 19.0241C3.77226 19.1195 4.42148 18.7396 5.71987 17.9798C6.60156 17.4639 7.45011 16.9281 8.50487 17.0734C9.38869 17.1951 10.21 17.7541 11 18.1503" stroke="#141B34" stroke-width="1.5" stroke-linecap="round" stroke-linejoin="round"/>
<path d="M8 2V17.034" stroke="#141B34" stroke-width="1.5" stroke-linejoin="round"/>
<path d="M15 5.00684V11.0204" stroke="#141B34" stroke-width="1.5" stroke-linecap="round" stroke-linejoin="round"/>
<path d="M20.105 20.1744L21.9502 21.9974M21.1672 17.6371C21.1672 19.6038 19.5732 21.1981 17.607 21.1981C15.6408 21.1981 14.0469 19.6038 14.0469 17.6371C14.0469 15.6705 15.6408 14.0762 17.607 14.0762C19.5732 14.0762 21.1672 15.6705 21.1672 17.6371Z" stroke="#141B34" stroke-width="1.5" stroke-linecap="round"/>
</svg>
