<svg width="24" height="24" viewBox="0 0 24 24" fill="none" xmlns="http://www.w3.org/2000/svg">
<path d="M3.5 11.75L11.6718 3.57843C12.7763 2.47386 14.5673 2.47386 15.6718 3.57843C16.7763 4.683 16.7763 6.47386 15.6718 7.57843M15.6718 7.57843L9.5 13.75M15.6718 7.57843C16.7763 6.47386 18.5673 6.47386 19.6718 7.57843C20.7763 8.683 20.7763 10.4739 19.6718 11.5784L12.7073 18.5429C12.3168 18.9334 12.3168 19.5666 12.7073 19.9571L14 21.2498" stroke="#141B34" stroke-width="1.5" stroke-linecap="round" stroke-linejoin="round"/>
<path d="M17.5 9.74884L11.3283 15.9206C10.2238 17.0252 8.43281 17.0252 7.32831 15.9206C6.22382 14.816 6.22382 13.0252 7.32831 11.9206L13.5 5.74902" stroke="#141B34" stroke-width="1.5" stroke-linecap="round" stroke-linejoin="round"/>
</svg>
