<svg width="24" height="24" viewBox="0 0 24 24" fill="none" xmlns="http://www.w3.org/2000/svg">
<path d="M20.5424 20.6405C22.0719 19.1116 22.6195 17.1803 20.5424 15.1042C18.4653 13.028 15.0036 12.336 13.6189 13.7201M20.5424 20.6405C19.0128 22.1693 17.0807 22.7166 15.0036 20.6405C12.9265 18.5643 12.2341 15.1042 13.6189 13.7201M20.5424 20.6405L13.6189 13.7201" stroke="#141B34" stroke-width="1.5"/>
<path d="M11.8473 22.0031H7.90655M4.89099 4.9505L2.46713 7.46206C2.10733 7.83489 1.90625 8.3328 1.90625 8.85093V20.0031C1.90625 21.1077 2.80168 22.0031 3.90625 22.0031H7.90655M4.89099 4.9505L7.90655 8.04324M4.89099 4.9505V3.50635C4.89099 2.67792 5.56257 2.00635 6.39099 2.00635H13.9444C14.7847 2.00635 15.4611 2.69661 15.4441 3.53677L15.4231 4.57014C15.4183 4.80613 15.4972 5.0362 15.6457 5.21965L17.9317 8.04324M7.90655 8.04324V22.0031M7.90655 8.04324H17.9317M17.9317 8.04324V10.4874" stroke="#141B34" stroke-width="1.5" stroke-linecap="round" stroke-linejoin="round"/>
</svg>
