<svg width="24" height="24" viewBox="0 0 24 24" fill="none" xmlns="http://www.w3.org/2000/svg">
<path d="M12 2C8.70017 2 7.05025 2 6.02513 3.02513C5 4.05025 5 5.70017 5 9V15C5 18.2998 5 19.9497 6.02513 20.9749C7.05025 22 8.70017 22 12 22C15.2998 22 16.9497 22 17.9749 20.9749C19 19.9497 19 18.2998 19 15V14" stroke="#141B34" stroke-width="1.5" stroke-linecap="round"/>
<path d="M11 19H13" stroke="#141B34" stroke-width="1.5" stroke-linecap="round" stroke-linejoin="round"/>
<path d="M15.8371 5.37988C14.7571 5.37988 14.2171 6.15988 14.0971 6.63988C13.9771 7.11988 13.9771 8.85988 14.0491 9.57988C14.2891 10.4799 14.8891 10.8519 15.4771 10.9719C16.0171 11.0199 18.2971 11.0019 18.9571 11.0019C19.9171 11.0199 20.6371 10.6599 20.9371 9.57988C20.9971 9.21988 21.0571 7.23988 20.9071 6.63988C20.5891 5.67988 19.7971 5.37988 19.1971 5.37988H15.8371Z" stroke="#141B34" stroke-width="1.5" stroke-linecap="round"/>
<path d="M15.75 4.95854C15.75 4.89854 15.7582 4.55312 15.7596 4.11854C15.7609 3.72145 15.726 3.33854 15.9156 2.98814C16.626 1.57454 18.666 1.71854 19.17 3.15854C19.2573 3.39562 19.2626 3.77146 19.26 4.11854C19.2567 4.56203 19.266 4.95854 19.266 4.95854" stroke="#141B34" stroke-width="1.5" stroke-linecap="round"/>
</svg>
