<svg width="24" height="24" viewBox="0 0 24 24" fill="none" xmlns="http://www.w3.org/2000/svg">
<path d="M2.01758 15C4.21715 15 6.00025 16.7831 6.00025 18.9827" stroke="#141B34" stroke-width="1.5" stroke-linecap="round" stroke-linejoin="round"/>
<path d="M2.01758 8.9983C3.87741 8.9983 5.43949 7.72348 5.87767 6" stroke="#141B34" stroke-width="1.5" stroke-linecap="round" stroke-linejoin="round"/>
<path d="M18 5.01562C18 7.19594 19.769 8.96705 21.9423 8.99789" stroke="#141B34" stroke-width="1.5" stroke-linecap="round" stroke-linejoin="round"/>
<path d="M9.87868 9.87891C9.33579 10.4218 9 11.1718 9 12.0002C9 13.6571 10.3431 15.0002 12 15.0002C12.8284 15.0002 13.5784 14.6644 14.1213 14.1215" stroke="#141B34" stroke-width="1.5" stroke-linecap="round" stroke-linejoin="round"/>
<path d="M3 3L21 21" stroke="#141B34" stroke-width="1.5" stroke-linecap="round" stroke-linejoin="round"/>
<path d="M21.8912 15C21.0722 15 20.3124 15.253 19.6855 15.6851" stroke="#141B34" stroke-width="1.5" stroke-linecap="round" stroke-linejoin="round"/>
<path d="M21.541 17.541C22 16.6386 22 15.278 22 13V11C22 8.17157 22 6.75736 21.1213 5.87868C20.2426 5 18.8284 5 16 5H9M18.9305 18.9305C18.168 19 17.2143 19 16 19H8C5.17157 19 3.75736 19 2.87868 18.1213C2 17.2426 2 15.8284 2 13V11C2 8.17157 2 6.75736 2.87868 5.87868C3.38012 5.37724 4.05597 5.16196 5.06953 5.06953" stroke="#141B34" stroke-width="1.5" stroke-linecap="round" stroke-linejoin="round"/>
</svg>
