<svg width="24" height="24" viewBox="0 0 24 24" fill="none" xmlns="http://www.w3.org/2000/svg">
<path d="M14.5 12C14.5 13.3807 13.3807 14.5 12 14.5C10.6193 14.5 9.5 13.3807 9.5 12C9.5 10.6193 10.6193 9.5 12 9.5C13.3807 9.5 14.5 10.6193 14.5 12Z" stroke="#141B34" stroke-width="1.5" stroke-linecap="round" stroke-linejoin="round"/>
<path d="M18.5 11.4883V11.4983" stroke="#141B34" stroke-width="2" stroke-linecap="round" stroke-linejoin="round"/>
<path d="M5.5 12.4883V12.4983" stroke="#141B34" stroke-width="2" stroke-linecap="round" stroke-linejoin="round"/>
<path d="M16 5C18.4794 5 20.1903 5.38421 21.1329 5.67632C21.6756 5.84452 22 6.35889 22 6.92705V16.6823C22 17.7974 20.7719 18.6364 19.6762 18.4295C18.7361 18.252 17.5107 18.1094 16 18.1094C11.2491 18.1094 10.1096 19.9151 3.1448 18.3792C2.47265 18.231 2 17.6265 2 16.9382V6.92116C2 5.94531 2.92079 5.23366 3.87798 5.42361C10.1967 6.67747 11.4209 5 16 5Z" stroke="#141B34" stroke-width="1.5" stroke-linecap="round" stroke-linejoin="round"/>
</svg>
