<svg width="24" height="24" viewBox="0 0 24 24" fill="none" xmlns="http://www.w3.org/2000/svg">
<path d="M2.02734 8C2.02734 9.34178 10.1223 13 12.0134 13C13.9046 13 21.9995 9.34178 21.9995 8C21.9995 6.65822 13.9046 3 12.0134 3C10.1223 3 2.02734 6.65822 2.02734 8Z" stroke="#141B34" stroke-width="1.5" stroke-linecap="round" stroke-linejoin="round"/>
<path d="M6.02344 11L6.26855 16.6299C6.27345 16.7426 6.28563 16.8555 6.31831 16.9635C6.41928 17.2973 6.60538 17.6006 6.8893 17.8044C9.11076 19.3985 14.9194 19.3985 17.1408 17.8044C17.4249 17.6006 17.6109 17.2973 17.7119 16.9635C17.7445 16.8555 17.7567 16.7426 17.7617 16.6299L18.0067 11" stroke="#141B34" stroke-width="1.5" stroke-linecap="round" stroke-linejoin="round"/>
<path d="M20.5007 9.5V16.5M20.5007 16.5C19.7088 17.9463 19.3585 18.7212 19.0028 20C18.9256 20.455 18.9869 20.6843 19.3005 20.8879C19.4279 20.9706 19.581 21 19.7328 21H21.2533C21.4149 21 21.578 20.9663 21.7111 20.8745C22.0026 20.6735 22.0776 20.453 21.9986 20C21.6868 18.8126 21.2897 18.0008 20.5007 16.5Z" stroke="#141B34" stroke-width="1.5" stroke-linecap="round" stroke-linejoin="round"/>
</svg>
