<svg width="24" height="24" viewBox="0 0 24 24" fill="none" xmlns="http://www.w3.org/2000/svg">
<path d="M4.87588 13.1578L7.01177 14.9892V5.22682C7.01177 4.2591 7.796 3.47461 8.7634 3.47461C9.7308 3.47461 10.515 4.2591 10.515 5.22682V10.4835L13.5057 10.9617C15.4361 11.2513 16.4014 11.3961 17.0812 11.8035C18.2043 12.4766 19.0178 13.4873 19.0178 14.9627C19.0178 15.9904 18.7639 16.6799 18.1466 18.5323C17.755 19.7078 17.5591 20.2955 17.2398 20.7608C16.714 21.5267 15.9383 22.0859 15.0456 22.3427C14.5034 22.4986 13.8841 22.4986 12.6455 22.4986H11.5956C9.94888 22.4986 9.12553 22.4986 8.39254 22.1964C8.26108 22.1422 8.13262 22.081 8.00768 22.0131C7.31096 21.6347 6.79175 20.9954 5.75336 19.717L2.39173 15.5782C1.87515 14.9422 1.8717 14.032 2.38345 13.3921C2.99853 12.6231 4.12831 12.5168 4.87588 13.1578Z" stroke="#141B34" stroke-width="1.5" stroke-linecap="round" stroke-linejoin="round"/>
<path d="M16.9191 2.36782L17.7245 1.61029C17.801 1.53826 17.899 1.50193 17.9971 1.50147M19.1063 2.36782L18.2685 1.60575C18.1915 1.53572 18.0942 1.50102 17.9971 1.50147M19.1063 8.61073L18.3009 9.36825C18.2162 9.44793 18.1054 9.48393 17.9971 9.47601M16.9191 8.61073L17.7569 9.3728C17.8256 9.43532 17.9106 9.46968 17.9971 9.47601M17.9971 1.50147V9.47601M21.1337 4.39495L21.8907 5.20084C21.9627 5.27747 21.999 5.37546 21.9995 5.47365M21.1337 6.58361L21.8953 5.74526C21.9653 5.66822 21.9999 5.57084 21.9995 5.47365M14.8951 6.58359L14.1381 5.7777C14.0584 5.69294 14.0225 5.58204 14.0304 5.47365M14.8951 4.39493L14.1335 5.23328C14.071 5.30205 14.0367 5.38705 14.0304 5.47365M21.9995 5.47365L14.0304 5.47365" stroke="#141B34" stroke-width="1.5" stroke-linecap="round" stroke-linejoin="round"/>
</svg>
