<svg width="24" height="24" viewBox="0 0 24 24" fill="none" xmlns="http://www.w3.org/2000/svg">
<path d="M7 10.519V8.55357M7 8.55357C7.06134 7.73058 7.67624 7 8.51042 7C9.49429 7 9.93903 7.93135 10.006 8.55357V10.519M7 8.55357V7" stroke="#141B34" stroke-width="1.5" stroke-linecap="round" stroke-linejoin="round"/>
<path d="M6.98828 14.5142C7.45203 14.2592 7.85828 14.1672 8.05905 14.3402C8.25982 14.5132 8.68718 15.3056 8.86213 15.6118C9.12982 16.0802 9.43767 17.0172 9.97306 17.0172C10.3344 17.0172 10.6248 16.0387 11.0974 14.8756C11.8173 13.1041 12.6225 10.8615 12.7437 10.6595C12.9444 10.3248 13.1452 9.99023 13.6806 9.99023C14.2829 9.99023 17.0267 9.99023 17.0267 9.99023" stroke="#141B34" stroke-width="1.5" stroke-linecap="round"/>
<path d="M2.5 12C2.5 7.52166 2.5 5.28249 3.89124 3.89124C5.28249 2.5 7.52166 2.5 12 2.5C16.4783 2.5 18.7175 2.5 20.1088 3.89124C21.5 5.28249 21.5 7.52166 21.5 12C21.5 16.4783 21.5 18.7175 20.1088 20.1088C18.7175 21.5 16.4783 21.5 12 21.5C7.52166 21.5 5.28249 21.5 3.89124 20.1088C2.5 18.7175 2.5 16.4783 2.5 12Z" stroke="#141B34" stroke-width="1.5" stroke-linejoin="round"/>
</svg>
