<svg width="24" height="24" viewBox="0 0 24 24" fill="none" xmlns="http://www.w3.org/2000/svg">
<path d="M17.129 9.93512L15.5593 6.74075C14.0063 3.58025 13.2297 2 12 2C10.7703 2 9.99374 3.58025 8.44067 6.74075L6.87095 9.93512C6.22703 11.2455 5.90506 11.9007 6.02457 12.5657C6.14407 13.2306 6.67308 13.7275 7.7311 14.7212L9.30082 16.1955C10.5816 17.3985 11.222 18 12 18C12.778 18 13.4184 17.3985 14.6992 16.1955L16.2689 14.7212C17.3269 13.7275 17.8559 13.2306 17.9754 12.5657C18.0949 11.9007 17.773 11.2455 17.129 9.93512Z" stroke="#141B34" stroke-width="1.5" stroke-linecap="round" stroke-linejoin="round"/>
<path d="M17.129 13.9336C17.773 15.244 18.0949 15.8992 17.9754 16.5641C17.8559 17.2291 17.3269 17.726 16.2689 18.7197L14.6992 20.194C13.4184 21.397 12.778 21.9985 12 21.9985C11.222 21.9985 10.5816 21.397 9.30082 20.194L7.7311 18.7197C6.67308 17.726 6.14407 17.2291 6.02457 16.5641C5.90506 15.8992 6.22703 15.244 6.87095 13.9336" stroke="#141B34" stroke-width="1.5" stroke-linecap="round" stroke-linejoin="round"/>
<path d="M16.5 9.5L12 14L7.5 9.5" stroke="#141B34" stroke-width="1.5" stroke-linecap="round" stroke-linejoin="round"/>
</svg>
