<svg width="24" height="24" viewBox="0 0 24 24" fill="none" xmlns="http://www.w3.org/2000/svg">
<path d="M6 10.8475V21.0137M18 10.8498V21.0137M9.5 21.0137L10.0065 17.9729C10.1261 17.2547 10.1859 16.8956 10.3463 16.6302C10.7446 15.9707 11.3843 16.0106 12 16.0106C12.6157 16.0106 13.2554 15.9707 13.6537 16.6302C13.8141 16.8956 13.8739 17.2547 13.9935 17.9729L14.5 21.0137M3 21.0137H21M7.12038 10.9948C5.81567 10.9948 3.90987 10.3777 3.03476 8.02416C5.33669 7.89198 10.2316 7.34467 12.0044 2.01367C13.8535 7.42799 18.672 7.89198 20.9739 8.02416C20.0988 10.3777 18.193 10.9948 16.8883 10.9948H7.12038Z" stroke="#141B34" stroke-width="1.5" stroke-linecap="round" stroke-linejoin="round"/>
</svg>
