<svg width="24" height="24" viewBox="0 0 24 24" fill="none" xmlns="http://www.w3.org/2000/svg">
<path d="M6.5 9H5.5M10.5 9H9.5M6.5 6H5.5M10.5 6H9.5" stroke="#141B34" stroke-width="1.5" stroke-linecap="round"/>
<path d="M18.5 15H17.5M18.5 11H17.5" stroke="#141B34" stroke-width="1.5" stroke-linecap="round"/>
<path d="M14 8V22H18C19.8856 22 20.8284 22 21.4142 21.4142C22 20.8284 22 19.8856 22 18V12C22 10.1144 22 9.17157 21.4142 8.58579C20.8284 8 19.8856 8 18 8H14ZM14 8C14 5.17157 14 3.75736 13.1213 2.87868C12.2426 2 10.8284 2 8 2C5.17157 2 3.75736 2 2.87868 2.87868C2 3.75736 2 5.17157 2 8V10" stroke="#141B34" stroke-width="1.5" stroke-linecap="round" stroke-linejoin="round"/>
<path d="M8.02583 13.9545C8.02583 15.0583 7.13042 15.953 6.02589 15.953C4.92135 15.953 4.02595 15.0583 4.02595 13.9545C4.02595 12.8508 4.92135 11.9561 6.02589 11.9561C7.13042 11.9561 8.02583 12.8508 8.02583 13.9545Z" stroke="#141B34" stroke-width="1.5" stroke-linecap="round"/>
<path d="M2.0708 20.2101C3.12915 18.582 4.80983 17.9718 6.02589 17.973C7.24194 17.9743 8.87337 18.582 9.93172 20.2101C10.0002 20.3154 10.019 20.445 9.95726 20.5544C9.70974 20.993 8.94125 21.8633 8.38619 21.9223C7.74843 21.9901 6.08012 21.9996 6.02718 21.9999C5.97419 21.9996 4.25437 21.9901 3.61633 21.9223C3.06127 21.8633 2.29278 20.993 2.04526 20.5544C1.98351 20.445 2.00237 20.3154 2.0708 20.2101Z" stroke="#141B34" stroke-width="1.5" stroke-linecap="round"/>
</svg>
