<svg width="24" height="24" viewBox="0 0 24 24" fill="none" xmlns="http://www.w3.org/2000/svg">
<path d="M22 7.28336C22 9.92493 19.7611 12.0667 17 12.0667C16.6753 12.0671 16.3516 12.0371 16.0327 11.9772C15.8031 11.9341 15.6883 11.9126 15.6082 11.9248C15.5281 11.937 15.4145 11.9974 15.1874 12.1182C14.545 12.4598 13.7959 12.5805 13.0755 12.4465C13.3493 12.1097 13.5363 11.7056 13.6188 11.2724C13.6688 11.0074 13.545 10.75 13.3594 10.5616C12.5166 9.70577 12 8.55254 12 7.28336C12 4.64178 14.2388 2.5 17 2.5C19.7611 2.5 22 4.64178 22 7.28336Z" stroke="#141B34" stroke-width="1.5" stroke-linejoin="round"/>
<path d="M15.4922 7.5H15.5003M18.4922 7.5H18.5003" stroke="#141B34" stroke-width="1.5" stroke-linecap="round"/>
<path d="M10.2854 11.7889C10.2854 13.3202 9.0413 14.5615 7.50665 14.5615C5.97199 14.5615 4.72791 13.3202 4.72791 11.7889C4.72791 10.2576 5.97199 9.0162 7.50665 9.0162C9.0413 9.0162 10.2854 10.2576 10.2854 11.7889Z" stroke="#141B34" stroke-width="1.5" stroke-linecap="round" stroke-linejoin="round"/>
</svg>
