<svg width="24" height="24" viewBox="0 0 24 24" fill="none" xmlns="http://www.w3.org/2000/svg">
<path d="M9 2H12.5L14 4.5H19.13L20.5 7M22 14.5L20.3545 17.163H17.8782L15.0001 22H11.7825M5 20L3.5 17.5L4.5 14.5L2 9.5L4 7" stroke="#141B34" stroke-width="1.5" stroke-linecap="round" stroke-linejoin="round"/>
<path d="M19.19 9.66179L20.5 7.0004H9.9999L10.9999 5L8.9999 2L6.74868 7.0004H4L8.9999 17H5.9999L4.9999 20H10.4999L11.7516 22L17.4017 12.0655L18.94 14.5H21.9999L19.19 9.66179Z" stroke="#141B34" stroke-width="1.5" stroke-linecap="round" stroke-linejoin="round"/>
<path d="M12 15.5L9 10H15L12 15.5Z" stroke="#141B34" stroke-width="1.5" stroke-linecap="round" stroke-linejoin="round"/>
</svg>
