<svg width="24" height="24" viewBox="0 0 24 24" fill="none" xmlns="http://www.w3.org/2000/svg">
<path d="M15 10L4 21.001" stroke="#141B34" stroke-width="1.5" stroke-linecap="round" stroke-linejoin="round"/>
<path d="M17.9997 3L14.9997 6C14.4544 6.54525 14.1818 6.81787 14.0361 7.11197C13.7588 7.67152 13.7588 8.32848 14.0361 8.88803C14.1818 9.18213 14.4544 9.45475 14.9997 10C15.5449 10.5452 15.8176 10.8179 16.1117 10.9636C16.6712 11.2409 17.3282 11.2409 17.8877 10.9636C18.1818 10.8179 18.4544 10.5452 18.9997 10L21.9997 7" stroke="#141B34" stroke-width="1.5" stroke-linecap="round" stroke-linejoin="round"/>
<path d="M20 4.99805L17 7.99805" stroke="#141B34" stroke-width="1.5" stroke-linecap="round" stroke-linejoin="round"/>
<path d="M8.84473 9.84473C7.47968 11.2098 5.60771 11.551 3.90145 9.84473C2.19514 8.13841 1.30058 5.03069 2.66563 3.66563C4.03069 2.30058 7.13841 3.19514 8.84473 4.90145C10.551 6.60771 10.2098 8.47968 8.84473 9.84473ZM8.84473 9.84473L20 21" stroke="#141B34" stroke-width="1.5" stroke-linecap="round"/>
</svg>
