<svg width="24" height="24" viewBox="0 0 24 24" fill="none" xmlns="http://www.w3.org/2000/svg">
<path d="M7.5 6V6.01" stroke="#141B34" stroke-width="1.5" stroke-linecap="round"/>
<path d="M4.62602 6C5.07006 4.27477 6.63616 3 8.5 3C10.7091 3 12.5 4.79086 12.5 7C12.5 8.19469 11.9762 9.26706 11.1458 10H16.9772C18.3556 10 19 8.88071 19 7.5C22.5 11 21.9688 15 21.9688 15C21.9688 18.5 18.5 21 13 21H8.99073C5.95828 21 3.5 18.5376 3.5 15.5C3.5 13.3105 4.77721 11.4198 6.62604 10.5348C5.96275 10.1824 5.41044 9.6488 5.03513 9M4.62602 6L2 7C2.19009 8 3.06323 9 5.03513 9M4.62602 6L5.21315 6.85464C5.67108 7.52122 5.59667 8.41801 5.03513 9" stroke="#141B34" stroke-width="1.5" stroke-linejoin="round"/>
<path d="M11 18H12.5C14.7091 18 17.5 15.2091 17.5 13H11C9.61929 13 8.5 14.1193 8.5 15.5C8.5 16.8807 9.61929 18 11 18Z" stroke="#141B34" stroke-width="1.5" stroke-linecap="round" stroke-linejoin="round"/>
</svg>
