<svg width="24" height="24" viewBox="0 0 24 24" fill="none" xmlns="http://www.w3.org/2000/svg">
<path d="M7.01953 3.70214C9.81655 6.7967 14.4293 0.117841 17.1587 2.54167C18.7292 3.93633 18.2327 7.01567 16.1939 9.02193" stroke="#141B34" stroke-width="1.5" stroke-linecap="round"/>
<path d="M13.819 13.9859C13.8368 13.6513 13.9307 13.0393 13.422 12.5741M13.422 12.5741C13.2646 12.4302 13.0494 12.3003 12.7565 12.197C11.7081 11.8275 10.4203 13.0643 11.3313 14.1964C11.821 14.8049 12.1985 14.9921 12.163 15.6831C12.138 16.1692 11.6604 16.6771 11.0311 16.8706C10.4844 17.0387 9.88128 16.8161 9.49982 16.3899C9.03406 15.8695 9.0811 15.3788 9.07711 15.165M13.422 12.5741L13.9961 12M9.54133 16.4548L8.99609 17" stroke="#141B34" stroke-width="1.5" stroke-linecap="round" stroke-linejoin="round"/>
<path d="M18.3038 6.63492C19.2293 6.81267 19.4369 7.39713 19.7133 9.0189C19.9622 10.4795 20.0319 12.2323 20.0319 12.9784C20.0066 13.2534 19.8938 13.51 19.7133 13.7193C17.7781 15.7474 13.9377 19.5772 11.9993 21.4797C11.2386 22.1588 10.091 22.1734 9.28366 21.5501C7.63053 20.0631 6.0422 18.3822 4.48626 16.8644C3.86118 16.0593 3.87583 14.9148 4.55692 14.1562C6.60746 12.029 10.3179 8.3879 12.4125 6.37637C12.6225 6.19642 12.8798 6.08386 13.1556 6.05859C13.6255 6.05848 14.4318 6.12165 15.2172 6.16718" stroke="#141B34" stroke-width="1.5" stroke-linecap="round"/>
</svg>
