<svg width="24" height="24" viewBox="0 0 24 24" fill="none" xmlns="http://www.w3.org/2000/svg">
<path d="M22.0527 11.0374C21.2437 11.8597 19.4788 13.0868 17.1187 14.0397M17.1187 14.0397C16.5783 14.2579 16.0041 14.4601 15.3994 14.6373C14.6464 14.9007 13.0828 15.8093 13.1403 17.8143L13.0749 20.9638C13.0747 21.3097 13.4902 21.8612 14.2861 21.9745C15.268 22.1142 16.7211 21.6968 17.388 20.8451C18.3833 19.574 18.3305 16.5774 17.1187 14.0397ZM2.05273 11.0058C2.86174 11.828 4.57895 13.0868 6.939 14.0397M6.939 14.0397C7.47946 14.2579 8.05362 14.4601 8.65831 14.6373C10.0047 15.0319 10.9886 16.197 11.0424 17.6966C11.0963 19.1963 11.1637 20.0521 10.9175 20.4548C10.6713 20.8574 10.0928 21.0242 9.44633 21.0587C8.79982 21.0932 7.42605 20.7427 6.75919 19.8911C5.76389 18.6199 5.72726 16.5773 6.939 14.0397ZM10.0282 10.5C10.0282 11.3284 9.35426 12 8.52289 12C7.69151 12 7.01754 11.3284 7.01754 10.5C7.01754 9.67157 7.69151 9 8.52289 9C9.35426 9 10.0282 9.67157 10.0282 10.5ZM17.0532 10.5C17.0532 11.3284 16.3792 12 15.5478 12C14.7164 12 14.0425 11.3284 14.0425 10.5C14.0425 9.67157 14.7164 9 15.5478 9C16.3792 9 17.0532 9.67157 17.0532 10.5Z" stroke="#141B34" stroke-width="1.5" stroke-linecap="round" stroke-linejoin="round"/>
<path d="M20.0629 9C20.0538 5.8857 19.955 4.23467 18.8881 3.17157C17.7124 2 15.82 2 12.0354 2C8.25071 2 6.35838 2 5.18262 3.17157C4.11575 4.23467 4.01695 5.8857 4.00781 9" stroke="#141B34" stroke-width="1.5" stroke-linecap="round" stroke-linejoin="round"/>
</svg>
