<svg width="24" height="24" viewBox="0 0 24 24" fill="none" xmlns="http://www.w3.org/2000/svg">
<path d="M3 10.4893V14.9836C3 17.8085 3 19.2209 3.87965 20.0985C4.75929 20.9761 6.17505 20.9761 9.00659 20.9761H13.011" stroke="#141B34" stroke-width="1.5" stroke-linecap="round"/>
<path d="M7.00391 16.9814H11.0083" stroke="#141B34" stroke-width="1.5" stroke-linecap="round"/>
<path d="M18.5195 13.4854C20.4546 13.4854 22.0233 15.021 22.0233 16.9154C22.0233 19.0582 19.9053 20.1117 18.8949 21.718C18.6795 22.0603 18.3749 22.0603 18.1441 21.718C17.1021 20.1727 15.0156 19.0135 15.0156 16.9154C15.0156 15.021 16.5843 13.4854 18.5195 13.4854Z" stroke="#141B34" stroke-width="1.5" stroke-linejoin="round"/>
<path d="M18.5195 16.9814H18.5285" stroke="#141B34" stroke-width="2" stroke-linecap="round" stroke-linejoin="round"/>
<path d="M17.8201 1.97715L6.17425 2.00463C4.43608 1.92003 3.99041 3.18621 3.99041 3.80517C3.99041 4.35875 3.91496 5.16578 2.84965 6.68259C1.78434 8.19939 1.86439 8.64998 2.46512 9.70005C2.96369 10.5716 4.23182 10.912 4.89303 10.9692C6.99324 11.0144 8.01507 9.29842 8.01507 8.09241C9.05693 11.1227 12.0199 11.1227 13.3402 10.7762C14.6629 10.4291 15.7961 9.1864 16.0635 8.09241C16.2194 9.45196 16.6926 10.2453 18.0907 10.7904C19.5389 11.3551 20.7843 10.492 21.4092 9.93881C22.0341 9.38557 22.4351 8.15739 21.3212 6.80749C20.553 5.87656 20.2328 4.99955 20.1276 4.0906C20.0667 3.56392 20.0132 2.99797 19.6215 2.63784C19.0491 2.11152 18.228 1.95183 17.8201 1.97715Z" stroke="#141B34" stroke-width="1.5" stroke-linecap="round" stroke-linejoin="round"/>
</svg>
