<svg width="24" height="24" viewBox="0 0 24 24" fill="none" xmlns="http://www.w3.org/2000/svg">
<path d="M2.86345 8.39442C2.19679 5.97492 3.6733 3.48798 6.16133 2.83967M2.86345 8.39442L2 8.61941M2.86345 8.39442C3.02923 8.99608 3.31193 9.53692 3.68141 10M6.16133 2.83967L5.92997 2M6.16133 2.83967C8.00005 2.36056 9.87666 3.01972 11 4.37299M3.32885 4.95375L2.41796 4.44113M10.2266 2.40645L9.70131 3.29328" stroke="#141B34" stroke-width="1.5" stroke-linecap="round"/>
<path d="M14.1539 21.9146C14.2982 21.9699 14.4536 22 14.6154 22C15.3801 22 16 21.3284 16 20.5C16 19.6716 15.3801 19 14.6154 19C14.3439 19 14.0907 19.0846 13.877 19.2309C12.8158 20.0225 10.85 21.0378 8.61535 21.301M5.84614 21.1936C5.22792 21.0635 4.60867 20.8541 4 20.5478" stroke="#141B34" stroke-width="1.5" stroke-linecap="round"/>
<path d="M19 21C19.2581 21 19.9557 21 21 21" stroke="#141B34" stroke-width="1.5" stroke-linecap="round"/>
<path d="M17.214 9.81274C17.2214 9.8127 17.2289 9.81269 17.2364 9.81269C19.7217 9.81269 21.5041 11.7 21.5041 13.8C21.4801 16.62 18.7201 17.88 17.2201 17.772M17.214 9.81274C17.2288 9.65635 17.2364 9.49797 17.2364 9.33791C17.214 6.66869 14.8597 4.5 12.0601 4.5C9.26046 4.5 7.02009 6.42 6.81691 8.94M17.214 9.81274C17.0401 10.92 16.7401 11.616 16.0201 12.48M6.81691 8.94C4.28047 9.16919 2.52009 11.1 2.49609 13.38C2.64009 15.84 4.38009 16.8439 5.70009 17.4C9.06009 18.72 12.5521 17.76 13.7521 15.84C14.2201 14.76 13.4401 13.56 12.3601 13.38C11.6401 13.2 10.1461 13.608 10.1041 15.12M6.81691 8.94C6.97475 8.92574 7.17114 8.91844 7.33291 8.91844C8.46009 8.94 9.38409 9.324 10.1041 9.804" stroke="#141B34" stroke-width="1.5" stroke-linecap="round" stroke-linejoin="round"/>
</svg>
