<svg width="24" height="24" viewBox="0 0 24 24" fill="none" xmlns="http://www.w3.org/2000/svg">
<path d="M15.0078 4.49698H20.9994M15.0078 4.49698C15.0078 3.7976 16.9993 2.49094 17.5043 2M15.0078 4.49698C15.0078 5.19637 16.9993 6.50303 17.5043 6.99397" stroke="#141B34" stroke-width="1.5" stroke-linecap="round" stroke-linejoin="round"/>
<path d="M6.53624 14.4467V9.97733M6.53624 9.97733V4.45517C6.53624 3.63452 7.22077 2.97314 8.04222 2.97314C8.86367 2.97314 9.51096 3.63452 9.51096 4.45517V8.45622M6.53624 9.97733C5.21914 11.1697 3.80181 12.676 3.61094 13.0618C2.72287 14.4124 2.81595 15.0661 3.80565 16.7187C4.64626 18.1222 5.77675 19.6798 5.84275 19.7546C6.51441 20.515 6.38087 20.5152 7.3544 21.2292C8.22374 21.832 10.027 22.252 14.2543 21.832C17.6981 21.3006 18.5232 18.2973 18.5053 16.8622V13.3179C18.7198 10.3722 17.4873 10.2392 15.2494 9.94925M9.51096 8.45622V10.983M9.51096 8.45622C10.0694 7.54638 12.0977 7.91407 12.4931 9.63219M12.5288 10.979V9.97733C12.5288 9.89837 12.5249 9.81915 12.5137 9.74103M12.4931 9.63219C12.4947 9.63942 12.4964 9.64667 12.498 9.65395C12.5043 9.68278 12.5095 9.71183 12.5137 9.74103M12.4931 9.63219C12.4972 9.6672 12.504 9.70348 12.5137 9.74103M12.4931 9.63219C12.3527 8.43466 15.3901 8.72658 15.5138 10.8326V11.9772" stroke="#141B34" stroke-width="1.5" stroke-linecap="round"/>
</svg>
