<svg width="24" height="24" viewBox="0 0 24 24" fill="none" xmlns="http://www.w3.org/2000/svg">
<path d="M7.50329 13.933V9.46937M7.50329 9.46937V3.95425C7.50329 3.13466 8.18636 2.47412 9.00605 2.47412C9.82574 2.47412 10.4717 3.13466 10.4717 3.95425V7.9502M7.50329 9.46937C6.189 10.6602 4.7747 12.1646 4.58425 12.5499C3.69807 13.8987 3.79095 14.5517 4.77854 16.2021C5.61735 17.6039 6.74543 19.1595 6.81128 19.2341C7.48151 19.9936 7.34825 19.9937 8.3197 20.7069C9.18718 21.3089 10.9865 21.7283 15.2049 21.3089C18.6413 20.7781 19.4647 17.7788 19.4468 16.3454V12.8057C19.6608 9.86368 18.431 9.73089 16.1978 9.44132M10.4717 7.9502V10.4738M10.4717 7.9502C11.0289 7.04151 13.0529 7.40873 13.4474 9.12466M13.4831 10.4698V9.46937C13.4831 9.3905 13.4791 9.31139 13.468 9.23337M13.4474 9.12466C13.4491 9.13188 13.4507 9.13913 13.4523 9.1464C13.4586 9.17519 13.4638 9.2042 13.468 9.23337M13.4474 9.12466C13.4515 9.15963 13.4583 9.19587 13.468 9.23337M13.4474 9.12466C13.3073 7.92866 16.3383 8.22021 16.4616 10.3236V11.4667" stroke="#141B34" stroke-width="1.5" stroke-linecap="round"/>
</svg>
