<svg width="24" height="24" viewBox="0 0 24 24" fill="none" xmlns="http://www.w3.org/2000/svg">
<path d="M15 21.0005H9" stroke="#141B34" stroke-width="1.5" stroke-linecap="round" stroke-linejoin="round"/>
<path d="M12 2.99952V21.0004M12 2.99952C13.3874 2.99952 15.1695 3.03007 16.5884 3.176C17.1885 3.23771 17.4886 3.26858 17.7541 3.37742C18.3066 3.6038 18.7518 4.10014 18.9194 4.67632C19 4.95333 19 5.26944 19 5.90166M12 2.99952C10.6126 2.99952 8.83047 3.03007 7.41161 3.176C6.8115 3.23771 6.51144 3.26858 6.24586 3.37742C5.69344 3.6038 5.24816 4.10014 5.08057 4.67632C5 4.95333 5 5.26944 5 5.90166" stroke="#141B34" stroke-width="1.5" stroke-linecap="round"/>
</svg>
