<svg width="24" height="24" viewBox="0 0 24 24" fill="none" xmlns="http://www.w3.org/2000/svg">
<path d="M22 12C22 6.47715 17.5228 2 12 2C6.47715 2 2 6.47715 2 12C2 17.5228 6.47715 22 12 22C17.5228 22 22 17.5228 22 12Z" stroke="#141B34" stroke-width="1.5"/>
<path d="M13.1525 8.78616L12.975 9.34268C12.8295 9.79871 12.7567 10.0267 12.8127 10.2068C12.8579 10.3525 12.9573 10.4781 13.0927 10.5607C13.26 10.6628 13.5131 10.6628 14.0194 10.6628H14.2887C16.0021 10.6628 16.8588 10.6628 17.2634 11.1551C17.3097 11.2113 17.3508 11.2711 17.3864 11.3339C17.6977 11.8829 17.3438 12.6225 16.636 14.1016C15.9865 15.459 15.6617 16.1377 15.0587 16.5372C15.0003 16.5759 14.9403 16.6124 14.8789 16.6466C14.244 16.9998 13.4574 16.9998 11.8843 16.9998H11.5431C9.63715 16.9998 8.68419 16.9998 8.09209 16.4429C7.5 15.8861 7.5 14.9899 7.5 13.1976V12.5676C7.5 11.6257 7.5 11.1547 7.67223 10.7237C7.84445 10.2926 8.17424 9.93817 8.8338 9.2293L11.5614 6.29776C11.6298 6.22424 11.664 6.18748 11.6942 6.162C11.9757 5.92423 12.4102 5.95099 12.6563 6.22127C12.6826 6.25023 12.7115 6.29087 12.7691 6.37216C12.8592 6.49932 12.9043 6.56289 12.9436 6.62588C13.2952 7.18978 13.4016 7.85964 13.2405 8.49556C13.2225 8.56658 13.1992 8.63982 13.1525 8.78616Z" stroke="#141B34" stroke-width="1.5" stroke-linecap="round" stroke-linejoin="round"/>
</svg>
