<svg width="24" height="24" viewBox="0 0 24 24" fill="none" xmlns="http://www.w3.org/2000/svg">
<path d="M16.8913 21.9975C16.8395 20.0835 16.9684 19.853 17.1052 19.4272C17.2419 19.0015 18.1982 17.466 18.5366 16.369C19.6313 12.8197 18.611 12.0648 17.2507 11.0583C15.7422 9.94208 12.8968 9.37679 11.4857 9.49918V3.74572C11.4857 2.78239 10.7048 2.00146 9.74148 2.00146C8.77816 2.00146 7.99723 2.78239 7.99723 3.74572V9.96558M7.99774 21.9983V20.9849C7.93328 20.0405 6.99529 18.923 5.82672 17.3162C4.62509 15.5755 4.36688 14.6968 4.55591 13.8843C4.65329 13.469 4.90594 12.7827 6.14647 11.6099L7.99723 9.96558M7.99723 14.0318V9.96558" stroke="#141B34" stroke-width="1.5" stroke-linecap="round" stroke-linejoin="round"/>
</svg>
