<svg width="24" height="24" viewBox="0 0 24 24" fill="none" xmlns="http://www.w3.org/2000/svg">
<path d="M8.51708 13.0275L7.96439 10.0701M7.96439 10.0701L6.84918 4.10258C6.67303 3.15996 7.28511 2.25031 8.22351 2.0601C9.17309 1.86763 10.0983 2.48379 10.2885 3.43531L11.5024 9.50808L12.7225 3.43531C12.9127 2.48379 13.8379 1.86763 14.7875 2.0601C15.7259 2.25031 16.2701 3.16481 16.0939 4.10743L15.0677 9.85657M7.96439 10.0701C6.072 11.8446 4.91115 12.8863 4.67339 13.823C4.40846 14.8668 4.18905 16.012 6.0778 18.3087C6.69951 19.0648 7.22362 19.5894 7.34491 19.7895C7.55609 20.1379 8.00331 20.3992 8.00331 22.0292M15.0836 9.87546C17.3452 10.5181 18.8165 11.7372 19.2379 12.6067C19.7074 13.5755 19.5747 15.0326 18.5899 17.4327C18.2014 18.3796 17.7253 18.9184 17.6468 19.1389C17.4638 19.6526 17.1848 20.2058 17.3131 22.0052" stroke="#141B34" stroke-width="1.5" stroke-linecap="round" stroke-linejoin="round"/>
</svg>
