<svg width="24" height="24" viewBox="0 0 24 24" fill="none" xmlns="http://www.w3.org/2000/svg">
<path d="M17.0157 16.5V21.282C17.0157 21.6025 16.8063 21.874 16.5172 21.9663M17.0157 16.5L10.8771 12M17.0157 16.5V7.5M7.74678 9.7053L4.25105 7.03035C3.85416 6.72665 3.29454 6.76425 2.94157 7.11833L2.29198 7.76997C1.89386 8.16933 1.90421 8.81995 2.31482 9.20638L5.28331 12M7.74678 9.7053L10.8771 12M7.74678 9.7053L15.8128 2.19186C15.9452 2.06854 16.1192 2 16.2999 2C16.3757 2 16.4487 2.01181 16.5172 2.0337M10.8771 12L17.0157 7.5M17.0157 7.5V2.71803C17.0157 2.39749 16.8063 2.126 16.5172 2.0337M7.74678 14.2947L4.25105 16.9696C3.85416 17.2733 3.29454 17.2357 2.94157 16.8817L2.29198 16.23C1.89386 15.8307 1.90421 15.18 2.31482 14.7936L5.28331 12M7.74678 14.2947L15.8128 21.8081C15.9452 21.9315 16.1192 22 16.2999 22C16.3757 22 16.4487 21.9882 16.5172 21.9663M7.74678 14.2947L5.28331 12M16.5172 2.0337L21.411 4.23506C21.7694 4.39626 22 4.75353 22 5.14752V18.8525C22 19.2465 21.7694 19.6037 21.411 19.7649L16.5172 21.9663" stroke="#141B34" stroke-width="1.5" stroke-linecap="round" stroke-linejoin="round"/>
</svg>
