<svg width="24" height="24" viewBox="0 0 24 24" fill="none" xmlns="http://www.w3.org/2000/svg">
<path d="M16 8.98926C12.8164 8.98926 11.1837 15.0101 8 15.0101" stroke="#141B34" stroke-width="1.5" stroke-linecap="round" stroke-linejoin="round"/>
<path d="M15.5409 15.0101C14.7321 15.0101 14.2877 15.0101 13.9468 14.8891C13.7532 14.8203 13.5769 14.7242 13.4265 14.6053C13.1619 14.3962 13.0167 14.0965 12.7263 13.4971L11.2755 10.5022C10.9852 9.90285 10.84 9.60317 10.5753 9.39399C10.425 9.27517 10.2487 9.17904 10.0551 9.11029C9.71415 8.98926 9.26975 8.98926 8.46094 8.98926" stroke="#141B34" stroke-width="1.5" stroke-linecap="round" stroke-linejoin="round"/>
<path d="M12 22C17.5228 22 22 17.5228 22 12C22 6.47715 17.5228 2 12 2C6.47715 2 2 6.47715 2 12C2 17.5228 6.47715 22 12 22Z" stroke="#141B34" stroke-width="1.5"/>
</svg>
