<svg width="24" height="24" viewBox="0 0 24 24" fill="none" xmlns="http://www.w3.org/2000/svg">
<path d="M3.5 10V15C3.5 17.8284 3.5 19.2426 4.37868 20.1213C5.25736 21 6.67157 21 9.5 21H13.5M20.5 12V10" stroke="#141B34" stroke-width="1.5" stroke-linecap="round" stroke-linejoin="round"/>
<path d="M17 7.50147C17 8.88218 15.8807 9.9996 14.5 9.9996C13.1193 9.9996 12 8.88032 12 7.4996C12 8.88032 10.8807 9.9996 9.5 9.9996C8.11929 9.9996 7 8.88032 7 7.4996C7 8.88032 5.82654 9.9996 4.379 9.9996C3.59983 9.9996 2.90007 9.67531 2.41999 9.1605C1.59461 8.27543 2.12559 6.97366 2.81446 5.98806L3.202 5.45815C4.08384 4.25234 4.52476 3.64943 5.16491 3.32457C5.80507 2.99971 6.552 2.99981 8.04586 3.00001L15.9551 3.00106C17.4485 3.00126 18.1952 3.00136 18.8351 3.32621C19.475 3.65106 19.9158 4.25378 20.7974 5.4592L21.1855 5.98992C21.8744 6.97553 22.4054 8.2773 21.58 9.16237C21.0999 9.67717 20.4001 10.0015 19.621 10.0015C18.1734 10.0015 17 8.88218 17 7.50147Z" stroke="#141B34" stroke-width="1.5" stroke-linecap="round" stroke-linejoin="round"/>
<path d="M18.5018 15.5V14M18.5018 19.5V21M21.5009 15.748L20.2333 16.4883M15.5077 19.248L16.7787 18.5058M21.5077 19.2422L20.2393 18.5014M15.5146 15.7422L16.7847 16.4839M20.2333 16.4883C19.8859 15.8969 19.2432 15.5 18.5077 15.5C17.7741 15.5 17.1327 15.895 16.7847 16.4839M20.2333 16.4883C20.4077 16.7851 20.5077 17.1309 20.5077 17.5C20.5077 17.8649 20.41 18.2069 20.2393 18.5014M16.7847 16.4839C16.6087 16.7817 16.5077 17.1291 16.5077 17.5C16.5077 17.8667 16.6064 18.2103 16.7787 18.5058M16.7787 18.5058C17.1253 19.1004 17.7699 19.5 18.5077 19.5C19.2474 19.5 19.8933 19.0984 20.2393 18.5014" stroke="#141B34" stroke-width="1.5" stroke-linecap="round" stroke-linejoin="round"/>
</svg>
