<svg width="24" height="24" viewBox="0 0 24 24" fill="none" xmlns="http://www.w3.org/2000/svg">
<path d="M3 10.5V15C3 17.8284 3 19.2426 3.87868 20.1213C4.75736 21 6.17157 21 9 21H12.5M21 10.5V12.5" stroke="#141B34" stroke-width="1.5" stroke-linecap="round"/>
<path d="M7 17H11" stroke="#141B34" stroke-width="1.5" stroke-linecap="round"/>
<path d="M15 18.5H22M18.5 22V15" stroke="#141B34" stroke-width="1.5" stroke-linecap="round"/>
<path d="M17.7967 2.00254L6.15081 2.03002C4.41264 1.94542 3.96698 3.2116 3.96698 3.83056C3.96698 4.38414 3.89152 5.19117 2.82621 6.70798C1.7609 8.22478 1.84096 8.67537 2.44168 9.72544C2.94025 10.5969 4.20838 10.9374 4.8696 10.9946C6.9698 11.0398 7.99163 9.32381 7.99163 8.1178C9.03349 11.1481 11.9965 11.1481 13.3168 10.8016C14.6395 10.4545 15.7727 9.2118 16.04 8.1178C16.196 9.47735 16.6691 10.2707 18.0672 10.8158C19.5155 11.3805 20.7609 10.5174 21.3858 9.9642C22.0106 9.41096 22.4116 8.18278 21.2977 6.83288C20.5295 5.90195 20.2094 5.02494 20.1042 4.11599C20.0433 3.58931 19.9898 3.02336 19.5981 2.66323C19.0257 2.13691 18.2045 1.97722 17.7967 2.00254Z" stroke="#141B34" stroke-width="1.5" stroke-linecap="round" stroke-linejoin="round"/>
</svg>
