<svg width="24" height="24" viewBox="0 0 24 24" fill="none" xmlns="http://www.w3.org/2000/svg">
<path d="M14.9961 5C14.9961 3.58579 14.9961 2.87868 15.5085 2.43934C16.0209 2 16.8456 2 18.495 2C20.1444 2 20.9691 2 21.4814 2.43934C21.9939 2.87868 21.9939 3.58579 21.9939 5C21.9939 6.41421 21.9939 7.12132 21.4814 7.56066C20.9691 8 20.1444 8 18.495 8C16.8456 8 16.0209 8 15.5085 7.56066C14.9961 7.12132 14.9961 6.41421 14.9961 5Z" stroke="#141B34" stroke-width="1.5"/>
<path d="M14.9961 19C14.9961 17.5858 14.9961 16.8787 15.5085 16.4393C16.0209 16 16.8456 16 18.495 16C20.1444 16 20.9691 16 21.4814 16.4393C21.9939 16.8787 21.9939 17.5858 21.9939 19C21.9939 20.4142 21.9939 21.1213 21.4814 21.5607C20.9691 22 20.1444 22 18.495 22C16.8456 22 16.0209 22 15.5085 21.5607C14.9961 21.1213 14.9961 20.4142 14.9961 19Z" stroke="#141B34" stroke-width="1.5"/>
<path d="M7.01654 10L7.01654 14.0002M9.00711 12.0001L4.98242 12.0001" stroke="#141B34" stroke-width="1.5" stroke-linecap="round" stroke-linejoin="round"/>
<path d="M7.02217 17.0354C9.79908 17.0354 12.0502 14.7836 12.0502 12.0058C12.0502 9.22804 9.79908 6.9762 7.02217 6.9762M7.02217 17.0354C4.24527 17.0354 1.99414 14.7836 1.99414 12.0058C1.99414 9.22804 4.24527 6.9762 7.02217 6.9762M7.02217 17.0354C6.95223 19.1653 8.55649 19.9515 9.66941 19.9922H11.9963M7.02217 6.9762C6.95152 4.81612 8.54169 4.05653 9.66942 4.00879H11.9963" stroke="#141B34" stroke-width="1.5" stroke-linecap="round" stroke-linejoin="round"/>
</svg>
