<svg width="24" height="24" viewBox="0 0 24 24" fill="none" xmlns="http://www.w3.org/2000/svg">
<path d="M3.5 20.3438H6.48459V17.5M17.5154 6.5V3.65617L20.5 3.5M15 2.45846C11.5608 1.38029 7.65408 2.20378 4.92893 4.92893C1.02369 8.83418 1.02369 15.1658 4.92893 19.0711C5.26802 19.4102 5.6254 19.7198 5.9979 20M9 21.5415C12.4392 22.6197 16.3459 21.7962 19.0711 19.0711C22.9763 15.1658 22.9763 8.83417 19.0711 4.92893C18.732 4.58984 18.3746 4.2802 18.0021 4" stroke="#141B34" stroke-width="1.5" stroke-linecap="round" stroke-linejoin="round"/>
<path d="M12 11.5C13.3807 11.5 14.5 10.3807 14.5 9C14.5 7.61929 13.3807 6.5 12 6.5C10.6193 6.5 9.5 7.61929 9.5 9C9.5 10.3807 10.6193 11.5 12 11.5ZM12 11.5C9.79086 11.5 8 13.2909 8 15.5M12 11.5C14.2091 11.5 16 13.2909 16 15.5" stroke="#141B34" stroke-width="1.5" stroke-linecap="round" stroke-linejoin="round"/>
</svg>
