<svg width="24" height="24" viewBox="0 0 24 24" fill="none" xmlns="http://www.w3.org/2000/svg">
<path d="M1.99805 20.001H17.998" stroke="#141B34" stroke-width="1.5" stroke-linecap="round" stroke-linejoin="round"/>
<path d="M20.5477 11.0414C21.721 10.6014 21.8977 10.0014 21.9727 9.6014C22.0977 9.1014 21.7977 7.8264 21.5227 6.8514C21.4679 6.63962 21.0309 4.98381 20.9677 4.8014C20.7227 3.9264 20.1227 3.9664 19.6977 4.0264C19.5227 4.0639 18.2977 4.3964 18.0977 4.4964C17.4227 4.9014 17.4977 5.9764 17.2977 6.6764C17.0727 7.7014 16.5477 7.8514 15.9477 7.9514C13.8477 8.1014 9.19766 8.4764 9.19766 8.4764C5.22266 8.8264 3.29766 12.0014 3.01266 14.3264C2.87266 15.3014 3.77266 15.6514 4.24766 15.5264L9.47266 14.1014C9.87266 13.9514 10.1977 14.0764 10.4227 14.2264L12.7477 15.7514C13.2727 16.0264 13.7477 16.0514 14.1727 15.9514L16.3477 15.3564C16.7977 15.3064 16.8872 15.0922 16.9477 14.9264C17.0365 14.6829 16.8458 14.4596 16.6227 14.2514C16.4977 14.0764 16.0977 13.6484 15.9477 13.4834C15.7477 13.2264 15.2588 12.8014 15.2977 12.6264C14.9977 12.5014 16.0673 12.3129 17.8477 11.8264C18.8594 11.5499 20.0263 11.2369 20.5477 11.0414Z" stroke="#141B34" stroke-width="1.5"/>
</svg>
