<svg width="24" height="24" viewBox="0 0 24 24" fill="none" xmlns="http://www.w3.org/2000/svg">
<path d="M20 5.99166V11.9791M18 3.99585H6M10 19.9623H6M4 17.9665V5.99166" stroke="#141B34" stroke-width="1.5" stroke-linecap="round" stroke-linejoin="round"/>
<path d="M22 3.99581C22 5.09807 21.1046 5.99162 20 5.99162C18.8954 5.99162 18 5.09807 18 3.99581C18 2.89355 18.8954 2 20 2C21.1046 2 22 2.89355 22 3.99581Z" stroke="#141B34" stroke-width="1.5"/>
<path d="M6 3.99581C6 5.09807 5.10457 5.99162 4 5.99162C2.89543 5.99162 2 5.09807 2 3.99581C2 2.89355 2.89543 2 4 2C5.10457 2 6 2.89355 6 3.99581Z" stroke="#141B34" stroke-width="1.5"/>
<path d="M6 19.9624C6 21.0646 5.10457 21.9582 4 21.9582C2.89543 21.9582 2 21.0646 2 19.9624C2 18.8601 2.89543 17.9666 4 17.9666C5.10457 17.9666 6 18.8601 6 19.9624Z" stroke="#141B34" stroke-width="1.5"/>
<path d="M15.5368 19.4139L17.9989 16.7982M17.9989 16.7982L19.4847 15.2094C19.667 15.0646 20.0608 14.8197 20.5925 15.3069C21.0731 15.7471 21.7038 16.4322 21.9873 16.7524M17.9989 16.7982L19.503 18.4346M15.9971 20.4883C15.9971 21.3251 15.3234 22.0034 14.4922 22.0034C13.6611 22.0034 12.9873 21.3251 12.9873 20.4883C12.9873 19.6515 13.6611 18.9732 14.4922 18.9732C15.3234 18.9732 15.9971 19.6515 15.9971 20.4883Z" stroke="#141B34" stroke-width="1.5" stroke-linecap="round"/>
</svg>
