<svg width="24" height="24" viewBox="0 0 24 24" fill="none" xmlns="http://www.w3.org/2000/svg">
<path d="M7 14H18" stroke="#141B34" stroke-width="1.5" stroke-linecap="round" stroke-linejoin="round"/>
<path d="M8.5 9H14.7353C15.1984 9 15.4299 9 15.4875 9.1605C15.6733 9.67818 13.7315 11.4137 13.4333 11.7577C12.9448 12.3213 12.7006 12.6031 12.572 12.9615C12.4433 13.3198 12.4433 13.7184 12.4433 14.5154V18.075C12.4433 19.7377 11.4908 21 9.90833 21" stroke="#141B34" stroke-width="1.5" stroke-linecap="round" stroke-linejoin="round"/>
<path d="M4.99226 7.99997C4.91697 7.25983 5.04168 5.86347 6.98563 5.99998H17.4508C18.0883 6.03692 19.1729 6.46024 18.9458 7.99997M10.9724 3C11.5734 3.31337 12.6466 4.51459 12.9657 6" stroke="#141B34" stroke-width="1.5" stroke-linecap="round" stroke-linejoin="round"/>
</svg>
