<svg width="24" height="24" viewBox="0 0 24 24" fill="none" xmlns="http://www.w3.org/2000/svg">
<path d="M14.7424 12.7799C15.7759 12.7495 17.8535 14.1181 17.9994 19.8328M9.93567 10.7651C9.85477 10.0639 9.87878 8.55093 11.2311 7.80584C12.9985 6.83202 14.8161 8.46474 15.0236 10.2727C15.1252 11.1585 14.7681 13.992 13.2588 15.6892C12.6955 16.3227 12.1878 16.8767 11.2311 16.9748C10.3434 17.0659 9.61519 16.8283 8.77136 16.2714C7.42291 15.3814 6.01317 13.881 4.81753 11.8082C3.54036 9.59404 2.85006 8.08034 2.00488 5.02637" stroke="#141B34" stroke-width="1.5" stroke-linecap="round" stroke-linejoin="round"/>
<path d="M7 6.36752C7.87785 5.41201 12.9941 1.68945 16.5986 6.13758C17.0353 6.67646 17.2536 6.9459 17.6268 7.99921C18 9.05252 18 9.78494 18 11.2498V20" stroke="#141B34" stroke-width="1.5" stroke-linecap="round" stroke-linejoin="round"/>
<path d="M18 10C18 7.72717 19.2 4.62581 22 5.03703" stroke="#141B34" stroke-width="1.5" stroke-linecap="round" stroke-linejoin="round"/>
</svg>
