<svg width="24" height="24" viewBox="0 0 24 24" fill="none" xmlns="http://www.w3.org/2000/svg">
<path d="M20 5.99976L20 18.0004" stroke="#141B34" stroke-width="1.5" stroke-linecap="round" stroke-linejoin="round"/>
<path d="M11.503 12.0109V12.3814C11.4624 15.3525 11.5973 16.3847 12.8479 15.9055L13.1559 15.7236L13.4046 15.5508L13.9398 15.1378L14.9402 14.2685L15.963 13.4047L16.463 12.9516L16.6857 12.7251L16.9479 12.346L17.0017 12.0097L16.9479 11.6757L16.6857 11.2967L16.463 11.0701L15.963 10.617L14.9402 9.75323L13.9398 8.8839L13.4046 8.47091L13.1559 8.29813L12.8479 8.11621C11.5973 7.63699 11.4624 8.66922 11.503 11.6403V12.0109ZM11.503 12.0109H4" stroke="#141B34" stroke-width="1.5" stroke-linecap="round" stroke-linejoin="round"/>
</svg>
