<svg width="24" height="24" viewBox="0 0 24 24" fill="none" xmlns="http://www.w3.org/2000/svg">
<path d="M4.00781 5.99658L4.00784 17.9973" stroke="#141B34" stroke-width="1.5" stroke-linecap="round" stroke-linejoin="round"/>
<path d="M12.5065 12.0079V12.3784C12.5471 15.3496 12.4122 16.3818 11.1616 15.9026L10.8536 15.7206L10.6049 15.5479L10.0697 15.1349L9.06934 14.2656L8.04646 13.4018L7.54646 12.9487L7.3238 12.7221L7.06164 12.3431L7.00781 12.0068L7.06164 11.6728L7.3238 11.2937L7.54646 11.0672L8.04646 10.614L9.06934 9.7503L10.0697 8.88097L10.6049 8.46798L10.8536 8.2952L11.1616 8.11329C12.4122 7.63406 12.5471 8.66629 12.5065 11.6374V12.0079ZM12.5065 12.0079H20.0095" stroke="#141B34" stroke-width="1.5" stroke-linecap="round" stroke-linejoin="round"/>
</svg>
