<svg width="24" height="24" viewBox="0 0 24 24" fill="none" xmlns="http://www.w3.org/2000/svg">
<path d="M21.3175 7.14139L20.8239 6.28479C20.4506 5.63696 20.264 5.31305 19.9464 5.18388C19.2364 4.89514 18.0381 5.50505 17.3311 5.70418C16.7044 5.84872 16.1664 5.64661 15.6357 5.34042C15.2766 5.11043 15.0004 4.77133 14.8475 4.37274C14.6333 3.73286 14.4895 2.60578 13.9228 2.19657C13.6615 2.00781 13.3143 2.00781 12.6199 2.00781H11.5051C10.8108 2.00781 10.4636 2.00781 10.2022 2.19657C9.63559 2.60581 9.49178 3.73288 9.27753 4.37274C9.06499 4.92687 8.64451 5.25091 8.15249 5.53479C7.73374 5.74994 7.25259 5.80994 6.79398 5.70418C6.08704 5.50506 4.88865 4.89513 4.17867 5.18388C3.86109 5.31305 3.67445 5.63696 3.30115 6.28479L2.80757 7.14139C2.45766 7.74864 2.2827 8.05227 2.31666 8.37549C2.40099 9.1784 3.57008 10.0579 4.0843 10.6328C4.3363 10.9518 4.51521 11.5078 4.51521 12.0077C4.51521 12.5078 4.33636 13.0636 4.08433 13.3827C3.57007 13.9576 2.401 14.8371 2.31666 15.6401C2.2827 15.9633 2.45766 16.2669 2.80757 16.8741L3.30114 17.7307C3.67443 18.3785 3.86109 18.7025 4.17867 18.8316C4.8886 19.1204 6.08703 18.5104 6.79394 18.3113C7.77586 18.0848 8.91601 18.7002 9.2775 19.6428C9.49176 20.2827 9.63558 21.4098 10.2022 21.8191C10.4636 22.0078 10.8108 22.0078 11.5051 22.0078H12.6199C13.3143 22.0078 13.6615 22.0078 13.9228 21.8191C14.1842 21.6303 14.294 21.3003 14.5136 20.6403C14.761 19.9013 14.9344 19.1243 15.6356 18.6752C16.1663 18.3689 16.7043 18.1667 17.3311 18.3113C18.038 18.5104 19.2364 19.1204 19.9464 18.8316C20.264 18.7025 20.4506 18.3785 20.8239 17.7307L21.3175 16.8741C21.6674 16.2669 21.8423 15.9633 21.8084 15.6401C21.7239 14.8371 20.555 13.9577 20.0407 13.3827C19.458 12.6449 19.4581 11.3706 20.0407 10.6328C20.555 10.0579 21.7239 9.17849 21.8084 8.37549C21.8423 8.05227 21.6674 7.74864 21.3175 7.14139Z" stroke="#141B34" stroke-width="1.5" stroke-linecap="round"/>
<path d="M7.5 15L9.34189 9.47434C9.43631 9.19107 9.7014 9 10 9C10.2986 9 10.5637 9.19107 10.6581 9.47434L12.5 15M8.5 13H11.5" stroke="#141B34" stroke-width="1.5" stroke-linecap="round" stroke-linejoin="round"/>
<path d="M15.5 9V15" stroke="#141B34" stroke-width="1.5" stroke-linecap="round" stroke-linejoin="round"/>
</svg>
