<svg width="24" height="24" viewBox="0 0 24 24" fill="none" xmlns="http://www.w3.org/2000/svg">
<path d="M8.00896 16.9844H8" stroke="#141B34" stroke-width="2" stroke-linecap="round" stroke-linejoin="round"/>
<path d="M19 12.9892V3H2V12.9892" stroke="#141B34" stroke-width="1.5" stroke-linejoin="round"/>
<path d="M3.97656 16.9922C3.97656 19.203 5.73729 20.9952 7.90918 20.9952C9.72267 20.9952 11.2254 19.819 11.6799 18.1196H16.3289V20.8752C16.3289 20.9304 16.3736 20.9751 16.4289 20.9751H18.9385C18.9809 20.9751 19.0188 20.9484 19.0328 20.9084L20.017 18.1121H21.9457C22.0015 18.1121 22.0465 18.0665 22.0457 18.0108L22.0072 15.345C22.0065 15.2901 21.9616 15.2462 21.9067 15.2465L11.4763 15.3047C10.8508 13.9372 9.48871 12.9893 7.90918 12.9893C5.73729 12.9893 3.97656 14.7815 3.97656 16.9922Z" stroke="#141B34" stroke-width="1.5"/>
</svg>
