<svg width="24" height="24" viewBox="0 0 24 24" fill="none" xmlns="http://www.w3.org/2000/svg">
<path d="M6 20C8.20914 20 10 18.2091 10 16C10 13.7909 8.20914 12 6 12C3.79086 12 2 13.7909 2 16C2 18.2091 3.79086 20 6 20Z" stroke="#141B34" stroke-width="1.5" stroke-linecap="round" stroke-linejoin="round"/>
<path d="M18 20C20.2091 20 22 18.2091 22 16C22 13.7909 20.2091 12 18 12C15.7909 12 14 13.7909 14 16C14 18.2091 15.7909 20 18 20Z" stroke="#141B34" stroke-width="1.5" stroke-linecap="round" stroke-linejoin="round"/>
<path d="M6 16H10.3706C10.7302 16 11.0622 15.8069 11.2399 15.4942L15.5 8" stroke="#141B34" stroke-width="1.5" stroke-linecap="round" stroke-linejoin="round"/>
<path d="M12 13L7 7M7 7H5M7 7H9" stroke="#141B34" stroke-width="1.5" stroke-linecap="round" stroke-linejoin="round"/>
<path d="M20.0049 6.21569C19.8009 5.63969 19.4409 4.73969 18.2409 4.31969C17.4609 4.01969 15.5409 3.89969 15.3009 4.07969C14.9537 4.1665 14.9409 4.55969 15.1089 5.09969C15.2453 5.67864 15.4569 6.42525 15.6489 7.13969C16.1409 8.97049 17.2209 12.9357 18.0249 15.9957" stroke="#141B34" stroke-width="1.5" stroke-linecap="round"/>
</svg>
