<svg width="24" height="24" viewBox="0 0 24 24" fill="none" xmlns="http://www.w3.org/2000/svg">
<path d="M12 8.99976C8.41015 8.99976 5.5 11.9099 5.5 15.4998C5.5 19.0896 8.41015 21.9998 12 21.9998C15.5898 21.9998 18.5 19.0896 18.5 15.4998C18.5 11.9099 15.5898 8.99976 12 8.99976Z" stroke="#141B34" stroke-width="1.5" stroke-linecap="round" stroke-linejoin="round"/>
<path d="M20 2L16.0237 5.6148C15.3073 6.26613 14.949 6.5918 14.527 6.56553C14.1051 6.53926 13.79 6.17167 13.1599 5.4365L12.6533 4.84557C12.1043 4.20505 11.8298 3.88479 11.4541 3.83296C11.0783 3.78112 10.7274 4.0151 10.0254 4.48305L4 8.5M20 2H16.5M20 2V5" stroke="#141B34" stroke-width="1.5" stroke-linecap="round" stroke-linejoin="round"/>
<path d="M10.4375 18.1664L10.4375 12.8331M12 12.8331V11.4998M12 19.4998V18.1664M10.4375 15.4998H13.5625M13.5625 15.4998C14.0803 15.4998 14.5 15.9475 14.5 16.4998V17.1664C14.5 17.7187 14.0803 18.1664 13.5625 18.1664H9.5M13.5625 15.4998C14.0803 15.4998 14.5 15.052 14.5 14.4998V13.8331C14.5 13.2808 14.0803 12.8331 13.5625 12.8331H9.5" stroke="#141B34" stroke-width="1.5" stroke-linecap="round" stroke-linejoin="round"/>
</svg>
