<svg width="24" height="24" viewBox="0 0 24 24" fill="none" xmlns="http://www.w3.org/2000/svg">
<path d="M10.125 15L10.125 9M12 9V7.5M12 16.5V15M10.125 12H13.875M13.875 12C14.4963 12 15 12.5037 15 13.125V13.875C15 14.4963 14.4963 15 13.875 15H9M13.875 12C14.4963 12 15 11.4963 15 10.875V10.125C15 9.50368 14.4963 9 13.875 9H9" stroke="#141B34" stroke-width="1.5" stroke-linecap="round" stroke-linejoin="round"/>
<path d="M21.011 14.0966C21.5329 13.9558 21.7939 13.8854 21.8969 13.7509C22 13.6163 22 13.3999 22 12.9669V11.0333C22 10.6004 22 10.3839 21.8969 10.2493C21.7938 10.1148 21.5329 10.0444 21.011 9.90364C19.0606 9.37765 17.8399 7.33858 18.3433 5.40094C18.4817 4.86806 18.5509 4.60162 18.4848 4.44535C18.4187 4.28909 18.2291 4.1814 17.8497 3.96603L16.125 2.9868C15.7528 2.77545 15.5667 2.66978 15.3997 2.69228C15.2326 2.71479 15.0442 2.90279 14.6672 3.2788C13.208 4.73455 10.7936 4.73449 9.33434 3.27871C8.95743 2.9027 8.76898 2.71469 8.60193 2.69219C8.43489 2.66968 8.24877 2.77536 7.87653 2.9867L6.15184 3.96593C5.77253 4.18129 5.58287 4.28897 5.51678 4.44522C5.45068 4.60147 5.51987 4.86793 5.65825 5.40086C6.16137 7.33856 4.93972 9.37769 2.98902 9.90366C2.46712 10.0444 2.20617 10.1147 2.10308 10.2493C2 10.3839 2 10.6003 2 11.0333V12.9669C2 13.3999 2 13.6163 2.10308 13.7509C2.20615 13.8855 2.46711 13.9558 2.98902 14.0966C4.9394 14.6226 6.16008 16.6616 5.65672 18.5993C5.51829 19.1322 5.44907 19.3986 5.51516 19.5549C5.58126 19.7111 5.77092 19.8188 6.15025 20.0342L7.87495 21.0134C8.24721 21.2248 8.43334 21.3305 8.6004 21.3079C8.76746 21.2854 8.95588 21.0974 9.33271 20.7214C10.7927 19.2644 13.2088 19.2644 14.6689 20.7213C15.0457 21.0973 15.2341 21.2853 15.4012 21.3078C15.5682 21.3304 15.7544 21.2247 16.1266 21.0133L17.8513 20.0341C18.2307 19.8187 18.4204 19.711 18.4864 19.5547C18.5525 19.3985 18.4833 19.132 18.3448 18.5992C17.8412 16.6616 19.0609 14.6226 21.011 14.0966Z" stroke="#141B34" stroke-width="1.5" stroke-linecap="round"/>
</svg>
