<svg width="24" height="24" viewBox="0 0 24 24" fill="none" xmlns="http://www.w3.org/2000/svg">
<path d="M8.5 6.5C8.5 5.09554 8.5 4.39331 8.83706 3.88886C8.98298 3.67048 9.17048 3.48298 9.38886 3.33706C9.89331 3 10.5955 3 12 3C13.4045 3 14.1067 3 14.6111 3.33706C14.8295 3.48298 15.017 3.67048 15.1629 3.88886C15.5 4.39331 15.5 5.09554 15.5 6.5" stroke="#141B34" stroke-width="1.5" stroke-linecap="round" stroke-linejoin="round"/>
<path d="M19.9993 6.50016L4.0002 6.5C2.89574 6.50007 2.0001 7.39568 2 8.50013C2.0001 10.7091 3.79139 12.5004 6.00035 12.5006H17.9992C20.2081 12.5005 21.9993 10.7093 21.9994 8.5003C21.9994 7.39582 21.1038 6.50023 19.9993 6.50016Z" stroke="#141B34" stroke-width="1.5" stroke-linecap="round" stroke-linejoin="round"/>
<path d="M7.5 11V14M16.5 14V11" stroke="#141B34" stroke-width="1.5" stroke-linecap="round" stroke-linejoin="round"/>
<path d="M2.00224 8.5L2.00009 13.997C1.9988 17.2979 1.99815 18.9484 3.02333 19.974C4.04851 20.9996 5.69899 20.9996 8.99993 20.9997L15.001 20.9998C18.3003 20.9999 19.95 21 20.9751 19.9751C22.0002 18.9502 22.0005 17.3005 22.0012 14.0012L22.0022 8.5" stroke="#141B34" stroke-width="1.5" stroke-linecap="round" stroke-linejoin="round"/>
</svg>
