<svg width="24" height="24" viewBox="0 0 24 24" fill="none" xmlns="http://www.w3.org/2000/svg">
<path d="M3.012 6.59766C2.89208 7.65695 3.65834 10.1953 5.87687 10.2552" stroke="#141B34" stroke-width="1.5" stroke-linecap="round"/>
<path d="M18.2891 10.1953C19.3683 10.2552 20.9873 8.99606 20.9873 6.59766" stroke="#141B34" stroke-width="1.5" stroke-linecap="round"/>
<path d="M20.0881 20.9877C20.148 19.6086 19.2486 17.474 17.5098 17.4141" stroke="#141B34" stroke-width="1.5" stroke-linecap="round"/>
<path d="M3.90131 20.9883C3.84003 19.5999 4.75934 17.451 6.53668 17.3907" stroke="#141B34" stroke-width="1.5" stroke-linecap="round"/>
<path d="M3.01367 13.793H5.21898" stroke="#141B34" stroke-width="1.5" stroke-linecap="round"/>
<path d="M21.0019 13.793L18.8301 13.793" stroke="#141B34" stroke-width="1.5" stroke-linecap="round"/>
<path d="M11.9931 13.7928V10.8548M16.4901 3L14.6913 4.7988M7.49609 3L9.2949 4.7988" stroke="#141B34" stroke-width="1.5" stroke-linecap="round"/>
<path d="M6.95703 8.6123C8.57596 9.77553 12.5933 11.4544 16.9704 8.68426" stroke="#141B34" stroke-width="1.5" stroke-linecap="round"/>
<path d="M16.8259 7.67737C13.2523 2.70068 8.6953 5.09908 7.07638 7.82127C6.02087 9.59609 4.37817 13.8892 7.4961 18.5661C10.8539 22.6674 14.8112 20.8086 16.4302 18.6501C17.9891 16.7913 19.5241 11.9945 16.8259 7.67737Z" stroke="#141B34" stroke-width="1.5" stroke-linecap="round"/>
</svg>
