<svg width="24" height="24" viewBox="0 0 24 24" fill="none" xmlns="http://www.w3.org/2000/svg">
<path d="M22 7.49889V15.4989C22 18.3273 22 19.7415 21.1213 20.6202C20.2426 21.4989 18.8284 21.4989 16 21.4989H8C5.17157 21.4989 3.75736 21.4989 2.87868 20.6202C2 19.7415 2 18.3273 2 15.4989V12.9989C2 10.1704 2 8.75623 2.87868 7.87755C3.75736 6.99887 5.17157 6.99887 8 6.99887H8.39922C9.02578 6.99887 9.33906 6.99887 9.62612 6.91068C9.81759 6.85185 9.99914 6.76459 10.1647 6.65182C10.4129 6.48276 10.6086 6.23813 11 5.74887C11.3914 5.25961 11.5871 5.01498 11.8353 4.84592C12.0009 4.73315 12.1824 4.64589 12.3739 4.58707C12.5504 4.53283 12.7369 4.50804 13 4.5" stroke="#141B34" stroke-width="1.5" stroke-linecap="round" stroke-linejoin="round"/>
<path d="M16 5H21M18.5 7.5V2.5" stroke="#141B34" stroke-width="1.5" stroke-linecap="round" stroke-linejoin="round"/>
<path d="M5 10H7" stroke="#141B34" stroke-width="1.5" stroke-linecap="round" stroke-linejoin="round"/>
<path d="M18.5312 14C18.5312 16.2091 16.7403 18 14.5312 18C12.322 18 10.5312 16.2091 10.5312 14C10.5312 11.7909 12.322 10 14.5312 10C16.7403 10 18.5312 11.7909 18.5312 14Z" stroke="#141B34" stroke-width="1.5" stroke-linecap="round" stroke-linejoin="round"/>
</svg>
