<svg width="24" height="24" viewBox="0 0 24 24" fill="none" xmlns="http://www.w3.org/2000/svg">
<path d="M12 5C13.491 5.68354 16 4.5 16 2C14.3578 2.62289 13.5105 2.61424 12 2V5ZM12 5V8M9 22L9.60777 18.9611C9.75132 18.2434 9.8231 17.8845 10.0155 17.6192C10.4935 16.9602 11.2612 17 12 17C12.7388 17 13.5065 16.9602 13.9845 17.6192C14.1769 17.8845 14.2487 18.2434 14.3922 18.9611L15 22M11 14H13M6.1178 8.05731C5.95306 8 5.76611 8 5.39223 8C4.84263 8 4.56783 8 4.35334 8.10516C4.17791 8.19116 4.0315 8.32515 3.93171 8.491C3.8097 8.69377 3.79013 8.96317 3.75097 9.50195L3.07621 18.7863C2.9668 20.2917 2.9121 21.0444 3.36478 21.5222C3.81747 22 4.58528 22 6.1209 22H17.8791C19.4147 22 20.1825 22 20.6352 21.5222C21.0879 21.0444 21.0332 20.2917 20.9238 18.7863L20.249 9.50195C20.2095 8.9581 20.199 8.37597 19.6467 8.10516C19.4322 8 19.1574 8 18.6078 8C18.2339 8 18.0469 8 17.8822 8.05731C17.0186 8.35785 16.9923 9.53876 16.4547 10.1527C16.317 10.3097 16.1331 10.4209 15.9284 10.4707C15.6102 10.5481 15.1459 10.5494 14.8302 10.4647C14.6063 10.4046 14.4101 10.2711 14.2741 10.0864C13.8575 9.52095 13.9146 8.55101 13.2754 8.15434C12.8939 7.91775 12.3526 8 11.9226 8C11.5127 8 11.0043 7.94175 10.6538 8.20255C10.0794 8.62959 10.1308 9.53693 9.72593 10.0864C9.58986 10.2711 9.39365 10.4046 9.16983 10.4647C8.85416 10.5494 8.38979 10.5481 8.07162 10.4707C7.86689 10.4209 7.68296 10.3097 7.5453 10.1527C7.00666 9.53759 6.98484 8.35894 6.1178 8.05731Z" stroke="#141B34" stroke-width="1.5" stroke-linecap="round" stroke-linejoin="round"/>
</svg>
