<svg width="24" height="24" viewBox="0 0 24 24" fill="none" xmlns="http://www.w3.org/2000/svg">
<path d="M21.8676 15.8114C21.588 17.5676 20.2035 18.945 18.4384 19.2231C18.1177 19.2736 17.7345 19.2736 16.9679 19.2736C16.2015 19.2736 15.8183 19.2736 15.4976 19.2231C13.7323 18.945 12.348 17.5676 12.0684 15.8114C12.0176 15.4925 12.0176 15.1112 12.0176 14.3486V11.0653M12.0176 11.0653V9.42357C12.0176 8.66101 12.0176 8.27972 12.0684 7.9607C12.348 6.20454 13.7323 4.82721 15.4976 4.54907C15.8183 4.49854 16.2015 4.49854 16.9679 4.49854C17.7345 4.49854 18.1177 4.49854 18.4384 4.54907C20.2035 4.82721 21.588 6.20454 21.8676 7.9607C22.0656 9.2047 22.1646 9.82671 21.776 10.3714C21.7228 10.4459 21.645 10.5361 21.5791 10.5999C21.0968 11.0653 20.3251 11.0653 18.7816 11.0653H12.0176Z" stroke="#141B34" stroke-width="1.5" stroke-linecap="round" stroke-linejoin="round"/>
<path d="M2.35376 6.91505C2.77775 6.16367 3.94454 4.82229 5.43195 4.55959C6.91936 4.29689 9.48065 4.16563 10.7488 5.72466C12.017 7.28368 12.017 8.94008 12.017 11.0941M12.017 11.0941C12.017 12.3351 11.9819 12.7325 11.8682 13.5509C11.7334 14.5202 11.6584 16.2917 10.4857 17.5661C10.0364 18.0544 9.48885 18.4563 8.90049 18.7632C8.16982 19.1444 7.11663 19.484 6.00675 19.3762C3.92071 19.1736 2.35376 17.976 2.07393 15.8557C1.8914 14.4727 2.54618 13.0458 3.24415 12.3351C3.94211 11.6245 4.80701 11.0153 6.29689 11.0941C7.67945 11.1672 10.6869 11.111 12.017 11.0941Z" stroke="#141B34" stroke-width="1.5" stroke-linecap="round" stroke-linejoin="round"/>
</svg>
