<svg width="24" height="24" viewBox="0 0 24 24" fill="none" xmlns="http://www.w3.org/2000/svg">
<path d="M17.0117 9.01264H17.0198M17.0201 7.00903V4.50451M22.0156 6.792C22.0156 9.43833 19.7749 11.584 17.0117 11.584C16.6867 11.5844 16.3628 11.5543 16.0436 11.4943C15.814 11.4511 15.6991 11.4296 15.6189 11.4418C15.5387 11.454 15.4251 11.5145 15.1978 11.6356C14.5549 11.9778 13.8052 12.0987 13.0842 11.9645C13.3583 11.627 13.5454 11.2222 13.628 10.7882C13.678 10.5228 13.554 10.2649 13.3683 10.0762C12.5249 9.21878 12.0078 8.06347 12.0078 6.792C12.0078 4.14565 14.2485 2 17.0117 2C19.7749 2 22.0156 4.14565 22.0156 6.792Z" stroke="#141B34" stroke-width="1.5" stroke-linecap="round" stroke-linejoin="round"/>
<path d="M7.51752 22H4.7338C4.4105 22 4.08584 21.9545 3.7889 21.8269C2.82229 21.4116 2.33187 20.8633 2.10331 20.5202C1.97327 20.325 1.99179 20.0764 2.13288 19.889C3.25279 18.4015 5.84933 17.503 7.51752 17.5029M7.52227 22H10.306C10.6293 22 10.954 21.9545 11.2509 21.8269C12.2175 21.4116 12.7079 20.8633 12.9365 20.5202C13.0665 20.325 13.048 20.0764 12.9069 19.889C11.787 18.4015 9.19047 17.503 7.52227 17.5029M10.301 12.2888C10.301 13.8201 9.05692 15.0614 7.52227 15.0614C5.98762 15.0614 4.74353 13.8201 4.74353 12.2888C4.74353 10.7575 5.98762 9.51611 7.52227 9.51611C9.05692 9.51611 10.301 10.7575 10.301 12.2888Z" stroke="#141B34" stroke-width="1.5" stroke-linecap="round" stroke-linejoin="round"/>
</svg>
