<svg width="24" height="24" viewBox="0 0 24 24" fill="none" xmlns="http://www.w3.org/2000/svg">
<path d="M19 15V9C19 6.17157 19 4.75736 18.1213 3.87868C17.2426 3 15.8284 3 13 3H11C8.17157 3 6.75736 3 5.87868 3.87868C5 4.75736 5 6.17157 5 9V15C5 17.8284 5 19.2426 5.87868 20.1213C6.75736 21 8.17157 21 11 21H13C15.8284 21 17.2426 21 18.1213 20.1213C19 19.2426 19 17.8284 19 15Z" stroke="#141B34" stroke-width="1.5"/>
<path d="M22 7V17" stroke="#141B34" stroke-width="1.5" stroke-linecap="round"/>
<path d="M2 7V17" stroke="#141B34" stroke-width="1.5" stroke-linecap="round"/>
<path d="M13.9985 8.50873C13.9985 9.61326 13.1031 10.5087 11.9985 10.5087C10.894 10.5087 9.9986 9.61326 9.9986 8.50873C9.9986 7.40419 10.894 6.50879 11.9985 6.50879C13.1031 6.50879 13.9985 7.40419 13.9985 8.50873Z" stroke="#141B34" stroke-width="1.5" stroke-linecap="round" stroke-linejoin="round"/>
<path d="M8.04345 15.7322C9.1018 14.1029 10.7825 13.4923 11.9985 13.4935C13.2146 13.4948 14.846 14.1029 15.9044 15.7322C15.9728 15.8376 15.9917 15.9673 15.9299 16.0768C15.6824 16.5157 14.9139 17.3866 14.3589 17.4457C13.7211 17.5135 12.0528 17.523 11.9998 17.5233C11.9468 17.523 10.227 17.5135 9.58898 17.4457C9.03392 17.3866 8.26543 16.5157 8.01792 16.0768C7.95617 15.9673 7.97503 15.8376 8.04345 15.7322Z" stroke="#141B34" stroke-width="1.5" stroke-linecap="round" stroke-linejoin="round"/>
</svg>
