<svg width="24" height="24" viewBox="0 0 24 24" fill="none" xmlns="http://www.w3.org/2000/svg">
<path d="M4.5 10C4.5 6.22876 4.5 4.34315 5.67157 3.17157C6.84315 2 8.72876 2 12.5 2H14C17.7712 2 19.6569 2 20.8284 3.17157C22 4.34315 22 6.22876 22 10V14C22 17.7712 22 19.6569 20.8284 20.8284C19.6569 22 17.7712 22 14 22H12.5C8.72876 22 6.84315 22 5.67157 20.8284C4.5 19.6569 4.5 17.7712 4.5 14V10Z" stroke="#141B34" stroke-width="1.5"/>
<path d="M4.5 6H2M4.5 12H2M4.5 18H2" stroke="#141B34" stroke-width="1.5" stroke-linecap="round" stroke-linejoin="round"/>
<path d="M15.2758 8.49261C15.2758 9.59715 14.3804 10.4926 13.2759 10.4926C12.1714 10.4926 11.2759 9.59715 11.2759 8.49261C11.2759 7.38808 12.1714 6.49268 13.2759 6.49268C14.3804 6.49268 15.2758 7.38808 15.2758 8.49261Z" stroke="#141B34" stroke-width="1.5" stroke-linecap="round" stroke-linejoin="round"/>
<path d="M9.3208 15.7161C10.3791 14.0868 12.0598 13.4762 13.2759 13.4774C14.4919 13.4787 16.1234 14.0868 17.1817 15.7161C17.2502 15.8215 17.269 15.9512 17.2073 16.0607C16.9597 16.4996 16.1913 17.3705 15.6362 17.4296C14.9984 17.4974 13.3301 17.5069 13.2772 17.5072C13.2242 17.5069 11.5044 17.4974 10.8663 17.4296C10.3113 17.3705 9.54278 16.4996 9.29526 16.0607C9.23351 15.9512 9.25237 15.8215 9.3208 15.7161Z" stroke="#141B34" stroke-width="1.5" stroke-linecap="round" stroke-linejoin="round"/>
</svg>
