<svg width="24" height="24" viewBox="0 0 24 24" fill="none" xmlns="http://www.w3.org/2000/svg">
<path d="M19.75 2.5H4.75C4.19772 2.5 3.75 2.94772 3.75 3.5L5.60753 17.8959C5.69611 18.5824 6.13335 19.1742 6.76348 19.4607L10.7598 21.2772C11.0829 21.424 11.4336 21.5 11.7884 21.5C12.0935 21.5 12.396 21.4438 12.6808 21.3343L17.637 19.4281C18.3227 19.1644 18.8086 18.5459 18.9026 17.8173L20.75 3.5C20.75 2.94772 20.3023 2.5 19.75 2.5Z" stroke="#141B34" stroke-width="1.5" stroke-linecap="round" stroke-linejoin="round"/>
<path d="M7.5 6.5H16.5L8 11H16L15.5 16L12 17L8.5 16L8.3 14" stroke="#141B34" stroke-width="1.5" stroke-linecap="round" stroke-linejoin="round"/>
</svg>
