<svg width="24" height="24" viewBox="0 0 24 24" fill="none" xmlns="http://www.w3.org/2000/svg">
<path d="M4.47656 6.10018L5.31738 18.1768C5.41081 19.3365 6.28373 21.5536 8.52084 21.8022C10.758 22.0507 15.2522 21.9951 16.0719 21.9951C16.8915 21.9951 19.0148 21.4136 19.0148 19.0059C19.0148 16.5756 16.9853 15.9419 15.7096 15.9635H12.0573M12.0573 15.9635C12.0627 15.7494 12.1535 15.5372 12.3297 15.3828L14.4889 13.4924M12.0573 15.9635C12.0516 16.1919 12.1432 16.4224 12.3319 16.5864L14.4889 18.4609M19.4721 5.82422L19.0043 13.4792" stroke="#141B34" stroke-width="1.5" stroke-linecap="round" stroke-linejoin="round"/>
<path d="M3 5.49561H21M16.0555 5.49561L15.3729 4.08911C14.9194 3.15481 14.6926 2.68766 14.3015 2.39631C14.2148 2.33168 14.1229 2.2742 14.0268 2.22442C13.5937 2 13.0739 2 12.0343 2C10.9686 2 10.4358 2 9.99549 2.23383C9.89791 2.28565 9.80479 2.34547 9.7171 2.41265C9.32145 2.7158 9.10044 3.20004 8.65842 4.16854L8.05273 5.49561" stroke="#141B34" stroke-width="1.5" stroke-linecap="round" stroke-linejoin="round"/>
</svg>
