<svg width="24" height="24" viewBox="0 0 24 24" fill="none" xmlns="http://www.w3.org/2000/svg">
<path d="M2 6C2 2.69067 2.69067 2 6 2H18C21.3093 2 22 2.69067 22 6V18C22 21.3093 21.3093 22 18 22H6C2.69067 22 2 21.3093 2 18V6Z" stroke="#141B34" stroke-width="1.5" stroke-linecap="round" stroke-linejoin="round"/>
<path d="M2 8H22" stroke="#141B34" stroke-width="1.5"/>
<path d="M5 5H9" stroke="#141B34" stroke-width="1.5" stroke-linecap="round"/>
<path d="M19 5.00895V5" stroke="#141B34" stroke-width="2" stroke-linecap="round" stroke-linejoin="round"/>
<path d="M9 18C10.6569 18 12 16.6569 12 15C12 13.3431 10.6569 12 9 12C7.34315 12 6 13.3431 6 15C6 16.6569 7.34315 18 9 18Z" stroke="#141B34" stroke-width="1.5" stroke-linecap="round" stroke-linejoin="round"/>
<path d="M15.002 17.9979V15.5535M15.002 15.5535V11.9937C15.6717 12.0769 16.4379 12.3946 16.7867 12.7372C17.1355 13.0798 17.1453 13.5189 17.2672 14.0652C17.3931 14.6294 17.5143 15.1606 17.493 15.2482C17.467 15.8382 15.0938 15.5575 15.002 15.5535Z" stroke="#141B34" stroke-width="1.5" stroke-linecap="round" stroke-linejoin="round"/>
</svg>
