<svg width="24" height="24" viewBox="0 0 24 24" fill="none" xmlns="http://www.w3.org/2000/svg">
<path d="M7.97656 16.7643L8.22426 16.5215C8.78567 15.9714 9.10545 15.2197 9.11308 14.4322L9.16294 9.28852C9.16971 8.59113 9.39466 7.85436 10.0273 7.56502C10.9841 7.12744 12.1667 7.37451 12.3798 9.42028L12.7078 11.149L18.2873 4.4485C19.4548 3.34691 21.5271 4.73947 20.6234 6.46502L17.3421 10.4148C18.6225 11.2749 23.3463 16.1655 19.5207 18.6546C18.9691 19.1353 17.6623 19.8325 16.5224 20.1951C15.4356 20.5409 14.7535 21.7244 14.419 21.9938" stroke="#141B34" stroke-width="1.5" stroke-linecap="round" stroke-linejoin="round"/>
<path d="M8.96822 3.508C8.96822 4.34408 9.61963 5.02186 10.4232 5.02186C11.2267 5.02186 11.8781 4.34408 11.8781 3.508C11.8781 2.67192 11.2267 1.99414 10.4232 1.99414C9.61963 1.99414 8.96822 2.67192 8.96822 3.508ZM8.96822 3.508H8.32436L7.55375 3.58026M3.47408 8.93686C4.31105 8.92312 4.94826 9.57859 4.96152 10.3901C4.97477 11.2017 4.35193 11.9001 3.51496 11.9139C2.67799 11.9276 1.99587 11.2427 1.98262 10.4312C1.96936 9.61964 2.63711 8.95061 3.47408 8.93686ZM3.47408 8.93686L3.56372 7.60368M5.25895 4.64498L4.93115 4.95192L4.6415 5.26468" stroke="#141B34" stroke-width="1.5" stroke-linecap="round" stroke-linejoin="round"/>
</svg>
