<svg width="24" height="24" viewBox="0 0 24 24" fill="none" xmlns="http://www.w3.org/2000/svg">
<path d="M10.6821 8.48877C9.6671 7.87733 8.98828 6.76478 8.98828 5.49373C8.98828 3.56392 10.553 1.99951 12.4833 1.99951C14.4135 1.99951 15.9783 3.56392 15.9783 5.49373C15.9783 6.76478 15.2994 7.87733 14.2845 8.48877" stroke="#141B34" stroke-width="1.5"/>
<path d="M10.553 21.9343L10.5784 21.304C10.6032 20.6878 10.4414 20.0748 10.0986 19.5595C8.75005 17.5325 7.71953 16.3781 6.30717 14.4009C6.19531 14.2443 6.09068 14.0785 6.0466 13.8914C5.70602 12.4466 7.46581 10.5662 9.09583 12.7318L10.6871 14.3642L10.6871 6.32342C10.8981 4.67581 13.4908 4.34899 13.928 6.32341L13.928 10.0654C15.5452 9.91821 22.0819 11.0435 20.8482 15.5304C20.7904 15.7406 20.7351 15.9554 20.678 16.1658C20.4702 16.9325 19.962 18.0518 19.4727 19.0059C18.9286 20.0668 19.0718 21.5655 18.9796 22.0005" stroke="#141B34" stroke-width="1.5" stroke-linecap="round" stroke-linejoin="round"/>
<path d="M8.71865 4.98902H2.99805M2.99805 4.98902C3.1371 5.42439 3.5156 5.68828 3.83946 5.98475L5.02718 6.99045M2.99805 4.98902C3.11123 4.54624 3.52373 4.2598 3.83946 3.96048L5.02718 2.94189" stroke="#141B34" stroke-width="1.5" stroke-linecap="round" stroke-linejoin="round"/>
</svg>
