<svg width="24" height="24" viewBox="0 0 24 24" fill="none" xmlns="http://www.w3.org/2000/svg">
<path d="M8.71119 8.48697C7.69165 7.87575 7.00977 6.76359 7.00977 5.49298C7.00977 3.56386 8.58159 2 10.5205 2C12.4595 2 14.0313 3.56386 14.0313 5.49298C14.0313 6.76359 13.3494 7.87575 12.3299 8.48697" stroke="#141B34" stroke-width="1.5"/>
<path d="M18.0547 2.98975L19.8018 4.43046C20.0574 4.70242 20.1001 4.9075 19.974 5.20885C19.9284 5.318 19.8508 5.41018 19.7621 5.48863L18.0547 6.99861M14.457 4.97466H18.8732" stroke="#141B34" stroke-width="1.5" stroke-linecap="round" stroke-linejoin="round"/>
<path d="M8.60374 21.9321L8.62923 21.3025C8.65415 20.6869 8.49187 20.0746 8.14822 19.5599C6.79618 17.5351 5.76301 16.3819 4.34701 14.4068C4.23486 14.2504 4.12997 14.0847 4.08577 13.8979C3.74431 12.4546 5.50864 10.5762 7.14285 12.7396L8.73821 14.3701L8.73821 6.33807C8.94976 4.69224 11.5491 4.36577 11.9875 6.33805L11.9875 10.076C13.6088 9.92898 20.1623 11.0531 18.9254 15.5351C18.8675 15.7451 18.8121 15.9596 18.7549 16.1699C18.5465 16.9357 18.037 18.0538 17.5464 19.0069C17.0009 20.0666 17.1445 21.5637 17.0521 21.9983" stroke="#141B34" stroke-width="1.5" stroke-linecap="round" stroke-linejoin="round"/>
</svg>
