<svg width="24" height="24" viewBox="0 0 24 24" fill="none" xmlns="http://www.w3.org/2000/svg">
<path d="M12.5457 9.72218H13.485C14.5226 9.72218 15.3638 10.5679 15.3638 11.6111M15.3638 11.6111V12.5555M15.3638 11.6111C15.3638 11.0895 15.7843 10.6666 16.3031 10.6666C17.3407 10.6666 18.1819 11.5123 18.1819 12.5555M18.1819 12.5555V13.4999M18.1819 12.5555C18.1819 12.0611 18.6234 11.685 19.1085 11.7663L19.4301 11.8202C20.336 11.972 21 12.76 21 13.6834L20.9996 14.1297C20.9996 16.1823 20.9996 17.2086 20.6886 18.0257C20.5082 18.4996 20.0323 19.1041 19.6518 19.5409C19.3226 19.9187 19.1209 20.3979 19.1209 20.9001V22M12.5455 11.6111V6.41665C12.5455 5.63426 11.9146 5 11.1364 5C10.3582 5 9.72736 5.63426 9.72736 6.41665L9.72717 13.9367L8.2051 12.4016C7.53728 11.728 6.43723 11.7895 5.84724 12.5333C5.3958 13.1024 5.38333 13.9075 5.81692 14.4906L9.19837 18.8333C9.84533 19.6641 10.1969 20.9448 10.1969 22" stroke="#141B34" stroke-width="1.5" stroke-linecap="round" stroke-linejoin="round"/>
<path d="M12.938 9.5C14.1677 8.81764 15 7.50601 15 6C15 3.79086 13.2091 2 11 2C8.79086 2 7 3.79086 7 6C7 7.50601 7.83229 8.81764 9.062 9.5" stroke="#141B34" stroke-width="1.5" stroke-linecap="round"/>
<path d="M17.9687 3.99561L19.7122 5.43632C19.9672 5.70828 20.0098 5.91336 19.8841 6.21471C19.8385 6.32386 19.7611 6.41604 19.6726 6.49449L17.9687 8.00446M15.0488 5.98052H18.7855" stroke="#141B34" stroke-width="1.5" stroke-linecap="round" stroke-linejoin="round"/>
</svg>
