<svg width="24" height="24" viewBox="0 0 24 24" fill="none" xmlns="http://www.w3.org/2000/svg">
<path d="M12.0912 8.41303L12.3025 11.099L19.0606 4.4908C19.7306 3.83575 20.8167 3.83575 21.4866 4.4908C22.1565 5.14585 22.1565 6.20791 21.4866 6.86296L17.8476 10.4212L19.5876 12.7699C20.7239 14.2731 21.2921 15.0248 21.4808 15.7609C21.7926 16.9769 21.6563 18.2119 20.6349 19.2107C19.9235 19.9063 19.2703 20.2011 17.5605 21.0371C16.4755 21.5675 15.9331 21.8327 15.3899 21.9314C14.4955 22.0939 13.5712 21.9472 12.7753 21.5165C12.2918 21.2549 11.863 20.8356 11.0053 19.9969L10.2782 19.2859C9.13789 18.1709 8.56773 17.6135 8.26937 16.9125C8.21586 16.7868 8.16925 16.6585 8.12971 16.5279C7.90924 15.7999 7.99222 15.0157 8.15815 13.4471L8.69536 8.36935C8.77792 7.58906 9.40563 6.9706 10.203 6.88397C11.1614 6.77985 12.0173 7.47294 12.0912 8.41303Z" stroke="#141B34" stroke-width="1.5" stroke-linecap="round" stroke-linejoin="round"/>
<path d="M9.06024 3.52029C9.06024 4.36424 9.71932 5.04839 10.5323 5.04839C11.3453 5.04839 12.0044 4.36424 12.0044 3.52029C12.0044 2.67634 11.3453 1.99219 10.5323 1.99219C9.71932 1.99219 9.06024 2.67634 9.06024 3.52029ZM9.06024 3.52029H8.40879L7.62912 3.59323M3.50141 9.00024C4.34823 8.98636 4.99295 9.648 5.00636 10.4672C5.01977 11.2864 4.38959 11.9914 3.54277 12.0052C2.69595 12.0191 2.0058 11.3278 1.99238 10.5086C1.97897 9.68944 2.65459 9.01411 3.50141 9.00024ZM3.50141 9.00024L3.59211 7.65451M5.30729 4.66797L4.97564 4.97779L4.68258 5.2935" stroke="#141B34" stroke-width="1.5" stroke-linecap="round" stroke-linejoin="round"/>
</svg>
