<svg width="24" height="24" viewBox="0 0 24 24" fill="none" xmlns="http://www.w3.org/2000/svg">
<path d="M8.54431 13.6528L10.5147 15.3722V6.50065C10.5147 5.67186 11.188 5 12.0183 5C12.8482 5 13.5213 5.67107 13.522 6.49935L13.5252 11.263L16.1668 11.6903C17.8718 11.9492 18.7244 12.0786 19.3249 12.4427C20.3168 13.0441 21.0354 14 21.0354 15.2657C21.0354 16.1841 20.8112 16.8002 20.2659 18.4556C19.92 19.5059 19.747 20.0311 19.465 20.4469C19.0005 21.1313 18.3154 21.6311 17.5269 21.8605C17.048 21.9999 16.501 21.9999 15.407 21.9999H14.4796C13.0251 21.9999 12.2978 21.9999 11.6505 21.7298C11.5343 21.6814 11.4209 21.6267 11.3105 21.566C10.6951 21.2278 10.2366 20.6566 9.31936 19.5142L6.35014 15.8158C5.89386 15.2474 5.89081 14.4341 6.34282 13.8622C6.8861 13.175 7.884 13.08 8.54431 13.6528Z" stroke="#141B34" stroke-width="1.5" stroke-linecap="round" stroke-linejoin="round"/>
<path d="M13.9595 9.5C15.1916 8.81764 16.0255 7.50601 16.0255 6C16.0255 3.79086 14.2311 2 12.0177 2C9.80416 2 8.00977 3.79086 8.00977 6C8.00977 7.50601 8.8437 8.81764 10.0758 9.5" stroke="#141B34" stroke-width="1.5" stroke-linecap="round"/>
<path d="M7.85364 6.02289H3.03711M3.03711 6.02289C3.03711 6.49301 3.55136 6.71721 3.87316 7.01159L5.0533 8.01018M3.03711 6.02289C3.03711 5.55277 3.55945 5.29883 3.87316 5.00162L5.0533 3.99023" stroke="#141B34" stroke-width="1.5" stroke-linecap="round" stroke-linejoin="round"/>
</svg>
