<svg width="24" height="24" viewBox="0 0 24 24" fill="none" xmlns="http://www.w3.org/2000/svg">
<path d="M20.9648 4H16.9727M20.9648 4C20.9648 4.56018 19.4734 5.60678 18.9687 6M20.9648 4C20.9648 3.43982 19.4734 2.39322 18.9687 2" stroke="#141B34" stroke-width="1.5" stroke-linecap="round" stroke-linejoin="round"/>
<path d="M3 4H6.99216M3 4C3 3.43982 4.49137 2.39322 4.99608 2M3 4C3 4.56018 4.49137 5.60678 4.99608 6" stroke="#141B34" stroke-width="1.5" stroke-linecap="round" stroke-linejoin="round"/>
<path d="M9.81682 22.0007V21.0597C9.81682 20.4117 9.60703 19.7812 9.21884 19.2624L5.39612 14.1535C5.07845 13.7289 4.84155 13.2142 4.98742 12.7044C5.34762 11.4455 6.76969 10.3262 8.36078 12.2976L9.96094 14.005V3.59393C10.0591 1.76471 13.1343 1.18697 13.4522 3.59393V9.5271C14.9348 9.3362 21.918 10.3782 20.9021 14.7918C20.8535 15.0028 20.805 15.2168 20.7575 15.428C20.551 16.3461 19.9424 17.9801 19.2713 18.9356C18.5722 19.931 18.8988 21.5354 18.8189 22.0021" stroke="#141B34" stroke-width="1.5" stroke-linecap="round" stroke-linejoin="round"/>
</svg>
