<svg width="24" height="24" viewBox="0 0 24 24" fill="none" xmlns="http://www.w3.org/2000/svg">
<path d="M5.19347 8.98242C8.91923 12.6193 3.14104 17.319 5.67351 20.5132C7.07523 22.2812 16.7456 22.5717 18.3777 20.5132C20.9088 17.3207 15.1454 12.6265 18.8577 8.98242" stroke="#141B34" stroke-width="1.5" stroke-linecap="round" stroke-linejoin="round"/>
<path d="M6.37094 12.9502C4.10539 12.7411 2.2588 11.2784 2.02571 9.18873C1.99255 8.8915 2.04271 8.59292 2.1537 8.31451C2.86851 6.52152 4.86795 3.48074 7.93204 1.99771C8.14095 1.8966 8.39032 1.96221 8.53198 2.14382C9.29154 3.11759 10.6002 4.63479 12.0156 4.63479C13.4311 4.63479 14.7397 3.11759 15.4993 2.14382C15.6409 1.96221 15.8903 1.8966 16.0992 1.99771C19.1633 3.48074 21.1627 6.52152 21.8775 8.31451C21.9885 8.59292 22.0387 8.8915 22.0055 9.18873C21.7725 11.2784 19.9453 12.7383 17.6798 12.9474" stroke="#141B34" stroke-width="1.5" stroke-linecap="round" stroke-linejoin="round"/>
</svg>
