<svg width="24" height="24" viewBox="0 0 24 24" fill="none" xmlns="http://www.w3.org/2000/svg">
<path d="M7.75 13.75C7.75 13.75 8.65546 12.5283 9.25 12.25C11.0448 11.4099 11.4099 11.0448 12.25 9.25C12.5283 8.65546 13.75 7.75 13.75 7.75M10.25 16.25C10.25 16.25 11.4717 15.3445 11.75 14.75C12.5901 12.9552 12.9552 12.5901 14.75 11.75C15.3445 11.4717 16.25 10.25 16.25 10.25" stroke="#141B34" stroke-width="1.5" stroke-linejoin="round"/>
<path d="M3.90334 17.5L3.03779 18.3656C2.32074 19.0826 2.32074 20.2452 3.03779 20.9622C3.75483 21.6793 4.9174 21.6793 5.63445 20.9622L6.5 20.0967" stroke="#141B34" stroke-width="1.5" stroke-linejoin="round"/>
<path d="M17.5 3.90334L18.3656 3.03779C19.0826 2.32074 20.2452 2.32074 20.9622 3.03779C21.6793 3.75483 21.6793 4.9174 20.9622 5.63445L20.0967 6.5" stroke="#141B34" stroke-width="1.5" stroke-linejoin="round"/>
<path d="M21.9707 8.4441L15.5759 2.02948C15.5369 1.99035 15.4736 1.99015 15.4344 2.02904L12.0298 5.4016C11.9903 5.44073 11.9901 5.50454 12.0293 5.54391L18.436 11.9705C18.4751 12.0098 18.5386 12.0098 18.5778 11.9707L21.9705 8.58616C22.0098 8.547 22.0098 8.48338 21.9707 8.4441Z" stroke="#141B34" stroke-width="1.5"/>
<path d="M11.9707 18.4441L5.57592 12.0295C5.53691 11.9903 5.47364 11.9901 5.43438 12.029L2.02975 15.4016C1.99026 15.4407 1.99006 15.5045 2.02931 15.5439L8.43603 21.9705C8.47514 22.0098 8.5386 22.0098 8.57782 21.9707L11.9705 18.5862C12.0098 18.547 12.0098 18.4834 11.9707 18.4441Z" stroke="#141B34" stroke-width="1.5"/>
</svg>
