<svg width="24" height="24" viewBox="0 0 24 24" fill="none" xmlns="http://www.w3.org/2000/svg">
<path d="M16 8C15.7562 8.73137 15.2546 9.29277 14.5446 9.60753C12.2642 10.6185 10.6185 12.2642 9.60753 14.5446C9.29277 15.2546 8.73137 15.7562 8 16" stroke="#141B34" stroke-width="1.5" stroke-linejoin="round"/>
<path d="M3.2 20.8L2 22M20.8 3.2L22 2" stroke="#141B34" stroke-width="1.5" stroke-linecap="round" stroke-linejoin="round"/>
<path d="M17.7892 2.42102L16.277 3.87417L20.1175 7.75064L21.5952 6.31592C22.0386 5.79352 22.1745 5.40001 21.6224 4.67523L20.5166 3.51232L19.3955 2.40652C18.679 1.76376 18.1146 2.1096 17.7892 2.42102Z" stroke="#141B34" stroke-width="1.5" stroke-linecap="round" stroke-linejoin="round"/>
<path d="M14.0125 3.75663C15.1231 2.58281 15.8837 3.41823 16.2743 3.88343L20.082 7.70639C20.5559 8.08633 21.4229 8.81529 20.277 9.95037C20.0921 10.1335 19.9108 10.3253 19.7098 10.4907C18.968 11.1009 18.256 10.595 17.8787 10.1302L14.0029 6.25446C13.5948 5.88789 12.8898 5.22374 13.4853 4.33596C13.6458 4.13108 13.8336 3.94568 14.0125 3.75663Z" stroke="#141B34" stroke-width="1.5" stroke-linecap="round" stroke-linejoin="round"/>
<path d="M4.58646 21.6197L3.44511 20.4917L2.36116 19.3495C1.71793 18.7063 2.08902 18.0631 2.40667 17.7437L3.88874 16.2599L7.74533 20.1331L6.22736 21.6242C5.6965 22.0575 5.33251 22.1902 4.61852 21.6242M6.22236 13.9239C5.83174 13.4587 5.07112 12.6233 3.96051 13.7971C3.78164 13.9862 3.59383 14.1716 3.43335 14.3764C2.83785 15.2642 3.54288 15.9284 3.95097 16.2949L7.82674 20.1706C8.20399 20.6355 8.91601 21.1414 9.65787 20.5311C9.85886 20.3658 10.0401 20.174 10.225 19.9909C11.3709 18.8558 10.5039 18.1268 10.03 17.7469L6.22236 13.9239Z" stroke="#141B34" stroke-width="1.5" stroke-linecap="round" stroke-linejoin="round"/>
</svg>
