<svg width="24" height="24" viewBox="0 0 24 24" fill="none" xmlns="http://www.w3.org/2000/svg">
<path d="M4 14C7.6 14 6.4 18 10 18" stroke="#141B34" stroke-width="1.5"/>
<path d="M14 14C17.6 14 16.4 18 20 18" stroke="#141B34" stroke-width="1.5"/>
<path d="M7 20.9938C8.65685 20.9938 10 18.5322 10 15.4957C10 12.4592 8.65685 9.99756 7 9.99756C5.34315 9.99756 4 12.4592 4 15.4957C4 18.5322 5.34315 20.9938 7 20.9938Z" stroke="#141B34" stroke-width="1.5" stroke-linecap="round"/>
<path d="M17 20.9938C18.6569 20.9938 20 18.5322 20 15.4957C20 12.4592 18.6569 9.99756 17 9.99756C15.3431 9.99756 14 12.4592 14 15.4957C14 18.5322 15.3431 20.9938 17 20.9938Z" stroke="#141B34" stroke-width="1.5" stroke-linecap="round"/>
<path d="M9.95608 7.22854C9.60559 7.02708 9.06159 6.70721 8.93395 4.78212C8.82076 3.07509 7.26981 2.90383 6.67703 3.02423C6.12005 3.13742 5.07663 3.72547 5.00866 4.94857C4.96309 5.76831 5.47145 6.55463 6.67376 7.0331C6.87639 7.11374 7.01927 7.30405 7.01927 7.52206V9.75638" stroke="#141B34" stroke-width="1.5" stroke-linecap="round" stroke-linejoin="round"/>
<path d="M19.9366 7.22854C19.5861 7.02708 19.0421 6.70721 18.9144 4.78212C18.8012 3.07509 17.2503 2.90383 16.6575 3.02423C16.1005 3.13742 15.0571 3.72547 14.9891 4.94857C14.9436 5.76831 15.4519 6.55463 16.6542 7.0331C16.8569 7.11374 16.9997 7.30405 16.9997 7.52206V9.75638" stroke="#141B34" stroke-width="1.5" stroke-linecap="round" stroke-linejoin="round"/>
</svg>
