<svg width="24" height="24" viewBox="0 0 24 24" fill="none" xmlns="http://www.w3.org/2000/svg">
<path d="M2.46094 9C3.73836 4.94289 7.53803 2 12.0268 2C17.225 2 21.4991 5.94668 22.002 11L20.002 10.5929" stroke="#141B34" stroke-width="1.5" stroke-linecap="round" stroke-linejoin="round"/>
<path d="M21.541 15C20.2636 19.0571 16.4639 22 11.9752 22C6.77707 22 2.50297 18.0533 2 13L4.00005 13.4071" stroke="#141B34" stroke-width="1.5" stroke-linecap="round" stroke-linejoin="round"/>
<path d="M9.00003 13.5279V15.5197C9.00003 15.8464 9.15583 16.1573 9.43205 16.3301C10.2757 16.8578 10.9173 17.0125 12.0035 17.046C13.0041 17.0729 13.6317 16.9156 14.5659 16.3316C14.8462 16.1564 15.007 15.8427 15.007 15.5113V13.5279M17.0093 11.0149V14.0304M7.04728 10.8436C7.40891 10.0796 9.65168 8.74957 11.6989 8.09253C11.8965 8.02914 12.1086 8.03542 12.3033 8.10674C14.1134 8.76943 16.1268 9.77168 16.8578 10.5853C17.2394 11.01 16.8662 11.552 16.4049 11.8874C15.4685 12.5682 14.4345 13.0978 12.3472 13.8996C12.1262 13.9844 11.8808 13.9873 11.6589 13.9049C9.51816 13.1101 7.51706 12.0842 7.06392 11.1817C7.0105 11.0752 6.99634 10.9512 7.04728 10.8436Z" stroke="#141B34" stroke-width="1.5" stroke-linecap="round" stroke-linejoin="round"/>
</svg>
