<svg width="24" height="24" viewBox="0 0 24 24" fill="none" xmlns="http://www.w3.org/2000/svg">
<path d="M14.0342 9.99854V12.4971M10.0505 12.4971V9.99854M8.56118 13.3779C8.5221 12.9031 8.93016 12.498 9.44755 12.498H14.6412C15.1585 12.498 15.5666 12.9031 15.5275 13.3779L15.4207 14.675C15.3439 15.6075 15.0079 16.5063 14.4449 17.2847L14.0958 17.7673C13.7662 18.223 13.2107 18.4969 12.6158 18.4969H11.4728C10.878 18.4969 10.3225 18.223 9.99288 17.7673L9.64385 17.2847C9.08079 16.5063 8.74474 15.6075 8.66798 14.675L8.56118 13.3779Z" stroke="#141B34" stroke-width="1.5" stroke-linecap="round"/>
<path d="M15.0285 21.9962C16.8102 21.977 17.5738 21.8829 18.5143 21.4963C19.3073 21.1718 19.8052 20.7174 20.2371 19.911C20.8853 18.7008 21.1015 17.3127 21.295 15.9524L22 10.9983C22.0515 10.2047 22.0262 9.61313 21.8412 9.03219C21.4881 7.92298 20.5353 7.14 19.6069 6.44197C15.2874 3.19447 13.2572 1.8968 12.0408 2.00009C10.8874 1.90891 9.31667 2.84115 4.33205 6.55895C3.50016 7.17942 2.66672 7.85729 2.28785 8.82568C1.7575 10.1813 2.16494 11.716 2.38831 13.1551C2.65092 14.8469 2.96277 16.9111 3.52304 19.2777C3.55746 19.423 3.60625 19.5654 3.6718 19.6996C4.16877 20.7168 4.60518 21.1409 5.56724 21.4963C6.56607 21.8653 9.69917 22.187 11.2706 21.8335C11.8007 21.7142 12.0408 21.1879 12.0408 20.6426V18.4969" stroke="#141B34" stroke-width="1.5" stroke-linecap="round" stroke-linejoin="round"/>
</svg>
