<svg width="24" height="24" viewBox="0 0 24 24" fill="none" xmlns="http://www.w3.org/2000/svg">
<path d="M20 8.58496V13.5004C20 17.2716 20 19.1573 18.8284 20.3288C18.0203 21.137 16.8723 21.3877 15 21.4654M4 8.58496V13.5004C4 17.2716 4 19.1573 5.17157 20.3288C6.23465 21.3919 7.88563 21.4904 10.9998 21.4995C11.5521 21.5011 12 21.0527 12 20.5004V17.5004" stroke="#141B34" stroke-width="1.5" stroke-linecap="round" stroke-linejoin="round"/>
<path d="M22 10.5005L17.6569 6.33597C14.9902 3.77898 13.6569 2.50049 12 2.50049C10.3431 2.50049 9.00981 3.77898 6.34315 6.33597L2 10.5005" stroke="#141B34" stroke-width="1.5" stroke-linecap="round"/>
<path d="M14.002 9.00049V11.5005M10.002 11.5005V9.00049M8.50651 12.3805C8.46727 11.9056 8.877 11.5005 9.3965 11.5005H14.6114C15.1309 11.5005 15.5406 11.9056 15.5014 12.3805L15.3941 13.6779C15.317 14.6106 14.9796 15.5095 14.4143 16.2881L14.0638 16.7708C13.7329 17.2266 13.1751 17.5005 12.5778 17.5005H11.4301C10.8328 17.5005 10.2751 17.2266 9.94406 16.7708L9.5936 16.2881C9.02824 15.5095 8.69082 14.6106 8.61374 13.6779L8.50651 12.3805Z" stroke="#141B34" stroke-width="1.5" stroke-linecap="round"/>
</svg>
