<svg width="24" height="24" viewBox="0 0 24 24" fill="none" xmlns="http://www.w3.org/2000/svg">
<path d="M11.3571 16.4964C11.6146 16.2803 11.9094 16.1109 12.2227 16.0067C14.25 15.3717 13.125 13.8534 14.9637 13.2546C16.3826 12.7925 15.9474 12.0129 16.5 11.3547M10.0714 13.9255C10.2696 13.7686 10.5064 13.6572 10.7675 13.6052C11.843 13.4003 11.6797 11.7587 12.8218 11.5397C13.6076 11.3808 13.5198 10.5855 13.9285 10.0693M7.5 12.6402C7.73674 12.3459 8.05224 12.2546 8.36559 12.1505C10.3125 11.4351 9.1875 9.748 11.1065 9.39835C12.5625 9.18563 12 8.0609 12.6429 7.49854" stroke="#141B34" stroke-width="1.5"/>
<path d="M14.9777 2L22 9.03348M15.5409 3.52544L14.0311 4.9589C14.0049 4.98376 13.9942 5.02077 14.003 5.05575L15.0004 9.0039L18.9627 9.99147C18.9976 10.0002 19.0346 9.98949 19.0595 9.96348L20.5201 8.43597" stroke="#141B34" stroke-width="1.5"/>
<path d="M2.00391 14.9855L9.02711 22.002M3.52343 15.5422L4.95226 14.0327C4.9772 14.0064 5.01448 13.9956 5.04964 14.0046L8.99565 15.0125L10.0047 18.9376C10.0137 18.9727 10.003 19.01 9.97668 19.035L8.48317 20.4531" stroke="#141B34" stroke-width="1.5"/>
</svg>
