<svg width="24" height="24" viewBox="0 0 24 24" fill="none" xmlns="http://www.w3.org/2000/svg">
<path d="M20 9.90909V7.81818C20 6.12494 20 5.27832 19.732 4.60214C19.3012 3.5151 18.3902 2.65765 17.2352 2.2522C16.5167 2 15.6172 2 13.8181 2C10.6698 2 9.09563 2 7.83836 2.44135C5.81713 3.15088 4.22281 4.65142 3.46893 6.55375C3 7.73706 3 9.21865 3 12.1818V14.7273C3 17.7966 3 19.3313 3.8477 20.3971C4.09058 20.7025 4.37862 20.9736 4.70307 21.2022C5.83546 22 7.46606 22 10.7272 22H11.5C12.0346 22 13.0337 22 13.5 21.9972M3 12C3 10.159 4.49238 8.66667 6.33333 8.66667C6.99911 8.66667 7.78403 8.78333 8.43136 8.60988C9.00651 8.45576 9.45576 8.00652 9.60987 7.43136C9.78332 6.78404 9.66666 5.99912 9.66666 5.33333C9.66666 3.49238 11.159 2 13 2" stroke="#141B34" stroke-width="1.5" stroke-linecap="round" stroke-linejoin="round"/>
<path d="M20.7511 15.8111C20.856 14.5466 18.9213 13.5141 17.4427 14.2069C15.5957 15.0722 15.7568 17.2594 18.0379 17.3751C19.0531 17.4265 19.941 17.3169 20.5443 17.9708C21.1477 18.6248 21.4092 20.2901 19.6306 20.8553C17.8519 21.4204 15.998 20.4125 15.998 19.1831M18.4691 13V13.9777M18.4691 21.2204V22" stroke="#141B34" stroke-width="1.5" stroke-linecap="round" stroke-linejoin="round"/>
</svg>
