<svg width="24" height="24" viewBox="0 0 24 24" fill="none" xmlns="http://www.w3.org/2000/svg">
<path d="M10.945 22C6.55711 22 3 18.4183 3 14C3 11.9162 3.95829 9.83244 5.20924 8C5.46596 9.5 6.57526 12.4 8.95878 12C6.33498 6.5 10.945 2 10.945 2C10.945 2 11.4416 5.5 15.9107 9C16.3245 9.32407 16.6857 9.65805 17 10" stroke="#141B34" stroke-width="1.5" stroke-linecap="round" stroke-linejoin="round"/>
<path d="M15.5344 16.202C15.5344 15.5075 15.4267 14.5456 15.835 13.9204C16.7367 12.5395 18.6003 12.7797 19.2616 14.1006C19.5622 14.761 19.4506 15.5377 19.466 16.1928M15.5344 16.202C14.6854 16.2899 14.3192 16.8419 14.1758 17.2827C14.0315 17.8231 13.9113 19.144 14.1037 20.5849C14.272 21.4855 14.9057 21.9036 15.4714 21.9539C16.0125 22.0019 18.2969 21.9899 18.9581 21.9899C19.983 21.9899 20.5841 21.7257 20.8847 20.645C21.029 19.8044 21.0651 18.2433 20.8246 17.2827C20.5587 16.481 19.9236 16.248 19.466 16.1928M15.5344 16.202C16.8155 16.0693 18.184 16.0383 19.466 16.1928" stroke="#141B34" stroke-width="1.5" stroke-linecap="round"/>
</svg>
