<svg width="24" height="24" viewBox="0 0 24 24" fill="none" xmlns="http://www.w3.org/2000/svg">
<path d="M15.5 3.5C19.7 3.5 21.5 5.9 21.5 9.5L19.5 8.5" stroke="#141B34" stroke-width="1.5" stroke-linecap="round" stroke-linejoin="round"/>
<path d="M8.5 20.5C4.3 20.5 2.5 18.1 2.5 14.5L4.5 15.5" stroke="#141B34" stroke-width="1.5" stroke-linecap="round" stroke-linejoin="round"/>
<path d="M7.49947 4.51226L7.18117 3.87034C6.92232 3.34832 6.79289 3.08731 6.59399 2.90148C6.4498 2.76676 6.28045 2.66182 6.09564 2.59267C5.8407 2.49728 5.54936 2.49756 4.96668 2.49813C4.06212 2.49901 3.60984 2.49945 3.27025 2.68855C3.02596 2.82458 2.82456 3.02618 2.68877 3.27061C2.5 3.61038 2.5 4.06266 2.5 4.96722V7.50054C2.5 9.38616 2.5 10.329 3.08579 10.9148C3.67157 11.5005 4.61438 11.5005 6.5 11.5005H9.00371C10.4043 11.5005 11.1045 11.5005 11.6081 11.1653C11.8285 11.0185 12.0176 10.8294 12.1643 10.609C12.4996 10.1055 12.4996 9.4052 12.4996 8.00464C12.4996 6.60111 12.4996 5.89934 12.1634 5.39531C12.0162 5.17469 11.8266 4.98554 11.6056 4.83888C11.1008 4.50382 10.399 4.50546 8.99552 4.50875L7.49947 4.51226Z" stroke="#141B34" stroke-width="1.5" stroke-linecap="round" stroke-linejoin="round"/>
<path d="M16.5001 14.5141L16.8184 13.8722C17.0773 13.3502 17.2067 13.0892 17.4056 12.9033C17.5498 12.7686 17.7192 12.6637 17.904 12.5945C18.1589 12.4991 18.4503 12.4994 19.0329 12.5C19.9375 12.5009 20.3898 12.5013 20.7294 12.6904C20.9736 12.8265 21.1751 13.0281 21.3108 13.2725C21.4996 13.6123 21.4996 14.0645 21.4996 14.9691V17.5024C21.4996 19.388 21.4996 20.3308 20.9138 20.9166C20.328 21.5024 19.3852 21.5024 17.4996 21.5024H14.9959C13.5953 21.5024 12.8951 21.5024 12.3915 21.1671C12.1711 21.0204 11.982 20.8313 11.8353 20.6109C11.5 20.1073 11.5 19.4071 11.5 18.0065C11.5 16.603 11.5 15.9012 11.8362 15.3972C11.9834 15.1766 12.173 14.9874 12.394 14.8408C12.8988 14.5057 13.6006 14.5073 15.0041 14.5106L16.5001 14.5141Z" stroke="#141B34" stroke-width="1.5" stroke-linecap="round" stroke-linejoin="round"/>
</svg>
