<svg width="24" height="24" viewBox="0 0 24 24" fill="none" xmlns="http://www.w3.org/2000/svg">
<path d="M7.89205 9.35658L5.4741 11.959C5.15171 12.291 4.57635 13.1571 4.50692 13.9505C4.4339 14.7848 5.18562 15.9817 5.4741 16.4399C6.22604 17.6341 6.52881 18.2968 7.40846 19.4271C7.88617 20.0409 9.17658 21.2644 11.2772 21.4186C12.8453 21.5337 14.4062 21.5229 15.1459 21.4186C15.6538 21.3469 16.8868 21.1198 18.0474 19.925C19.2081 18.7301 19.4982 16.7718 19.4982 15.942V7.97608C19.4982 7.47821 19.2081 6.48247 18.0474 6.48247C16.8868 6.48247 16.5967 7.47821 16.5967 7.97608V11.4612M7.89205 13.9505V5.9846C7.89205 5.48673 8.1822 4.49099 9.34282 4.49099C10.5034 4.49099 10.7936 5.48673 10.7936 5.9846M10.7936 5.9846V10.4654M10.7936 5.9846V3.99312C10.7936 3.49525 11.0837 2.49951 12.2444 2.49951C13.405 2.49951 13.6951 3.49525 13.6951 3.99312V5.9846M13.6951 5.9846V10.4654M13.6951 5.9846C13.6951 5.48673 13.9853 4.49099 15.1459 4.49099C16.3065 4.49099 16.5967 5.48673 16.5967 5.9846V8.47395" stroke="#141B34" stroke-width="1.5" stroke-linecap="round" stroke-linejoin="round"/>
</svg>
