<svg width="24" height="24" viewBox="0 0 24 24" fill="none" xmlns="http://www.w3.org/2000/svg">
<path d="M22 3C19.8428 4.80898 16.1692 6 12 6C7.8308 6 4.15717 4.80898 2 3" stroke="#141B34" stroke-width="1.5" stroke-linecap="round" stroke-linejoin="round"/>
<path d="M10 6V11L12 9.5L14 11V6" stroke="#141B34" stroke-width="1.5" stroke-linecap="round" stroke-linejoin="round"/>
<path d="M3.5 4.5L2 9.49915L4.5 8.5L6 10.5L7.5 6" stroke="#141B34" stroke-width="1.5" stroke-linecap="round" stroke-linejoin="round"/>
<path d="M20.5 4.5L22 9.49915L19.5 8.5L18 10.5L16.5 6" stroke="#141B34" stroke-width="1.5" stroke-linecap="round" stroke-linejoin="round"/>
<path d="M22 13C19.8428 14.809 16.1692 16 12 16C7.8308 16 4.15717 14.809 2 13" stroke="#141B34" stroke-width="1.5" stroke-linecap="round" stroke-linejoin="round"/>
<path d="M10 16V21L12 19.5L14 21V16" stroke="#141B34" stroke-width="1.5" stroke-linecap="round" stroke-linejoin="round"/>
<path d="M3.5 14.5L2 19.4992L4.5 18.5L6 20.5L7.5 16" stroke="#141B34" stroke-width="1.5" stroke-linecap="round" stroke-linejoin="round"/>
<path d="M20.5 14.5L22 19.4992L19.5 18.5L18 20.5L16.5 16" stroke="#141B34" stroke-width="1.5" stroke-linecap="round" stroke-linejoin="round"/>
</svg>
