<svg width="24" height="24" viewBox="0 0 24 24" fill="none" xmlns="http://www.w3.org/2000/svg">
<path d="M10.515 10.7551L7.51076 10.7551M7.51076 10.7551H4.00456C3.17361 10.7551 2.5 10.0828 2.5 9.25337C2.5 8.42397 3.17361 7.7516 4.00456 7.7516L9.469 7.7516M7.51076 10.7551L7.53762 11.8095C7.55574 12.5205 7.94402 13.1371 8.5156 13.4774M9.469 7.7516L14.0319 7.7516M9.469 7.7516L12.2288 5.15816C14.0964 3.58569 15.4578 4.41202 16.2142 4.99227L18.6516 6.60714C20.7191 7.83196 21.5 9.24932 21.5 10.4416V15.3223C21.5 17.5884 19.1177 19.7015 16.9342 19.7015L11.7343 19.7495C10.7241 19.7588 9.865 19.0161 9.73 18.0168L9.54069 16.4764M10.5448 13.7587H9.54069C9.16648 13.7587 8.81576 13.6562 8.5156 13.4774M8.5156 13.4774L8.5703 14.8131C8.59792 15.8975 9.48658 16.7622 10.5734 16.7622H11.5774" stroke="#141B34" stroke-width="1.5" stroke-linecap="round" stroke-linejoin="round"/>
</svg>
