<svg width="24" height="24" viewBox="0 0 24 24" fill="none" xmlns="http://www.w3.org/2000/svg">
<path d="M22 8.50379L19.9954 8.50377L14.1228 4.10093C14.0889 4.07693 14.0556 4.05189 14.0225 4.02635C13.6095 3.70703 13.112 3.45056 12.5934 3.5101C11.7935 3.60193 11.1346 4.19474 11.0227 4.96272C10.957 5.41308 11.0883 6.02461 11.4674 6.43718L13.5922 8.53476L11.8688 8.50377H3.56571C2.70153 8.50377 2.00098 9.17821 2.00098 10.0102C2.00098 10.8421 2.70153 11.5166 3.56572 11.5166L11.9855 11.5166M8.48855 12.096L8.5354 13.2062C8.66033 14.0336 9.23423 14.4434 9.94867 14.4825L12.5097 14.502M9.50361 14.8532V15.9541C9.47238 16.8051 10.1985 17.5233 11.0418 17.496H13.0173M11.0189 18.1022L11.0418 19.0974C11.0602 19.8982 11.7271 20.4755 12.5591 20.4755L14.9693 20.4979C15.6509 20.4659 16.7765 20.4884 17.5807 20.2469C17.75 20.1961 17.9057 20.1101 18.0543 20.0144L18.3645 19.8146L18.9358 19.3775L20.0016 18.5022H21.9989" stroke="#141B34" stroke-width="1.5"/>
</svg>
