<svg width="24" height="24" viewBox="0 0 24 24" fill="none" xmlns="http://www.w3.org/2000/svg">
<path d="M2 2L22 21.9551" stroke="#141B34" stroke-width="1.5" stroke-linecap="round" stroke-linejoin="round"/>
<path d="M21 13.9729C21 11.7688 19.2091 9.98193 17 9.98193C16.2532 9.98193 15.602 10.3903 15.2585 10.9956M15 14.9707V15.9685C15 17.0706 15.8954 17.964 17 17.964C17.309 17.964 17.6098 17.929 17.8987 17.8629" stroke="#141B34" stroke-width="1.5" stroke-linecap="round" stroke-linejoin="round"/>
<path d="M5.90819 10.1326C4.22974 10.6066 3 12.1465 3 13.9731C3 16.1773 4.79086 17.9641 7 17.9641C8.10457 17.9641 9 17.0706 9 15.9686V13.2174" stroke="#141B34" stroke-width="1.5" stroke-linecap="round"/>
<path d="M2.99116 13.9869C2.99116 12.9766 2.35632 8.16067 5.16685 5.15305M21.0138 16.7025V11.0984C21.0138 10.1085 20.9066 9.11482 20.5958 8.17481C20.3281 7.36531 19.9888 6.615 19.3344 5.69012C15.552 0.901308 10.3682 1.58475 7.47429 3.21868M20.3065 20.2655C19.9571 20.8864 19.391 21.3292 18.7069 21.6128C18.0006 21.9057 17.4337 21.9384 16.5713 21.9863C14.9707 21.9863 13.2333 22.0055 12.0548 21.9863" stroke="#141B34" stroke-width="1.5" stroke-linecap="round" stroke-linejoin="round"/>
</svg>
