<svg width="24" height="24" viewBox="0 0 24 24" fill="none" xmlns="http://www.w3.org/2000/svg">
<path d="M19 11.0269C19.536 10.4425 20.5 9.64447 21.4626 8.39357C22.1108 7.55122 22.1638 6.36136 21.6693 5.41701C20.7595 3.67992 18.4754 3.55478 17.1607 4.98097C16.8434 5.32513 16.5144 5.66482 16.174 5.99927M6.93327 18.4708C6.20617 18.6904 5.48603 18.8712 4.77684 19.0134C3.79101 19.2111 2.82972 18.6668 2.33514 17.7225C1.42537 15.9854 2.46911 13.7422 4.24688 13.2001C4.67588 13.0693 5.10725 12.925 5.5402 12.7672" stroke="#141B34" stroke-width="1.5" stroke-linecap="round" stroke-linejoin="round"/>
<path d="M17.0061 5.06734C16.8791 4.46809 16.3587 3.38832 15.272 3.17027C13.7471 2.86428 13.0927 3.05696 11.2628 4.58694C9.79897 5.81093 6.68825 7.21342 5.31587 7.76167C4.04314 8.2701 2.59563 9.60924 3.08016 11.1974C3.56777 12.7958 4.4739 12.8123 4.82836 12.9721" stroke="#141B34" stroke-width="1.5" stroke-linecap="round" stroke-linejoin="round"/>
<path d="M19.272 11.2049C20.3587 11.423 20.8791 12.5028 21.0061 13.102C21.1668 14.2744 20.0848 15.3867 19.5237 15.7963C18.5968 16.4476 15.9988 18.2663 13.5029 19.6183C10.9399 21.0068 9.43549 21.1343 8.82836 21.0068C8.4739 20.847 7.56777 20.8304 7.08016 19.2321C6.59563 17.6439 8.04314 16.3048 9.31587 15.7963C10.6883 15.2481 13.799 13.8456 15.2628 12.6216C17.0927 11.0916 17.7471 10.8989 19.272 11.2049Z" stroke="#141B34" stroke-width="1.5" stroke-linecap="round" stroke-linejoin="round"/>
<path d="M8.34375 11.8354C8.587 11.5506 8.77853 10.9876 8.92492 10.3449C9.04619 9.8126 9.73252 9.92418 10.3977 10.1753C10.6329 10.2641 10.9025 10.185 11.0351 9.97134L12.0956 8.26228C12.2045 8.08684 12.4099 7.99784 12.6057 8.06337C13.0927 8.22637 13.7215 8.5003 14.0735 8.3237" stroke="#141B34" stroke-width="1.5" stroke-linecap="round" stroke-linejoin="round"/>
</svg>
