<svg width="24" height="24" viewBox="0 0 24 24" fill="none" xmlns="http://www.w3.org/2000/svg">
<path d="M4 11H20V22H4V11Z" stroke="#141B34" stroke-width="1.5" stroke-linejoin="round"/>
<path d="M14.5 22V19C14.5 18.0572 14.5 17.5858 14.2071 17.2929C13.9142 17 13.4428 17 12.5 17H11.5C10.5572 17 10.0858 17 9.79289 17.2929C9.5 17.5858 9.5 18.0572 9.5 19V22" stroke="#141B34" stroke-width="1.5" stroke-linejoin="round"/>
<path d="M2 9.72248C2 9.14494 2.26952 8.68195 2.81725 8.49891L10.9302 5.78767C11.7893 5.50056 12 5.02544 12 4.18602C12 3.42885 11.8761 1.91724 13.0641 2.00222C13.3438 2.02223 13.6832 2.28686 14.3619 2.81613L21.439 8.33458C21.8381 8.64574 22 9.01708 22 9.53483C22 10.4781 21.6036 10.9999 20.6848 10.9999H3.14677C2.40983 10.9999 2 10.4553 2 9.72248Z" stroke="#141B34" stroke-width="1.5" stroke-linejoin="round"/>
<path d="M3 22H21" stroke="#141B34" stroke-width="1.5" stroke-linecap="round" stroke-linejoin="round"/>
<path d="M7 15H8" stroke="#141B34" stroke-width="1.5" stroke-linecap="round"/>
<path d="M17 15L16 15" stroke="#141B34" stroke-width="1.5" stroke-linecap="round"/>
<path d="M5 7.5L5 3" stroke="#141B34" stroke-width="1.5" stroke-linecap="round" stroke-linejoin="round"/>
</svg>
