<svg width="24" height="24" viewBox="0 0 24 24" fill="none" xmlns="http://www.w3.org/2000/svg">
<path d="M3 17.5C3 16.0955 3 15.3933 3.33706 14.8889C3.48298 14.6705 3.67048 14.483 3.88886 14.3371C4.39331 14 5.09554 14 6.5 14C7.90446 14 8.60669 14 9.11114 14.3371C9.32952 14.483 9.51702 14.6705 9.66294 14.8889C10 15.3933 10 16.0955 10 17.5C10 18.9045 10 19.6067 9.66294 20.1111C9.51702 20.3295 9.32952 20.517 9.11114 20.6629C8.60669 21 7.90446 21 6.5 21C5.09554 21 4.39331 21 3.88886 20.6629C3.67048 20.517 3.48298 20.3295 3.33706 20.1111C3 19.6067 3 18.9045 3 17.5Z" stroke="#141B34" stroke-width="1.5" stroke-linejoin="round"/>
<path d="M14.203 18.4786C13.1668 17.4425 12.6487 16.9244 12.5338 16.3012C12.4887 16.0569 12.4887 15.8064 12.5338 15.562C12.6487 14.9389 13.1668 14.4208 14.203 13.3846C15.2392 12.3485 15.7573 11.8304 16.3804 11.7154C16.6247 11.6704 16.8753 11.6704 17.1196 11.7154C17.7427 11.8304 18.2608 12.3485 19.297 13.3846C20.3332 14.4208 20.8513 14.9389 20.9662 15.562C21.0113 15.8064 21.0113 16.0569 20.9662 16.3012C20.8513 16.9244 20.3332 17.4425 19.297 18.4786C18.2608 19.5148 17.7427 20.0329 17.1196 20.1478C16.8753 20.1929 16.6247 20.1929 16.3804 20.1478C15.7573 20.0329 15.2392 19.5148 14.203 18.4786Z" stroke="#141B34" stroke-width="1.5" stroke-linejoin="round"/>
<path d="M7.63376 5.77479C8.12751 4.41823 8.37439 3.73994 8.87903 3.37324C9.09105 3.21918 9.33077 3.1074 9.58508 3.04401C10.1904 2.89314 10.8686 3.14001 12.2252 3.63376C13.5818 4.12751 14.2601 4.37439 14.6268 4.87903C14.7808 5.09105 14.8926 5.33077 14.956 5.58508C15.1069 6.19036 14.86 6.86865 14.3662 8.22521C13.8725 9.58177 13.6256 10.2601 13.121 10.6268C12.9089 10.7808 12.6692 10.8926 12.4149 10.956C11.8096 11.1069 11.1314 10.86 9.77479 10.3662C8.41823 9.87249 7.73994 9.62561 7.37324 9.12097C7.21918 8.90895 7.1074 8.66923 7.04401 8.41492C6.89314 7.80964 7.14001 7.13135 7.63376 5.77479Z" stroke="#141B34" stroke-width="1.5" stroke-linejoin="round"/>
</svg>
