<svg width="24" height="24" viewBox="0 0 24 24" fill="none" xmlns="http://www.w3.org/2000/svg">
<path d="M16.177 18.455C16.4776 18.5993 16.8504 18.972 17.0308 19.2727C17.0909 19.6936 17.3916 18.0701 18.8586 17.1081M21.5 18C21.5 20.2091 19.7091 22 17.5 22C15.2909 22 13.5 20.2091 13.5 18C13.5 15.7909 15.2909 14 17.5 14C19.7091 14 21.5 15.7909 21.5 18Z" stroke="#141B34" stroke-width="1.5" stroke-linecap="round"/>
<circle cx="11.0078" cy="12" r="2" stroke="#141B34" stroke-width="1.5"/>
<path d="M7.50765 18C8.45765 17.1 9.25765 16.6 11.0327 16.5M19.5077 11.5C19.5077 10.7 19.5327 8.25 19.4077 7.25C19.3327 6.425 19.1077 5.3 18.0827 4.65C17.4577 4.325 16.8577 4.025 13.9827 4M7.95765 4C5.80765 4 4.13265 4.175 3.30766 5.2C2.60766 6.15667 2.64932 7.25 2.58265 7.6C2.43265 9.475 2.53265 16.025 2.53265 17.125C2.53265 18.275 2.45765 20.6125 4.03265 21.4C5.38265 22.075 6.78265 21.975 11.5327 22" stroke="#141B34" stroke-width="1.5" stroke-linecap="round"/>
<path d="M10.8581 2.00007C10.2581 2.00007 9.75814 2.00007 9.25814 2.52507C8.83314 2.92507 8.89908 3.2783 8.73314 3.90007C8.49962 4.77507 8.3829 5.23656 8.70815 5.60007C9.00631 5.99038 9.50746 5.99164 9.94998 5.99276L9.95815 5.99278C10.3831 6.02287 11.8117 6.0091 12.2331 5.99278C12.686 5.97525 13.0505 5.95007 13.3581 5.55007C13.6331 5.19257 13.4701 4.59763 13.3081 3.97507C13.1484 3.36084 13.2081 3.05007 12.7831 2.52507C12.1831 1.92507 11.4581 2.00007 10.8581 2.00007Z" stroke="#141B34" stroke-width="1.5" stroke-linecap="round"/>
</svg>
