<svg width="24" height="24" viewBox="0 0 24 24" fill="none" xmlns="http://www.w3.org/2000/svg">
<path d="M21 14H16.0743C15.2322 14 14.5706 14.7036 14.1995 15.4472C13.7963 16.2551 12.9889 17 11.5 17C10.0111 17 9.20373 16.2551 8.80054 15.4472C8.42942 14.7036 7.76777 14 6.92566 14H2" stroke="#141B34" stroke-width="1.5" stroke-linejoin="round"/>
<path d="M16.6602 5.99295C16.6602 5.99295 17.0372 6.10822 17.5608 6.87616C17.5608 6.87616 18.3288 5.21817 19.3934 4.64221" stroke="#141B34" stroke-width="1.5" stroke-linecap="round" stroke-linejoin="round"/>
<path d="M21.0167 12.5093C21.0167 16.9916 21.0167 19.2327 19.6243 20.6253C18.2318 22.0177 15.9906 22.0177 11.5084 22.0177C7.02608 22.0177 4.78494 22.0177 3.39246 20.6253C2 19.2327 2 16.9916 2 12.5093C2 8.02705 2 5.78591 3.39246 4.39344C4.78494 3.00098 7.02608 3.00098 11.5084 3.00098" stroke="#141B34" stroke-width="1.5" stroke-linecap="round" stroke-linejoin="round"/>
<path d="M21.9997 6.00082C21.9997 8.20069 20.2163 9.98405 18.0164 9.98405C15.8166 9.98405 14.0332 8.20069 14.0332 6.00082C14.0332 3.80094 15.8166 2.01758 18.0164 2.01758C20.2163 2.01758 21.9997 3.80094 21.9997 6.00082Z" stroke="#141B34" stroke-width="1.5" stroke-linecap="round"/>
</svg>
