<svg width="24" height="24" viewBox="0 0 24 24" fill="none" xmlns="http://www.w3.org/2000/svg">
<path d="M20.9392 16H4.83058C4.343 16 3.98175 16.1723 3.69702 16.4515C3.22859 16.9108 3.06028 17.5901 2.98602 18.2429C2.90011 18.9982 2.93113 19.6886 3.14193 20.4377C3.37707 21.2734 3.96095 22 4.82612 22H20.9392M19.3455 22C17.8068 20.5885 17.1748 18.1421 19.3455 16" stroke="#141B34" stroke-width="1.5" stroke-linecap="round" stroke-linejoin="round"/>
<path d="M11.759 6.5C11.759 4 9.0507 3 9.0507 3M11.759 6.92131C11.759 6.92131 5.80078 3.85577 5.80078 8.90819C5.80078 13.9606 8.51184 16 9.59235 16C10.4542 16 10.9626 14.9913 11.759 14.9913C12.5553 14.9913 12.8423 16 13.9256 16C15.0061 16 17.7171 13.9606 17.7171 8.90819C17.7171 3.85578 11.759 6.92131 11.759 6.92131ZM12.3007 6C12.3007 2.01035 14.2517 3 15.2272 2C16.2028 4.5 14.897 5.00259 12.3007 6Z" stroke="#141B34" stroke-width="1.5" stroke-linecap="round" stroke-linejoin="round"/>
</svg>
