<svg width="24" height="24" viewBox="0 0 24 24" fill="none" xmlns="http://www.w3.org/2000/svg">
<path d="M20.5 16.5V8.5C20.5 6.14298 20.5 4.96447 19.7678 4.23223C19.0355 3.5 17.857 3.5 15.5 3.5H8.5C6.14298 3.5 4.96447 3.5 4.23223 4.23223C3.5 4.96447 3.5 6.14298 3.5 8.5V16.5" stroke="#141B34" stroke-width="1.5" stroke-linecap="round" stroke-linejoin="round"/>
<path d="M21.9842 20.5H2.01579C1.63286 20.5 1.38379 20.1088 1.55505 19.7764L3.5 16.5H20.5L22.445 19.7764C22.6162 20.1088 22.3671 20.5 21.9842 20.5Z" stroke="#141B34" stroke-width="1.5" stroke-linecap="round" stroke-linejoin="round"/>
<path d="M9.5 12.5C8.67157 12.5 8 11.8284 8 11C8 10.1716 8.67157 9.5 9.5 9.5H10C10 8.39543 10.8954 7.5 12 7.5C13.1046 7.5 14 8.39543 14 9.5H14.5C15.3284 9.5 16 10.1716 16 11C16 11.8284 15.3284 12.5 14.5 12.5H9.5Z" stroke="#141B34" stroke-width="1.5" stroke-linecap="round" stroke-linejoin="round"/>
</svg>
