<svg width="24" height="24" viewBox="0 0 24 24" fill="none" xmlns="http://www.w3.org/2000/svg">
<path d="M10 11.6258L5.07498 17.42C4.41411 18.1975 3.23201 18.2449 2.51138 17.5226C1.79074 16.8004 1.83795 15.6157 2.61376 14.9534L8.3953 10.0176" stroke="#141B34" stroke-width="1.5" stroke-linejoin="round"/>
<path d="M18 10.0653L13.0476 15.0286M9.95238 2L5 6.96326M9.33337 2.62037L5.61908 6.34282C5.61908 6.34282 7.47622 8.82445 9.33337 10.6856C11.1905 12.5469 13.6667 14.4081 13.6667 14.4081L17.381 10.6856C17.381 10.6856 15.5238 8.20404 13.6667 6.34282C11.8096 4.4816 9.33337 2.62037 9.33337 2.62037Z" stroke="#141B34" stroke-width="1.5" stroke-linecap="round" stroke-linejoin="round"/>
<path d="M20 11.6576L22 10.0176M20 14.9375L22 16.0308" stroke="#141B34" stroke-width="1.5" stroke-linecap="round" stroke-linejoin="round"/>
<path d="M11 21.9968H20.9978M12.2247 21.9968C12.7762 21.0094 13.1881 19.1196 15.1401 19.0138C15.7198 18.9824 16.3097 18.9824 16.8895 19.0138C18.8415 19.1196 19.2553 21.0094 19.8068 21.9968" stroke="#141B34" stroke-width="1.5" stroke-linecap="round" stroke-linejoin="round"/>
</svg>
