<svg width="24" height="24" viewBox="0 0 24 24" fill="none" xmlns="http://www.w3.org/2000/svg">
<path d="M15.5 8.02873C15.4588 6.86801 15.3216 6.14279 14.8645 5.57499C14.2114 4.76364 13.0944 4.50892 10.8605 3.99949L9.85915 3.77114C6.4649 2.9971 4.76777 2.61008 3.63388 3.50145C2.5 4.39282 2.5 6.11398 2.5 9.55631V14.4203C2.5 17.8626 2.5 19.5837 3.63388 20.4751C4.76777 21.3665 6.4649 20.9795 9.85915 20.2054L10.8605 19.9771C13.0944 19.4676 14.2114 19.2129 14.8645 18.4016C15.3216 17.8338 15.4588 17.1086 15.5 15.9478" stroke="#141B34" stroke-width="1.5" stroke-linecap="round" stroke-linejoin="round"/>
<path d="M18.5 9C18.5 9 21.5 11.2095 21.5 12C21.5 12.7906 18.5 15 18.5 15M21 12H8.49998" stroke="#141B34" stroke-width="1.5" stroke-linecap="round" stroke-linejoin="round"/>
</svg>
