<svg width="24" height="24" viewBox="0 0 24 24" fill="none" xmlns="http://www.w3.org/2000/svg">
<path d="M3.39267 4.00087C3 4.61597 3 5.41166 3 7.00304V16.997C3 18.5883 3 19.384 3.39267 19.9991C3.46279 20.109 3.5414 20.2132 3.62777 20.3108C4.11144 20.8572 4.87666 21.0758 6.4071 21.513C7.9414 21.9513 8.70856 22.1704 9.26402 21.8417C9.36035 21.7847 9.45 21.7171 9.53128 21.6402C10 21.1965 10 20.3988 10 18.8034V5.19662C10 3.60122 10 2.80351 9.53128 2.35982C9.45 2.28288 9.36035 2.21527 9.26402 2.15827C8.70856 1.82956 7.9414 2.0487 6.4071 2.48699C4.87666 2.92418 4.11144 3.14278 3.62777 3.68925C3.5414 3.78684 3.46279 3.89103 3.39267 4.00087Z" stroke="#141B34" stroke-width="1.5" stroke-linecap="round" stroke-linejoin="round"/>
<path d="M10 4H12.0171C13.9188 4 14.8696 4 15.4604 4.58579C15.7898 4.91238 15.9355 5.34994 16 6M10 20H12.0171C13.9188 20 14.8696 20 15.4604 19.4142C15.7898 19.0876 15.9355 18.6501 16 18" stroke="#141B34" stroke-width="1.5" stroke-linecap="round" stroke-linejoin="round"/>
<path d="M20 12.0001H13M18.5001 9.5C18.5001 9.5 21 11.3412 21 12C21 12.6588 18.5 14.5 18.5 14.5" stroke="#141B34" stroke-width="1.5" stroke-linecap="round" stroke-linejoin="round"/>
</svg>
