<svg width="24" height="24" viewBox="0 0 24 24" fill="none" xmlns="http://www.w3.org/2000/svg">
<path d="M7.87464 12.6838L10.0096 14.5151L12.6756 4.28782C12.8732 3.52986 13.5574 3.00098 14.3401 3.00098C15.4496 3.00098 16.2689 4.03662 16.0143 5.11731L14.8127 10.2177L16.5007 10.4878C18.4303 10.7774 19.3952 10.9222 20.0747 11.3297C21.1973 12.0026 22.0105 13.0132 22.0105 14.4886C22.0105 15.5163 21.7567 16.2057 21.1397 18.0581C20.7482 19.2335 20.5524 19.8212 20.2332 20.2864C19.7077 21.0523 18.9323 21.6115 18.04 21.8683C17.498 22.0242 16.879 22.0242 15.6409 22.0242H14.5915C12.9455 22.0242 12.1224 22.0242 11.3898 21.7219C11.2584 21.6678 11.1299 21.6066 11.0051 21.5387C10.3086 21.1603 9.78969 20.5211 8.75175 19.2427L5.39156 15.1041C4.8752 14.4682 4.87176 13.558 5.38329 12.9181C5.99811 12.1491 7.12739 12.0429 7.87464 12.6838Z" stroke="#141B34" stroke-width="1.5" stroke-linecap="round" stroke-linejoin="round"/>
<path d="M9.88171 4.63991C9.88171 4.63991 10.1273 2.41922 9.88171 2.17714M9.88171 2.17714C9.56316 1.86316 7.34279 2.12746 7.34279 2.12746M9.88171 2.17714L6.91129 5.11918M2.12085 7.36943C2.12085 7.36943 1.8753 9.59012 2.12085 9.8322M2.12085 9.8322C2.4394 10.1462 4.65977 9.88188 4.65977 9.88188M2.12085 9.8322L5.09127 6.89017" stroke="#141B34" stroke-width="1.5" stroke-linecap="round" stroke-linejoin="round"/>
</svg>
