<svg width="24" height="24" viewBox="0 0 24 24" fill="none" xmlns="http://www.w3.org/2000/svg">
<path d="M14.1055 10.3435L14.9082 5.67264C15.0412 4.89874 14.5376 4.16076 13.7834 4.0243C13.0291 3.88783 12.3098 4.40458 12.1768 5.17848L10.5714 14.5202L10.4383 15.2442L8.64114 13.3338C7.98911 12.6574 6.91507 12.719 6.33903 13.4661C5.89826 14.0378 5.88609 14.8463 6.30943 15.432L9.06457 19.2433C9.68984 20.1082 10.0025 20.5408 10.3787 20.8769C10.9527 21.3897 11.6405 21.7466 12.3803 21.9153C12.8652 22.0258 13.3863 22.0258 14.4284 22.0258H16.2456C18.6371 22.0258 20.6938 20.3301 21.1527 17.9801L21.8984 14.1614L21.9787 13.6943C22.1117 12.9204 21.6081 12.1824 20.8538 12.046C20.0995 11.9095 19.3803 12.4263 19.2473 13.2002L19.167 13.6673M14.1055 10.3435L13.8647 11.7448M14.1055 10.3435C14.2385 9.5696 14.9578 9.05286 15.7121 9.18932C16.4663 9.32577 16.97 10.0638 16.837 10.8377L16.6764 11.7718M16.6764 11.7718L16.5961 12.2389M16.6764 11.7718C16.8094 10.9979 17.5287 10.4811 18.2829 10.6176C19.0372 10.7541 19.5408 11.4921 19.4078 12.266L19.3276 12.7331" stroke="#141B34" stroke-width="1.5" stroke-linecap="round" stroke-linejoin="round"/>
<path d="M9.87528 4.64331C9.87528 4.64331 10.121 2.41974 9.87528 2.17734M9.87528 2.17734C9.55651 1.86295 7.33465 2.1276 7.33465 2.1276M9.87528 2.17734L6.90286 5.1232M2.10921 7.37637C2.10921 7.37637 1.86349 9.59995 2.10921 9.84234M2.10921 9.84234C2.42797 10.1567 4.64983 9.89209 4.64983 9.89209M2.10921 9.84234L5.08162 6.89649" stroke="#141B34" stroke-width="1.5" stroke-linecap="round" stroke-linejoin="round"/>
</svg>
