<svg width="24" height="24" viewBox="0 0 24 24" fill="none" xmlns="http://www.w3.org/2000/svg">
<path d="M20 18V10C20 8.11438 20 7.17157 19.4142 6.58579C18.8284 6 17.8856 6 16 6H4V18C4 19.8856 4 20.8284 4.58579 21.4142C5.17157 22 6.11438 22 8 22H16C17.8856 22 18.8284 22 19.4142 21.4142C20 20.8284 20 19.8856 20 18Z" stroke="#141B34" stroke-width="1.5" stroke-linecap="round" stroke-linejoin="round"/>
<path d="M12 11C13.6569 11 15 12.3431 15 14M12 11C10.3431 11 9 12.3431 9 14M12 11V10M15 14H9M15 14H16M9 14H8" stroke="#141B34" stroke-width="1.5" stroke-linecap="round" stroke-linejoin="round"/>
<path d="M8 18H16" stroke="#141B34" stroke-width="1.5" stroke-linecap="round" stroke-linejoin="round"/>
<path d="M4 6L11.3846 2.90586C13.0337 2.21492 13.8582 1.86945 14.5149 2.04543C14.9408 2.15954 15.3173 2.41193 15.5859 2.76336C16 3.30532 16 4.20355 16 6" stroke="#141B34" stroke-width="1.5" stroke-linecap="round" stroke-linejoin="round"/>
</svg>
