<svg width="24" height="24" viewBox="0 0 24 24" fill="none" xmlns="http://www.w3.org/2000/svg">
<path d="M10.9724 22.0031H8.01121M18.0262 8.04324L15.7407 5.21963C15.5922 5.03619 15.5134 4.80615 15.5181 4.5702L15.5391 3.53676C15.5561 2.6966 14.8797 2.00635 14.0394 2.00635H6.48807C5.65965 2.00635 4.98807 2.67792 4.98807 3.50635V4.9505L2.56466 7.46209C2.20493 7.8349 2.00391 8.33275 2.00391 8.85082V20.0031C2.00391 21.1077 2.89933 22.0031 4.0039 22.0031H8.00305H8.01121M18.0262 8.04324V10.0862M18.0262 8.04324H7.84091M5.02704 4.9505L7.45046 7.46209C7.61529 7.63291 7.7468 7.82999 7.84091 8.04324M8.01121 22.0031V8.85081C8.01121 8.57013 7.9522 8.29538 7.84091 8.04324" stroke="#141B34" stroke-width="1.5" stroke-linecap="round" stroke-linejoin="round"/>
<path d="M13.2482 18.5796C12.5941 17.9257 13.2569 16.203 14.7284 14.7319C16.1999 13.2607 17.9231 12.5981 18.5772 13.252M13.2482 18.5796C13.2482 19.1715 13.6032 20.1185 14.1363 20.6514C15.9349 22.4495 18.8509 22.4495 20.6495 20.6514C22.4481 18.8533 22.4481 15.938 20.6495 14.1399C20.1165 13.607 19.1692 13.252 18.5772 13.252M13.2482 18.5796C13.8117 19.143 15.1692 18.7289 16.4754 17.6623M18.5772 13.252C19.2311 13.9058 18.5685 15.6285 17.0969 17.0997C16.8933 17.3031 16.6851 17.4911 16.4754 17.6623M16.4754 17.6623C16.5838 18.3627 16.8008 19.1715 17.985 19.7635" stroke="#141B34" stroke-width="1.5" stroke-linecap="round"/>
</svg>
