<svg width="24" height="24" viewBox="0 0 24 24" fill="none" xmlns="http://www.w3.org/2000/svg">
<path d="M14.7974 5.13868C13.375 4.26713 9.72412 2.59418 6.4355 3.02118C8.42478 4.39117 9.47129 5.12804 12.2945 7.6416M18.7299 9.07114C19.6015 10.4936 21.2745 14.1444 20.8475 17.433C19.4775 15.4438 18.7406 14.3973 16.227 11.5741M10.3887 11.3709L3.33932 18.4203C2.76751 18.9921 2.7761 19.9278 3.3585 20.5102C3.9409 21.0926 4.87657 21.1011 5.44838 20.5293L12.4978 13.48M11.9025 9.17828L14.6902 11.966C14.9998 12.2756 15.5005 12.2767 15.8087 11.9685L19.2624 8.51484C19.5706 8.20669 19.5694 7.70595 19.2599 7.3964L16.4721 4.60868C16.1626 4.29913 15.6618 4.29799 15.3537 4.60614L11.9 8.05984C11.5918 8.36799 11.5929 8.86873 11.9025 9.17828Z" stroke="#141B34" stroke-width="1.5" stroke-linecap="round" stroke-linejoin="round"/>
</svg>
