<svg width="24" height="24" viewBox="0 0 24 24" fill="none" xmlns="http://www.w3.org/2000/svg">
<path d="M2.01758 17.4961C4.21715 17.4961 6.00025 19.2792 6.00025 21.4788" stroke="#141B34" stroke-width="1.5" stroke-linecap="round" stroke-linejoin="round"/>
<path d="M18 21.4788V21.3869C18 19.238 19.742 17.4961 21.8908 17.4961" stroke="#141B34" stroke-width="1.5" stroke-linecap="round" stroke-linejoin="round"/>
<path d="M6.00025 7.51562C6.00025 9.7152 4.21715 11.4983 2.01758 11.4983" stroke="#141B34" stroke-width="1.5" stroke-linecap="round" stroke-linejoin="round"/>
<path d="M18 7.51562C18 9.69594 19.769 11.4671 21.9423 11.4979" stroke="#141B34" stroke-width="1.5" stroke-linecap="round" stroke-linejoin="round"/>
<path d="M17 7.5C19.175 7.51211 20.3529 7.60856 21.1213 8.37694C22 9.25562 22 10.6698 22 13.4983V15.4983C22 18.3267 22 19.7409 21.1213 20.6196C20.2426 21.4983 18.8284 21.4983 16 21.4983H8C5.17157 21.4983 3.75736 21.4983 2.87868 20.6196C2 19.7409 2 18.3267 2 15.4983V13.4983C2 10.6698 2 9.25562 2.87868 8.37694C3.64706 7.60856 4.82497 7.51211 7 7.5" stroke="#141B34" stroke-width="1.5" stroke-linecap="round" stroke-linejoin="round"/>
<path d="M15 14.4961C15 16.1529 13.6569 17.4961 12 17.4961C10.3431 17.4961 9 16.1529 9 14.4961C9 12.8392 10.3431 11.4961 12 11.4961C13.6569 11.4961 15 12.8392 15 14.4961Z" stroke="#141B34" stroke-width="1.5" stroke-linecap="round" stroke-linejoin="round"/>
<path d="M14.5 5.5C14.5 5.5 12.7002 8 12 8C11.2998 8 9.5 5.5 9.5 5.5M12 7.5V2.5" stroke="#141B34" stroke-width="1.5" stroke-linecap="round" stroke-linejoin="round"/>
</svg>
