<svg width="24" height="24" viewBox="0 0 24 24" fill="none" xmlns="http://www.w3.org/2000/svg">
<path d="M12.002 9C10.8974 9 10.002 9.67157 10.002 10.5C10.002 11.3284 10.8974 12 12.002 12C13.1065 12 14.002 12.6716 14.002 13.5C14.002 14.3284 13.1065 15 12.002 15M12.002 9C12.8728 9 13.6136 9.4174 13.8881 10M12.002 9V8M12.002 15C11.1311 15 10.3903 14.5826 10.1158 14M12.002 15V16" stroke="#141B34" stroke-width="1.5" stroke-linecap="round"/>
<path d="M13 2.5C13 2.5 12.6839 2.5 12 2.5C7.52166 2.5 5.28249 2.5 3.89124 3.89125C2.5 5.28249 2.5 7.52166 2.5 12C2.5 16.4783 2.5 18.7175 3.89124 20.1088C5.28249 21.5 7.52166 21.5 12 21.5C16.4783 21.5 18.7175 21.5 20.1088 20.1088C21.5 18.7175 21.5 16.4783 21.5 12C21.5 11.3161 21.5 11 21.5 11" stroke="#141B34" stroke-width="1.5" stroke-linecap="round"/>
<path d="M21.4883 2.48584L17.3125 6.66404M16.4883 3.0076L16.6065 6.09909C16.6065 6.82773 17.0416 7.28172 17.8341 7.33898L20.9581 7.48584" stroke="#141B34" stroke-width="1.5" stroke-linecap="round" stroke-linejoin="round"/>
</svg>
