<svg width="24" height="24" viewBox="0 0 24 24" fill="none" xmlns="http://www.w3.org/2000/svg">
<path d="M3 3L21 21" stroke="#141B34" stroke-width="1.5" stroke-linecap="round" stroke-linejoin="round"/>
<path d="M10.2323 10.2305C9.77985 10.6829 9.5 11.3079 9.5 11.9983C9.5 13.379 10.6193 14.4983 12 14.4983C12.6904 14.4983 13.3154 14.2184 13.7678 13.766" stroke="#141B34" stroke-width="1.5" stroke-linecap="round" stroke-linejoin="round"/>
<path d="M21.6567 17.6567C21.8699 17.3788 22 17.0452 22 16.6823V6.92705C22 6.35889 21.6756 5.84452 21.1329 5.67632C20.1903 5.38421 18.4794 5 16 5C13.3535 5 11.8276 5.56032 9.79122 5.79122M18.2194 18.2194C17.5647 18.1519 16.8248 18.1094 16 18.1094C11.2491 18.1094 10.1096 19.9151 3.1448 18.3792C2.47265 18.231 2 17.6265 2 16.9382V6.92116C2 5.94531 2.92079 5.23366 3.87798 5.42361C4.54928 5.55682 5.16308 5.65694 5.72951 5.72951" stroke="#141B34" stroke-width="1.5" stroke-linecap="round" stroke-linejoin="round"/>
<path d="M2.00049 14.4961C4.20963 14.4961 6.00049 16.287 6.00049 18.4961M22 9.46899C20.2655 9.46899 18.5005 7.53964 18.5005 5.5M2 9C3.89206 9 5.59814 7.50048 5.90439 5.90439M19.6804 15.6804C20.3523 15.2499 21.1706 15 22 15" stroke="#141B34" stroke-width="1.5" stroke-linecap="round" stroke-linejoin="round"/>
</svg>
