<svg width="24" height="24" viewBox="0 0 24 24" fill="none" xmlns="http://www.w3.org/2000/svg">
<path d="M14.5 14C14.5 15.3807 13.3807 16.5 12 16.5C10.6193 16.5 9.5 15.3807 9.5 14C9.5 12.6193 10.6193 11.5 12 11.5C13.3807 11.5 14.5 12.6193 14.5 14Z" stroke="#141B34" stroke-width="1.5" stroke-linecap="round" stroke-linejoin="round"/>
<path d="M17 7C18.9452 7.08474 20.3228 7.40382 21.1329 7.65487C21.6756 7.82306 22 8.33744 22 8.9056V18.6804C22 19.7955 20.7719 20.6345 19.6762 20.4276C18.7361 20.2501 17.5107 20.1075 16 20.1075C11.2491 20.1075 10.1096 21.9132 3.1448 20.3773C2.47265 20.2291 2 19.6246 2 18.9363V8.91924C2 7.94339 2.92079 7.23174 3.87798 7.42169C5.31598 7.70704 6.49012 7.84057 7.5 7.87661" stroke="#141B34" stroke-width="1.5" stroke-linecap="round" stroke-linejoin="round"/>
<path d="M2 11C3.95133 11 5.70483 9.40507 5.92901 7.75417M18.5005 7.5C18.5005 9.53964 20.2655 11.469 22 11.469M22 17C20.1009 17 18.2601 18.3102 18.102 20.0983M6.00049 20.4961C6.00049 18.287 4.20963 16.4961 2.00049 16.4961" stroke="#141B34" stroke-width="1.5" stroke-linecap="round" stroke-linejoin="round"/>
<path d="M12 8.5L12 3M12 8.5C12.7002 8.5 14.5 6 14.5 6M12 8.5C11.2998 8.5 9.5 6 9.5 6" stroke="#141B34" stroke-width="1.5" stroke-linecap="round" stroke-linejoin="round"/>
</svg>
