<svg width="24" height="24" viewBox="0 0 24 24" fill="none" xmlns="http://www.w3.org/2000/svg">
<path d="M14.1539 21.9146C14.2982 21.9699 14.4536 22 14.6154 22C15.3801 22 16 21.3284 16 20.5C16 19.6716 15.3801 19 14.6154 19C14.3439 19 14.0907 19.0846 13.877 19.2309C12.8158 20.0225 10.85 21.0378 8.61535 21.301M5.84614 21.1936C5.22792 21.0635 4.60867 20.8541 4 20.5478" stroke="#141B34" stroke-width="1.5" stroke-linecap="round"/>
<path d="M19 21C19.2581 21 19.9557 21 21 21" stroke="#141B34" stroke-width="1.5" stroke-linecap="round"/>
<path d="M4.50921 10C3.70988 9.65619 3.00904 9.04325 2.5435 8.19953C1.99404 7.2037 1.87455 6.07158 2.12476 5.03854C3.10462 5.81349 4.47158 5.94685 5.60219 5.26383C6.73279 4.58081 7.30589 3.27541 7.15443 2C8.13453 2.28978 9.01179 2.96412 9.56125 3.95995C9.76638 4.33173 9.91159 4.72251 10 5.12003" stroke="#141B34" stroke-width="1.5" stroke-linejoin="round"/>
<path d="M17.1973 9.504C17.2047 9.50396 17.2122 9.50395 17.2197 9.50395C19.705 9.50395 21.4797 11.46 21.5037 13.56C21.5037 16.56 18.6597 17.88 17.2197 17.76M17.1973 9.504C17.2121 9.34761 17.2197 9.18923 17.2197 9.02917C17.1973 6.35995 14.9997 4.00195 12.0597 4.00195C9.29973 4.00195 7.04564 5.92942 6.80373 8.60151M17.1973 9.504C17.095 10.5812 16.7397 11.4 16.0197 12.264M6.80373 8.60151C4.26729 8.8307 2.57973 10.86 2.51973 12.9C2.33973 15.24 4.07973 16.68 5.52443 17.316C8.99973 18.78 12.5397 17.7 13.7037 15.84C14.2197 14.82 13.6484 13.5371 12.4197 13.23C11.5797 13.02 10.1397 13.5 10.0977 15.012M6.80373 8.60151C6.96157 8.58725 7.15796 8.57995 7.31973 8.57995C8.51973 8.60151 9.38373 9.02395 10.1037 9.50395" stroke="#141B34" stroke-width="1.5" stroke-linecap="round" stroke-linejoin="round"/>
</svg>
