<svg width="24" height="24" viewBox="0 0 24 24" fill="none" xmlns="http://www.w3.org/2000/svg">
<path d="M2.02344 8.00075C2.02344 9.34273 10.1196 13.0015 12.0111 13.0015C13.9026 13.0015 21.9988 9.34273 21.9988 8.00075C21.9988 6.65877 13.9026 3 12.0111 3C10.1196 3 2.02344 6.65877 2.02344 8.00075Z" stroke="#141B34" stroke-width="1.5" stroke-linecap="round" stroke-linejoin="round"/>
<path d="M6.01953 11.001L7.27083 16.8011C7.35653 17.1985 7.55438 17.5697 7.8843 17.8064C10.1061 19.4007 13.9182 19.4007 16.1399 17.8064C16.4699 17.5697 16.6678 17.1985 16.7535 16.8011L18.0047 11.001" stroke="#141B34" stroke-width="1.5" stroke-linecap="round" stroke-linejoin="round"/>
<path d="M20.5027 9.50098V16.502M20.5027 16.502C19.7118 17.9486 19.362 18.7236 19.0067 20.0025C18.9296 20.4576 18.9908 20.6869 19.304 20.8906C19.4312 20.9733 19.5842 21.0027 19.7358 21.0027H21.2544C21.4158 21.0027 21.5787 20.969 21.7117 20.8772C22.0028 20.6762 22.0777 20.4556 21.9988 20.0025C21.6874 18.815 21.2907 18.0031 20.5027 16.502Z" stroke="#141B34" stroke-width="1.5" stroke-linecap="round" stroke-linejoin="round"/>
</svg>
