<svg width="24" height="24" viewBox="0 0 24 24" fill="none" xmlns="http://www.w3.org/2000/svg">
<path d="M6.81915 22.027V21.077C6.81915 20.4307 6.61021 19.8015 6.22327 19.2828L2.56128 14.3734C2.13893 13.8072 1.8016 13.1047 2.08044 12.4562C2.53183 11.4065 3.8053 10.7244 5.36404 12.2984L6.96318 14.01L6.96318 3.57314C7.01946 1.52729 10.3114 1.42587 10.4522 3.57314V9.52103C11.934 9.32964 18.9144 10.3745 17.897 14.8005C17.8486 15.0108 17.8004 15.2242 17.7533 15.4348C17.5474 16.3548 16.9388 17.9944 16.2677 18.9529C15.569 19.9508 15.8155 20.9447 15.8155 22.027" stroke="#141B34" stroke-width="1.5" stroke-linecap="round" stroke-linejoin="round"/>
<path d="M16.9028 2.39504L17.7073 1.63848C17.7839 1.56653 17.8817 1.53025 17.9797 1.52979M19.0879 2.39504L18.2509 1.63394C18.174 1.564 18.0768 1.52934 17.9797 1.52979M19.0879 8.63007L18.2833 9.38663C18.1987 9.46621 18.0879 9.50216 17.9797 9.49425M16.9027 8.63007L17.7397 9.39117C17.8084 9.45361 17.8933 9.48793 17.9797 9.49425M17.9797 1.52979V9.49425M21.1134 4.41961L21.8697 5.22448C21.9416 5.30102 21.9779 5.39889 21.9784 5.49695M21.1134 6.60551L21.8743 5.76822C21.9442 5.69128 21.9788 5.59402 21.9784 5.49695M14.8806 6.60549L14.1243 5.80062C14.0447 5.71596 14.0088 5.6052 14.0167 5.49695M14.8806 4.41959L14.1197 5.25688C14.0573 5.32557 14.023 5.41046 14.0167 5.49695M21.9784 5.49695L14.0167 5.49695" stroke="#141B34" stroke-width="1.5" stroke-linecap="round" stroke-linejoin="round"/>
</svg>
