<svg width="24" height="24" viewBox="0 0 24 24" fill="none" xmlns="http://www.w3.org/2000/svg">
<path d="M10.5 11.7551L10.8905 8.6311C10.9815 7.90311 11.3125 7.75513 12 7.75513C12.6875 7.75513 13.0185 7.90311 13.1095 8.6311L13.5 11.7551" stroke="#141B34" stroke-width="1.5" stroke-linecap="round"/>
<path d="M8.24192 12.3664C9.57712 11.5549 10.7425 11.882 11.4425 12.4028C11.7296 12.6164 11.8731 12.7231 11.9576 12.7231C12.042 12.7231 12.1855 12.6164 12.4726 12.4028C13.1727 11.882 14.338 11.5549 15.6732 12.3664C17.4256 13.4313 17.822 16.9444 13.7801 19.9084C13.0102 20.4729 12.6254 20.7552 11.9576 20.7552C11.2898 20.7552 10.9049 20.4729 10.135 19.9084C6.0931 16.9444 6.4896 13.4313 8.24192 12.3664Z" stroke="#141B34" stroke-width="1.5" stroke-linecap="round"/>
<path d="M1.96293 2.75513C1.86566 4.33281 2.93389 7.79819 8.0105 9.41693M21.9511 2.75513C22.0484 4.33281 20.9802 7.79819 15.9036 9.41693" stroke="#141B34" stroke-width="1.5" stroke-linecap="round" stroke-linejoin="round"/>
</svg>
