<svg width="24" height="24" viewBox="0 0 24 24" fill="none" xmlns="http://www.w3.org/2000/svg">
<path d="M5.5 7.99414V12.4897M5.5 12.4897V13.9882C5.5 16.8138 5.5 18.2266 6.37843 19.1044C7.2035 19.9289 8.50089 19.979 10.9985 19.982M5.5 12.4897H10.9985" stroke="#141B34" stroke-width="1.5" stroke-linecap="round" stroke-linejoin="round"/>
<path d="M3.99944 2H6.9986C8.81329 2 8.99803 3.10883 8.99803 4.99703C8.99803 6.88522 8.81329 7.99405 6.9986 7.99405H3.99944C2.18475 7.99405 2 6.88522 2 4.99703C2 3.10883 2.18475 2 3.99944 2Z" stroke="#141B34" stroke-width="1.5"/>
<path d="M10.998 12.4897C10.998 11.5479 10.998 11.0769 11.2909 10.7843C11.5837 10.4917 12.0549 10.4917 12.9975 10.4917C13.94 10.4917 14.4113 10.4917 14.7041 10.7843C14.9969 11.0769 14.9969 11.5479 14.9969 12.4897C14.9969 13.4316 14.9969 13.9025 14.7041 14.1951C14.4113 14.4877 13.94 14.4877 12.9975 14.4877C12.0549 14.4877 11.5837 14.4877 11.2909 14.1951C10.998 13.9025 10.998 13.4316 10.998 12.4897Z" stroke="#141B34" stroke-width="1.5"/>
<path d="M10.998 19.9824C10.998 19.0405 10.998 18.5696 11.2909 18.277C11.5837 17.9844 12.0549 17.9844 12.9975 17.9844C13.94 17.9844 14.4113 17.9844 14.7041 18.277C14.9969 18.5696 14.9969 19.0405 14.9969 19.9824C14.9969 20.9243 14.9969 21.3952 14.7041 21.6878C14.4113 21.9804 13.94 21.9804 12.9975 21.9804C12.0549 21.9804 11.5837 21.9804 11.2909 21.6878C10.998 21.3952 10.998 20.9243 10.998 19.9824Z" stroke="#141B34" stroke-width="1.5"/>
<path d="M17.9883 20.0674L19.391 21.6346C19.8255 22.0566 20.0884 22.1323 20.438 21.7783L22.0006 20.0797M20.0075 21.9869V13.8655C19.9907 13.3255 19.6313 12.1009 18.0103 11.978" stroke="#141B34" stroke-width="1.5" stroke-linecap="round" stroke-linejoin="round"/>
</svg>
