<svg width="24" height="24" viewBox="0 0 24 24" fill="none" xmlns="http://www.w3.org/2000/svg">
<path d="M5.49805 8V12.5M5.49805 12.5V14C5.49805 16.8284 5.49805 18.2426 6.37607 19.1213C7.20074 19.9466 8.49752 19.9968 10.9939 19.9998M5.49805 12.5H10.9939" stroke="#141B34" stroke-width="1.5" stroke-linecap="round" stroke-linejoin="round"/>
<path d="M10.9941 12.5C10.9941 11.5572 10.9941 11.0858 11.2868 10.7929C11.5795 10.5 12.0505 10.5 12.9926 10.5C13.9347 10.5 14.4058 10.5 14.6984 10.7929C14.9911 11.0858 14.9911 11.5572 14.9911 12.5C14.9911 13.4428 14.9911 13.9142 14.6984 14.2071C14.4058 14.5 13.9347 14.5 12.9926 14.5C12.0505 14.5 11.5795 14.5 11.2868 14.2071C10.9941 13.9142 10.9941 13.4428 10.9941 12.5Z" stroke="#141B34" stroke-width="1.5"/>
<path d="M10.9941 20C10.9941 19.0572 10.9941 18.5858 11.2868 18.2929C11.5795 18 12.0505 18 12.9926 18C13.9347 18 14.4058 18 14.6984 18.2929C14.9911 18.5858 14.9911 19.0572 14.9911 20C14.9911 20.9428 14.9911 21.4142 14.6984 21.7071C14.4058 22 13.9347 22 12.9926 22C12.0505 22 11.5795 22 11.2868 21.7071C10.9941 21.4142 10.9941 20.9428 10.9941 20Z" stroke="#141B34" stroke-width="1.5"/>
<path d="M3.99849 2H6.99624C8.81007 2 8.99473 3.10993 8.99473 5C8.99473 6.89007 8.81007 8 6.99624 8H3.99849C2.18466 8 2 6.89007 2 5C2 3.10993 2.18466 2 3.99849 2Z" stroke="#141B34" stroke-width="1.5"/>
<path d="M17.9952 11.089L19.4495 9.31639C19.6881 9.05001 19.8578 8.99948 20.006 9.00405M20.006 9.00405C20.1522 9.00857 20.2908 9.06707 20.4998 9.31639L22.0052 11.1003M20.006 9.00405L19.9833 17.2623C20.0543 18.1368 19.9339 19.8285 17.9863 20.0085" stroke="#141B34" stroke-width="1.5" stroke-linecap="round" stroke-linejoin="round"/>
</svg>
