<svg width="24" height="24" viewBox="0 0 24 24" fill="none" xmlns="http://www.w3.org/2000/svg">
<path d="M8.89827 6.08398C6.64377 6.78958 3.96685 8.62514 2.86469 10.6412C2.23521 11.5872 1.49006 13.7754 2.4842 17.1678C2.66614 17.9522 3.02698 19.6523 2.80866 20.1856C3.33888 19.966 5.02893 20.329 5.80867 20.512C9.18102 21.5121 11.3563 20.7625 12.2967 20.1293C14.3008 19.0206 16.1255 16.3277 16.8269 14.0598" stroke="#141B34" stroke-width="1.5" stroke-linecap="round" stroke-linejoin="round"/>
<path d="M22.0029 4.91356C21.3564 4.46652 19.562 3.88083 17.7018 5.34786M15.8069 4.08809C13.1472 2.66123 11.0135 2.88563 9.84309 3.37014C9.65376 3.44852 9.48175 3.56939 9.36154 3.73607C8.4326 5.02413 9.61249 6.96848 11.8974 9.75454C12.2764 10.2167 12.6991 10.6435 13.1579 11.0256C15.8622 13.2778 17.9629 14.5917 19.2567 13.6259C19.398 13.5204 19.5047 13.3751 19.5786 13.2145C20.2188 11.824 20.1013 9.53064 18.7982 7.08753C18.1203 5.81648 17.0723 4.76694 15.8069 4.08809Z" stroke="#141B34" stroke-width="1.5" stroke-linecap="round"/>
</svg>
