<svg width="24" height="24" viewBox="0 0 24 24" fill="none" xmlns="http://www.w3.org/2000/svg">
<path d="M11.7734 22.2139C10.9552 22.2139 10.1736 21.8893 8.61037 21.2401C4.71908 19.624 2.77344 18.816 2.77344 17.4568V7.9585M11.7734 22.2139C12.5916 22.2139 13.3732 21.8893 14.9365 21.2401C18.8278 19.624 20.7734 18.816 20.7734 17.4568V7.9585M11.7734 22.2139V12.3826M2.77344 7.9585C2.77344 8.56237 3.57501 8.9437 5.17816 9.70635L8.09936 11.0961C9.90224 11.9538 10.8037 12.3826 11.7734 12.3826M2.77344 7.9585C2.77344 7.35463 3.57501 6.97331 5.17816 6.21065L7.27344 5.21387M20.7734 7.9585C20.7734 8.56237 19.9718 8.9437 18.3687 9.70635L15.4475 11.0961C13.6446 11.9538 12.7431 12.3826 11.7734 12.3826M20.7734 7.9585C20.7734 7.35463 19.9718 6.97331 18.3687 6.21065L16.2734 5.21387M5.77344 13.3657L7.77344 14.3489" stroke="#141B34" stroke-width="1.5" stroke-linecap="round" stroke-linejoin="round"/>
<path d="M11.7772 2.21387L11.7772 9.21382M11.7772 9.21382C12.0402 9.21737 12.2997 9.03358 12.4912 8.80921L13.7734 7.27561M11.7772 9.21382C11.5234 9.21038 11.2663 9.02754 11.0631 8.80921L9.77344 7.27561" stroke="#141B34" stroke-width="1.5" stroke-linecap="round"/>
</svg>
