<svg width="24" height="24" viewBox="0 0 24 24" fill="none" xmlns="http://www.w3.org/2000/svg">
<path d="M12 22.2139C11.1818 22.2139 10.4002 21.8847 8.83693 21.2262C4.94564 19.5873 3 18.7678 3 17.3893V7.75621M12 22.2139C12.8182 22.2139 13.5998 21.8847 15.1631 21.2262C19.0544 19.5873 21 18.7678 21 17.3893V7.75621M12 22.2139V12.2431M3 7.75621C3 8.36865 3.80157 8.75539 5.40472 9.52887L8.32592 10.9383C10.1288 11.8082 11.0303 12.2431 12 12.2431M3 7.75621C3 7.14377 3.80157 6.75704 5.40472 5.98356L7 5.21387M21 7.75621C21 8.36865 20.1984 8.75539 18.5953 9.52887L15.6741 10.9383C13.8712 11.8082 12.9697 12.2431 12 12.2431M21 7.75621C21 7.14377 20.1984 6.75703 18.5953 5.98356L17.0446 5.23538M6 13.2402L8 14.2373" stroke="#141B34" stroke-width="1.5" stroke-linecap="round" stroke-linejoin="round"/>
<path d="M11.9963 9.21387L11.9963 2.21392M11.9963 2.21392C11.7332 2.21036 11.4737 2.39415 11.2822 2.61852L10 4.15213M11.9963 2.21392C12.2501 2.21735 12.5071 2.40019 12.7103 2.61852L14 4.15213" stroke="#141B34" stroke-width="1.5" stroke-linecap="round"/>
</svg>
