<svg width="24" height="24" viewBox="0 0 24 24" fill="none" xmlns="http://www.w3.org/2000/svg">
<path d="M21.5 12C21.5 17.2467 17.2467 21.5 12 21.5C6.75329 21.5 2.5 17.2467 2.5 12C2.5 6.75329 6.75329 2.5 12 2.5C17.2467 2.5 21.5 6.75329 21.5 12Z" stroke="#141B34" stroke-width="1.5" stroke-linecap="round"/>
<path d="M12 9C10.4 9 9 10 9 10C9.16667 10.5 10 11.5 12 11.5M12 9C14 9 15 10 15 11.5C15 12.5409 14.2776 13.3411 13 13.9004M12 9C12.8 10.2 12.3333 11.1667 12 11.5M11 14.5C11.7651 14.347 12.4366 14.1471 13 13.9004M12 11.5C12.8333 11.6003 14.2 12.2208 13 13.9004" stroke="#141B34" stroke-width="1.5" stroke-linecap="round"/>
<path d="M14 6V6.01" stroke="#141B34" stroke-width="1.5" stroke-linecap="round"/>
<path d="M18 13.49V13.5" stroke="#141B34" stroke-width="1.5" stroke-linecap="round"/>
<path d="M16.5 16.49V16.5" stroke="#141B34" stroke-width="1.5" stroke-linecap="round"/>
<path d="M8 17V17.01" stroke="#141B34" stroke-width="1.5" stroke-linecap="round"/>
<path d="M6 9V9.01" stroke="#141B34" stroke-width="1.5" stroke-linecap="round"/>
<path d="M13.9897 18C13.9897 18 13.3104 18.5581 12.5362 18.6224C11.762 18.6867 11 18.2482 11 18.2482" stroke="#141B34" stroke-width="1.5" stroke-linecap="round"/>
<path d="M8.34375 7.33915C8.34375 7.33915 8.72002 6.54456 9.39279 6.15614C10.0656 5.76771 10.9418 5.83915 10.9418 5.83915" stroke="#141B34" stroke-width="1.5" stroke-linecap="round"/>
<path d="M16.5156 8.25C16.5156 8.25 17.3688 8.46206 17.8824 9.04496C18.3959 9.62785 18.4988 10.501 18.4988 10.501" stroke="#141B34" stroke-width="1.5" stroke-linecap="round"/>
<path d="M8.44319 14.4446C8.44319 14.4446 7.58718 14.2441 7.06578 13.6682C6.54439 13.0924 6.42969 12.2207 6.42969 12.2207" stroke="#141B34" stroke-width="1.5" stroke-linecap="round"/>
<path d="M7 3.1327L6.43365 2.56635C5.67851 1.81122 4.45419 1.81122 3.69906 2.56635L2.56635 3.69906C1.81122 4.45419 1.81122 5.67851 2.56635 6.43365L3.1327 7" stroke="#141B34" stroke-width="1.5" stroke-linecap="round"/>
<path d="M17 20.8673L17.5664 21.4336C18.3215 22.1888 19.5458 22.1888 20.3009 21.4336L21.4336 20.3009C22.1888 19.5458 22.1888 18.3215 21.4336 17.5664L20.8673 17" stroke="#141B34" stroke-width="1.5" stroke-linecap="round"/>
</svg>
