<svg width="24" height="24" viewBox="0 0 24 24" fill="none" xmlns="http://www.w3.org/2000/svg">
<path d="M5.47997 3C4.65613 3 3.98828 3.67178 3.98828 4.50048C3.98828 5.32917 4.65613 6.00096 5.47997 6.00096C6.30381 6.00096 6.97166 5.32917 6.97166 4.50048C6.97166 3.67178 6.30381 3 5.47997 3Z" stroke="#141B34" stroke-width="1.5" stroke-linecap="round" stroke-linejoin="round"/>
<path d="M18.4426 21H16.6642C16.4577 21 16.2503 20.9697 16.0606 20.8849C15.4431 20.6088 15.1298 20.2443 14.9838 20.0162C14.9007 19.8865 14.9125 19.7212 15.0026 19.5966C15.7181 18.6078 17.3769 18.0105 18.4426 18.0105M18.4456 21H20.224C20.4305 21 20.6379 20.9697 20.8276 20.8849C21.4451 20.6088 21.7584 20.2443 21.9045 20.0162C21.9875 19.8865 21.9757 19.7212 21.8856 19.5966C21.1701 18.6078 19.5113 18.0105 18.4456 18.0105" stroke="#141B34" stroke-width="1.5" stroke-linecap="round" stroke-linejoin="round"/>
<path d="M5.47579 11.4924H3.69742C3.49089 11.4924 3.28348 11.4621 3.09378 11.3773C2.47627 11.1013 2.16297 10.7367 2.01696 10.5087C1.93388 10.3789 1.94571 10.2136 2.03585 10.089C2.75129 9.10024 4.41007 8.50298 5.47579 8.50293M5.47883 11.4924H7.25719C7.46373 11.4924 7.67114 11.4621 7.86083 11.3773C8.47834 11.1013 8.79165 10.7367 8.93766 10.5087C9.02074 10.3789 9.0089 10.2136 8.91877 10.089C8.20332 9.10024 6.54454 8.50298 5.47883 8.50293" stroke="#141B34" stroke-width="1.5" stroke-linecap="round" stroke-linejoin="round"/>
<path d="M11.4473 4.00024C14.26 4.00024 16.6608 4.00024 17.5346 4.8792C18.4085 5.75816 18.4085 6.67267 18.4085 9.502L16.4196 8.50168" stroke="#141B34" stroke-width="1.5" stroke-linecap="round" stroke-linejoin="round"/>
<path d="M11.9456 20.0054C9.13283 20.0054 6.732 20.0054 5.85819 19.1264C4.98438 18.2475 4.98438 17.333 4.98438 14.5037L6.97329 15.504" stroke="#141B34" stroke-width="1.5" stroke-linecap="round" stroke-linejoin="round"/>
<path d="M18.4077 12.5029C17.5839 12.5029 16.916 13.1747 16.916 14.0034C16.916 14.8321 17.5839 15.5039 18.4077 15.5039C19.2315 15.5039 19.8994 14.8321 19.8994 14.0034C19.8994 13.1747 19.2315 12.5029 18.4077 12.5029Z" stroke="#141B34" stroke-width="1.5" stroke-linecap="round" stroke-linejoin="round"/>
</svg>
