<svg width="24" height="24" viewBox="0 0 24 24" fill="none" xmlns="http://www.w3.org/2000/svg">
<path d="M3 21L3.85763 17.9983C3.951 17.6715 4.12612 17.3739 4.36646 17.1335L18.2062 3.29289C18.5967 2.90237 19.2299 2.90237 19.6204 3.29289L20.7062 4.37868C21.0967 4.7692 21.0967 5.40237 20.7062 5.79289L6.86646 19.6335C6.62612 19.8739 6.3285 20.049 6.00169 20.1424L3 21Z" stroke="#141B34" stroke-width="1.5" stroke-linecap="round" stroke-linejoin="round"/>
<path d="M16 5.5L18.3787 7.87868C19.3787 8.87868 19.8787 9.37868 19.8787 10C19.8787 10.6213 19.3787 11.1213 18.3787 12.1213L17.5 13" stroke="#141B34" stroke-width="1.5" stroke-linecap="round" stroke-linejoin="round"/>
<path d="M8.5 13L11 15.5" stroke="#141B34" stroke-width="1.5" stroke-linecap="round" stroke-linejoin="round"/>
</svg>
