<svg width="24" height="24" viewBox="0 0 24 24" fill="none" xmlns="http://www.w3.org/2000/svg">
<path d="M2 4.49869H7.99205M2 4.49869C2 3.79883 3.99166 2.49127 4.49669 2M2 4.49869C2 5.19855 3.99166 6.50611 4.49669 6.99738" stroke="#141B34" stroke-width="1.5" stroke-linecap="round" stroke-linejoin="round"/>
<path d="M21.9824 10.8264L21.0337 10.8264C20.3882 10.8264 19.7599 10.6175 19.2418 10.2308L14.339 6.57074C13.7735 6.14861 13.0719 5.81146 12.4243 6.09015C11.3759 6.5413 10.6948 7.81411 12.2667 9.37203L13.9761 10.9703L3.55299 10.9703C1.50985 11.0266 1.40857 14.3169 3.55299 14.4576L9.493 14.4576C9.30186 15.9386 10.3453 22.9153 14.7655 21.8984C14.9755 21.8501 15.1886 21.8019 15.3989 21.7548C16.3177 21.549 17.9551 20.9407 18.9124 20.27C19.9089 19.5717 20.9015 19.8181 21.9824 19.8181" stroke="#141B34" stroke-width="1.5" stroke-linecap="round" stroke-linejoin="round"/>
</svg>
