<svg width="24" height="24" viewBox="0 0 24 24" fill="none" xmlns="http://www.w3.org/2000/svg">
<path d="M5.00391 12.001L6.03879 17.0165C6.50037 19.2534 6.73116 20.3719 7.56024 21.0308C9.13629 22.2831 14.8604 22.2871 16.4415 21.0308C17.2706 20.3719 17.5014 19.2534 17.963 17.0165L18.9978 12.001" stroke="#141B34" stroke-width="1.5"/>
<path d="M15.0039 12.0146L14.0039 21.9989" stroke="#141B34" stroke-width="1.5"/>
<path d="M11.0933 2.31241C11.4903 2.49628 11.8307 2.84948 12.0238 3.0286C12.217 2.84948 12.5087 2.49625 12.9057 2.31238C14.4769 1.58466 16.6094 2.17163 17.4829 3.66388C17.8371 4.26907 18.1144 5.1044 18.0476 5.98847C19.2569 5.98847 20.9312 6.89314 20.9963 8.83826C21.0552 10.5997 20.1505 11.3978 19.4068 11.7757C19.0342 11.9652 18.6104 12.0134 18.1921 12.0134L5.80688 12.0134C5.38867 12.0134 4.9648 11.9652 4.59218 11.7758C3.84857 11.3978 2.94382 10.5997 3.00273 8.83829C3.06779 6.89317 4.79817 6.03192 6.00752 6.03192C5.94064 5.14785 6.16192 4.2691 6.51616 3.66391C7.38963 2.17166 9.52207 1.5847 11.0933 2.31241Z" stroke="#141B34" stroke-width="1.5" stroke-linecap="round" stroke-linejoin="round"/>
</svg>
