<svg width="24" height="24" viewBox="0 0 24 24" fill="none" xmlns="http://www.w3.org/2000/svg">
<path d="M4 21.001L7.00071 18" stroke="#141B34" stroke-width="1.5" stroke-linecap="round" stroke-linejoin="round"/>
<path d="M15 10L14 11" stroke="#141B34" stroke-width="1.5" stroke-linecap="round" stroke-linejoin="round"/>
<path d="M17.9997 3L14.9997 6C14.4544 6.54525 14.1818 6.81787 14.0361 7.11197C13.7588 7.67152 13.7588 8.32848 14.0361 8.88803C14.1818 9.18213 14.4544 9.45475 14.9997 10C15.5449 10.5452 15.8176 10.8179 16.1117 10.9636C16.6712 11.2409 17.3282 11.2409 17.8877 10.9636C18.1818 10.8179 18.4544 10.5452 18.9997 10L21.9997 7" stroke="#141B34" stroke-width="1.5" stroke-linecap="round" stroke-linejoin="round"/>
<path d="M20 5L17 8" stroke="#141B34" stroke-width="1.5" stroke-linecap="round" stroke-linejoin="round"/>
<path d="M20 21L12 13M12 13L2 3C2 6.84174 3.52612 10.5261 6.24264 13.2426L9 16L12 13Z" stroke="#141B34" stroke-width="1.5" stroke-linecap="round" stroke-linejoin="round"/>
</svg>
