<svg width="24" height="24" viewBox="0 0 24 24" fill="none" xmlns="http://www.w3.org/2000/svg">
<path d="M18 8H12.5167C11.7 8 11.46 8.04 11.299 8.86405L9.95406 14.4693C9.62198 15.7974 9.45066 15.9934 9.12 16.02C8.76 15.9 8.58977 15.5923 7.98 14.34L7.63508 13.58C7.37243 13.0406 7.28553 12.813 7.02 12.74C6.62037 12.63 6.30716 12.9408 6 13.14" stroke="#141B34" stroke-width="1.5" stroke-linecap="round" stroke-linejoin="round"/>
<path d="M13.1055 11.4321C13.5255 11.4182 13.9815 11.4001 14.2311 11.8161C14.5743 12.5085 15.1175 13.9273 15.3195 14.3774C15.4204 14.5505 15.4815 14.7001 15.8415 14.8201C16.1107 14.8547 16.5015 14.8641 16.5015 14.8641" stroke="#141B34" stroke-width="1.5" stroke-linecap="round"/>
<path d="M16.7387 11.4199C15.8926 11.4199 15.3886 12.3659 14.9147 12.9587C14.3055 13.8654 13.6787 14.8799 12.8867 14.8519" stroke="#141B34" stroke-width="1.5" stroke-linecap="round"/>
<path d="M6 3C3.58901 4.93486 2 8.24345 2 12C2 15.7565 3.58901 19.0651 6 21" stroke="#141B34" stroke-width="1.5" stroke-linecap="round" stroke-linejoin="round"/>
<path d="M18 3C20.411 4.93486 22 8.24345 22 12C22 15.7565 20.411 19.0651 18 21" stroke="#141B34" stroke-width="1.5" stroke-linecap="round" stroke-linejoin="round"/>
</svg>
