<svg width="24" height="24" viewBox="0 0 24 24" fill="none" xmlns="http://www.w3.org/2000/svg">
<path d="M6.51136 10.2684C5.93907 9.87338 5.79998 9.0959 6.20071 8.5318C6.60143 7.96771 7.39022 7.83062 7.96252 8.2256L13.4891 12.0399L14.4123 12.7116L14.3826 10.3009C14.3826 9.46258 15.122 8.81033 15.9673 8.90292C16.6142 8.97376 17.1304 9.46698 17.2225 10.102L17.8215 14.2349C17.9574 15.1729 18.0254 15.6418 17.9913 16.092C17.9393 16.7788 17.715 17.442 17.3385 18.0222C17.0918 18.4025 16.7519 18.7375 16.0722 19.4074L14.6771 20.7826C13.2419 22.1972 10.9879 22.4033 9.31319 21.2731L5.26659 18.5422L3.53954 17.3502C2.96724 16.9552 2.82816 16.1778 3.22888 15.6137C3.62961 15.0496 4.4184 14.9125 4.99069 15.3075M6.51136 10.2684L5.12972 9.31479C4.55742 8.91981 3.76863 9.0569 3.36791 9.62099C2.96718 10.1851 3.10627 10.9626 3.67856 11.3576L5.06021 12.3111M6.51136 10.2684L9.62006 12.4139M4.99069 15.3075L3.60905 14.3539C3.03675 13.9589 2.89767 13.1814 3.29839 12.6173C3.69912 12.0532 4.48791 11.9161 5.06021 12.3111M4.99069 15.3075L6.71775 16.4994M5.06021 12.3111L8.1689 14.4567" stroke="#141B34" stroke-width="1.5" stroke-linecap="round" stroke-linejoin="round"/>
<path d="M9.3658 4.96612C9.7627 5.36176 11.4894 5.24762 12.1262 5.16818M9.3658 4.96612C8.96891 4.57048 8.95755 2.63844 9.03724 2.00355M9.3658 4.96612C10.3869 3.19789 14.4464 0.377339 18.4748 3.19789C20.4215 4.56088 20.6962 5.41984 21.004 5.99527" stroke="#141B34" stroke-width="1.5" stroke-linecap="round" stroke-linejoin="round"/>
</svg>
