<svg width="24" height="24" viewBox="0 0 24 24" fill="none" xmlns="http://www.w3.org/2000/svg">
<path d="M5.1493 11.9214C4.52613 11.5674 3.72316 11.7884 3.35581 12.4152C2.98845 13.0419 3.19583 13.837 3.81899 14.1911L5.32343 15.0459M5.1493 11.9214L3.64485 11.0666C3.02169 10.7125 2.81432 9.91742 3.18167 9.29066C3.54903 8.66391 4.352 8.44286 4.97516 8.79694L6.1034 9.43821M5.1493 11.9214L9.28652 14.2722M5.32343 15.0459C4.70027 14.6919 3.8973 14.9129 3.52995 15.5397C3.16259 16.1664 3.36996 16.9615 3.99313 17.3156L8.63196 19.9514C10.2668 20.8803 11.0842 21.3447 11.8818 21.464C12.3445 21.5333 13.0506 21.4235 13.5781 21.3147C14.0344 21.2206 14.5113 21.275 14.9113 21.5023L15.7874 22M5.32343 15.0459L8.70844 16.9693M6.1034 9.43821C5.48061 9.084 5.27344 8.28912 5.6407 7.66253C6.00806 7.03577 6.81103 6.81473 7.43419 7.1688L13.7994 10.7853L13.2953 8.86473C13.0741 8.02206 13.6423 7.1639 14.5132 7.02534C15.1796 6.91931 15.8267 7.27361 16.0865 7.88669L17.9491 12.5754C18.3055 13.4725 19.1596 14.3351 20 14.8127M6.1034 9.43821L9.86452 11.5753" stroke="#141B34" stroke-width="1.5" stroke-linecap="round" stroke-linejoin="round"/>
<path d="M9.3658 4.96612C9.7627 5.36176 11.4894 5.24762 12.1262 5.16818M9.3658 4.96612C8.96891 4.57048 8.95755 2.63844 9.03724 2.00355M9.3658 4.96612C10.3869 3.19789 14.4464 0.377339 18.4748 3.19789C20.4215 4.56088 20.6962 5.41984 21.004 5.99527" stroke="#141B34" stroke-width="1.5" stroke-linecap="round" stroke-linejoin="round"/>
</svg>
