<svg width="24" height="24" viewBox="0 0 24 24" fill="none" xmlns="http://www.w3.org/2000/svg">
<path d="M16.715 11.0623L20.4245 8.48058C21.0391 8.05283 21.1843 7.20494 20.7489 6.58676C20.3134 5.96858 19.4621 5.81421 18.8475 6.24196L11.4285 11.4053L10.8474 11.7994L10.8783 9.26018C10.8783 8.35008 10.0857 7.64204 9.17932 7.74254C8.48582 7.81944 7.93231 8.35486 7.83363 9.04423L7.19141 13.5307C7.04567 14.5489 6.97279 15.058 7.00933 15.5467C7.06506 16.2922 7.30555 17.0122 7.70918 17.642C7.97374 18.0548 8.3381 18.4185 9.06684 19.1458L10.6026 20.6784C12.1234 22.1962 14.5051 22.4346 16.2976 21.2484L19.5912 19.069L19.9621 18.8108C20.5768 18.3831 20.722 17.5352 20.2865 16.917C19.851 16.2988 18.9998 16.1444 18.3852 16.5722L18.0142 16.8304M16.715 11.0623L15.6022 11.8368M16.715 11.0623C17.3296 10.6345 18.1809 10.7889 18.6163 11.4071C19.0518 12.0253 18.9066 12.8731 18.292 13.3009L17.5501 13.8172M17.5501 13.8172L17.1791 14.0754M17.5501 13.8172C18.1647 13.3895 19.016 13.5439 19.4514 14.162C19.8869 14.7802 19.7417 15.6281 19.1271 16.0559L18.7561 16.314" stroke="#141B34" stroke-width="1.5" stroke-linecap="round" stroke-linejoin="round"/>
<path d="M14.6361 4.96612C14.2393 5.36176 12.5126 5.24762 11.8757 5.16818M14.6361 4.96612C15.033 4.57048 15.0444 2.63844 14.9647 2.00355M14.6361 4.96612C13.6151 3.19789 9.55553 0.377339 5.52715 3.19789C3.58048 4.56088 3.30579 5.41984 2.99795 5.99527" stroke="#141B34" stroke-width="1.5" stroke-linecap="round" stroke-linejoin="round"/>
</svg>
