<svg width="24" height="24" viewBox="0 0 24 24" fill="none" xmlns="http://www.w3.org/2000/svg">
<path d="M7.12586 10.4608L6.68196 11.2259C6.19164 12.071 6.48262 13.1515 7.33188 13.6394M7.33188 13.6394L8.10074 14.0812M7.33188 13.6394C6.90725 13.3955 6.36427 13.5403 6.11911 13.9628C5.62879 14.8079 5.91977 15.8885 6.76903 16.3764M6.76903 16.3764L7.53789 16.8181M6.76903 16.3764C6.36655 16.1451 5.85175 16.3289 5.68871 16.7619L5.58059 17.0491C5.27608 17.8579 5.60384 18.7672 6.35554 19.1991L7.48794 19.8492C9.15893 20.8092 9.99445 21.2892 10.8066 21.4181C11.2777 21.4928 11.9947 21.3879 12.5301 21.2823C12.9932 21.1909 13.4787 21.2507 13.8875 21.4856L14.7829 22M8.66368 11.3441L3.66608 8.47296C3.02913 8.10703 2.8109 7.29659 3.17864 6.66279C3.54638 6.02899 4.36084 5.81183 4.99778 6.17776L12.6576 10.5781L12.1272 8.62052C11.8944 7.7616 12.4643 6.89441 13.3486 6.76177C14.0253 6.66028 14.6866 7.02665 14.9563 7.65249L16.8938 12.4376C17.2645 13.3531 18.141 14.2384 19 14.7319" stroke="#141B34" stroke-width="1.5" stroke-linecap="round" stroke-linejoin="round"/>
<path d="M8.3658 4.96612C8.7627 5.36176 10.4894 5.24762 11.1262 5.16818M8.3658 4.96612C7.96891 4.57048 7.95755 2.63844 8.03724 2.00355M8.3658 4.96612C9.38687 3.19789 13.4464 0.377339 17.4748 3.19789C19.4215 4.56088 19.6962 5.41984 20.004 5.99527" stroke="#141B34" stroke-width="1.5" stroke-linecap="round" stroke-linejoin="round"/>
</svg>
