<svg width="24" height="24" viewBox="0 0 24 24" fill="none" xmlns="http://www.w3.org/2000/svg">
<path d="M10.3586 8.72881L9.86171 11.352L17.9769 6.72291C18.7813 6.26404 19.8099 6.53635 20.2744 7.33113C20.7388 8.12592 20.4632 9.14221 19.6588 9.60108L15.2891 12.0937L16.3274 14.7774C17.0134 16.5008 17.3564 17.3624 17.3441 18.1142C17.3238 19.356 16.8742 20.5036 15.6477 21.2032C14.7934 21.6906 14.0984 21.8089 12.2621 22.1801C11.097 22.4157 10.5144 22.5335 9.97434 22.4917C9.08521 22.4229 8.24794 22.0508 7.60593 21.4392C7.21598 21.0677 6.91866 20.5589 6.32401 19.5413L5.81994 18.6787C5.02937 17.3258 4.63408 16.6494 4.53343 15.9039C4.51538 15.7702 4.50455 15.6356 4.50098 15.5008C4.48111 14.7489 4.76322 14.0193 5.32743 12.5599L7.15397 7.83562C7.43465 7.10964 8.18963 6.67521 8.96724 6.79222C9.90188 6.93286 10.5326 7.81068 10.3586 8.72881Z" stroke="#141B34" stroke-width="1.5" stroke-linecap="round" stroke-linejoin="round"/>
<path d="M15.1361 4.46612C14.7393 4.86176 13.0126 4.74762 12.3757 4.66818M15.1361 4.46612C15.533 4.07048 15.5444 2.13844 15.4647 1.50355M15.1361 4.46612C14.1151 2.69789 10.0555 -0.122661 6.02715 2.69789C4.08048 4.06088 3.80579 4.91984 3.49795 5.49527" stroke="#141B34" stroke-width="1.5" stroke-linecap="round" stroke-linejoin="round"/>
</svg>
