<svg width="24" height="24" viewBox="0 0 24 24" fill="none" xmlns="http://www.w3.org/2000/svg">
<path d="M15.8741 10.4608L16.318 11.2259C16.8084 12.071 16.5174 13.1515 15.6681 13.6394M15.6681 13.6394L14.8993 14.0812M15.6681 13.6394C16.0928 13.3955 16.6357 13.5403 16.8809 13.9628C17.3712 14.8079 17.0802 15.8885 16.231 16.3764M16.231 16.3764L15.4621 16.8181M16.231 16.3764C16.6334 16.1451 17.1483 16.3289 17.3113 16.7619L17.4194 17.0491C17.7239 17.8579 17.3962 18.7672 16.6445 19.1991L15.5121 19.8492C13.8411 20.8092 13.0055 21.2892 12.1934 21.4181C11.7223 21.4928 11.0053 21.3879 10.4699 21.2823C10.0068 21.1909 9.52133 21.2507 9.11247 21.4856L8.21708 22M14.3363 11.3441L19.3339 8.47296C19.9709 8.10703 20.1891 7.29659 19.8214 6.66279C19.4536 6.02899 18.6392 5.81183 18.0022 6.17776L10.3424 10.5781L10.8728 8.62052C11.1056 7.7616 10.5357 6.89441 9.65139 6.76177C8.97474 6.66028 8.31344 7.02665 8.04366 7.65249L6.10619 12.4376C5.7355 13.3531 4.85903 14.2384 4 14.7319" stroke="#141B34" stroke-width="1.5" stroke-linecap="round" stroke-linejoin="round"/>
<path d="M14.6361 4.96612C14.2393 5.36176 12.5126 5.24762 11.8757 5.16818M14.6361 4.96612C15.033 4.57048 15.0444 2.63844 14.9647 2.00355M14.6361 4.96612C13.6151 3.19789 9.55553 0.377339 5.52715 3.19789C3.58048 4.56088 3.30579 5.41984 2.99795 5.99527" stroke="#141B34" stroke-width="1.5" stroke-linecap="round" stroke-linejoin="round"/>
</svg>
