<svg width="24" height="24" viewBox="0 0 24 24" fill="none" xmlns="http://www.w3.org/2000/svg">
<path d="M7.28499 11.0623L3.57549 8.48058C2.96088 8.05283 2.81566 7.20494 3.25113 6.58676C3.6866 5.96858 4.53786 5.81421 5.15247 6.24196L12.5715 11.4053L13.1526 11.7994L13.1217 9.26018C13.1217 8.35008 13.9143 7.64204 14.8207 7.74254C15.5142 7.81944 16.0677 8.35486 16.1664 9.04423L16.8086 13.5307C16.9543 14.5489 17.0272 15.058 16.9907 15.5467C16.9349 16.2922 16.6945 17.0122 16.2908 17.642C16.0263 18.0548 15.6619 18.4185 14.9332 19.1458L13.3974 20.6784C11.8766 22.1962 9.4949 22.4346 7.70237 21.2484L4.40881 19.069L4.03786 18.8108C3.42325 18.3831 3.27803 17.5352 3.7135 16.917C4.14897 16.2988 5.00023 16.1444 5.61484 16.5722L5.98579 16.8304M7.28499 11.0623L8.39784 11.8368M7.28499 11.0623C6.67038 10.6345 5.81913 10.7889 5.38366 11.4071C4.94818 12.0253 5.09341 12.8731 5.70802 13.3009L6.44992 13.8172M6.44992 13.8172L6.82087 14.0754M6.44992 13.8172C5.83531 13.3895 4.98405 13.5439 4.54858 14.162C4.11311 14.7802 4.25833 15.6281 4.87294 16.0559L5.24389 16.314" stroke="#141B34" stroke-width="1.5" stroke-linecap="round" stroke-linejoin="round"/>
<path d="M9.3658 4.96612C9.7627 5.36176 11.4894 5.24762 12.1262 5.16818M9.3658 4.96612C8.96891 4.57048 8.95755 2.63844 9.03724 2.00355M9.3658 4.96612C10.3869 3.19789 14.4464 0.377339 18.4748 3.19789C20.4215 4.56088 20.6962 5.41984 21.004 5.99527" stroke="#141B34" stroke-width="1.5" stroke-linecap="round" stroke-linejoin="round"/>
</svg>
