<svg width="24" height="24" viewBox="0 0 24 24" fill="none" xmlns="http://www.w3.org/2000/svg">
<path d="M18.8507 11.9214C19.4739 11.5674 20.2768 11.7884 20.6442 12.4152C21.0115 13.0419 20.8042 13.837 20.181 14.1911L18.6766 15.0459M18.8507 11.9214L20.3551 11.0666C20.9783 10.7125 21.1857 9.91742 20.8183 9.29066C20.451 8.66391 19.648 8.44286 19.0248 8.79694L17.8966 9.43821M18.8507 11.9214L14.7135 14.2722M18.6766 15.0459C19.2997 14.6919 20.1027 14.9129 20.4701 15.5397C20.8374 16.1664 20.63 16.9615 20.0069 17.3156L15.368 19.9514C13.7332 20.8803 12.9158 21.3447 12.1182 21.464C11.6555 21.5333 10.9494 21.4235 10.4219 21.3147C9.9656 21.2206 9.48867 21.275 9.08866 21.5023L8.21264 22M18.6766 15.0459L15.2916 16.9693M17.8966 9.43821C18.5194 9.084 18.7266 8.28912 18.3593 7.66253C17.9919 7.03577 17.189 6.81473 16.5658 7.1688L10.2006 10.7853L10.7047 8.86473C10.9259 8.02206 10.3577 7.1639 9.48677 7.02534C8.82037 6.91931 8.17326 7.27361 7.91354 7.88669L6.05089 12.5754C5.69452 13.4725 4.84044 14.3351 4 14.8127M17.8966 9.43821L14.1355 11.5753" stroke="#141B34" stroke-width="1.5" stroke-linecap="round" stroke-linejoin="round"/>
<path d="M14.6361 4.96612C14.2393 5.36176 12.5126 5.24762 11.8757 5.16818M14.6361 4.96612C15.033 4.57048 15.0444 2.63844 14.9647 2.00355M14.6361 4.96612C13.6151 3.19789 9.55553 0.377339 5.52715 3.19789C3.58048 4.56088 3.30579 5.41984 2.99795 5.99527" stroke="#141B34" stroke-width="1.5" stroke-linecap="round" stroke-linejoin="round"/>
</svg>
