<svg width="24" height="24" viewBox="0 0 24 24" fill="none" xmlns="http://www.w3.org/2000/svg">
<path d="M17.4886 10.2684C18.0609 9.87338 18.2 9.0959 17.7993 8.5318C17.3986 7.96771 16.6098 7.83062 16.0375 8.2256L10.5109 12.0399L9.58769 12.7116L9.61737 10.3009C9.61737 9.46258 8.87804 8.81033 8.03269 8.90292C7.38585 8.97376 6.86957 9.46698 6.77754 10.102L6.17853 14.2349C6.04259 15.1729 5.97462 15.6418 6.0087 16.092C6.06068 16.7788 6.28499 17.442 6.66146 18.0222C6.90822 18.4025 7.24807 18.7375 7.92777 19.4074L9.32295 20.7826C10.7581 22.1972 13.0121 22.4033 14.6868 21.2731L18.7334 18.5422L20.4605 17.3502C21.0328 16.9552 21.1718 16.1778 20.7711 15.6137C20.3704 15.0496 19.5816 14.9125 19.0093 15.3075M17.4886 10.2684L18.8703 9.31479C19.4426 8.91981 20.2314 9.0569 20.6321 9.62099C21.0328 10.1851 20.8937 10.9626 20.3214 11.3576L18.9398 12.3111M17.4886 10.2684L14.3799 12.4139M19.0093 15.3075L20.391 14.3539C20.9632 13.9589 21.1023 13.1814 20.7016 12.6173C20.3009 12.0532 19.5121 11.9161 18.9398 12.3111M19.0093 15.3075L17.2823 16.4994M18.9398 12.3111L15.8311 14.4567" stroke="#141B34" stroke-width="1.5" stroke-linecap="round" stroke-linejoin="round"/>
<path d="M14.6361 4.96612C14.2393 5.36176 12.5126 5.24762 11.8757 5.16818M14.6361 4.96612C15.033 4.57048 15.0444 2.63844 14.9647 2.00355M14.6361 4.96612C13.6151 3.19789 9.55553 0.377339 5.52715 3.19789C3.58048 4.56088 3.30579 5.41984 2.99795 5.99527" stroke="#141B34" stroke-width="1.5" stroke-linecap="round" stroke-linejoin="round"/>
</svg>
