<svg width="24" height="24" viewBox="0 0 24 24" fill="none" xmlns="http://www.w3.org/2000/svg">
<path d="M19.9876 14.5576L19.3392 14.1645C18.7791 13.8421 18.3384 13.3478 18.0825 12.7548L15.6605 7.14241C15.5732 6.94004 15.4534 6.77128 15.3085 6.63237C14.6682 6.01828 13.5613 6.27836 13.0237 6.98366C12.0312 8.28587 13.3645 9.5189 13.0828 10.6047L5.33961 6.25228C3.53852 5.28053 1.98293 7.86214 3.7733 9.05472L8.3566 11.6038C7.47393 12.7564 5.23565 18.3465 8.10394 20.0513C8.26699 20.1482 8.44772 20.2127 8.62905 20.2687C8.74569 20.3048 8.86239 20.341 8.97814 20.3771C9.87843 20.6581 11.5808 21.0114 12.7473 20.9096C13.9616 20.8037 14.7226 21.4511 15.6605 21.9909" stroke="#141B34" stroke-width="1.5" stroke-linecap="round" stroke-linejoin="round"/>
<path d="M9.34237 4.95538C9.73926 5.35102 11.4659 5.23688 12.1028 5.15744M9.34237 4.95538C8.94547 4.55973 8.93411 2.62769 9.01381 1.99281M9.34237 4.95538C10.3634 3.18715 14.423 0.366597 18.4514 3.18715C20.398 4.55014 20.6727 5.4091 20.9806 5.98453" stroke="#141B34" stroke-width="1.5" stroke-linecap="round" stroke-linejoin="round"/>
</svg>
