<svg width="24" height="24" viewBox="0 0 24 24" fill="none" xmlns="http://www.w3.org/2000/svg">
<path d="M21.7966 16.8939C21.5076 21.3743 18.2765 21.7633 17.8629 21.9566C21.4992 16.8939 13.405 11.7464 12.2808 11.1458C11.1566 10.5451 9.65409 9.85045 8.88325 9.34386C7.6057 8.50427 7.15252 7.7256 6.80974 7.11648C6.26014 6.13984 6.22515 3.83298 8.68339 3.71285C11.1416 3.59272 12.8355 4.61371 12.9477 5.24084C12.7494 6.6314 15.3994 9.17772 17.7068 7.31764C20.3693 5.17137 17.9594 2.11087 16.9033 1.98047C21.5713 2.20891 21.815 6.0603 21.9435 8.09119L21.9437 8.09313C21.9437 8.09313 22.0856 12.4135 21.7966 16.8939Z" stroke="#141B34" stroke-width="1.5" stroke-linecap="round" stroke-linejoin="round"/>
<path d="M5.87073 21.5667C6.23868 18.7791 3.52115 17.5867 2.32132 18.0528C2.32132 18.0528 1.97852 16.6546 1.97852 14.2507V10.0805C2.27212 10.9137 3.8746 13.1734 7.93561 15.0557C11.9966 16.938 12.9572 18.6461 12.9572 19.2153C13.0168 19.7012 12.8629 20.8853 11.7155 21.9178C9.98401 22.0037 6.31643 22.0825 5.87073 21.5667Z" stroke="#141B34" stroke-width="1.5" stroke-linecap="round" stroke-linejoin="round"/>
</svg>
