<svg width="24" height="24" viewBox="0 0 24 24" fill="none" xmlns="http://www.w3.org/2000/svg">
<path d="M19.8598 15.8598C20.5537 14.5521 21 13.0186 21 11.2371L21 7.74814C21 6.34249 21 5.63966 20.5504 4.91378C20.1008 4.18791 19.6368 3.95706 18.7088 3.49534C16.8165 2.55382 14.5009 2 12 2C10.1475 2 8.3966 2.30388 6.84414 2.84414M4.1416 4.1416C3.8764 4.33973 3.6614 4.57183 3.4496 4.91378C3 5.63965 3 6.34248 3 7.74814V11.2371C3 16.9205 7.54236 20.0804 10.173 21.4338C10.9067 21.8113 11.2735 22 12 22C12.7265 22 13.0933 21.8113 13.8269 21.4338C15.0804 20.7889 16.7679 19.7339 18.1912 18.1912" stroke="#141B34" stroke-width="1.5" stroke-linecap="round" stroke-linejoin="round"/>
<path d="M2 2L22 22" stroke="#141B34" stroke-width="1.5" stroke-linecap="round" stroke-linejoin="round"/>
</svg>
