<svg width="24" height="24" viewBox="0 0 24 24" fill="none" xmlns="http://www.w3.org/2000/svg">
<path d="M8 17H16" stroke="#141B34" stroke-width="1.5" stroke-linecap="round" stroke-linejoin="round"/>
<path d="M13.5 17V12M10.5 13V17" stroke="#141B34" stroke-width="1.5" stroke-linecap="round" stroke-linejoin="round"/>
<path d="M15.9036 5.63533L17.3268 5.31767M17.3268 5.31767L18.75 5M17.3268 5.31767L17.9839 8.06959M3.56943 8.38844L4.9926 8.07077M4.9926 8.07077L6.41578 7.75311M4.9926 8.07077L5.64974 10.8227M2.56619 11.511L21.0675 7.38132C21.4605 7.2936 21.8526 7.5305 21.9434 7.91047C22.2156 9.05035 21.4804 10.1877 20.3014 10.4509L4.6465 13.9452C3.4675 14.2084 2.29107 13.4977 2.01888 12.3578C1.92815 11.9778 2.17319 11.5987 2.56619 11.511Z" stroke="#141B34" stroke-width="1.5" stroke-linecap="round" stroke-linejoin="round"/>
</svg>
