<svg width="24" height="24" viewBox="0 0 24 24" fill="none" xmlns="http://www.w3.org/2000/svg">
<path d="M17 15V17M17.009 19H17M22 17C22 19.7614 19.7614 22 17 22C14.2386 22 12 19.7614 12 17C12 14.2386 14.2386 12 17 12C19.7614 12 22 14.2386 22 17Z" stroke="#141B34" stroke-width="1.5" stroke-linecap="round"/>
<path d="M20.232 10.056C20.712 9.516 21.54 8.7 21.4958 8.36768C21.5298 8.04446 21.3548 7.74083 21.0049 7.13358L20.5114 6.27698C20.1381 5.62915 19.9514 5.30523 19.6338 5.17607C19.3163 5.0469 18.9571 5.14883 18.2388 5.35267L17.0185 5.69637C16.5599 5.80212 16.0788 5.74213 15.66 5.52698L15.3231 5.33261C14.9641 5.10262 14.6879 4.76352 14.535 4.36493L14.201 3.36754C13.9815 2.70753 13.8717 2.37752 13.6103 2.18876C13.3489 2 13.0017 2 12.3074 2H11.1926C10.4982 2 10.151 2 9.88973 2.18876C9.62833 2.37752 9.51853 2.70753 9.29893 3.36754L8.96503 4.36493C8.81213 4.76352 8.53593 5.10262 8.17683 5.33261L7.83993 5.52698C7.42123 5.74213 6.94003 5.80212 6.48143 5.69637L5.26124 5.35267C4.54294 5.14883 4.18374 5.0469 3.86614 5.17607C3.54854 5.30523 3.36194 5.62915 2.98864 6.27698L2.49504 7.13358C2.14515 7.74083 1.97025 8.04446 2.00415 8.36768C2.03815 8.6909 2.27235 8.95137 2.74074 9.47231L3.77184 10.625C4.02374 10.944 4.20274 11.5 4.20274 11.9998C4.20274 12.5 4.02384 13.0558 3.77184 13.3749L2.74074 14.5276C2.27235 15.0485 2.03815 15.309 2.00415 15.6322C1.97025 15.9555 2.14515 16.2591 2.49504 16.8663L2.98864 17.7229C3.36194 18.3707 3.54854 18.6947 3.86614 18.8238C4.18374 18.953 4.54294 18.8511 5.26124 18.6472L6.48143 18.3035C6.94013 18.1977 7.42133 18.2578 7.84013 18.473L8.17693 18.6674C8.53603 18.8974 8.81213 19.2364 8.96493 19.635L9.29893 20.6325C9.51853 21.2925 9.63993 21.6356 9.84 21.78C9.9 21.8233 10.14 22.02 10.728 22.002" stroke="#141B34" stroke-width="1.5" stroke-linecap="round"/>
<path d="M14.1599 9.448C13.3199 8.764 12.6599 8.5 11.6999 8.5C9.89986 8.524 8.25586 10.011 8.25586 11.944C8.25586 13.0097 8.57986 13.684 9.19186 14.392" stroke="#141B34" stroke-width="1.5" stroke-linecap="round"/>
</svg>
