<svg width="24" height="24" viewBox="0 0 24 24" fill="none" xmlns="http://www.w3.org/2000/svg">
<path d="M8.5 6.5C8.5 8.15685 9.84315 9.5 11.5 9.5C13.1569 9.5 14.5 8.15685 14.5 6.5" stroke="#141B34" stroke-width="1.5" stroke-linecap="round" stroke-linejoin="round"/>
<path d="M16.5 16.5L21.5 21.5M16.5 21.5L21.5 16.5" stroke="#141B34" stroke-width="1.5" stroke-linecap="round" stroke-linejoin="round"/>
<path d="M13.6084 20.5H10.3916C6.52422 20.5 4.59052 20.5 3.39731 19.1594C2.20411 17.8189 2.41058 16.0497 2.82352 12.5113C3.1739 9.50898 3.68586 7.25784 4.16063 5.65851C4.54994 4.34711 4.74459 3.69141 5.54283 3.0957C6.34107 2.5 7.15697 2.5 8.78876 2.5H14.2113C15.8431 2.5 16.659 2.5 17.4572 3.0957C18.2554 3.69141 18.4501 4.34711 18.8394 5.65851C19.3142 7.25784 19.8261 9.50898 20.1765 12.5113C20.2169 12.8574 20.2553 13.1865 20.2906 13.5" stroke="#141B34" stroke-width="1.5" stroke-linecap="round" stroke-linejoin="round"/>
</svg>
