<svg width="24" height="24" viewBox="0 0 24 24" fill="none" xmlns="http://www.w3.org/2000/svg">
<path d="M8.49805 5.5C8.49805 7.433 10.2889 9 12.498 9C14.7072 9 16.498 7.433 16.498 5.5C16.498 3.567 14.7072 2 12.498 2C10.2889 2 8.49805 3.567 8.49805 5.5Z" stroke="#141B34" stroke-width="1.5" stroke-linejoin="round"/>
<path d="M5.26992 7.49219C5.09193 8.09982 4.92547 9.0174 4.99421 11.4255" stroke="#141B34" stroke-width="1.5"/>
<path d="M6.45838 5.04064C8.41438 2.67519 10.3452 2.00293 12.9717 2.00293C15.2954 2.24192 17.0917 3.19834 18.4827 5.02122C19.725 6.64921 20.1234 8.25465 19.9626 11.3105M3.12897 11.9733H6.89009C6.95548 11.9733 7.00319 12.0352 6.98655 12.0986L6.49405 13.9742C6.49108 13.9855 6.49011 13.9973 6.4912 14.0089L6.97421 19.1817C7.02143 19.6874 6.99082 20.206 6.79086 20.6727C6.51947 21.3061 6.21276 21.6135 5.80768 21.8039C5.31394 22.036 4.7195 22.0517 4.23542 21.8C3.84873 21.5989 3.565 21.2899 3.30777 20.8126C3.01262 20.265 2.95992 19.6249 3.02451 19.0059L3.54582 14.0099C3.54711 13.9976 3.5461 13.9852 3.54285 13.9732L3.03273 12.0995C3.01543 12.0359 3.0632 11.9733 3.12897 11.9733ZM18.0652 11.9928H21.8969C21.9634 11.9928 22.0113 12.0568 21.9926 12.1207L21.457 13.957C21.4534 13.9694 21.4522 13.9823 21.4535 13.9951L21.9774 19.1864C22.0294 19.7017 22.0008 20.2312 21.7952 20.7064C21.5253 21.3302 21.2202 21.6344 20.8181 21.8234C20.3244 22.0556 19.7299 22.0712 19.2459 21.8195C18.8554 21.6165 18.5699 21.3033 18.3107 20.8181C18.0224 20.2784 17.9674 19.6499 18.0263 19.0406L18.5091 14.0461C18.5103 14.0337 18.5092 14.0212 18.5057 14.0092L17.9692 12.12C17.9511 12.0562 17.9989 11.9928 18.0652 11.9928Z" stroke="#141B34" stroke-width="1.5"/>
</svg>
