<svg width="24" height="24" viewBox="0 0 24 24" fill="none" xmlns="http://www.w3.org/2000/svg">
<path d="M18.5 3L15.0607 6.43934C14.4749 7.02513 14.4749 7.97487 15.0607 8.56066L15.75 9.25M22 6.5L18.5607 9.93934C17.9749 10.5251 17.0251 10.5251 16.4393 9.93934L15.75 9.25M15.75 9.25L4 21" stroke="#141B34" stroke-width="1.5" stroke-linecap="round" stroke-linejoin="round"/>
<path d="M20 4.99805L17.5 7.49805" stroke="#141B34" stroke-width="1.5" stroke-linecap="round" stroke-linejoin="round"/>
<path d="M7.98914 8.98914C6.79472 10.1836 5.15674 10.4821 3.66377 8.98914C2.17075 7.49611 1.38801 4.77685 2.58243 3.58243C3.77685 2.38801 6.49611 3.17075 7.98914 4.66377C9.48211 6.15674 9.18356 7.79472 7.98914 8.98914ZM7.98914 8.98914L20 21" stroke="#141B34" stroke-width="1.5" stroke-linecap="round"/>
<path d="M9.20542 2.39571C10.0923 2.1381 11.03 2 12 2C13.1517 2 14.2579 2.19469 15.2876 2.55296M2.04937 11C2.01672 11.3289 2 11.6625 2 12C2 14.0318 2.60598 15.9221 3.64707 17.5M7.77267 21.0651C9.05671 21.665 10.4892 22 12 22C13.5244 22 14.9691 21.6589 16.262 21.0489M20.3529 17.5C21.394 15.9221 22 14.0318 22 12C22 11.4218 21.9509 10.8551 21.8567 10.3038" stroke="#141B34" stroke-width="1.5" stroke-linecap="round"/>
</svg>
