<svg width="24" height="24" viewBox="0 0 24 24" fill="none" xmlns="http://www.w3.org/2000/svg">
<path d="M5.5 19.1807C5.51582 20.4205 5.59691 20.9426 6.01277 21.4141C6.52938 21.9999 7.36085 21.9999 9.02379 21.9999H15.9762C17.6391 21.9999 18.4706 21.9999 18.9872 21.4141C19.4031 20.9426 19.4842 20.4204 19.5 19.1806" stroke="#141B34" stroke-width="1.5" stroke-linecap="round" stroke-linejoin="round"/>
<path d="M12.5049 19.0703L5.2732 19.0703C4.55522 19.0703 3.93414 18.4847 4.02437 17.7724C4.18343 16.5169 4.82181 14.9991 7.35226 14.0657C8.2418 13.7376 9.22124 13.4535 9.70384 12.6374C10.3812 11.4919 10.6797 10.2381 9.41633 8.0879C7.35226 4.02011 10.4406 1.99902 12.5276 1.99902C14.6145 1.99902 17.6651 4.1485 15.5805 8.0879C14.3148 10.2206 14.6512 11.4919 15.3286 12.6374C15.8112 13.4535 16.7907 13.7376 17.6802 14.0657C20.2106 14.9991 20.849 16.5169 21.0081 17.7724C21.0983 18.4847 20.4772 19.0703 19.7593 19.0703L12.5276 19.0703" stroke="#141B34" stroke-width="1.5" stroke-linecap="round" stroke-linejoin="round"/>
</svg>
