<svg width="24" height="24" viewBox="0 0 24 24" fill="none" xmlns="http://www.w3.org/2000/svg">
<path d="M3 10.5049V15.0075C3 17.8375 3 19.2526 3.87868 20.1318C4.75736 21.011 6.17157 21.011 9 21.011H12.5M21 10.5049V13.0063" stroke="#141B34" stroke-width="1.5" stroke-linecap="round"/>
<path d="M7 17H11" stroke="#141B34" stroke-width="1.5" stroke-linecap="round"/>
<path d="M16 16.0083L19 19.01M19 19.01L22 22.0118M19 19.01L16 22.0118M19 19.01L22 16.0083" stroke="#141B34" stroke-width="1.5" stroke-linecap="round"/>
<path d="M17.7967 2.01183L6.15081 2.03945C4.41264 1.95443 3.96698 3.22688 3.96698 3.8489C3.96698 4.40522 3.89152 5.21625 2.82621 6.74057C1.7609 8.26488 1.84096 8.71771 2.44168 9.77297C2.94025 10.6488 4.20838 10.9909 4.8696 11.0484C6.9698 11.0938 7.99163 9.36935 7.99163 8.15737C9.03349 11.2027 11.9965 11.2027 13.3168 10.8545C14.6395 10.5056 15.7727 9.25678 16.04 8.15737C16.196 9.52365 16.6691 10.3209 18.0672 10.8688C19.5155 11.4362 20.7609 10.5689 21.3858 10.0129C22.0106 9.45693 22.4116 8.22267 21.2977 6.86609C20.5295 5.93055 20.2094 5.0492 20.1042 4.13574C20.0433 3.60645 19.9898 3.03771 19.5981 2.67579C19.0257 2.14687 18.2045 1.98638 17.7967 2.01183Z" stroke="#141B34" stroke-width="1.5" stroke-linecap="round" stroke-linejoin="round"/>
</svg>
