<svg width="24" height="24" viewBox="0 0 24 24" fill="none" xmlns="http://www.w3.org/2000/svg">
<path d="M3 11.0103V15.5157C3 18.3475 3 19.7635 3.87868 20.6432C4.75736 21.523 6.17157 21.523 9 21.523H15C17.8284 21.523 19.2426 21.523 20.1213 20.6432C21 19.7635 21 18.3475 21 15.5157V11.0103" stroke="#141B34" stroke-width="1.5"/>
<path d="M15 17C14.3159 17.6072 13.2268 18 12 18C10.7732 18 9.68409 17.6072 9 17" stroke="#141B34" stroke-width="1.5" stroke-linecap="round"/>
<path d="M17.7967 2.52613L6.15081 2.55521C4.41264 2.46567 3.96698 3.80578 3.96698 4.46088C3.96698 5.04678 3.89152 5.90093 2.82621 7.50629C1.7609 9.11165 1.84096 9.58856 2.44168 10.6999C2.94025 11.6223 4.20838 11.9826 4.8696 12.0432C6.9698 12.091 7.99163 10.2749 7.99163 8.99843C9.03349 12.2057 11.9965 12.2057 13.3168 11.8389C14.6395 11.4715 15.7727 10.1563 16.04 8.99843C16.196 10.4374 16.6691 11.277 18.0672 11.854C19.5155 12.4516 20.7609 11.5382 21.3858 10.9526C22.0106 10.3671 22.4116 9.0672 21.2977 7.63849C20.5295 6.6532 20.2094 5.72499 20.1042 4.76297C20.0433 4.20554 19.9898 3.60655 19.5981 3.22539C19.0257 2.66834 18.2045 2.49933 17.7967 2.52613Z" stroke="#141B34" stroke-width="1.5" stroke-linecap="round" stroke-linejoin="round"/>
</svg>
