<svg width="24" height="24" viewBox="0 0 24 24" fill="none" xmlns="http://www.w3.org/2000/svg">
<path d="M21 4.49905H15M21 4.49905C21 3.79909 19.0057 2.49134 18.5 2M21 4.49905C21 5.19901 19.0057 6.50675 18.5 6.9981" stroke="#141B34" stroke-width="1.5" stroke-linecap="round" stroke-linejoin="round"/>
<path d="M16.8922 21.9884C16.8405 20.0751 16.9694 19.8448 17.1061 19.4191C17.2428 18.9935 18.1991 17.4587 18.5375 16.3621C19.6323 12.8141 18.6119 12.0595 17.2516 11.0534C15.7431 9.93759 12.8978 9.37252 11.4867 9.49486V3.74359C11.4867 2.78063 10.7058 2 9.74243 2C8.77911 2 7.99818 2.78063 7.99818 3.74359V14.0032L5.93801 11.8238C5.29839 11.1303 4.27048 11.06 3.56894 11.6908C2.90413 12.2886 2.80711 13.2953 3.34554 14.009L4.63789 15.722M7.86883 22.0002L7.8493 20.9498C7.89224 19.7185 6.99624 18.9151 5.82767 17.3089C5.74347 17.1931 5.66154 17.0813 5.58177 16.973M5.58177 16.973C5.22771 16.4926 4.91619 16.0832 4.63789 15.722M5.58177 16.973L6.7512 18.5231M5.58177 16.973L4.63789 15.722M4.63789 15.722C4.06651 14.9802 3.63519 14.4412 3.26336 13.9056" stroke="#141B34" stroke-width="1.5" stroke-linecap="round" stroke-linejoin="round"/>
</svg>
