<svg width="24" height="24" viewBox="0 0 24 24" fill="none" xmlns="http://www.w3.org/2000/svg">
<path d="M19.4882 7.98715V2M19.4882 7.98715C18.7891 7.98715 17.4829 5.99712 16.9922 5.4925M19.4882 7.98715C20.1873 7.98715 21.4935 5.99712 21.9842 5.4925" stroke="#141B34" stroke-width="1.5" stroke-linecap="round" stroke-linejoin="round"/>
<path d="M5.52186 14.4525V9.98738M5.52186 9.98738V4.47038C5.52186 3.65051 6.20626 2.98975 7.02754 2.98975C7.84882 2.98975 8.49598 3.65051 8.49598 4.47038V8.46769M5.52186 9.98738C4.20502 11.1786 2.78797 12.6835 2.59715 13.069C1.70925 14.4183 1.80232 15.0714 2.79182 16.7224C3.63226 18.1246 4.76252 19.6808 4.8285 19.7555C5.50004 20.5152 5.36652 20.5153 6.33986 21.2287C7.20902 21.8309 9.01187 22.2505 13.2384 21.8309C16.6815 21.3 17.5064 18.2996 17.4885 16.8658V13.3249C17.703 10.3818 16.4708 10.249 14.2333 9.95932M8.49598 8.46769V10.9921M8.49598 8.46769C9.05435 7.55869 11.0823 7.92604 11.4775 9.64255M11.5132 10.9881V9.98738C11.5132 9.90848 11.5093 9.82934 11.4981 9.75129M11.4775 9.64255C11.4792 9.64978 11.4808 9.65702 11.4824 9.6643C11.4888 9.6931 11.494 9.72212 11.4981 9.75129M11.4775 9.64255C11.4816 9.67753 11.4884 9.71378 11.4981 9.75129M11.4775 9.64255C11.3371 8.44614 14.374 8.7378 14.4976 10.8419V11.9854" stroke="#141B34" stroke-width="1.5" stroke-linecap="round"/>
</svg>
