<svg width="24" height="24" viewBox="0 0 24 24" fill="none" xmlns="http://www.w3.org/2000/svg">
<path d="M19.4795 2V7.99287M19.4795 2C18.7801 2 17.4734 3.99193 16.9824 4.49703M19.4795 2C20.1789 2 21.4857 3.99193 21.9766 4.49703" stroke="#141B34" stroke-width="1.5" stroke-linecap="round" stroke-linejoin="round"/>
<path d="M5.51167 14.4469V9.97747M5.51167 9.97747V4.45519C5.51167 3.63454 6.19636 2.97314 7.018 2.97314C7.83964 2.97314 8.48708 3.63454 8.48708 4.45519V8.45633M5.51167 9.97747C4.19426 11.1699 2.7766 12.6762 2.5857 13.062C1.69741 14.4126 1.79052 15.0664 2.78045 16.7189C3.62125 18.1225 4.75201 19.6802 4.81801 19.7549C5.48984 20.5154 5.35626 20.5155 6.33002 21.2296C7.19956 21.8324 9.00319 22.2524 13.2315 21.8324C16.6761 21.3009 17.5014 18.2976 17.4835 16.8624V13.3181C17.6981 10.3723 16.4653 10.2393 14.2269 9.94938M8.48708 8.45633V10.9832M8.48708 8.45633C9.04568 7.54646 11.0745 7.91416 11.4699 9.63231M11.5056 10.9792V9.97747C11.5056 9.8985 11.5017 9.81928 11.4905 9.74116M11.4699 9.63231C11.4716 9.63954 11.4732 9.6468 11.4748 9.65408C11.4812 9.6829 11.4863 9.71196 11.4905 9.74116M11.4699 9.63231C11.474 9.66732 11.4808 9.70361 11.4905 9.74116M11.4699 9.63231C11.3294 8.43476 14.3676 8.72669 14.4913 10.8328V11.9774" stroke="#141B34" stroke-width="1.5" stroke-linecap="round"/>
</svg>
