<svg width="24" height="24" viewBox="0 0 24 24" fill="none" xmlns="http://www.w3.org/2000/svg">
<path d="M18.5 8V2M18.5 8C17.7998 8 16.4915 6.0057 16 5.5M18.5 8C19.2002 8 20.5085 6.0057 21 5.5" stroke="#141B34" stroke-width="1.5" stroke-linecap="round" stroke-linejoin="round"/>
<path d="M15.3913 21.996C15.3395 20.082 15.4684 19.8516 15.6052 19.4258C15.7419 19 16.6982 17.4646 17.0366 16.3675C18.1313 12.8183 17.111 12.0633 15.7507 11.0568C14.2422 9.94062 11.3968 9.37533 9.98573 9.49771V3.74425C9.98573 2.78093 9.20481 2 8.24148 2C7.27816 2 6.49723 2.78093 6.49723 3.74425V9.96412M6.49774 21.9968V20.9835C6.43328 20.0391 5.49529 18.9215 4.32672 17.3147C3.12509 15.5741 2.86688 14.6953 3.05591 13.8829C3.15329 13.4675 3.40594 12.7812 4.64647 11.6085L6.49723 9.96412M6.49723 14.0304V9.96412" stroke="#141B34" stroke-width="1.5" stroke-linecap="round" stroke-linejoin="round"/>
</svg>
