<svg width="24" height="24" viewBox="0 0 24 24" fill="none" xmlns="http://www.w3.org/2000/svg">
<path d="M21 4.5H15M21 4.5C21 3.79977 19.0057 2.49153 18.5 2M21 4.5C21 5.20023 19.0057 6.50847 18.5 7" stroke="#141B34" stroke-width="1.5" stroke-linecap="round" stroke-linejoin="round"/>
<path d="M6.51087 13.5147V3.48575C6.51087 2.66411 7.17771 1.99805 8.0003 1.99805C8.82288 1.99805 9.48972 2.66411 9.48972 3.48575V8.68783M9.48972 8.68783V11.0115M9.48972 8.68783C10.2946 7.56941 12.0972 7.94193 12.4809 9.68079C12.4873 9.70965 12.4925 9.73874 12.4966 9.76798M12.5118 11.0075V10.0046C12.5118 9.9255 12.5078 9.84619 12.4966 9.76798M12.4966 9.76798C12.9899 8.41762 15.2543 8.93261 15.5009 10.8609M15.5009 10.8609V12.0069M15.5009 10.8609C15.9048 9.37034 18.5567 10.4121 18.4992 12.1544V15.3329C18.4963 17.059 18.2082 18.3105 17.182 19.34C16.234 20.4718 16.457 21.1053 16.4334 22.0017M6.51087 8.9905C5.19194 10.1843 3.69496 11.8159 3.50383 12.2023C2.61452 13.5544 2.9308 14.6153 4.19463 16.4175C5.13516 17.7587 6.39663 19.2534 6.46272 19.3282C7.13532 20.0896 7.0035 20.6958 7.0035 21.9907" stroke="#141B34" stroke-width="1.5" stroke-linecap="round"/>
</svg>
