<svg width="24" height="24" viewBox="0 0 24 24" fill="none" xmlns="http://www.w3.org/2000/svg">
<path d="M15.3887 4.49902H21.3877M15.3887 4.49902C15.3887 3.79906 17.3826 2.49134 17.8883 2M15.3887 4.49902C15.3887 5.19898 17.3826 6.5067 17.8883 6.99804" stroke="#141B34" stroke-width="1.5" stroke-linecap="round" stroke-linejoin="round"/>
<path d="M17.2747 21.9882C17.223 20.0749 17.3519 19.8446 17.4886 19.419C17.6253 18.9933 18.5814 17.4585 18.9197 16.3619C20.0143 12.814 18.9941 12.0594 17.634 11.0533C16.1258 9.93751 13.2809 9.37244 11.8701 9.49477V3.74357C11.8701 2.78062 11.0893 2 10.1261 2C9.16293 2 8.38213 2.78062 8.38213 3.74357V14.0031L6.3223 11.8236C5.68278 11.1302 4.65504 11.0599 3.95361 11.6907C3.28891 12.2885 3.19191 13.2952 3.73025 14.0089L5.02238 15.7218M8.25279 22L8.23327 20.9496C8.2762 19.7183 7.38035 18.9149 6.21197 17.3087C6.12779 17.193 6.04587 17.0811 5.96611 16.9729M5.96611 16.9729C5.61211 16.4924 5.30064 16.0831 5.02238 15.7218M5.96611 16.9729L7.13535 18.5229M5.96611 16.9729L5.02238 15.7218M5.02238 15.7218C4.4511 14.9801 4.01985 14.441 3.64808 13.9055" stroke="#141B34" stroke-width="1.5" stroke-linecap="round" stroke-linejoin="round"/>
</svg>
