<svg width="24" height="24" viewBox="0 0 24 24" fill="none" xmlns="http://www.w3.org/2000/svg">
<path d="M21 4.5H15M21 4.5C21 3.79977 19.0057 2.49153 18.5 2M21 4.5C21 5.20023 19.0057 6.50847 18.5 7" stroke="#141B34" stroke-width="1.5" stroke-linecap="round" stroke-linejoin="round"/>
<path d="M15.3913 21.9975C15.3395 20.0835 15.4684 19.853 15.6052 19.4272C15.7419 19.0015 16.6982 17.466 17.0366 16.369C18.1313 12.8197 17.111 12.0648 15.7507 11.0583C14.2422 9.94208 11.3968 9.37679 9.98573 9.49918V3.74572C9.98573 2.78239 9.20481 2.00146 8.24148 2.00146C7.27816 2.00146 6.49723 2.78239 6.49723 3.74572V9.96558M6.49774 21.9983V20.9849C6.43328 20.0405 5.49529 18.923 4.32672 17.3162C3.12509 15.5755 2.86688 14.6968 3.05591 13.8843C3.15329 13.469 3.40594 12.7827 4.64647 11.6099L6.49723 9.96558M6.49723 14.0318V9.96558" stroke="#141B34" stroke-width="1.5" stroke-linecap="round" stroke-linejoin="round"/>
</svg>
