<svg width="24" height="24" viewBox="0 0 24 24" fill="none" xmlns="http://www.w3.org/2000/svg">
<path d="M18.4952 7.99081V2M18.4952 7.99081C17.7952 7.99081 16.4874 5.99956 15.9961 5.49464M18.4952 7.99081C19.1951 7.99081 20.5029 5.99956 20.9942 5.49464" stroke="#141B34" stroke-width="1.5" stroke-linecap="round" stroke-linejoin="round"/>
<path d="M6.50501 13.4972V3.46817C6.50501 2.64654 7.17185 1.98047 7.99444 1.98047C8.81702 1.98047 9.48386 2.64653 9.48386 3.46817V8.67026M9.48386 8.67026V10.9939M9.48386 8.67026C10.2888 7.55183 12.0914 7.92435 12.475 9.66321C12.4814 9.69208 12.4866 9.72116 12.4908 9.7504M12.5059 10.9899V9.98699C12.5059 9.90792 12.502 9.82861 12.4908 9.7504M12.4908 9.7504C12.984 8.40004 15.495 8.90875 15.495 10.8433M15.495 10.8433V11.9893M15.495 10.8433C15.8989 9.35276 18.5508 10.3945 18.4934 12.1369V15.3154C18.4904 17.0414 18.2023 18.293 17.1762 19.3224C16.2281 20.4542 16.4511 21.0878 16.4275 21.9841M6.50501 8.97292C5.18608 10.1668 3.6891 11.7983 3.49797 12.1847C2.60866 13.5368 2.92494 14.5977 4.18877 16.3999C5.1293 17.7411 6.39077 19.2358 6.45686 19.3106C7.12946 20.072 6.99764 20.6782 6.99764 21.9731" stroke="#141B34" stroke-width="1.5" stroke-linecap="round"/>
</svg>
