<svg width="24" height="24" viewBox="0 0 24 24" fill="none" xmlns="http://www.w3.org/2000/svg">
<path d="M7.97675 9.48634L5.66736 7.50817C4.14422 6.19798 4.13913 4.29657 3.97656 3.01465C5.64291 3.09373 6.93365 3.24459 8.05769 4.19409L9.23356 5.53001L10.5061 6.95868M19.4475 18.4132L16.4828 15.4134M14.0118 18.4132C14.0344 18.141 14.2125 17.4352 15.0311 16.679C15.7653 16.0005 17.3579 14.3745 18.0735 13.6694C18.4788 13.2701 19.1434 12.9898 19.4475 12.9904M15.5585 12.8032L16.8952 14.282M13.6665 14.4315L15.1607 15.745M20.4518 17.9754C21.2822 17.977 21.9913 18.5903 21.9898 19.4202C21.9882 20.25 21.2822 20.9776 20.4518 20.9761C19.6214 20.9745 18.981 20.2443 18.9826 19.4145C19.0362 18.5887 19.647 18.0865 20.4518 17.9754Z" stroke="#141B34" stroke-width="1.5" stroke-linecap="round" stroke-linejoin="round"/>
<path d="M4.58519 18.3876L7.54316 15.4953M4.55083 12.9817C4.82328 13.0038 5.58282 13.1857 6.26326 14.0357C6.88797 14.8161 8.57297 16.3252 9.27987 17.039C9.68028 17.4433 9.96031 18.0837 9.96031 18.3876M7.25376 14.2245L15.4927 4.65875C16.8334 3.16263 18.7071 3.12994 19.9928 2.99268C19.881 4.65605 19.7048 5.94273 18.7327 7.04717L8.53885 15.921M4.99544 19.4934C4.99544 20.3233 4.32227 20.996 3.49186 20.996C2.66146 20.996 1.98828 20.3233 1.98828 19.4934C1.98828 18.6636 2.66146 17.9908 3.49186 17.9908C4.32227 17.9908 4.99544 18.6636 4.99544 19.4934Z" stroke="#141B34" stroke-width="1.5" stroke-linecap="round" stroke-linejoin="round"/>
</svg>
