<svg width="24" height="24" viewBox="0 0 24 24" fill="none" xmlns="http://www.w3.org/2000/svg">
<path d="M22 18C21.8011 18.6891 21.4991 19.2323 21.0408 19.682C19.6974 21 17.5354 21 13.2113 21H11.1729C6.84873 21 4.68667 21 3.34333 19.682C2 18.364 2 16.2426 2 12C2 7.75736 2 5.63604 3.34333 4.31802C4.68667 3 6.84873 3 11.1729 3H13.2113C17.5354 3 19.6974 3 21.0408 4.31802C21.4991 4.76771 21.8011 5.31092 22 5.99999" stroke="#141B34" stroke-width="1.5" stroke-linecap="round"/>
<path d="M6.5 3.5V20.5" stroke="#141B34" stroke-width="1.5" stroke-linejoin="round"/>
<path d="M19.6234 12.0025C19.6234 12.6586 20.1554 13.1906 20.8115 13.1906C21.4677 13.1906 21.9996 12.6586 21.9996 12.0025C21.9996 11.3463 21.4677 10.8144 20.8115 10.8144C20.1554 10.8144 19.6234 11.3463 19.6234 12.0025ZM19.6234 12.0025L10.0254 12.0064M12.385 8.52075L13.5067 8.56431C13.9096 8.57996 14.2637 8.8361 14.4047 9.21389L15.4367 12.0042M14.194 15.4925L15.3157 15.449C15.7187 15.4333 16.0728 15.1772 16.2138 14.7994L17.2313 12.0035" stroke="#141B34" stroke-width="1.5" stroke-linecap="round" stroke-linejoin="round"/>
</svg>
