<svg width="24" height="24" viewBox="0 0 24 24" fill="none" xmlns="http://www.w3.org/2000/svg">
<path d="M19 12V8C19 5.17157 19 3.75736 18.1213 2.87868C17.2426 2 15.8284 2 13 2H9C6.17157 2 4.75736 2 3.87868 2.87868C3 3.75736 3 5.17157 3 8V16C3 18.8284 3 20.2426 3.87868 21.1213C4.75736 22 6.17157 22 9 22H11" stroke="#141B34" stroke-width="1.5" stroke-linecap="round" stroke-linejoin="round"/>
<path d="M14.5 2H7.5C7.5 3.41421 7.5 4.12132 7.93934 4.56066C8.37868 5 9.08579 5 10.5 5H11.5C12.9142 5 13.6213 5 14.0607 4.56066C14.5 4.12132 14.5 3.41421 14.5 2Z" stroke="#141B34" stroke-width="1.5" stroke-linecap="round" stroke-linejoin="round"/>
<path d="M7 15H11M7 11H15" stroke="#141B34" stroke-width="1.5" stroke-linecap="round" stroke-linejoin="round"/>
<path d="M15.7367 21.6527L14 22L14.3473 20.2633C14.4179 19.9106 14.5913 19.5866 14.8456 19.3323L18.9111 15.2668C19.2668 14.9111 19.8437 14.9111 20.1995 15.2668L20.7332 15.8005C21.0889 16.1563 21.0889 16.7332 20.7332 17.0889L16.6677 21.1544C16.4134 21.4087 16.0894 21.5821 15.7367 21.6527Z" stroke="#141B34" stroke-width="1.5" stroke-linecap="round" stroke-linejoin="round"/>
</svg>
