<svg width="24" height="24" viewBox="0 0 24 24" fill="none" xmlns="http://www.w3.org/2000/svg">
<path d="M19.0051 10.0053V6.50404C19.0051 4.01788 16.9823 2.00244 14.4869 2.00244C11.9916 2.00244 9.96875 4.01788 9.96875 6.50404V10.0053" stroke="#141B34" stroke-width="1.5" stroke-linecap="round"/>
<path d="M14.4883 9.00493V7.50439" stroke="#141B34" stroke-width="1.5" stroke-linecap="round"/>
<path d="M2.16788 11.1287L6.65067 16.9031C6.68911 16.9526 6.71105 17.0129 6.71341 17.0754L6.80321 19.4597C6.83442 20.2886 7.41062 20.9976 8.21782 21.2004L8.46537 21.2626C12.447 22.2629 16.6181 22.2421 20.5895 21.2021C21.3669 20.9985 21.9147 20.3062 21.932 19.5056L21.9925 16.714C22.0779 12.7816 20.8047 11.9344 20.1819 11.3633C18.7404 10.0418 16.5952 9.72394 14.5352 9.72394C10.9628 9.72394 9.2429 10.7396 8.44444 11.4302C8.26913 11.5818 8.01619 11.6182 7.81637 11.5004L3.84206 9.15839C3.49648 8.95474 3.05306 9.03661 2.80366 9.35011L2.17375 10.1419C1.94429 10.4304 1.94187 10.8375 2.16788 11.1287Z" stroke="#141B34" stroke-width="1.5" stroke-linecap="round" stroke-linejoin="round"/>
</svg>
