<svg width="24" height="24" viewBox="0 0 24 24" fill="none" xmlns="http://www.w3.org/2000/svg">
<path d="M3 3.00003C5.19762 2.9479 6.27169 2.88304 7 4.49323M7 4.49323C7.55725 3.24131 8.3892 2.88518 11 3.00003M7 4.49323V18.9276M7 18.9276C7.23098 20.6657 8.13564 21.0813 11 20.9185M7 18.9276C6.69648 20.7092 5.77433 21.1517 3 20.9185M4 11.9593H10" stroke="#141B34" stroke-width="1.5" stroke-linecap="round" stroke-linejoin="round"/>
<path d="M20.9729 15.9408V20.4204M20.9729 15.9408C21.02 15.1214 21.0218 14.4972 20.9231 13.9877C20.6905 12.7868 19.4318 12.0631 18.2138 11.9159C17.0481 11.775 16.1125 12.0742 15.1659 13.4492M20.9729 15.9408L18.1335 15.9408C17.6974 15.9408 17.2573 15.9618 16.8371 16.0782C14.2683 16.7902 14.4566 20.3817 17.0329 20.8243C17.3191 20.8735 17.6113 20.8946 17.901 20.8817C18.5776 20.8516 19.2018 20.5257 19.7376 20.1127C20.3651 19.6288 20.9729 18.9533 20.9729 17.9317V15.9408Z" stroke="#141B34" stroke-width="1.5" stroke-linecap="round" stroke-linejoin="round"/>
</svg>
