<svg width="24" height="24" viewBox="0 0 24 24" fill="none" xmlns="http://www.w3.org/2000/svg">
<path d="M7.51695 14.0085V6.00101C7.51515 5.17095 8.1451 4.50035 8.97516 4.50035C9.80396 4.50035 10.5 5.17546 10.5 6.00425M10.5 6.00425V10.4998M10.5 6.00425V4.01678C10.5 3.18798 11.1719 2.51611 12.0007 2.51611C12.8307 2.51611 13.5031 3.18996 13.5013 4.02001V10.4931M16.5027 11.4962V6.00425C16.5044 5.17419 15.8321 4.50035 15.002 4.50035C14.1732 4.50035 13.5013 5.17222 13.5013 6.00101M16.5027 9.64383C17.3092 9.52285 19.2948 9.64383 19.4978 11.5009V15.1628C19.4978 16.5235 19.6013 18.1606 18.4353 19.5528C17.7357 20.5938 16.2416 21.1635 16.2416 21.1635C14.7017 21.6719 13.3076 21.4666 12.3952 21.4998C11.3596 21.5375 10.651 21.5411 9.78303 21.3485C9.78303 21.3485 7.80341 21.0107 6.54469 18.8835C5.57803 17.2498 3.06469 14.9491 4.36969 12.8708C5.21161 11.5299 6.87464 10.0631 7.51695 9.50205" stroke="#141B34" stroke-width="1.5" stroke-linecap="round"/>
</svg>
