<svg width="24" height="24" viewBox="0 0 24 24" fill="none" xmlns="http://www.w3.org/2000/svg">
<path d="M7.50775 13.4658L7.48949 5.01519C7.4877 4.18592 8.16009 3.51272 8.99015 3.51272C9.81894 3.51272 10.4908 4.18395 10.4908 5.01195M10.4908 5.01195V9.99194M10.4908 5.01195L10.4908 3.48361C10.4908 2.6556 11.1627 1.98438 11.9915 1.98438C12.8215 1.98438 13.4939 2.65758 13.4921 3.48684L13.4921 10.9966M16.4935 11.984V10.1312M16.4935 10.1312V5.46918C16.4952 4.63992 15.8229 3.96672 14.9928 3.96672C14.164 3.96672 13.4921 4.63794 13.4921 5.46595M16.4935 10.1312C17.3 10.0103 19.2723 10.1312 19.4956 11.9886V15.6704C19.4956 17.0298 19.2658 18.1297 17.8765 19.7272C17.3611 20.4024 17.4326 21.0811 17.4326 21.9883M7.49807 8.98553C6.86098 9.54148 5.24978 11.0642 4.34657 12.4419C3.09209 14.3553 5.56979 16.849 6.59499 18.2384C8.11126 20.0511 8.01001 20.0006 8.01001 21.9815" stroke="#141B34" stroke-width="1.5" stroke-linecap="round"/>
</svg>
