<svg width="24" height="24" viewBox="0 0 24 24" fill="none" xmlns="http://www.w3.org/2000/svg">
<path d="M17.8922 21.9843C17.8405 20.0711 17.9694 19.8407 18.1061 19.4151C18.2428 18.9895 19.1991 17.4546 19.5375 16.358C20.6323 12.8101 19.6119 12.0555 18.2516 11.0494C16.7431 9.93361 13.8978 9.36854 12.4867 9.49088V3.73966C12.4867 2.77672 11.7058 1.99609 10.7424 1.99609C9.77911 1.99609 8.99818 2.77672 8.99818 3.73966V13.9992L6.93801 11.8197C6.29839 11.1263 5.27048 11.056 4.56894 11.6868C3.90413 12.2846 3.80711 13.2913 4.34554 14.005L5.63789 15.7179M8.86883 21.9961L8.8493 20.9457C8.89224 19.7144 7.99624 18.911 6.82767 17.3048C6.74347 17.1891 6.66154 17.0772 6.58177 16.969M6.58177 16.969C6.22771 16.4885 5.91619 16.0792 5.63789 15.7179M6.58177 16.969L7.7512 18.519M6.58177 16.969L5.63789 15.7179M5.63789 15.7179C5.06651 14.9762 4.63519 14.4371 4.26336 13.9016" stroke="#141B34" stroke-width="1.5" stroke-linecap="round" stroke-linejoin="round"/>
</svg>
