<svg width="24" height="24" viewBox="0 0 24 24" fill="none" xmlns="http://www.w3.org/2000/svg">
<path d="M7.50447 13.9327V9.46917M7.50447 9.46917V3.95421C7.50447 3.13464 8.18777 2.47412 9.00773 2.47412C9.8277 2.47412 10.4738 3.13464 10.4738 3.95421V7.95004M7.50447 9.46917C6.18974 10.66 4.77497 12.1643 4.58445 12.5496C3.69797 13.8984 3.79089 14.5513 4.77881 16.2017C5.6179 17.6034 6.74635 19.159 6.81223 19.2336C7.48268 19.9931 7.34938 19.9932 8.32115 20.7064C9.18892 21.3083 10.9889 21.7278 15.2086 21.3083C18.6462 20.7776 19.4698 17.7783 19.4519 16.345V12.8054C19.6661 9.86347 18.4358 9.73068 16.2019 9.44112M10.4738 7.95004V10.4735M10.4738 7.95004C11.0313 7.04138 13.0559 7.40859 13.4506 9.12447M13.4862 10.4695V9.46917C13.4862 9.3903 13.4823 9.31119 13.4711 9.23317M13.4506 9.12447C13.4522 9.13169 13.4539 9.13893 13.4555 9.1462C13.4618 9.17499 13.467 9.20401 13.4711 9.23317M13.4506 9.12447C13.4547 9.15943 13.4615 9.19567 13.4711 9.23317M13.4506 9.12447C13.3104 7.9285 16.3424 8.22005 16.4658 10.3233V11.4665" stroke="#141B34" stroke-width="1.5" stroke-linecap="round"/>
</svg>
