<svg width="24" height="24" viewBox="0 0 24 24" fill="none" xmlns="http://www.w3.org/2000/svg">
<path d="M8.98571 22.0258L8.93835 21.253L8.76406 20.5083C8.21198 18.3229 7.43987 18.081 6.21158 16.5147C5.65706 15.8075 4.65559 14.847 3.70824 13.4935C3.077 12.5916 3.86299 10.4362 5.7833 11.0612C6.10296 11.1652 6.37166 11.3736 6.60989 11.6025L8.47297 13.4935C8.45772 10.9613 8.49297 4.97797 8.45184 3.39604C8.41071 1.81412 11.2802 1.30507 11.4493 3.46794V9.06205M11.4493 9.06205V9.99977M11.4493 9.06205C12.3876 7.87258 14.1631 7.83072 14.4215 9.82199M14.4215 9.82199C14.4636 10.1462 14.4668 10.5249 14.4215 10.9621M14.4215 9.82199C14.8957 8.43082 17.0545 8.97456 17.469 10.5937M17.469 10.5937C17.5673 10.9776 17.4295 11.4793 17.469 11.992M17.469 10.5937C17.7382 9.81337 20.7612 9.85363 20.4782 12.8683L20.4428 15.5732C20.4428 17.1783 20.2288 17.9225 19.6157 18.7116C19.3892 19.003 19.0761 19.2945 18.8571 19.614C18.6863 19.8633 18.5761 20.1533 18.5281 20.4517C18.4613 20.8673 18.4524 21.4426 18.4731 21.9936" stroke="#141B34" stroke-width="1.5" stroke-linecap="round" stroke-linejoin="round"/>
</svg>
