<svg width="24" height="24" viewBox="0 0 24 24" fill="none" xmlns="http://www.w3.org/2000/svg">
<path d="M7 7.99483H6.17647C4.67907 7.99483 3.93037 7.99483 3.46518 7.55587C3 7.1169 3 6.4104 3 4.99741C3 3.58442 3 2.87792 3.46518 2.43896C3.93037 2 4.67907 2 6.17647 2H17.8235C19.3209 2 20.0696 2 20.5348 2.43896C21 2.87792 21 3.58442 21 4.99741C21 6.4104 21 7.1169 20.5348 7.55587C20.0696 7.99483 19.3209 7.99483 17.8235 7.99483H16.5" stroke="#141B34" stroke-width="1.5" stroke-linecap="round" stroke-linejoin="round"/>
<path d="M18.0296 21.9904C17.9799 20.2765 18.1199 20.0509 18.2514 19.6696C18.3828 19.2884 19.1984 17.9347 19.5236 16.9524C20.576 13.7743 19.7712 13.2368 18.5104 12.2713C17.0658 11.1651 14.6208 10.6023 13.0946 10.7238V6.63369C13.0946 5.7711 12.2692 5.02051 11.3432 5.02051C10.4172 5.02051 9.59704 5.7711 9.59704 6.63369V14.3856L7.62568 12.7082C7.0938 12.1708 6.24275 12.22 5.62664 12.6268C5.43494 12.7533 5.27952 12.9309 5.18075 13.1383C4.90045 13.7269 4.98135 14.3932 5.42292 14.9386L6.54372 16.3834M9.52799 21.9962V21.0496C9.60063 19.8873 8.54484 18.9538 7.42153 17.515M7.42153 17.515C7.34059 17.4113 7.49821 17.612 7.42153 17.515ZM7.42153 17.515C7.08118 17.0846 6.81124 16.707 6.54372 16.3834M7.42153 17.515L8.52852 18.8688M7.42153 17.515L6.54372 16.3834" stroke="#141B34" stroke-width="1.5" stroke-linecap="round" stroke-linejoin="round"/>
</svg>
