<svg width="24" height="24" viewBox="0 0 24 24" fill="none" xmlns="http://www.w3.org/2000/svg">
<path d="M7.61361 13.5398V8.96626M7.61361 8.96626V3.42183C7.61361 2.6002 8.32927 1.99707 9.16814 1.99707C10.007 1.99707 10.6791 2.6002 10.6791 3.42183L10.7471 8.49448M7.61361 8.96626C6.26858 10.1601 4.797 11.5419 4.60209 11.9283C3.69518 13.2804 3.76651 14.4922 5.3102 16.5626C6.29445 17.8827 7.46125 19.2279 7.53369 19.2978C8.33451 20.0708 8.11751 21.1164 8.11751 21.9931M10.7471 8.49448V11.0243M10.7471 8.49448C11.4636 7.6525 13.3888 7.95167 13.7925 9.67186M13.829 11.0203V10.0174C13.829 9.93836 13.8249 9.85905 13.8135 9.78084M13.7925 9.67186C13.7942 9.6791 13.7958 9.68637 13.7975 9.69365C13.804 9.72252 13.8093 9.7516 13.8135 9.78084M13.7925 9.67186C13.7967 9.70692 13.8036 9.74324 13.8135 9.78084M13.7925 9.67186C14.0206 8.49448 16.751 8.76517 16.8772 10.8737V12.0198M17.8575 21.9885V20.9494C17.8965 19.7228 18.9349 19.3517 19.5516 18.0119C20.1753 16.7796 19.9865 13.6501 19.9865 12.1515C20.0135 11.7961 19.7708 10.7617 18.6449 10.3703C18.291 10.2025 17.4956 9.96154 16.8106 10.444" stroke="#141B34" stroke-width="1.5" stroke-linecap="round"/>
</svg>
