<svg width="24" height="24" viewBox="0 0 24 24" fill="none" xmlns="http://www.w3.org/2000/svg">
<path d="M7.06641 12C7.06641 12 7.06616 15 9.99951 16" stroke="#141B34" stroke-width="1.5" stroke-linecap="round" stroke-linejoin="round"/>
<path d="M22 21.3733C20.5547 22.1843 18.7056 22.1843 17.2604 21.3733C16.3889 20.8756 15.2412 20.8756 14.3698 21.3733C14.3698 21.3733 14.3486 21.3733 14.3486 21.3917C12.9033 22.2028 11.0542 22.2028 9.63019 21.3917C8.73752 20.894 7.61105 20.894 6.73964 21.3917M6.73964 21.3733C5.29436 22.1843 3.44527 22.1843 2 21.3733" stroke="#141B34" stroke-width="1.5" stroke-linecap="round"/>
<path d="M11 7C11 12.2467 15.2533 16.5 20.5 16.5H22" stroke="#141B34" stroke-width="1.5" stroke-linecap="round"/>
<path d="M6.88792 6.92363C7.25992 7.13963 7.97992 7.67963 9.17992 7.46363C10.6199 7.01963 11.8009 6.64822 12.7199 7.19963C13.6199 7.73963 14.2199 8.21963 14.5799 7.97963C14.7578 8.01521 15.0555 7.33341 14.9939 6.35963C14.9517 5.69132 14.7207 4.88547 14.2079 4.07963C13.9079 3.65963 13.7148 3.51235 13.6799 3.47963C11.7361 1.6542 8.59877 1.35463 5.81992 3.47963C2.69992 5.99963 2.27992 9.17963 2.09992 10.7396C1.79992 13.7396 2.27992 17.1596 2.75992 19.0196" stroke="#141B34" stroke-width="1.5" stroke-linecap="round"/>
</svg>
