<svg width="24" height="24" viewBox="0 0 24 24" fill="none" xmlns="http://www.w3.org/2000/svg">
<path d="M7.4537 13.9975V9.44591M7.4537 9.44591L7.49287 6.0832C7.49287 5.12229 8.12326 4.49126 8.89491 4.45825C9.83513 4.41802 10.5003 5.02274 10.5003 5.98365L10.5218 10.4415L10.5003 4.04606C10.5003 3.08515 11.1445 2.4751 11.994 2.4751C12.8435 2.4751 13.4936 3.03756 13.4936 3.99846V6.94027L13.5059 10.4847V9.48435C13.5059 9.42278 13.5035 9.36107 13.4971 9.29985M7.4537 9.44591L5.61432 11.2862C5.11961 11.8535 4.53643 12.5252 4.35091 12.8625C3.96106 13.5714 3.90283 14.1969 4.13382 14.9338C4.39498 15.5973 4.62961 16.0735 5.10616 16.6946C5.45459 17.1488 5.79193 17.7953 6.14398 18.2467C6.65111 18.897 6.92818 19.3089 7.23476 19.7088C7.26799 19.7521 7.29995 19.7914 7.33096 19.8273C7.76506 20.3309 8.37246 20.6578 8.95643 20.9766L9.17979 21.0985C9.94351 21.3462 11.011 21.5582 12.7524 21.4462C14.033 21.4474 15.4991 21.5821 16.4695 21.0491C16.5114 21.026 16.554 21.0043 16.5982 20.9861L16.8999 20.8615C18.3127 20.1552 19.2982 18.651 19.4474 17.0808C19.5153 16.3668 19.4881 15.5861 19.4894 14.7994V11.5618C19.3273 10.3385 18.6929 9.54898 16.2557 9.50272M13.4971 9.29985C13.4953 9.28264 13.4932 9.26547 13.4908 9.24835M13.4971 9.29985C13.5035 9.32862 13.4866 9.21919 13.4908 9.24835M13.4908 9.24835C13.4908 8.05821 15.5444 8.25678 16.2557 9.50272M16.4931 11.4817V10.3385C16.4802 10.0226 16.3929 9.74314 16.2557 9.50272" stroke="#141B34" stroke-width="1.5" stroke-linecap="round" stroke-linejoin="round"/>
</svg>
