<svg width="24" height="24" viewBox="0 0 24 24" fill="none" xmlns="http://www.w3.org/2000/svg">
<path d="M8.01496 22.0187V21.1549C8.01496 20.6906 8.0017 20.2097 7.77731 19.8033C7.53321 19.3612 7.14696 18.9897 6.63949 18.3376C6.28721 17.8849 5.9335 17.4316 5.58484 16.9761C5.10797 16.3531 4.59989 15.5771 4.28726 14.9088C3.94368 14.1742 3.8822 13.2866 4.2723 12.5757C4.45795 12.2374 4.76197 11.803 5.257 11.2341L7.49479 8.92076M7.49479 13.4592V8.92076M7.49479 8.92076L7.45611 5.21789C7.45611 4.25419 8.14518 3.47295 8.99519 3.47295C9.8452 3.47295 10.4605 4.09993 10.4605 5.06364L10.5613 10.0169L10.4605 3.76252C10.4605 2.79881 11.1496 2.01758 11.9996 2.01758C12.8496 2.01758 13.5387 2.79882 13.5387 3.76252L13.5 7.46539L13.5123 11.0202V10.0169C13.5123 9.95513 13.5099 9.89324 13.5035 9.83184M13.5035 9.83184C13.5017 9.81458 13.4996 9.79736 13.4972 9.78019M13.5035 9.83184C13.5099 9.86069 13.493 9.75094 13.4972 9.78019M13.4972 9.78019C13.4972 8.58659 15.5521 8.78573 16.2639 10.0353M16.5014 12.02V10.8735C16.4885 10.5566 16.4012 10.2764 16.2639 10.0353M16.2639 10.0353C18.7027 10.0817 19.3375 10.8735 19.4997 12.1004V15.3474C19.4968 17.0741 19.2087 18.3261 18.1825 19.356C17.2345 20.4882 17.4575 21.122 17.4339 22.0187" stroke="#141B34" stroke-width="1.5" stroke-linecap="round" stroke-linejoin="round"/>
</svg>
