<svg width="24" height="24" viewBox="0 0 24 24" fill="none" xmlns="http://www.w3.org/2000/svg">
<path d="M9.54297 14.4569L14.456 9.54395" stroke="#141B34" stroke-width="1.5" stroke-linecap="round"/>
<path d="M21.0357 16.0293H19.032M16.0264 21.0397V19.0355" stroke="#141B34" stroke-width="1.5" stroke-linecap="round" stroke-linejoin="round"/>
<path d="M3.00195 8.01234H5.00568M8.01128 3.00195V5.00611" stroke="#141B34" stroke-width="1.5" stroke-linecap="round" stroke-linejoin="round"/>
<path d="M15.1271 12.5893C16.2671 13.3289 17.4358 13.1316 18.2901 12.2771L21.2845 9.2821C22.2626 8.30376 22.2626 6.71756 21.2845 5.73922L18.2992 2.75329C17.321 1.77495 15.7352 1.77495 14.757 2.75329L11.7627 5.7483C11.0609 6.45019 10.6557 7.78422 11.4857 8.9306" stroke="#141B34" stroke-width="1.5" stroke-linecap="round" stroke-linejoin="round"/>
<path d="M12.588 15.1289C13.3275 16.2692 13.1302 17.4382 12.2759 18.2926L9.28154 21.2876C8.3034 22.266 6.71754 22.266 5.73941 21.2876L2.75411 18.3017C1.77597 17.3233 1.77597 15.7371 2.75411 14.7588L5.74849 11.7638C6.45023 11.0619 7.78398 10.6566 8.93012 11.4867" stroke="#141B34" stroke-width="1.5" stroke-linecap="round" stroke-linejoin="round"/>
</svg>
