<svg width="24" height="24" viewBox="0 0 24 24" fill="none" xmlns="http://www.w3.org/2000/svg">
<path d="M16.9504 8.3183C17.1981 7.68602 16.5076 6.92738 15.1267 5.41011C13.6702 3.80984 12.9201 3.00959 12 3C11.0799 3.00959 10.3298 3.80984 8.87331 5.41011C7.49239 6.92738 6.80193 7.68602 7.04964 8.3183C7.05868 8.34138 7.06851 8.36414 7.0791 8.38653C7.34928 8.95795 8.24477 8.99712 10 8.9998V15.5C10 15.965 10 16.1975 10.0511 16.3882C10.1898 16.9059 10.5941 17.3102 11.1118 17.4489C11.3025 17.5 11.535 17.5 12 17.5C12.4649 17.5 12.6974 17.5 12.8882 17.4489C13.4058 17.3102 13.8102 16.9059 13.9489 16.3882C14 16.1975 14 15.965 14 15.5V8.9998C15.7552 8.99712 16.6507 8.95796 16.9209 8.38653C16.9315 8.36414 16.9413 8.34138 16.9504 8.3183Z" stroke="#141B34" stroke-width="1.5" stroke-linecap="round" stroke-linejoin="round"/>
<path d="M5 21H19" stroke="#141B34" stroke-width="1.5" stroke-linecap="round" stroke-linejoin="round"/>
</svg>
