<svg width="24" height="24" viewBox="0 0 24 24" fill="none" xmlns="http://www.w3.org/2000/svg">
<path d="M15.0111 11.5C15.0111 9.61438 15.0111 8.67157 14.4246 8.08579C13.8382 7.5 12.8943 7.5 11.0066 7.5H9.00442C7.11672 7.5 6.17287 7.5 5.58644 8.08579C5 8.67157 5 9.61438 5 11.5V17C5 17.9293 5 18.394 5.07694 18.7804C5.39292 20.3671 6.63468 21.6075 8.2232 21.9231C8.53349 21.9848 8.8942 21.997 9.50497 21.9994" stroke="#141B34" stroke-width="1.5" stroke-linecap="round" stroke-linejoin="round"/>
<path d="M13.5097 7.5V5.5C13.5097 4.09554 13.5097 3.39331 13.1722 2.88886C13.0262 2.67048 12.8385 2.48298 12.6198 2.33706C12.1149 2 11.4119 2 10.0058 2C8.59981 2 7.8968 2 7.3918 2.33706C7.17317 2.48298 6.98547 2.67048 6.83939 2.88886C6.50195 3.39331 6.50195 4.09554 6.50195 5.5V7.5" stroke="#141B34" stroke-width="1.5" stroke-linecap="round" stroke-linejoin="round"/>
<path d="M9.5 4.5H10.5" stroke="#141B34" stroke-width="1.5" stroke-linecap="round" stroke-linejoin="round"/>
<path d="M13.6429 18.4255C13.6429 18.4255 14.0204 18.5407 14.5446 19.3087C14.5446 19.3087 15.3134 17.6507 16.3792 17.0747M18.9987 18.0162C18.9987 20.2161 17.2134 21.9994 15.0111 21.9994C12.8088 21.9994 11.0234 20.2161 11.0234 18.0162C11.0234 15.8163 12.8088 14.033 15.0111 14.033C17.2134 14.033 18.9987 15.8163 18.9987 18.0162Z" stroke="#141B34" stroke-width="1.5" stroke-linecap="round" stroke-linejoin="round"/>
</svg>
