<svg width="24" height="24" viewBox="0 0 24 24" fill="none" xmlns="http://www.w3.org/2000/svg">
<path d="M14.5 8.5C14.5 5.73858 12.2614 3.5 9.5 3.5C6.73858 3.5 4.5 5.73858 4.5 8.5C4.5 11.2614 6.73858 13.5 9.5 13.5C12.2614 13.5 14.5 11.2614 14.5 8.5Z" stroke="#141B34" stroke-width="1.5" stroke-linecap="round" stroke-linejoin="round"/>
<path d="M16.5 20.5C16.5 16.634 13.366 13.5 9.5 13.5C5.63401 13.5 2.5 16.634 2.5 20.5" stroke="#141B34" stroke-width="1.5" stroke-linecap="round" stroke-linejoin="round"/>
<path d="M17.5 10V8.5C17.5 7.67157 18.1716 7 19 7C19.8284 7 20.5 7.67157 20.5 8.5V10" stroke="#141B34" stroke-width="1.5" stroke-linecap="round" stroke-linejoin="round"/>
<path d="M17.5 10H20.5C21.0523 10 21.5 10.4477 21.5 11V13C21.5 13.5523 21.0523 14 20.5 14H17.5C16.9477 14 16.5 13.5523 16.5 13V11C16.5 10.4477 16.9477 10 17.5 10Z" stroke="#141B34" stroke-width="1.5" stroke-linecap="round" stroke-linejoin="round"/>
</svg>
