<svg width="24" height="24" viewBox="0 0 24 24" fill="none" xmlns="http://www.w3.org/2000/svg">
<path d="M6.99347 13.4632L6.39849 10.0135M6.39849 10.0135L5.33869 3.86881C5.18661 2.88561 5.7174 2.18137 6.52756 1.98297C7.34736 1.78222 8.19841 2.42728 8.31087 3.13202L10.0055 10.0135L11.6526 3.30823C11.8168 2.31575 12.7607 1.87414 13.5805 2.0749C14.3906 2.2733 14.825 2.88561 14.6729 3.86881L13.4952 10.5008M6.39849 10.0135C5.7134 10.6965 4.61108 11.9245 4.26446 12.6996C4.17889 12.8909 4.11129 13.0913 4.06315 13.2952C3.83348 14.2681 4.39261 15.3715 5.96733 17.4462C6.5978 18.1853 7.70717 19.5444 7.77358 19.7664C7.7802 19.7886 8.08537 20.1599 8.00699 21.9415M13.8888 8.28466C14.5332 7.81812 16.2621 7.64934 16.9375 9.41681C16.9614 9.54545 16.9996 9.64687 17.0125 9.77453M17.0125 9.77453C17.0712 10.3519 17.0125 10.9039 17.0125 10.9735M17.0125 9.77453C17.3963 9.02475 19.6394 9.94429 19.9304 12.6675C20.1828 14.0407 19.825 15.9103 19.6085 16.5697C19.2867 17.55 18.3967 19.072 18.1968 19.2997C17.3649 20.4271 17.4508 21.3928 17.4508 21.9265" stroke="#141B34" stroke-width="1.5" stroke-linecap="round" stroke-linejoin="round"/>
</svg>
