<svg width="24" height="24" viewBox="0 0 24 24" fill="none" xmlns="http://www.w3.org/2000/svg">
<path d="M2 2L21.9753 22" stroke="#141B34" stroke-width="1.5" stroke-linecap="round"/>
<path d="M16.8497 16.8678C16.7205 17.8062 16.4646 18.4669 15.9576 18.9745C14.9337 19.9997 13.2858 19.9997 9.9901 19.9997H8.99134C5.69559 19.9997 4.04771 19.9997 3.02386 18.9745C2 17.9494 2 16.2995 2 12.9997V10.9997C2 7.69983 2 6.04991 3.02386 5.02478C3.36638 4.68184 3.77873 4.45363 4.29925 4.30176" stroke="#141B34" stroke-width="1.5" stroke-linecap="round"/>
<path d="M8.23438 4.00052C8.47626 4 8.72805 4 8.99028 4H9.98904C13.2848 4 14.9327 4 15.9565 5.02513C16.9804 6.05025 16.9804 7.70017 16.9804 11V12.7574M16.9804 9.23142L19.2999 7.52913C20.771 6.54074 21.447 7.17197 21.6655 7.64847C22.1172 8.92813 21.9749 11.3936 21.9749 14.5417C21.8684 16.555 21.5933 16.7719 21.3118 16.9939L21.3089 16.9963" stroke="#141B34" stroke-width="1.5" stroke-linecap="round" stroke-linejoin="round"/>
</svg>
