<svg width="24" height="24" viewBox="0 0 24 24" fill="none" xmlns="http://www.w3.org/2000/svg">
<path d="M20 22.002V16.0277C20 15.0789 20 14.6045 19.8416 14.2305C19.6413 13.7577 19.2669 13.38 18.7958 13.1757C18.4232 13.0141 17.9488 13.0101 17 13.002C17 18.002 12 20.002 12 20.002C12 20.002 7 18.002 7 13.002C6.06812 13.002 5.60218 13.002 5.23463 13.1542C4.74458 13.3572 4.35523 13.7465 4.15224 14.2366C4 14.6041 4 15.0701 4 16.002V22.002" stroke="#141B34" stroke-width="1.5" stroke-linecap="round" stroke-linejoin="round"/>
<path d="M12 13.4998L14 12.4998V14.4998L12 13.4998ZM12 13.4998L10 12.5V14.5L12 13.4998Z" stroke="#141B34" stroke-width="1.5" stroke-linecap="round" stroke-linejoin="round"/>
<path d="M15.5 6.5V5.5C15.5 3.567 13.933 2 12 2C10.067 2 8.5 3.567 8.5 5.5V6.5C8.5 8.433 10.067 10 12 10C13.933 10 15.5 8.433 15.5 6.5Z" stroke="#141B34" stroke-width="1.5" stroke-linecap="round" stroke-linejoin="round"/>
</svg>
