<svg width="24" height="24" viewBox="0 0 24 24" fill="none" xmlns="http://www.w3.org/2000/svg">
<path d="M3.99805 14.0034V21.9998" stroke="#141B34" stroke-width="1.5" stroke-linecap="round" stroke-linejoin="round"/>
<path d="M3.99805 18.3028L7.95796 19.8481C10.4755 20.8306 11.7344 21.3218 12.6308 20.7702C13.5273 20.2184 13.5273 18.9526 13.5273 16.4207V8.00635" stroke="#141B34" stroke-width="1.5" stroke-linecap="round" stroke-linejoin="round"/>
<path d="M13.5508 2.99919V2.00049" stroke="#141B34" stroke-width="1.5" stroke-linecap="round" stroke-linejoin="round"/>
<path d="M7.07812 8.00592H20.0016M9.34857 6.21045C8.70068 6.8155 8.57269 6.90981 8.39523 7.07585C8.14088 7.31384 8.05386 7.67822 8.14242 8.01451L10.196 15.8125C10.3302 16.3217 10.751 16.7055 11.2719 16.7936C12.7668 17.0464 14.2917 17.0554 15.7861 16.7917C16.2798 16.7045 16.6789 16.3415 16.8109 15.8595L18.9668 7.98756C19.052 7.67676 18.9918 7.33463 18.7675 7.10267C18.5847 6.9137 18.4566 6.8442 17.778 6.21045C17.0255 5.50774 16.3052 4.2396 16.001 3.8546C15.6968 3.46959 15.4628 3.28059 15.0768 3.19333C14.0804 2.96811 13.0461 2.96811 12.0498 3.19333C11.6638 3.28059 11.4647 3.423 11.1256 3.8546C10.7864 4.28619 10.101 5.50774 9.34857 6.21045Z" stroke="#141B34" stroke-width="1.5" stroke-linecap="round" stroke-linejoin="round"/>
</svg>
