<svg width="24" height="24" viewBox="0 0 24 24" fill="none" xmlns="http://www.w3.org/2000/svg">
<path d="M15.9352 4.07178C17.1971 5.54726 17.9695 7.52861 17.9695 9.70698C17.9695 14.2672 14.5848 17.964 10.4095 17.964C8.09001 17.964 6.08701 16.9041 4.72656 15.2194" stroke="#141B34" stroke-width="1.5" stroke-linecap="round"/>
<path d="M16.4678 3.568L13.4065 6.41057C13.3169 6.49379 13.3229 6.63706 13.404 6.72866C14.0811 7.4941 14.0983 9.13818 13.3218 10.1658C12.4957 11.2589 11.2664 11.1105 10.8243 10.883L10.5738 11.5868C10.479 11.853 10.2114 12.0172 9.93097 11.9811L8.28906 11.7696C8.16425 11.7535 8.03913 11.797 7.95123 11.887L5.02981 14.8788L3.63095 16.3739C2.77283 17.291 2.8554 18.7486 3.9537 19.3583C7.42689 21.2865 13.0069 22.3271 17.8928 17.7311C22.4079 13.0651 21.2591 7.40296 19.4813 3.95233C18.8943 2.81308 17.4071 2.69581 16.4678 3.568Z" stroke="#141B34" stroke-width="1.5" stroke-linecap="round" stroke-linejoin="round"/>
</svg>
