<svg width="24" height="24" viewBox="0 0 24 24" fill="none" xmlns="http://www.w3.org/2000/svg">
<path d="M8.99198 4.5C8.99198 5.32843 8.32001 6 7.49111 6C6.6622 6 5.99023 5.32843 5.99023 4.5C5.99023 3.67157 6.6622 3 7.49111 3C8.32001 3 8.99198 3.67157 8.99198 4.5Z" stroke="#141B34" stroke-width="1.5"/>
<path d="M19.999 9C19.4152 9 18.8653 8.72945 18.515 8.26974L17.4876 6.9216C17.3515 6.74297 17.2834 6.65366 17.2172 6.58344C16.6475 5.97966 15.7375 5.82625 14.9961 6.20901" stroke="#141B34" stroke-width="1.5" stroke-linecap="round" stroke-linejoin="round"/>
<path d="M21 17C19.7139 17 18.4893 16.4474 17.6348 15.4816L16.9562 14.7145C15.9744 13.6047 14.6679 12.8574 13.2433 12.5659M10.8671 12.429C10.5571 12.429 10.4021 12.429 10.2584 12.4081C9.0182 12.2283 8.31268 10.81 7.49219 10" stroke="#141B34" stroke-width="1.5" stroke-linecap="round" stroke-linejoin="round"/>
<path d="M12.9962 6.97754L9.90177 8.38886L7.8412 8.25899M6.35611 21.0048V16.3666L6.17048 16.0326L5.1866 15.1235M5.1866 15.1235L3.37324 13.6798C3.13493 13.4901 2.99609 13.2021 2.99609 12.8975V12.8786L4.61113 8.57439L4.68744 8.47039C4.8937 8.1893 5.23147 8.03592 5.57885 8.06561L7.8412 8.25899M5.1866 15.1235L7.8412 8.25899" stroke="#141B34" stroke-width="1.5" stroke-linecap="round" stroke-linejoin="round"/>
</svg>
