<svg width="24" height="24" viewBox="0 0 24 24" fill="none" xmlns="http://www.w3.org/2000/svg">
<path d="M20 13V10.6569C20 9.83935 20 9.4306 19.8478 9.06306C19.6955 8.69552 19.4065 8.40649 18.8284 7.82843L14.0919 3.09188C13.593 2.593 13.3436 2.34355 13.0345 2.19575C12.9702 2.165 12.9044 2.13772 12.8372 2.11401C12.5141 2 12.1614 2 11.4558 2C8.21082 2 6.58831 2 5.48933 2.88607C5.26731 3.06508 5.06508 3.26731 4.88607 3.48933C4 4.58831 4 6.21082 4 9.45584V13M13 2.5V3C13 5.82843 13 7.24264 13.8787 8.12132C14.7574 9 16.1716 9 19 9H19.5" stroke="#141B34" stroke-width="1.5" stroke-linecap="round" stroke-linejoin="round"/>
<path d="M14.5 16H12.5C11.9477 16 11.5 16.4477 11.5 17V18C11.5 18.5523 11.9477 19 12.5 19H13.5C14.0523 19 14.5 19.4477 14.5 20V21C14.5 21.5523 14.0523 22 13.5 22H11.5M4 16.0171L6.45683 18.9466M6.45683 18.9466L9 21.9145M6.45683 18.9466L8.82379 16M6.45683 18.9466L4.02203 22M17.5 16V21C17.5 21.5523 17.9477 22 18.5 22H20" stroke="#141B34" stroke-width="1.5" stroke-linecap="round" stroke-linejoin="round"/>
</svg>
