<svg width="24" height="24" viewBox="0 0 24 24" fill="none" xmlns="http://www.w3.org/2000/svg">
<path d="M3.97593 14.5634L4.62526 14.1702C5.18621 13.8477 5.62752 13.3531 5.8838 12.7598L8.30932 7.14487C8.39678 6.9424 8.51675 6.77357 8.66182 6.63459C9.30314 6.02023 10.4116 6.28042 10.95 6.98604C11.944 8.28885 10.6087 9.52245 10.8908 10.6087L18.6452 6.25433C20.449 5.28214 22.0068 7.86492 20.2138 9.05805L15.6239 11.6083C16.5078 12.7614 18.7494 18.354 15.8769 20.0596C15.7136 20.1566 15.5326 20.2211 15.351 20.2772C15.2342 20.3132 15.1173 20.3495 15.0014 20.3856C14.0998 20.6667 12.395 21.0201 11.2268 20.9184C10.0107 20.8124 9.2486 21.4601 8.30935 22.0001" stroke="#141B34" stroke-width="1.5" stroke-linecap="round" stroke-linejoin="round"/>
<path d="M14.6514 4.47207C14.2541 4.86851 12.5258 4.75414 11.8883 4.67454M14.6514 4.47207C15.0487 4.07563 15.0601 2.13971 14.9803 1.50355M14.6514 4.47207C13.6294 2.70029 9.56594 -0.125921 5.53371 2.70029C3.58518 4.06602 3.31023 4.92671 3.00209 5.50329" stroke="#141B34" stroke-width="1.5" stroke-linecap="round" stroke-linejoin="round"/>
</svg>
