<svg width="24" height="24" viewBox="0 0 24 24" fill="none" xmlns="http://www.w3.org/2000/svg">
<path d="M22 9V15C22 17.8284 22 19.2426 21.1213 20.1213C20.2426 21 18.8284 21 16 21H8C5.17157 21 3.75736 21 2.87868 20.1213C2 19.2426 2 17.8284 2 15V11.0537C2 10.0736 2 9.58357 2.11342 9.18289C2.39716 8.18055 3.18055 7.39716 4.18289 7.11342C4.58357 7 5.07361 7 6.05369 7C6.41967 7 6.60266 7 6.77311 6.97029C7.19545 6.89666 7.58295 6.68927 7.87848 6.37871C7.99776 6.25336 8.29699 5.80451 8.5 5.5C8.89637 4.90544 9.09456 4.60816 9.36549 4.40367C9.53094 4.27879 9.7148 4.18039 9.91048 4.112C10.2309 4 10.5882 4 11.3028 4H13" stroke="#141B34" stroke-width="1.5" stroke-linecap="round" stroke-linejoin="round"/>
<path d="M16 13.5C16 15.7091 14.2091 17.5 12 17.5C9.79086 17.5 8 15.7091 8 13.5C8 11.2909 9.79086 9.5 12 9.5C14.2091 9.5 16 11.2909 16 13.5Z" stroke="#141B34" stroke-width="1.5" stroke-linecap="round" stroke-linejoin="round"/>
<path d="M16 5.5H21M18.5 8V3" stroke="#141B34" stroke-width="1.5" stroke-linecap="round" stroke-linejoin="round"/>
</svg>
