<svg width="24" height="24" viewBox="0 0 24 24" fill="none" xmlns="http://www.w3.org/2000/svg">
<path d="M8.5 2.5C7.57099 2.5 7.10649 2.5 6.71783 2.56156C4.57837 2.90042 2.90042 4.57837 2.56156 6.71783C2.5 7.10649 2.5 7.57099 2.5 8.5M15.5 2.5C16.429 2.5 16.8935 2.5 17.2822 2.56156C19.4216 2.90042 21.0996 4.57837 21.4384 6.71783C21.5 7.10649 21.5 7.57099 21.5 8.5M2.5 15.5C2.5 16.429 2.5 16.8935 2.56156 17.2822C2.90042 19.4216 4.57837 21.0996 6.71783 21.4384C7.10649 21.5 7.57099 21.5 8.5 21.5M15.5 21.5C16.429 21.5 16.8935 21.5 17.2822 21.4384C19.4216 21.0996 21.0996 19.4216 21.4384 17.2822C21.5 16.8935 21.5 16.429 21.5 15.5" stroke="#141B34" stroke-width="1.5" stroke-linecap="round" stroke-linejoin="round"/>
<path d="M6.87868 6.87868C7.75736 6 9.17157 6 12 6C14.8284 6 16.2426 6 17.1213 6.87868C18 7.75736 18 9.17157 18 12C18 14.8284 18 16.2426 17.1213 17.1213C16.2426 18 14.8284 18 12 18C9.17157 18 7.75736 18 6.87868 17.1213C6 16.2426 6 14.8284 6 12C6 9.17157 6 7.75736 6.87868 6.87868Z" stroke="#141B34" stroke-width="1.5" stroke-linecap="round" stroke-linejoin="round"/>
<path d="M6.5 15.5L8.0333 13.8522C8.56719 13.2785 9.43281 13.2785 9.9667 13.8522C10.5259 14.4532 11.4415 14.4204 11.9623 13.7808L13.3711 12.0505C13.9688 11.3165 15.0312 11.3165 15.6289 12.0505L17.7603 14.6678" stroke="#141B34" stroke-width="1.5" stroke-linecap="round" stroke-linejoin="round"/>
<path d="M10 9.48976V9.49976" stroke="#141B34" stroke-width="2" stroke-linecap="round" stroke-linejoin="round"/>
</svg>
