<svg width="24" height="24" viewBox="0 0 24 24" fill="none" xmlns="http://www.w3.org/2000/svg">
<path d="M5.5 3C4.67157 3 4 3.67157 4 4.5C4 5.32843 4.67157 6 5.5 6C6.32843 6 7 5.32843 7 4.5C7 3.67157 6.32843 3 5.5 3Z" stroke="#141B34" stroke-width="1.5" stroke-linecap="round" stroke-linejoin="round"/>
<path d="M18.5 3C17.6716 3 17 3.67157 17 4.5C17 5.32843 17.6716 6 18.5 6C19.3284 6 20 5.32843 20 4.5C20 3.67157 19.3284 3 18.5 3Z" stroke="#141B34" stroke-width="1.5" stroke-linecap="round" stroke-linejoin="round"/>
<path d="M10 6H10.5" stroke="#141B34" stroke-width="1.5" stroke-linecap="round"/>
<path d="M13.5 6H14" stroke="#141B34" stroke-width="1.5" stroke-linecap="round"/>
<path d="M20.5 14V17C20.5 17.4647 20.5 17.697 20.4616 17.8902C20.3038 18.6836 19.6836 19.3038 18.8902 19.4616C18.697 19.5 18.4647 19.5 18 19.5M3.5 14V17C3.5 17.4647 3.5 17.697 3.53843 17.8902C3.69624 18.6836 4.31644 19.3038 5.10982 19.4616C5.30302 19.5 5.53534 19.5 6 19.5" stroke="#141B34" stroke-width="1.5" stroke-linecap="round" stroke-linejoin="round"/>
<path d="M10.5 17.0022C10.6502 17 10.8161 17 11 17H13C13.1839 17 13.3498 17 13.5 17.0022M10.5 17.0022C9.88011 17.0111 9.52866 17.0571 9.29289 17.2929C9 17.5858 9 18.0572 9 19C9 19.9428 9 20.4142 9.29289 20.7071C9.58579 21 10.0572 21 11 21H13C13.9428 21 14.4142 21 14.7071 20.7071C15 20.4142 15 19.9428 15 19C15 18.0572 15 17.5858 14.7071 17.2929C14.4713 17.0571 14.1199 17.0111 13.5 17.0022M10.5 17.0022V15.5C10.5 14.6716 11.1716 14 12 14C12.8284 14 13.5 14.6716 13.5 15.5V17.0022" stroke="#141B34" stroke-width="1.5" stroke-linecap="round"/>
<path d="M5.48286 11.5054H3.71278C3.5072 11.5054 3.30076 11.475 3.11195 11.3899C2.49731 11.1129 2.18546 10.747 2.04013 10.5182C1.95744 10.388 1.96922 10.2221 2.05894 10.0971C2.77105 9.10478 4.42211 8.50542 5.48286 8.50537M5.48589 11.5054H7.25597C7.46155 11.5054 7.66799 11.475 7.8568 11.3899C8.47144 11.1129 8.78329 10.747 8.92862 10.5182C9.01131 10.388 8.99953 10.2221 8.90981 10.0971C8.1977 9.10478 6.54664 8.50542 5.48589 8.50537" stroke="#141B34" stroke-width="1.5" stroke-linecap="round" stroke-linejoin="round"/>
<path d="M18.4829 11.5054H16.7128C16.5072 11.5054 16.3008 11.475 16.1119 11.3899C15.4973 11.1129 15.1855 10.747 15.0401 10.5182C14.9574 10.388 14.9692 10.2221 15.0589 10.0971C15.771 9.10478 17.4221 8.50542 18.4829 8.50537M18.4859 11.5054H20.256C20.4615 11.5054 20.668 11.475 20.8568 11.3899C21.4714 11.1129 21.7833 10.747 21.9286 10.5182C22.0113 10.388 21.9995 10.2221 21.9098 10.0971C21.1977 9.10478 19.5466 8.50542 18.4859 8.50537" stroke="#141B34" stroke-width="1.5" stroke-linecap="round" stroke-linejoin="round"/>
</svg>
