<svg width="24" height="24" viewBox="0 0 24 24" fill="none" xmlns="http://www.w3.org/2000/svg">
<path d="M12.0339 3.73512C11.735 3.58969 11.4456 3.51182 11.1423 3.50065C10.0481 3.46035 9.20025 4.30351 7.5045 5.98983C5.80874 7.67614 4.96086 8.5193 5.00139 9.60734C5.04191 10.6953 5.95501 11.6034 7.78121 13.4194L11.1017 16.7215C12.9279 18.5375 13.841 19.4455 14.9352 19.4858C16.0293 19.5261 16.8772 18.683 18.5729 16.9967C19.9404 15.6368 20.7565 14.8252 21 13.9914" stroke="#141B34" stroke-width="1.5" stroke-linecap="round"/>
<path d="M3 12.4924C3.11821 15.3644 4.97784 20.9838 11.3699 21.4657C11.7462 21.494 11.9344 21.5082 11.9883 21.3943C12.0423 21.2803 11.9063 21.1481 11.6344 20.8838L10.4137 19.6975" stroke="#141B34" stroke-width="1.5" stroke-linecap="round"/>
<path d="M15.7365 5.66655L15.7365 4.27558C15.7365 4.07012 15.7451 3.86211 15.8187 3.67025C16.0148 3.15954 16.5341 2.49048 17.4796 2.49048C18.4251 2.49048 18.9649 3.15954 19.1609 3.67025C19.2346 3.86211 19.2432 4.07012 19.2432 4.27558L19.2431 5.66655M15.806 11.492H19.194C20.1914 11.492 21 10.6851 21 9.68967V7.68743C21 6.69201 20.1914 5.88507 19.194 5.88507H15.806C14.8086 5.88507 14 6.69201 14 7.68743V9.68967C14 10.6851 14.8086 11.492 15.806 11.492Z" stroke="#141B34" stroke-width="1.5" stroke-linecap="round" stroke-linejoin="round"/>
</svg>
