<svg width="24" height="24" viewBox="0 0 24 24" fill="none" xmlns="http://www.w3.org/2000/svg">
<path d="M14.502 8C14.502 5.23858 12.2634 3 9.50195 3C6.74053 3 4.50195 5.23858 4.50195 8C4.50195 10.7614 6.74053 13 9.50195 13C12.2634 13 14.502 10.7614 14.502 8Z" stroke="#141B34" stroke-width="1.5" stroke-linecap="round" stroke-linejoin="round"/>
<path d="M16.2374 15.6747V14.2523C16.2374 13.2845 17.0219 12.5 17.9897 12.5C18.4668 12.5 18.8994 12.6907 19.2154 13M16.3069 21H19.6929C20.6898 21 21.4979 20.1934 21.4979 19.1984V17.6947C21.4979 16.6997 20.6898 15.8931 19.6929 15.8931H16.3069C15.3101 15.8931 14.502 16.6997 14.502 17.6947L14.502 19.1984C14.502 20.1934 15.3101 21 16.3069 21Z" stroke="#141B34" stroke-width="1.5" stroke-linecap="round" stroke-linejoin="round"/>
<path d="M2.50195 20C2.50195 16.134 5.63596 13 9.50195 13C10.9892 13 12.3681 13.4638 13.502 14.2547" stroke="#141B34" stroke-width="1.5" stroke-linecap="round" stroke-linejoin="round"/>
</svg>
