<svg width="24" height="24" viewBox="0 0 24 24" fill="none" xmlns="http://www.w3.org/2000/svg">
<path d="M14 13H21.5M14 13C14 13.7002 16 15 17 15.5M14 13C14 12.2998 16.1667 11 17 10.5" stroke="#141B34" stroke-width="1.5" stroke-linecap="round" stroke-linejoin="round"/>
<path d="M12.412 8.49976C12.412 6.37911 10.7417 3.88558 8 3.97705C7.27476 4.00125 6.47455 4.23318 5.61047 4.74179C4.2216 5.65952 2.42966 8.71063 4.59287 11.9116C5.64496 13.4685 6.61653 13.4998 9.5 13.4998H2M6.453 13.982C5.91468 15.4762 4.28524 18.8735 2.07404 19.9617H10.9598C11.3685 19.9617 12.5837 20.1739 13.979 18.8988" stroke="#141B34" stroke-width="1.5" stroke-linecap="round" stroke-linejoin="round"/>
</svg>
