<svg width="24" height="24" viewBox="0 0 24 24" fill="none" xmlns="http://www.w3.org/2000/svg">
<path d="M16.2514 21.9871C16.2817 20.1221 16.2145 20.5073 16.3671 20.0328C16.5197 19.5583 17.1102 18.7342 17.4755 17.6843C18.4982 14.7456 17.9539 13.5397 16.4397 12.6033C14.8443 11.6168 13.2337 11.2342 11.8225 11.3564V6.71947C11.8225 5.75756 11.2769 5.01514 10.3136 5.01514C9.35028 5.01514 8.86423 5.85278 8.86423 6.81468L8.9149 11.6502M8.89667 21.9871V21.3187C8.89667 20.5335 8.63893 20.1984 7.54886 18.6216C6.34724 16.8836 6.35227 16.8011 6.07701 16.0443C6.02828 15.691 5.7297 14.8663 6.83391 13.716L8.9149 11.6502M8.9149 15.1766V11.6502" stroke="#141B34" stroke-width="1.5" stroke-linecap="round" stroke-linejoin="round"/>
<path d="M6.49923 6.00904C6.43345 5.08907 6.99944 3.26912 8.55258 2.50815C9.19304 2.11865 10.951 1.51558 12.6323 2.59016C14.2894 3.64917 14.4011 5.21056 14.5054 5.99868" stroke="#141B34" stroke-width="1.5" stroke-linecap="round" stroke-linejoin="round"/>
</svg>
