<svg width="24" height="24" viewBox="0 0 24 24" fill="none" xmlns="http://www.w3.org/2000/svg">
<path d="M18.5 2V7.99766M18.5 2C17.7998 2 16.4915 3.99352 16 4.49902M18.5 2C19.2002 2 20.5085 3.99352 21 4.49902" stroke="#141B34" stroke-width="1.5" stroke-linecap="round" stroke-linejoin="round"/>
<path d="M16.8922 21.9843C16.8405 20.0711 16.9694 19.8407 17.1061 19.4151C17.2428 18.9895 18.1991 17.4546 18.5375 16.358C19.6323 12.8101 18.6119 12.0555 17.2516 11.0494C15.7431 9.93361 12.8978 9.36854 11.4867 9.49088V3.73966C11.4867 2.77672 10.7058 1.99609 9.74243 1.99609C8.77911 1.99609 7.99818 2.77672 7.99818 3.73966V13.9992L5.93801 11.8197C5.29839 11.1263 4.27048 11.056 3.56894 11.6868C2.90413 12.2846 2.80711 13.2913 3.34554 14.005L4.63789 15.7179M7.86883 21.9961L7.8493 20.9457C7.89224 19.7144 6.99624 18.911 5.82767 17.3048C5.74347 17.1891 5.66154 17.0772 5.58177 16.969M5.58177 16.969C5.22771 16.4885 4.91619 16.0792 4.63789 15.7179M5.58177 16.969L6.7512 18.519M5.58177 16.969L4.63789 15.7179M4.63789 15.7179C4.06651 14.9762 3.63519 14.4371 3.26336 13.9016" stroke="#141B34" stroke-width="1.5" stroke-linecap="round" stroke-linejoin="round"/>
</svg>
