<svg width="24" height="24" viewBox="0 0 24 24" fill="none" xmlns="http://www.w3.org/2000/svg">
<path d="M20.9708 4.49724H14.9805M20.9708 4.49724C20.9708 3.79778 18.9797 2.49099 18.4748 2M20.9708 4.49724C20.9708 5.1967 18.9797 6.5035 18.4748 6.99448" stroke="#141B34" stroke-width="1.5" stroke-linecap="round" stroke-linejoin="round"/>
<path d="M6.51009 14.4479V9.97806M6.51009 9.97806V4.45532C6.51009 3.63459 7.19448 2.97314 8.01575 2.97314C8.83702 2.97314 9.48417 3.63459 9.48417 4.45532V8.45679M6.51009 9.97806C5.19327 11.1706 3.77624 12.677 3.58542 13.0629C2.69753 14.4135 2.7906 15.0674 3.78009 16.7201C4.62051 18.1238 5.75077 19.6816 5.81674 19.7563C6.48827 20.5169 6.35475 20.517 7.32807 21.2311C8.19723 21.8339 10.0001 22.254 14.2265 21.8339C17.6696 21.3025 18.4945 18.2989 18.4766 16.8636V13.319C18.691 10.3729 17.4588 10.2399 15.2214 9.94997M9.48417 8.45679V10.9838M9.48417 8.45679C10.0425 7.54685 12.0704 7.91458 12.4657 9.63288M12.5014 10.9798V9.97806C12.5014 9.89908 12.4974 9.81986 12.4863 9.74173M12.4657 9.63288C12.4673 9.64011 12.469 9.64736 12.4706 9.65464C12.4769 9.68347 12.4821 9.71252 12.4863 9.74173M12.4657 9.63288C12.4698 9.66789 12.4766 9.70418 12.4863 9.74173M12.4657 9.63288C12.3253 8.43522 15.3621 8.72718 15.4857 10.8334V11.9782" stroke="#141B34" stroke-width="1.5" stroke-linecap="round"/>
</svg>
