<svg width="24" height="24" viewBox="0 0 24 24" fill="none" xmlns="http://www.w3.org/2000/svg">
<path d="M14.5 13.5C14.5 14.8807 13.3807 16 12 16C10.6193 16 9.5 14.8807 9.5 13.5C9.5 12.1193 10.6193 11 12 11C13.3807 11 14.5 12.1193 14.5 13.5Z" stroke="#141B34" stroke-width="1.5" stroke-linecap="round" stroke-linejoin="round"/>
<path d="M17.5 6.55078C19.1831 6.66353 20.3941 6.94909 21.1329 7.17807C21.6756 7.34626 22 7.86063 22 8.42879V18.1841C22 19.2991 20.7719 20.1382 19.6762 19.9313C18.7361 19.7538 17.5107 19.6111 16 19.6111C11.2491 19.6111 10.1096 21.4168 3.1448 19.881C2.47265 19.7327 2 19.1283 2 18.44V8.42291C2 7.44705 2.92079 6.73541 3.87798 6.92535C4.86572 7.12135 5.72897 7.24572 6.5 7.31607" stroke="#141B34" stroke-width="1.5" stroke-linecap="round" stroke-linejoin="round"/>
<path d="M2 10.5C3.95133 10.5 5.70483 8.90507 5.92901 7.25417M18.5005 7C18.5005 9.03964 20.2655 10.969 22 10.969M22 16.5C20.1009 16.5 18.2601 17.8102 18.102 19.5983M6.00049 19.9961C6.00049 17.787 4.20963 15.9961 2.00049 15.9961" stroke="#141B34" stroke-width="1.5" stroke-linecap="round" stroke-linejoin="round"/>
<path d="M12 7.5V3.5M15 7.5V5.5M9 7.5V5.5" stroke="#141B34" stroke-width="1.5" stroke-linecap="round" stroke-linejoin="round"/>
</svg>
