<svg width="24" height="24" viewBox="0 0 24 24" fill="none" xmlns="http://www.w3.org/2000/svg">
<path d="M14.5 14C14.5 15.3807 13.3807 16.5 12 16.5C10.6193 16.5 9.5 15.3807 9.5 14C9.5 12.6193 10.6193 11.5 12 11.5C13.3807 11.5 14.5 12.6193 14.5 14Z" stroke="#141B34" stroke-width="1.5" stroke-linecap="round" stroke-linejoin="round"/>
<path d="M8 7.88679C6.88069 7.88149 5.55979 7.75542 3.87798 7.42169C2.92079 7.23174 2 7.94339 2 8.91924V18.9363C2 19.6246 2.47265 20.2291 3.1448 20.3773C10.1096 21.9132 11.2491 20.1075 16 20.1075C17.5107 20.1075 18.7361 20.2501 19.6762 20.4276C20.7719 20.6345 22 19.7955 22 18.6804V8.9056C22 8.33744 21.6756 7.82306 21.1329 7.65487C20.3228 7.40382 18.9452 7.08474 17 7" stroke="#141B34" stroke-width="1.5" stroke-linecap="round" stroke-linejoin="round"/>
<path d="M2 11C3.95133 11 5.70483 9.40507 5.92901 7.75417M18.5005 7.5C18.5005 9.53964 20.2655 11.469 22 11.469M22 17C20.1009 17 18.2601 18.3102 18.102 20.0983M6.00049 20.4961C6.00049 18.287 4.20963 16.4961 2.00049 16.4961" stroke="#141B34" stroke-width="1.5" stroke-linecap="round" stroke-linejoin="round"/>
<path d="M9.5 5.5C9.5 5.5 11.2998 3 12 3M14.5 5.5C14.5 5.5 12.7002 3 12 3M12 3L12 8.5" stroke="#141B34" stroke-width="1.5" stroke-linecap="round" stroke-linejoin="round"/>
</svg>
